<svg width="189" height="23" viewBox="0 0 189 23" fill="none" xmlns="http://www.w3.org/2000/svg">
<path d="M11.0638 11.3965C14.3867 11.5944 16.0481 13.3027 16.0481 16.5215C16.0481 17.209 15.9804 17.8444 15.845 18.4277C15.7096 19.0111 15.4648 19.5788 15.1106 20.1309C14.7669 20.6725 14.3242 21.1309 13.7825 21.5059C13.2408 21.8809 12.5377 22.1829 11.6731 22.4121C10.819 22.6413 9.83458 22.7559 8.72 22.7559H0.266876V0.990234H8.72C9.89708 0.990234 10.9231 1.13607 11.7981 1.42773C12.6835 1.70898 13.3815 2.10482 13.8919 2.61523C14.4023 3.11523 14.7825 3.67773 15.0325 4.30273C15.2825 4.91732 15.4075 5.58398 15.4075 6.30273C15.4075 6.88607 15.3294 7.43294 15.1731 7.94336C15.0169 8.44336 14.7721 8.91211 14.4388 9.34961C14.1158 9.77669 13.6627 10.1257 13.0794 10.3965C12.5065 10.6673 11.8346 10.8288 11.0638 10.8809V11.3965ZM4.43875 5.16211V9.16211H8.56375C9.54292 9.16211 10.2356 9.01628 10.6419 8.72461C11.0481 8.42253 11.2513 7.89648 11.2513 7.14648C11.2513 6.4069 11.0481 5.89128 10.6419 5.59961C10.2356 5.30794 9.54292 5.16211 8.56375 5.16211H4.43875ZM8.72 18.2715C9.88667 18.2715 10.7044 18.0996 11.1731 17.7559C11.6523 17.4121 11.8919 16.7559 11.8919 15.7871C11.8919 14.8288 11.6523 14.1777 11.1731 13.834C10.694 13.4902 9.87625 13.3184 8.72 13.3184H4.43875V18.2715H8.72ZM23.8838 18.5996H32.1338V22.7559H19.7119V0.990234H23.8838V18.5996ZM50.0163 21.3027C48.3913 22.2715 46.4954 22.7559 44.3288 22.7559C42.1621 22.7559 40.2663 22.2715 38.6413 21.3027C37.0163 20.3236 35.7871 19.0215 34.9538 17.3965C34.1204 15.7611 33.7038 13.9225 33.7038 11.8809C33.7038 10.36 33.9485 8.93815 34.4381 7.61523C34.9277 6.29232 35.6152 5.14128 36.5006 4.16211C37.3965 3.17253 38.5163 2.39648 39.86 1.83398C41.2142 1.27148 42.7038 0.990234 44.3288 0.990234C45.9538 0.990234 47.4381 1.27148 48.7819 1.83398C50.136 2.39648 51.2558 3.17253 52.1413 4.16211C53.0371 5.14128 53.7298 6.29232 54.2194 7.61523C54.709 8.93815 54.9538 10.36 54.9538 11.8809C54.9538 13.9225 54.5371 15.7611 53.7038 17.3965C52.8704 19.0215 51.6413 20.3236 50.0163 21.3027ZM44.3288 18.5996C48.6413 18.5996 50.7975 16.36 50.7975 11.8809C50.7975 7.40169 48.6413 5.16211 44.3288 5.16211C40.0267 5.16211 37.8756 7.40169 37.8756 11.8809C37.8756 16.36 40.0267 18.5996 44.3288 18.5996ZM57.8206 15.1152C57.6019 14.084 57.4925 13.0059 57.4925 11.8809C57.4925 10.7559 57.6019 9.68294 57.8206 8.66211C58.0394 7.63086 58.3988 6.64648 58.8988 5.70898C59.3988 4.76107 60.0185 3.94336 60.7581 3.25586C61.5081 2.56836 62.4404 2.02148 63.555 1.61523C64.68 1.19857 65.9352 0.990234 67.3206 0.990234C68.7998 0.990234 70.1331 1.21419 71.3206 1.66211C72.5081 2.09961 73.4769 2.70378 74.2269 3.47461C74.9769 4.23503 75.555 5.11003 75.9613 6.09961C76.3779 7.07878 76.6123 8.14128 76.6644 9.28711H72.5081C72.2269 7.75586 71.7217 6.68815 70.9925 6.08398C70.2738 5.4694 69.0498 5.16211 67.3206 5.16211C66.3206 5.16211 65.4821 5.26628 64.805 5.47461C64.1383 5.67253 63.5602 6.02669 63.0706 6.53711C62.581 7.03711 62.2217 7.72461 61.9925 8.59961C61.7738 9.47461 61.6644 10.5684 61.6644 11.8809C61.6644 13.1934 61.7738 14.2871 61.9925 15.1621C62.2217 16.0371 62.581 16.7298 63.0706 17.2402C63.5602 17.7402 64.1383 18.0944 64.805 18.3027C65.4821 18.5007 66.3206 18.5996 67.3206 18.5996C69.0498 18.5996 70.2738 18.2975 70.9925 17.6934C71.7217 17.0788 72.2269 16.0059 72.5081 14.4746H76.6644C76.6123 15.6204 76.3779 16.6882 75.9613 17.6777C75.555 18.6569 74.9769 19.5319 74.2269 20.3027C73.4769 21.0632 72.5081 21.6621 71.3206 22.0996C70.1331 22.5371 68.7998 22.7559 67.3206 22.7559C65.9352 22.7559 64.68 22.5527 63.555 22.1465C62.4404 21.7402 61.5081 21.1934 60.7581 20.5059C60.0185 19.8079 59.3988 18.9902 58.8988 18.0527C58.3988 17.1152 58.0394 16.1361 57.8206 15.1152ZM97.9375 0.990234L90.6094 11.8809L97.9375 22.7559H92.9531L87.0625 13.959H84.3438V22.7559H80.1719V0.990234H84.3438V9.80273H87.0625L92.9531 0.990234H97.9375ZM121.414 0.990234H125.57V22.7559H121.414V10.9434H120.898L115.648 21.1309H111.039L105.789 10.9434H105.289V22.7559H101.117V0.990234H105.289L113.086 16.1309H113.601L121.414 0.990234ZM144.077 22.7559L142.827 18.5996H134.468L133.234 22.7559H128.781L135.437 0.990234H141.874L148.484 22.7559H144.077ZM135.718 14.4434H141.577L138.89 5.56836H138.374L135.718 14.4434ZM158.163 11.2715H169.741V22.7559H165.585V19.709H165.069C164.132 21.7402 162.2 22.7559 159.273 22.7559C157.731 22.7559 156.356 22.4694 155.148 21.8965C153.939 21.3236 152.96 20.5371 152.21 19.5371C151.46 18.5267 150.892 17.3757 150.507 16.084C150.121 14.7923 149.929 13.3913 149.929 11.8809C149.929 10.6725 150.049 9.53711 150.288 8.47461C150.528 7.40169 150.908 6.4069 151.429 5.49023C151.96 4.57357 152.606 3.7819 153.366 3.11523C154.137 2.44857 155.075 1.92773 156.179 1.55273C157.283 1.17773 158.507 0.990234 159.851 0.990234C162.476 0.990234 164.606 1.67773 166.241 3.05273C167.887 4.42773 168.788 6.18294 168.944 8.31836H164.819C164.601 7.27669 164.095 6.49023 163.304 5.95898C162.523 5.42773 161.371 5.16211 159.851 5.16211C158.496 5.16211 157.413 5.36523 156.601 5.77148C155.788 6.16732 155.168 6.86003 154.741 7.84961C154.314 8.83919 154.101 10.1829 154.101 11.8809C154.101 13.1621 154.22 14.2402 154.46 15.1152C154.71 15.9798 155.101 16.6673 155.632 17.1777C156.163 17.6882 156.799 18.0527 157.538 18.2715C158.278 18.4902 159.179 18.5996 160.241 18.5996C163.345 18.5996 165.127 17.3288 165.585 14.7871H158.163V11.2715ZM188.046 5.16211H177.546V9.63086H185.811V13.8027H177.546V18.5996H188.046V22.7559H173.702V0.990234H188.046V5.16211Z" fill="white"/>
</svg>
