<svg width="73" height="77" viewBox="0 0 73 77" fill="none" xmlns="http://www.w3.org/2000/svg">
<path d="M47.2044 63.3102L36.394 52.5732L25.5835 63.3102H12.1155V49.9425L22.9348 39.1967L12.1176 28.453L12.0123 15.0832H25.5747L36.394 25.829L47.2135 15.0831L60.7509 15.0925L60.6708 28.4612L49.8617 39.2053L60.6724 49.9425V63.3102H47.2044ZM53.4384 55.9119V52.7027L44.743 44.0664L41.5042 47.2764L50.2069 55.9119H53.4384ZM22.5809 55.9119L31.2837 47.2764L28.0449 44.0664L19.3495 52.7027V55.9119H22.5809ZM36.394 42.4138L39.6262 39.1967L36.394 35.9796L33.1617 39.1967L36.394 42.4138ZM44.743 34.1136L53.4384 25.4773V22.2681H50.2069L41.5042 30.9036L44.743 34.1136ZM28.0532 34.1131L31.2842 30.9041L22.5809 22.2681H19.3509L19.3577 25.4767L28.0532 34.1131Z" fill="white"/>
<path d="M47.488 15.7429L60.0826 15.7516L60.0081 28.1864L48.9225 39.2055L60.0081 50.2157V62.6505H47.4792L36.3936 51.6404L25.3082 62.6505H12.7793V50.2157L23.8737 39.1967L12.7793 28.1777L12.6814 15.7429H25.2992L36.3936 26.7619L47.488 15.7429ZM44.7432 35.0458L54.1022 25.7506V21.6084H49.9319L40.5641 30.9038L44.7432 35.0458ZM28.053 35.0458L32.2233 30.9038L22.8555 21.6084H18.6852L18.694 25.7506L28.053 35.0458ZM36.3936 43.3476L40.5641 39.1967L36.3936 35.0458L32.2233 39.1967L36.3936 43.3476ZM49.9319 56.5714H54.1022V52.4295L44.7432 43.1341L40.5641 47.276L49.9319 56.5714ZM18.6852 56.5714H22.8555L32.2233 47.276L28.044 43.1341L18.6852 52.4295V56.5714ZM46.9383 14.4233L36.3936 24.8962L25.8494 14.4237H11.3428L11.4555 28.7283L21.9953 39.1967L11.4511 49.6692V63.9697H25.8584L36.3936 53.5061L46.929 63.9697H61.3363V49.6692L50.8005 39.205L61.333 28.7358L61.4186 14.4335L46.9383 14.4233ZM50.4816 22.9276H52.774V25.2041L44.7421 33.1812L42.4438 30.9033L50.4816 22.9276ZM20.0162 22.9276H22.3058L30.3445 30.9042L28.053 33.1801L20.0211 25.2029L20.0162 22.9276ZM34.0996 39.1967L36.3936 36.9133L38.6878 39.1967L36.3936 41.4801L34.0996 39.1967ZM20.0134 52.976L28.0451 44.9987L30.3436 47.2766L22.3058 55.2523H20.0134V52.976ZM42.4438 47.2766L44.7421 44.9987L52.774 52.976V55.2523H50.4816L42.4438 47.2766Z" fill="#191825"/>
<path d="M57.3872 36.513C57.2834 35.5263 56.3932 30.1349 49.0663 24.5914C44.646 21.247 40.1677 20.3681 36.381 20.4491C32.5943 20.3681 28.116 21.247 23.6957 24.5914C16.3679 30.1356 15.4784 35.5276 15.3747 36.5133C15.1887 37.3463 15.1324 38.2203 15.1742 39.1138C15.0861 41.9774 15.4857 44.7836 16.7283 47.4763C17.7002 49.5775 17.9918 51.7844 17.4528 54.2022C17.3137 54.822 17.3297 55.5287 17.432 56.24C17.7692 58.5849 18.9984 60.7125 20.7447 62.3222L36.381 76.1177L52.0173 62.3222C53.7635 60.7125 54.9928 58.5849 55.33 56.24C55.4323 55.5287 55.4483 54.822 55.3092 54.2022C54.7703 51.7844 55.0618 49.5775 56.0337 47.4763C57.2761 44.7838 57.6757 41.9777 57.5878 39.1144C57.6296 38.2206 57.5734 37.3462 57.3872 36.513Z" fill="white" stroke="#191825" stroke-width="1.09641" stroke-miterlimit="500" stroke-linecap="square"/>
<path d="M21.7989 38.0347C21.0353 38.0346 20.237 37.8606 19.4259 37.5174L19.4186 37.5144C19.1177 37.3913 18.8316 37.2536 18.5287 37.1078C16.4344 36.0802 14.8477 35.2085 13.4196 34.0442C11.9157 32.8181 10.6923 31.3467 9.45279 29.2736C8.05792 26.9414 7.64717 23.7462 7.17149 20.0466C6.49755 14.8042 5.67018 8.36767 1.75929 1.24012L4.25201 2.14523C5.95224 2.75628 7.40622 3.77114 8.4588 5.08086C9.48139 6.35072 9.97102 7.60387 10.538 9.05485L10.5676 9.13043C11.1028 10.4977 11.2547 11.1291 11.6216 12.6545C11.7954 13.3772 12.0118 14.2767 12.336 15.5351C13.0078 18.1626 14.5286 19.994 16.4468 22.115C17.9557 23.7763 22.0572 26.0877 23.9297 26.9152C25.2261 27.4856 26.1865 28.4224 26.7083 29.6246C27.1796 30.7103 27.2892 32.0112 27.0171 33.2876C26.7402 34.5869 26.0947 35.7756 25.1994 36.6346C24.2449 37.5505 23.0692 38.0347 21.7999 38.0347H21.7989Z" fill="white"/>
<path d="M3.13601 2.44218L4.0239 2.76457L4.02806 2.76595C5.61092 3.33498 6.96357 4.27762 7.94057 5.49333C8.8992 6.68355 9.37175 7.89307 9.91902 9.29351L9.94866 9.36944C10.4673 10.6945 10.6161 11.3131 10.9756 12.8077C11.1499 13.5321 11.3668 14.4339 11.692 15.6961C12.0231 16.991 12.585 18.2144 13.4096 19.4364C14.164 20.5541 15.0797 21.5901 15.9526 22.5556L15.9546 22.5577C16.8506 23.544 18.4641 24.6291 19.6603 25.3656C21.0238 26.2055 22.5562 27.03 23.6598 27.5176L23.6615 27.5185C26.2945 28.677 26.7858 31.1871 26.3677 33.1499C26.1179 34.3218 25.5393 35.3907 24.738 36.1596C24.1603 36.714 23.1813 37.375 21.7987 37.375C21.1254 37.375 20.4147 37.2188 19.6863 36.9105L19.6717 36.9044C19.3913 36.7898 19.1159 36.6574 18.8247 36.5173C16.77 35.5091 15.2197 34.6583 13.8409 33.5343C12.3993 32.3589 11.2221 30.9409 10.0235 28.9365C9.4274 27.9398 8.98449 26.721 8.62947 25.101C8.29386 23.5702 8.06868 21.818 7.83015 19.963C7.19696 15.0371 6.42966 9.06797 3.13601 2.44218ZM0.27832 0C8.05741 12.8365 5.26422 23.5618 8.88169 29.6102C11.5307 34.0405 14.0917 35.6662 18.2372 37.7004C18.5415 37.8467 18.8455 37.9931 19.1657 38.1241C20.0958 38.5176 20.9788 38.6941 21.7988 38.6941C27.8508 38.6941 30.5218 29.0945 24.1996 26.3124C22.2468 25.4495 18.3333 23.2073 16.9407 21.6741C15.1081 19.6476 13.6195 17.8754 12.9792 15.3714C11.9628 11.4266 11.9949 10.9565 11.1866 8.89149C10.6024 7.39687 10.0821 6.04067 8.97772 4.66931C7.8012 3.20533 6.2166 2.14974 4.47998 1.52562L0.27832 0Z" fill="#191825"/>
<path d="M50.437 38.5612C49.182 38.5612 48.019 38.0796 47.0737 37.1685C46.1863 36.3134 45.5445 35.1288 45.2667 33.8331C44.9921 32.5531 45.0983 31.2478 45.5656 30.1577C46.0827 28.9516 47.0367 28.0124 48.3246 27.4414C50.1846 26.6133 54.2568 24.3012 55.7538 22.6407C57.6587 20.5188 59.1682 18.6876 59.8352 16.0594C60.1567 14.8022 60.3714 13.9029 60.5439 13.1803C60.9082 11.6544 61.059 11.0229 61.5903 9.65576L61.6196 9.58017C62.1824 8.12894 62.6686 6.87553 63.6834 5.60602C64.7282 4.2963 66.1706 3.28186 67.8552 2.67194L70.3227 1.76932C66.4416 8.89585 65.6201 15.332 64.9512 20.5738C64.4791 24.2739 64.0713 27.4693 62.6866 29.8019C61.4561 31.875 60.2418 33.3462 58.7492 34.5723C57.3321 35.7363 55.7575 36.6078 53.6762 37.6366L53.6808 37.6344L53.6775 37.636C53.3775 37.7814 53.094 37.9188 52.7961 38.0415L52.7888 38.0446C51.9847 38.3874 51.193 38.5612 50.437 38.5612Z" fill="white"/>
<path d="M68.9506 2.97429C65.6823 9.59873 64.9209 15.5661 64.2924 20.4913C64.0558 22.3464 63.8322 24.0988 63.499 25.6299C63.1466 27.2506 62.7066 28.4699 62.1146 29.4671C60.9251 31.4714 59.7567 32.889 58.3262 34.0641C56.9587 35.1875 55.4207 36.0376 53.3827 37.0452C53.0933 37.1855 52.82 37.3179 52.5415 37.4327L52.527 37.4387C51.806 37.746 51.1029 37.9018 50.4372 37.9018C49.0744 37.9018 48.1074 37.2459 47.5364 36.6956C46.7425 35.9305 46.1671 34.8652 45.9163 33.6962C45.4935 31.7253 45.9752 29.2054 48.5954 28.0438L48.5973 28.0429C49.693 27.5551 51.2147 26.7303 52.5688 25.8902C53.7564 25.1533 55.3586 24.068 56.2486 23.0809L56.2505 23.0788C57.1171 22.1133 58.026 21.0772 58.7749 19.9594C59.5928 18.7385 60.1501 17.5164 60.4787 16.2229C60.8018 14.9597 61.0172 14.0575 61.1903 13.3327C61.5473 11.8377 61.6949 11.2188 62.2101 9.89268L62.2393 9.81761C62.7825 8.41682 63.2518 7.20697 64.2045 6.01536C65.1724 4.80172 66.5134 3.85994 68.0827 3.29177L68.0869 3.29022L68.9506 2.97429ZM71.7985 0.526855L67.6279 2.05247C65.9041 2.6766 64.3311 3.73219 63.1634 5.19617C62.0671 6.56752 61.5507 7.92372 60.9709 9.41835C60.1686 11.4834 60.2003 11.9534 59.1914 15.8982C58.5559 18.4023 57.0783 20.1745 55.2591 22.2009C53.8769 23.7341 49.9924 25.9763 48.054 26.8393C41.779 29.6211 44.4307 39.221 50.4372 39.221C51.2515 39.221 52.1271 39.0447 53.0508 38.651C53.3686 38.5199 53.6704 38.3736 53.9722 38.2272C58.0872 36.193 60.6294 34.5674 63.2587 30.137C66.8493 24.0886 64.077 13.3633 71.7985 0.526855Z" fill="#191825"/>
<path d="M36.8403 52.5583H35.9227C35.0663 54.2019 33.5195 57.5325 33.5195 57.5325L36.3762 60.2089C36.3792 60.2117 36.3839 60.2117 36.3869 60.2089L39.2435 57.5325C39.2435 57.5325 37.6967 54.2019 36.8403 52.5583Z" fill="#191825"/>
<path d="M65.7837 56.048V68.4917H53.2638L59.1696 74.3574H71.6895V61.9137L65.7837 56.048Z" fill="white"/>
<path d="M65.7837 56.048L71.6895 61.9137V74.3574H59.1696L53.2638 68.4917H65.7837V56.048ZM64.4729 52.906V67.1904H50.0996L58.6266 75.6594H72.9998V61.375L64.4729 52.906Z" fill="#191825"/>
<path d="M7.21653 56.0481V68.4917H19.7365L13.8307 74.3574H1.31073V61.9137L7.21653 56.0481Z" fill="white"/>
<path d="M7.21653 56.0481V68.4917H19.7365L13.8307 74.3574H1.31073V61.9137L7.21653 56.0481ZM8.52697 52.906L0 61.375V75.6594H14.3733L22.9002 67.1904H8.52697V52.906Z" fill="#191825"/>
<path d="M28.568 45.188C27.4635 44.1961 25.2592 44.024 23.3973 44.0252C22.8274 44.0255 22.2895 44.0421 21.8251 44.0564C21.6776 44.0607 21.5369 44.065 21.4045 44.0684L21.3941 44.3578C21.1806 50.1816 21.1452 51.1484 26.8851 54.5433C27.3661 54.157 27.8239 53.7998 28.2527 53.4667C30.2372 51.9203 31.5483 50.8986 31.6087 49.7017C31.6621 48.6388 30.7247 47.247 28.568 45.188Z" fill="url(#paint0_linear_265_9313)"/>
<path d="M51.371 44.3538L51.3607 44.0679C51.2123 44.0645 51.0535 44.0602 50.887 44.055C50.4255 44.0422 49.8918 44.027 49.3265 44.0278C47.4797 44.0306 45.2956 44.2047 44.1924 45.1901C42.0414 47.2482 41.1061 48.64 41.1604 49.7046C41.2217 50.905 42.5375 51.9293 44.5298 53.4799C44.9534 53.8096 45.4055 54.1607 45.88 54.5411C51.6195 51.1462 51.5842 50.1786 51.371 44.3538Z" fill="url(#paint1_linear_265_9313)"/>
<path d="M28.568 45.188C27.4635 44.1961 25.2592 44.024 23.3973 44.0252C22.8274 44.0255 22.2895 44.0421 21.8251 44.0564C21.6776 44.0607 21.5369 44.065 21.4045 44.0684L21.3941 44.3578C21.1806 50.1816 21.1452 51.1484 26.8851 54.5433C27.3661 54.157 27.8239 53.7998 28.2527 53.4667C30.2372 51.9203 31.5483 50.8986 31.6087 49.7017C31.6621 48.6388 30.7247 47.247 28.568 45.188Z" fill="#191825"/>
<path d="M51.371 44.3538L51.3607 44.0679C51.2123 44.0645 51.0535 44.0602 50.887 44.055C50.4255 44.0422 49.8918 44.027 49.3265 44.0278C47.4797 44.0306 45.2956 44.2047 44.1924 45.1901C42.0414 47.2482 41.1061 48.64 41.1604 49.7046C41.2217 50.905 42.5375 51.9293 44.5298 53.4799C44.9534 53.8096 45.4055 54.1607 45.88 54.5411C51.6195 51.1462 51.5842 50.1786 51.371 44.3538Z" fill="#191825"/>
<defs>
<linearGradient id="paint0_linear_265_9313" x1="36.3825" y1="44.0251" x2="36.3825" y2="54.5433" gradientUnits="userSpaceOnUse">
<stop stop-color="#18DB73"/>
<stop offset="0.533503" stop-color="#00BA79"/>
<stop offset="0.998781" stop-color="#00BA79"/>
</linearGradient>
<linearGradient id="paint1_linear_265_9313" x1="36.3825" y1="44.0251" x2="36.3825" y2="54.5433" gradientUnits="userSpaceOnUse">
<stop stop-color="#18DB73"/>
<stop offset="0.533503" stop-color="#00BA79"/>
<stop offset="0.998781" stop-color="#00BA79"/>
</linearGradient>
</defs>
</svg>
