<svg width="69" height="69" viewBox="0 0 69 69" fill="none" xmlns="http://www.w3.org/2000/svg">
<g filter="url(#filter0_d_324_20102)">
<path d="M16.8479 43.312L37.2609 31.9036L37.3525 31.8524L37.3524 31.7475L37.3355 8.47504L57.0367 20.2173L56.6685 43.5056L36.4161 54.9421L16.8479 43.312Z" fill="#3C3B4A" stroke="#191825" stroke-width="0.357362"/>
<path d="M27.0713 37.4326L37.025 31.8226L37.1155 31.7717L37.116 31.6678L37.1684 20.3347L46.6643 25.9721L46.4235 37.3669L36.5027 43.0158L27.0713 37.4326Z" fill="#0A52B0" stroke="#191825" stroke-width="0.357362"/>
<path d="M16.6709 43.0018L16.7885 19.9392L36.9786 8.46733L36.9955 31.6429L16.6709 43.0018Z" fill="#302F3B" stroke="#191825" stroke-width="0.357362"/>
<path d="M26.9443 37.1668L27.0095 26.1062L36.9976 20.3881L36.9953 31.6419L26.9443 37.1668Z" fill="#009BFF" stroke="#191825" stroke-width="0.357362"/>
<line x1="36.8997" y1="31.7531" x2="56.4348" y2="43.5014" stroke="#191825" stroke-width="0.357362"/>
</g>
<defs>
<filter id="filter0_d_324_20102" x="0.887271" y="3.19582" width="59.1664" height="65.4281" filterUnits="userSpaceOnUse" color-interpolation-filters="sRGB">
<feFlood flood-opacity="0" result="BackgroundImageFix"/>
<feColorMatrix in="SourceAlpha" type="matrix" values="0 0 0 0 0 0 0 0 0 0 0 0 0 0 0 0 0 0 127 0" result="hardAlpha"/>
<feOffset dx="-6.38303" dy="4.25535"/>
<feGaussianBlur stdDeviation="4.60997"/>
<feComposite in2="hardAlpha" operator="out"/>
<feColorMatrix type="matrix" values="0 0 0 0 0 0 0 0 0 0 0 0 0 0 0 0 0 0 0.3 0"/>
<feBlend mode="normal" in2="BackgroundImageFix" result="effect1_dropShadow_324_20102"/>
<feBlend mode="normal" in="SourceGraphic" in2="effect1_dropShadow_324_20102" result="shape"/>
</filter>
</defs>
</svg>
