<svg width="96" height="99" viewBox="0 0 96 99" fill="none" xmlns="http://www.w3.org/2000/svg">
<g filter="url(#filter0_d_321_10219)">
<path d="M24.3453 31.3L57.6758 43.9334L57.8254 43.9901L57.9477 43.8871L85.0888 21.0456L90.7059 55.5507L63.1687 77.9584L29.9627 65.5399L24.3453 31.3Z" fill="#3C3B4A" stroke="#191825" stroke-width="0.544715"/>
<path d="M41.2316 37.4652L57.539 43.5794L57.6872 43.6349L57.8089 43.5337L71.0854 32.4813L73.8188 49.0906L60.2857 59.9837L43.9651 53.9461L41.2316 37.4652Z" fill="#1AB2E2" stroke="#191825" stroke-width="0.544715"/>
<path d="M24.5332 30.7889L51.5611 8.31016L84.7473 20.6212L57.7193 43.3675L24.5332 30.7889Z" fill="#302F3B" stroke="#191825" stroke-width="0.544715"/>
<path d="M41.4164 37.0556L54.3875 26.2853L70.8549 32.3335L57.7201 43.3667L41.4164 37.0556Z" fill="#1AB2E2" stroke="#191825" stroke-width="0.544715"/>
<line x1="57.4965" y1="43.3638" x2="62.9437" y2="77.6809" stroke="#191825" stroke-width="0.544715"/>
</g>
<defs>
<filter id="filter0_d_321_10219" x="0.216886" y="0.432645" width="95.1073" height="98.3754" filterUnits="userSpaceOnUse" color-interpolation-filters="sRGB">
<feFlood flood-opacity="0" result="BackgroundImageFix"/>
<feColorMatrix in="SourceAlpha" type="matrix" values="0 0 0 0 0 0 0 0 0 0 0 0 0 0 0 0 0 0 127 0" result="hardAlpha"/>
<feOffset dx="-9.72946" dy="6.4863"/>
<feGaussianBlur stdDeviation="7.02683"/>
<feComposite in2="hardAlpha" operator="out"/>
<feColorMatrix type="matrix" values="0 0 0 0 0 0 0 0 0 0 0 0 0 0 0 0 0 0 0.3 0"/>
<feBlend mode="normal" in2="BackgroundImageFix" result="effect1_dropShadow_321_10219"/>
<feBlend mode="normal" in="SourceGraphic" in2="effect1_dropShadow_321_10219" result="shape"/>
</filter>
</defs>
</svg>
