<svg width="93" height="89" viewBox="0 0 93 89" fill="none" xmlns="http://www.w3.org/2000/svg">
<g filter="url(#filter0_d_324_20126)">
<path d="M16.6775 49.5555L49.4424 44.2451L49.546 44.2283L49.5818 44.1296L60.8547 13.0766L81.4647 38.3372L69.6865 69.1823L37.1638 74.6012L16.6775 49.5555Z" fill="#3C3B4A" stroke="#191825" stroke-width="0.357362"/>
<path d="M16.6166 49.2036L27.981 18.4578L60.5214 12.9474L49.2816 43.9093L16.6166 49.2036Z" fill="#302F3B" stroke="#191825" stroke-width="0.357362"/>
<path d="M32.7695 46.5608L49.1387 43.8473L54.8402 28.4001L65.1051 40.9369L59.1713 56.2319L42.9725 58.9901L32.7695 46.5608Z" fill="#0A52B0"/>
<path d="M38.4493 31.4347L55.0578 28.5667L49.414 44.0686L32.8155 46.6392L38.4493 31.4347Z" fill="#009BFF"/>
<path d="M38.5811 31.5933L54.4848 28.847L49.007 43.688L33.124 46.3209L38.5811 31.5933ZM43.0448 58.7966L33.1686 46.7654L49.4414 44.2452L49.5458 44.2291L49.5819 44.1298L55.0934 28.9914L64.9008 40.9694L59.0414 56.0727L43.0448 58.7966Z" stroke="#191825" stroke-width="0.357362"/>
<line x1="48.9895" y1="43.9901" x2="69.2664" y2="69.0443" stroke="#191825" stroke-width="0.357362"/>
</g>
<defs>
<filter id="filter0_d_324_20126" x="0.73981" y="7.75515" width="83.766" height="80.5146" filterUnits="userSpaceOnUse" color-interpolation-filters="sRGB">
<feFlood flood-opacity="0" result="BackgroundImageFix"/>
<feColorMatrix in="SourceAlpha" type="matrix" values="0 0 0 0 0 0 0 0 0 0 0 0 0 0 0 0 0 0 127 0" result="hardAlpha"/>
<feOffset dx="-6.38303" dy="4.25535"/>
<feGaussianBlur stdDeviation="4.60997"/>
<feComposite in2="hardAlpha" operator="out"/>
<feColorMatrix type="matrix" values="0 0 0 0 0 0 0 0 0 0 0 0 0 0 0 0 0 0 0.3 0"/>
<feBlend mode="normal" in2="BackgroundImageFix" result="effect1_dropShadow_324_20126"/>
<feBlend mode="normal" in="SourceGraphic" in2="effect1_dropShadow_324_20126" result="shape"/>
</filter>
</defs>
</svg>
