<svg width="69" height="65" viewBox="0 0 69 65" fill="none" xmlns="http://www.w3.org/2000/svg">
<g filter="url(#filter0_d_324_20120)">
<path d="M16.2614 31.3535L39.6225 30.3048L39.7273 30.3001L39.7742 30.2062L50.1903 9.39487L62.5386 28.722L51.7712 49.375L28.541 50.5208L16.2614 31.3535Z" fill="#3C3B4A" stroke="#191825" stroke-width="0.357362"/>
<circle cx="38.9845" cy="29.8849" r="9.5" transform="rotate(-31.1957 38.9845 29.8849)" fill="#1AB2E2"/>
<path d="M16.2417 30.9967L26.6839 10.4332L49.8743 9.22778L39.5017 29.9525L16.2417 30.9967Z" fill="#302F3B" stroke="#191825" stroke-width="0.357362"/>
<path d="M29.4879 30.1422C29.4426 28.4722 29.8386 26.8197 30.6358 25.3515C31.433 23.8833 32.6034 22.6514 34.0287 21.7798C35.454 20.9083 37.084 20.4281 38.7542 20.3876C40.4244 20.3472 42.0757 20.7478 43.5416 21.5493L39.4122 29.6258L29.4879 30.1422Z" fill="#1AB2E2"/>
<line x1="39.3663" y1="30.0079" x2="51.5633" y2="49.266" stroke="#191825" stroke-width="0.357362"/>
</g>
<defs>
<filter id="filter0_d_324_20120" x="0.340885" y="4.06887" width="65.2411" height="60.1108" filterUnits="userSpaceOnUse" color-interpolation-filters="sRGB">
<feFlood flood-opacity="0" result="BackgroundImageFix"/>
<feColorMatrix in="SourceAlpha" type="matrix" values="0 0 0 0 0 0 0 0 0 0 0 0 0 0 0 0 0 0 127 0" result="hardAlpha"/>
<feOffset dx="-6.38303" dy="4.25535"/>
<feGaussianBlur stdDeviation="4.60997"/>
<feComposite in2="hardAlpha" operator="out"/>
<feColorMatrix type="matrix" values="0 0 0 0 0 0 0 0 0 0 0 0 0 0 0 0 0 0 0.3 0"/>
<feBlend mode="normal" in2="BackgroundImageFix" result="effect1_dropShadow_324_20120"/>
<feBlend mode="normal" in="SourceGraphic" in2="effect1_dropShadow_324_20120" result="shape"/>
</filter>
</defs>
</svg>
