<svg width="203" height="299" viewBox="0 0 203 299" fill="none" xmlns="http://www.w3.org/2000/svg">
<path d="M93.3086 232.765L40.5132 200.888L63.7564 186.942L0.999535 148.093" stroke="url(#paint0_linear_332_24967)" stroke-width="0.944674" stroke-miterlimit="10"/>
<path d="M95.3008 230.772L42.8374 198.896L66.0806 184.618L2.99172 145.768" stroke="url(#paint1_linear_332_24967)" stroke-width="0.944674" stroke-miterlimit="10"/>
<path opacity="0.2" d="M172.669 264.641L118.214 297.514C116.222 298.842 113.565 298.842 111.573 297.514L56.7851 263.977C55.4569 263.313 55.4569 261.321 56.7851 260.324L112.237 226.788C113.897 225.791 116.221 225.791 117.882 226.788L172.337 259.992C174.33 261.321 174.33 263.645 172.669 264.641Z" fill="url(#paint2_linear_332_24967)"/>
<path d="M173.998 246.711C173.998 246.047 173.666 245.051 172.67 244.719L118.214 211.514C116.554 210.518 114.23 210.518 112.569 211.514L57.1176 245.051C56.4535 245.383 56.1214 246.047 56.1214 246.711V255.677C56.1214 256.341 56.4535 256.673 57.1176 257.005L111.905 290.542C113.898 291.87 116.554 291.87 118.546 290.542L173.002 257.669C173.998 257.005 174.33 256.341 174.33 255.345L173.998 246.711Z" fill="#EAEAEA"/>
<path d="M172.669 249.035L118.214 281.908C116.222 283.236 113.565 283.236 111.573 281.908L56.7851 248.371C55.4569 247.707 55.4569 245.715 56.7851 244.719L112.237 211.182C113.897 210.186 116.221 210.186 117.882 211.182L172.337 244.387C174.33 245.715 174.33 248.039 172.669 249.035Z" fill="white"/>
<path d="M202.219 225.127H166.358L126.18 201.884C120.867 198.895 111.902 199.228 105.925 202.88L67.4077 225.127H31.5466V249.367C31.5466 251.359 32.5427 253.351 34.8671 254.679L107.585 296.517C112.898 299.506 121.863 299.174 127.84 295.521L197.57 255.343C200.558 253.683 202.219 251.359 202.551 249.035V225.127H202.219Z" fill="#1A1926"/>
<path d="M166.358 225.871H166.158L165.985 225.771L125.815 202.532C125.814 202.531 125.813 202.53 125.812 202.53C123.309 201.123 119.889 200.473 116.335 200.634C112.785 200.796 109.176 201.765 106.313 203.514L106.305 203.519L106.297 203.524L67.7795 225.771L67.6069 225.871H67.4077H32.29V249.367C32.29 251.083 33.1353 252.833 35.2359 254.034L35.2378 254.035L107.95 295.869C107.951 295.87 107.952 295.871 107.953 295.871C110.456 297.278 113.876 297.928 117.43 297.767C120.981 297.605 124.589 296.637 127.453 294.887L127.461 294.882L127.469 294.877L197.199 254.699L197.199 254.699L197.209 254.694C200.025 253.129 201.499 251.004 201.807 248.98V225.871H166.358Z" stroke="url(#paint3_linear_332_24967)" stroke-opacity="0.2" stroke-width="1.4869"/>
<path d="M197.239 254.016L127.509 294.193C121.532 297.514 112.567 297.846 107.254 295.189L34.536 253.352C32.2117 252.023 30.8835 250.031 31.2156 248.039V249.699C31.2156 251.691 32.2117 253.684 34.536 255.012L107.254 296.85C112.567 299.838 121.532 299.506 127.509 295.854L197.239 255.676C200.227 254.016 201.888 251.691 202.22 249.367V247.707C202.22 249.699 200.559 252.023 197.239 254.016Z" fill="#1F1F27"/>
<path d="M107.588 272.61L34.8693 230.772C29.5566 227.784 30.2207 222.471 36.1975 219.151L105.927 178.973C111.904 175.652 120.869 175.32 126.182 177.977L198.901 219.815C204.213 222.803 203.549 228.116 197.572 231.436L127.842 271.614C121.534 274.934 112.568 275.599 107.588 272.61Z" fill="#3C3B4A"/>
<path d="M64.469 226.579H58.1602V220.27H64.469V226.579Z" fill="#22222D"/>
<path d="M177.185 225.764H168.552V219.787H177.185V225.764Z" fill="#22222D"/>
<path d="M110.907 259.329L60.4359 230.109C56.7834 228.116 57.4475 224.464 61.432 222.14L109.911 193.916C114.228 191.591 120.204 191.259 123.857 193.252L174.328 222.472C177.981 224.464 177.316 228.116 173.332 230.441L124.853 258.665C120.868 260.989 114.56 261.321 110.907 259.329Z" fill="#22222D"/>
<path d="M110.907 253.02L60.4359 223.8C56.7834 221.808 57.4475 218.155 61.432 215.831L109.911 187.607C114.228 185.282 120.204 184.95 123.857 186.943L174.328 216.163C177.981 218.155 177.316 221.808 173.332 224.132L124.853 252.356C120.868 255.012 114.56 255.012 110.907 253.02Z" fill="#3C3B4A"/>
<path d="M110.907 253.02L60.4359 223.8C56.7834 221.808 57.4475 218.155 61.432 215.831L109.911 187.607C114.228 185.282 120.204 184.95 123.857 186.943L174.328 216.163C177.981 218.155 177.316 221.808 173.332 224.132L124.853 252.356C120.868 255.012 114.56 255.012 110.907 253.02Z" fill="black" fill-opacity="0.2"/>
<path d="M112.898 244.055L76.3726 222.804C73.7162 221.144 74.0483 218.819 77.0367 216.827L112.234 196.572C115.222 194.912 119.871 194.58 122.527 196.24L159.052 217.491C161.709 219.151 161.377 221.476 158.388 223.468L123.191 243.723C119.871 245.383 115.554 245.383 112.898 244.055Z" fill="#343342"/>
<mask id="mask0_332_24967" style="mask-type:luminance" maskUnits="userSpaceOnUse" x="74" y="195" width="87" height="51">
<path d="M112.898 244.054L76.3726 222.804C73.7162 221.143 74.0483 218.819 77.0367 216.827L112.234 196.572C115.222 194.911 119.871 194.58 122.527 196.24L159.052 217.491C161.709 219.151 161.377 221.475 158.388 223.468L123.191 243.722C119.871 245.383 115.554 245.383 112.898 244.054Z" fill="white"/>
</mask>
<g mask="url(#mask0_332_24967)">
<path d="M77.0342 219.815L112.231 199.56C115.22 197.9 119.868 197.568 122.525 199.228L159.382 220.479C160.046 220.811 160.378 221.143 160.71 221.475C161.706 220.147 161.374 218.487 159.382 217.491L122.525 196.24C119.868 194.58 115.22 194.911 112.231 196.572L77.0342 216.827C74.7098 218.155 74.0457 220.147 75.0419 221.475C75.3739 221.143 76.038 220.479 77.0342 219.815Z" fill="#191825"/>
</g>
<mask id="mask1_332_24967" style="mask-type:luminance" maskUnits="userSpaceOnUse" x="74" y="195" width="87" height="51">
<path d="M112.898 244.054L76.3726 222.804C73.7162 221.143 74.0483 218.819 77.0367 216.827L112.234 196.572C115.222 194.911 119.871 194.58 122.527 196.24L159.052 217.491C161.709 219.151 161.377 221.475 158.388 223.468L123.191 243.722C119.871 245.383 115.554 245.383 112.898 244.054Z" fill="white"/>
</mask>
<g mask="url(#mask1_332_24967)">
<path d="M77.0371 223.135L112.234 202.881C115.222 201.22 119.871 200.888 122.527 202.548L159.385 223.799C159.717 224.131 160.049 224.463 160.381 224.796C161.709 223.135 161.377 221.475 159.385 220.479L122.527 199.228C119.871 197.568 115.222 197.9 112.234 199.56L77.0371 219.815C74.7127 221.143 74.0486 223.135 75.3768 224.796C75.3768 224.131 76.0409 223.799 77.0371 223.135Z" fill="#1A1926"/>
</g>
<path d="M100.61 286.225L40.1778 251.36C38.8496 250.696 38.1855 248.703 38.1855 247.375V242.726C38.1855 241.066 39.1817 240.402 40.1778 241.066L100.61 275.931C101.939 276.595 102.603 278.587 102.603 279.916V284.564C102.935 285.893 101.939 286.889 100.61 286.225Z" fill="#3C3B4A"/>
<path d="M42.169 250.364C40.8408 249.699 40.1767 247.707 40.1767 246.379V241.73C40.1767 241.398 40.1767 241.398 40.1767 241.066C38.8485 240.402 38.1844 241.066 38.1844 242.726V247.375C38.1844 249.035 39.1806 250.696 40.1767 251.36L100.609 286.225C101.605 286.889 102.27 286.225 102.602 285.228L42.169 250.364Z" fill="#2A2934"/>
<path d="M70.3935 263.646L45.1579 249.036C44.8259 248.704 44.4939 248.04 44.4939 247.708C44.4939 247.043 44.8259 247.043 45.1579 247.043L70.3935 261.654C70.7256 261.986 71.0576 262.65 71.0576 262.982C71.0576 263.646 70.7256 263.978 70.3935 263.646Z" fill="#1AB2E2"/>
<path d="M82.6787 270.951L73.0493 265.306C72.7173 264.974 72.3852 264.31 72.3852 263.978C72.3852 263.314 72.7173 263.313 73.0493 263.313L82.6787 268.958C83.0107 269.29 83.3428 269.954 83.3428 270.286C83.3428 270.951 83.0107 271.283 82.6787 270.951Z" fill="#1AB2E2"/>
<path d="M95.6308 278.919L86.0015 273.274C85.6694 272.942 85.3374 272.278 85.3374 271.946C85.3374 271.282 85.6694 271.282 86.0015 271.282L95.6308 276.927C95.9629 277.259 96.2949 277.923 96.2949 278.255C96.2949 278.919 95.9629 279.251 95.6308 278.919Z" fill="#1AB2E2"/>
<path opacity="0.43" d="M163.037 9.96143H70.7281V227.784C70.7281 228.78 71.3922 229.444 72.7204 230.109L111.902 250.695C114.558 252.024 119.539 252.024 122.859 250.363L160.381 230.773C162.041 229.777 163.037 228.78 163.037 227.784V9.96143Z" fill="url(#paint4_linear_332_24967)"/>
<g opacity="0.5">
<g opacity="0.3">
<path d="M86.6669 145.768C84.6746 145.768 83.6785 147.097 83.6785 149.753C83.6785 152.409 84.6746 153.737 86.6669 153.737C88.6592 153.737 89.6553 152.077 89.6553 149.753C89.6553 147.097 88.6592 145.768 86.6669 145.768ZM86.6669 147.096C87.331 147.096 87.663 147.761 87.663 149.753C87.663 151.745 87.331 152.409 86.6669 152.409C86.0028 152.409 85.6707 151.745 85.6707 149.753C85.6707 147.761 86.0028 147.096 86.6669 147.096Z" fill="url(#paint5_linear_332_24967)"/>
<path d="M88.3262 165.359V157.39H86.6659L84.0096 159.05L84.6736 160.379L86.3339 159.382V165.359H88.3262Z" fill="url(#paint6_linear_332_24967)"/>
<path d="M86.6669 169.012C84.6746 169.012 83.6785 170.34 83.6785 172.996C83.6785 175.653 84.6746 176.981 86.6669 176.981C88.6592 176.981 89.6553 175.321 89.6553 172.996C89.6553 170.672 88.6592 169.012 86.6669 169.012ZM86.6669 170.672C87.331 170.672 87.663 171.336 87.663 173.328C87.663 175.321 87.331 175.985 86.6669 175.985C86.0028 175.985 85.6707 175.321 85.6707 173.328C85.6707 171.336 86.0028 170.672 86.6669 170.672Z" fill="url(#paint7_linear_332_24967)"/>
<path d="M88.3262 188.934V180.965H86.6659L84.0096 182.626L84.6736 183.954L86.3339 182.958V188.934H88.3262Z" fill="url(#paint8_linear_332_24967)"/>
<path d="M86.6669 192.587C84.6746 192.587 83.6785 193.915 83.6785 196.571C83.6785 199.228 84.6746 200.556 86.6669 200.556C88.6592 200.556 89.6553 198.896 89.6553 196.571C89.6553 193.915 88.6592 192.587 86.6669 192.587ZM86.6669 193.915C87.331 193.915 87.663 194.579 87.663 196.571C87.663 198.564 87.331 199.228 86.6669 199.228C86.0028 199.228 85.6707 198.564 85.6707 196.571C85.6707 194.579 86.0028 193.915 86.6669 193.915Z" fill="url(#paint9_linear_332_24967)"/>
<path d="M86.6669 204.209C84.6746 204.209 83.6785 205.537 83.6785 208.193C83.6785 210.85 84.6746 212.178 86.6669 212.178C88.6592 212.178 89.6553 210.518 89.6553 208.193C89.6553 205.537 88.6592 204.209 86.6669 204.209ZM86.6669 205.537C87.331 205.537 87.663 206.201 87.663 208.193C87.663 210.186 87.331 210.85 86.6669 210.85C86.0028 210.85 85.6707 210.186 85.6707 208.193C85.6707 206.201 86.0028 205.537 86.6669 205.537Z" fill="url(#paint10_linear_332_24967)"/>
<path d="M86.6669 215.83C84.6746 215.83 83.6785 217.158 83.6785 219.815C83.6785 222.471 84.6746 223.799 86.6669 223.799C88.6592 223.799 89.6553 222.139 89.6553 219.815C89.6553 217.49 88.6592 215.83 86.6669 215.83ZM86.6669 217.158C87.331 217.158 87.663 217.822 87.663 219.815C87.663 221.807 87.331 222.471 86.6669 222.471C86.0028 222.471 85.6707 221.807 85.6707 219.815C85.6707 217.822 86.0028 217.158 86.6669 217.158Z" fill="url(#paint11_linear_332_24967)"/>
<path d="M88.3262 235.753V227.784H86.6659L84.0096 229.444L84.6736 230.772L86.3339 229.776V235.753H88.3262Z" fill="url(#paint12_linear_332_24967)"/>
<path d="M88.3262 247.374V239.405H86.6659L84.0096 241.066L84.6736 242.394L86.3339 241.397V247.374H88.3262Z" fill="url(#paint13_linear_332_24967)"/>
</g>
<path d="M100.946 8.30117V0H99.2861L96.6297 1.66023L97.6258 2.9884L99.2861 1.9923V8.30117H100.946Z" fill="url(#paint14_linear_332_24967)"/>
<path d="M100.946 20.5866V12.2854H99.2861L96.6297 13.9456L97.6258 15.2739L99.2861 14.2777V20.5866H100.946Z" fill="url(#paint15_linear_332_24967)"/>
<g opacity="0.7">
<path d="M100.611 32.5408V25.8999H99.2832L96.9588 27.2281L97.6229 28.2243L98.9511 27.2281V32.5408H100.611Z" fill="url(#paint16_linear_332_24967)"/>
<path d="M100.611 42.5023V35.8613H99.2832L96.9588 37.1895L97.6229 38.1857L98.9511 37.1895V42.5023H100.611Z" fill="url(#paint17_linear_332_24967)"/>
<path d="M98.9491 45.8228C97.2888 45.8228 96.2927 47.151 96.2927 49.4753C96.2927 51.7996 97.2888 53.1278 98.9491 53.1278C100.609 53.1278 101.605 51.7996 101.605 49.4753C101.605 46.8189 100.609 45.8228 98.9491 45.8228ZM98.9491 46.819C99.6132 46.819 99.9452 47.483 99.9452 49.1432C99.9452 51.1355 99.6132 51.4676 98.9491 51.4676C98.285 51.4676 97.9529 50.8035 97.9529 49.1432C97.9529 47.483 98.285 46.819 98.9491 46.819Z" fill="url(#paint18_linear_332_24967)"/>
<path d="M100.611 62.7576V56.1167H99.2832L96.9588 57.4449L97.6229 58.4411L98.9511 57.4449V62.7576H100.611Z" fill="url(#paint19_linear_332_24967)"/>
<path d="M98.9491 65.7456C97.2888 65.7456 96.2927 67.0738 96.2927 69.3981C96.2927 71.7225 97.2888 73.0507 98.9491 73.0507C100.609 73.0507 101.605 71.7225 101.605 69.3981C101.605 67.0738 100.609 65.7456 98.9491 65.7456ZM98.9491 67.0738C99.6132 67.0738 99.9452 67.7379 99.9452 69.3981C99.9452 71.3904 99.6132 71.7225 98.9491 71.7225C98.285 71.7225 97.9529 71.0584 97.9529 69.3981C97.9529 67.4059 98.285 67.0738 98.9491 67.0738Z" fill="url(#paint20_linear_332_24967)"/>
<path d="M98.9491 75.707C97.2888 75.707 96.2927 77.0352 96.2927 79.3596C96.2927 81.6839 97.2888 83.0121 98.9491 83.0121C100.609 83.0121 101.605 81.6839 101.605 79.3596C101.605 77.0352 100.609 75.707 98.9491 75.707ZM98.9491 77.0352C99.6132 77.0352 99.9452 77.6993 99.9452 79.3596C99.9452 81.3519 99.6132 81.6839 98.9491 81.6839C98.285 81.6839 97.9529 81.0198 97.9529 79.3596C97.9529 77.3673 98.285 77.0352 98.9491 77.0352Z" fill="url(#paint21_linear_332_24967)"/>
<path d="M98.9491 85.6682C97.2888 85.6682 96.2927 86.9964 96.2927 89.3207C96.2927 91.6451 97.2888 92.9733 98.9491 92.9733C100.609 92.9733 101.605 91.6451 101.605 89.3207C101.605 86.9964 100.609 85.6682 98.9491 85.6682ZM98.9491 86.9964C99.6132 86.9964 99.9452 87.6605 99.9452 89.3207C99.9452 91.313 99.6132 91.6451 98.9491 91.6451C98.285 91.6451 97.9529 90.981 97.9529 89.3207C97.9529 87.6605 98.285 86.9964 98.9491 86.9964Z" fill="url(#paint22_linear_332_24967)"/>
<path d="M100.611 102.603V95.9624H99.2832L96.9588 97.2906L97.6229 98.2868L98.9511 97.2906V102.603H100.611Z" fill="url(#paint23_linear_332_24967)"/>
<path d="M98.9491 105.924C97.2888 105.924 96.2927 107.252 96.2927 109.576C96.2927 111.901 97.2888 113.229 98.9491 113.229C100.609 113.229 101.605 111.901 101.605 109.576C101.605 106.92 100.609 105.924 98.9491 105.924ZM98.9491 106.92C99.6132 106.92 99.9452 107.584 99.9452 109.244C99.9452 111.237 99.6132 111.569 98.9491 111.569C98.285 111.569 97.9529 110.905 97.9529 109.244C97.9529 107.584 98.285 106.92 98.9491 106.92Z" fill="url(#paint24_linear_332_24967)"/>
<path d="M100.611 122.857V116.216H99.2832L96.9588 117.544L97.6229 118.541L98.9511 117.544V122.857H100.611Z" fill="url(#paint25_linear_332_24967)"/>
<path d="M98.9491 125.846C97.2888 125.846 96.2927 127.174 96.2927 129.499C96.2927 131.823 97.2888 133.151 98.9491 133.151C100.609 133.151 101.605 131.823 101.605 129.499C101.605 127.174 100.609 125.846 98.9491 125.846ZM98.9491 127.174C99.6132 127.174 99.9452 127.838 99.9452 129.499C99.9452 131.491 99.6132 131.823 98.9491 131.823C98.285 131.823 97.9529 131.159 97.9529 129.499C97.9529 127.506 98.285 127.174 98.9491 127.174Z" fill="url(#paint26_linear_332_24967)"/>
<path d="M100.611 142.781V136.14H99.2832L96.9588 137.468L97.6229 138.464L98.9511 137.468V142.781H100.611Z" fill="url(#paint27_linear_332_24967)"/>
<path d="M98.9491 145.769C97.2888 145.769 96.2927 147.097 96.2927 149.422C96.2927 151.746 97.2888 153.074 98.9491 153.074C100.609 153.074 101.605 151.746 101.605 149.422C101.605 147.097 100.609 145.769 98.9491 145.769ZM98.9491 147.097C99.6132 147.097 99.9452 147.762 99.9452 149.422C99.9452 151.414 99.6132 151.746 98.9491 151.746C98.285 151.746 97.9529 151.082 97.9529 149.422C97.9529 147.762 98.285 147.097 98.9491 147.097Z" fill="url(#paint28_linear_332_24967)"/>
<path d="M100.611 162.703V156.062H99.2832L96.9588 157.39L97.6229 158.387L98.9511 157.39V162.703H100.611Z" fill="url(#paint29_linear_332_24967)"/>
<path d="M98.9491 166.023C97.2888 166.023 96.2927 167.351 96.2927 169.676C96.2927 172 97.2888 173.328 98.9491 173.328C100.609 173.328 101.605 172 101.605 169.676C101.605 167.351 100.609 166.023 98.9491 166.023ZM98.9491 167.019C99.6132 167.019 99.9452 167.683 99.9452 169.344C99.9452 171.336 99.6132 171.668 98.9491 171.668C98.285 171.668 97.9529 171.004 97.9529 169.344C97.9529 167.683 98.285 167.019 98.9491 167.019Z" fill="url(#paint30_linear_332_24967)"/>
<path d="M98.9491 175.985C97.2888 175.985 96.2927 177.313 96.2927 179.638C96.2927 181.962 97.2888 183.29 98.9491 183.29C100.609 183.29 101.605 181.962 101.605 179.638C101.605 177.313 100.609 175.985 98.9491 175.985ZM98.9491 176.981C99.6132 176.981 99.9452 177.645 99.9452 179.306C99.9452 181.298 99.6132 181.63 98.9491 181.63C98.285 181.63 97.9529 180.966 97.9529 179.306C97.9529 177.645 98.285 176.981 98.9491 176.981Z" fill="url(#paint31_linear_332_24967)"/>
<path d="M100.611 192.92V186.279H99.2832L96.9588 187.607L97.6229 188.603L98.9511 187.607V192.92H100.611Z" fill="url(#paint32_linear_332_24967)"/>
<path d="M98.9491 195.908C97.2888 195.908 96.2927 197.236 96.2927 199.56C96.2927 201.885 97.2888 203.213 98.9491 203.213C100.609 203.213 101.605 201.885 101.605 199.56C101.605 197.236 100.609 195.908 98.9491 195.908ZM98.9491 197.236C99.6132 197.236 99.9452 197.9 99.9452 199.56C99.9452 201.553 99.6132 201.885 98.9491 201.885C98.285 201.885 97.9529 201.22 97.9529 199.56C97.9529 197.9 98.285 197.236 98.9491 197.236Z" fill="url(#paint33_linear_332_24967)"/>
</g>
<path d="M101.61 226.456V214.17H98.954L94.6373 216.827L95.9656 218.819L98.6219 217.159V226.788H101.61V226.456Z" fill="url(#paint34_linear_332_24967)"/>
<path d="M101.61 244.386V232.101H98.954L94.6373 234.757L95.9656 236.749L98.6219 235.089V244.718H101.61V244.386Z" fill="url(#paint35_linear_332_24967)"/>
<path d="M98.9529 250.031C95.9645 250.031 94.3042 252.356 94.3042 256.34C94.3042 260.325 95.9645 262.649 98.9529 262.649C101.941 262.649 103.602 260.325 103.602 256.34C103.602 252.356 101.941 250.031 98.9529 250.031ZM98.9529 252.356C100.281 252.356 100.613 253.352 100.613 256.672C100.613 259.993 99.949 260.989 98.9529 260.989C97.6247 260.989 97.2926 259.993 97.2926 256.672C97.2926 253.352 97.9567 252.356 98.9529 252.356Z" fill="url(#paint36_linear_332_24967)"/>
<g opacity="0.4">
<path d="M86.3388 0.332275C87.0029 0.332275 87.335 0.996329 87.335 2.98861C87.335 4.98089 87.0029 5.64495 86.3388 5.64495C85.6747 5.64495 85.3427 4.98089 85.3427 2.98861C85.3427 0.996329 85.6747 0.332275 86.3388 0.332275Z" fill="url(#paint37_linear_332_24967)"/>
<path d="M87.9961 18.9264V10.9573H86.3359L83.6795 12.6175L84.3436 13.9457L86.0038 12.9496V18.9264H87.9961Z" fill="url(#paint38_linear_332_24967)"/>
<path d="M86.3377 22.2473C84.3454 22.2473 83.3493 23.5755 83.3493 26.2319C83.3493 28.8883 84.3454 30.2165 86.3377 30.2165C88.33 30.2165 89.3262 28.5562 89.3262 26.2319C89.3262 23.9076 88.33 22.2473 86.3377 22.2473ZM86.3377 23.9075C87.0018 23.9075 87.3339 24.5717 87.3339 26.564C87.3339 28.5563 87.0018 29.2203 86.3377 29.2203C85.6736 29.2203 85.3416 28.5563 85.3416 26.564C85.3416 24.5717 85.6736 23.9075 86.3377 23.9075Z" fill="url(#paint39_linear_332_24967)"/>
<path d="M87.9961 42.1698V34.2007H86.3359L83.6795 35.8609L84.3436 37.1891L86.0038 36.193V42.1698H87.9961Z" fill="url(#paint40_linear_332_24967)"/>
<path d="M86.3377 45.8223C84.3454 45.8223 83.3493 47.1505 83.3493 49.8069C83.3493 52.4632 84.3454 53.7914 86.3377 53.7914C88.33 53.7914 89.3262 52.1312 89.3262 49.8069C89.3262 47.1505 88.33 45.8223 86.3377 45.8223ZM86.3377 47.1504C87.0018 47.1504 87.3339 47.8146 87.3339 49.8069C87.3339 51.7992 87.0018 52.4632 86.3377 52.4632C85.6736 52.4632 85.3416 51.7992 85.3416 49.8069C85.3416 47.8146 85.6736 47.1504 86.3377 47.1504Z" fill="url(#paint41_linear_332_24967)"/>
<path d="M87.9961 65.4132V57.4441H86.3359L83.6795 59.1043L84.3436 60.4325L86.0038 59.4364V65.4132H87.9961Z" fill="url(#paint42_linear_332_24967)"/>
<path d="M86.3377 69.0659C84.3454 69.0659 83.3493 70.3941 83.3493 73.0505C83.3493 75.7069 84.3454 77.035 86.3377 77.035C88.33 77.035 89.3262 75.3749 89.3262 73.0505C89.3262 70.7262 88.33 69.0659 86.3377 69.0659ZM86.3377 70.3941C87.0018 70.3941 87.3339 71.0582 87.3339 73.0505C87.3339 75.0428 87.0018 75.7069 86.3377 75.7069C85.6736 75.7069 85.3416 75.0428 85.3416 73.0505C85.3416 71.0582 85.6736 70.3941 86.3377 70.3941Z" fill="url(#paint43_linear_332_24967)"/>
<path d="M87.9961 88.9891V81.02H86.3359L83.6795 82.6803L84.3436 84.0084L86.0038 83.0123V88.9891H87.9961Z" fill="url(#paint44_linear_332_24967)"/>
<path d="M86.3377 92.6414C84.3454 92.6414 83.3493 93.9696 83.3493 96.626C83.3493 99.2823 84.3454 100.61 86.3377 100.61C88.33 100.61 89.3262 98.9503 89.3262 96.626C89.3262 93.9696 88.33 92.6414 86.3377 92.6414ZM86.3377 93.9695C87.0018 93.9695 87.3339 94.6337 87.3339 96.626C87.3339 98.6182 87.0018 99.2823 86.3377 99.2823C85.6736 99.2823 85.3416 98.6182 85.3416 96.626C85.3416 94.6337 85.6736 93.9695 86.3377 93.9695Z" fill="url(#paint45_linear_332_24967)"/>
<path d="M86.3377 104.263C84.3454 104.263 83.3493 105.591 83.3493 108.248C83.3493 110.904 84.3454 112.232 86.3377 112.232C88.33 112.232 89.3262 110.572 89.3262 108.248C89.3262 105.591 88.33 104.263 86.3377 104.263ZM86.3377 105.591C87.0018 105.591 87.3339 106.255 87.3339 108.248C87.3339 110.24 87.0018 110.904 86.3377 110.904C85.6736 110.904 85.3416 110.24 85.3416 108.248C85.3416 106.255 85.6736 105.591 86.3377 105.591Z" fill="url(#paint46_linear_332_24967)"/>
<path d="M87.9961 123.854V115.885H86.3359L83.6795 117.545L84.3436 118.873L86.0038 117.877V123.854H87.9961Z" fill="url(#paint47_linear_332_24967)"/>
<path d="M86.3377 127.506C84.3454 127.506 83.3493 128.834 83.3493 131.491C83.3493 134.147 84.3454 135.475 86.3377 135.475C88.33 135.475 89.3262 133.815 89.3262 131.491C89.3262 129.166 88.33 127.506 86.3377 127.506ZM86.3377 129.166C87.0018 129.166 87.3339 129.83 87.3339 131.823C87.3339 133.815 87.0018 134.479 86.3377 134.479C85.6736 134.479 85.3416 133.815 85.3416 131.823C85.3416 129.83 85.6736 129.166 86.3377 129.166Z" fill="url(#paint48_linear_332_24967)"/>
</g>
<g opacity="0.7">
<path d="M148.761 87.6597C146.768 87.6597 145.772 88.9879 145.772 91.6443C145.772 94.3006 146.768 95.6288 148.761 95.6288C150.753 95.6288 151.749 93.9686 151.749 91.6443C151.749 88.9879 150.421 87.6597 148.761 87.6597ZM148.761 88.9878C149.425 88.9878 149.757 89.652 149.757 91.6443C149.757 93.6366 149.425 94.3006 148.761 94.3006C148.096 94.3006 147.764 93.6366 147.764 91.6443C147.432 89.652 147.764 88.9878 148.761 88.9878Z" fill="url(#paint49_linear_332_24967)"/>
<path d="M150.419 107.251V99.2815H148.759L146.102 100.942L146.766 102.27L148.427 101.274V107.251H150.419Z" fill="url(#paint50_linear_332_24967)"/>
<path d="M148.761 110.903C146.768 110.903 145.772 112.232 145.772 114.888C145.772 117.544 146.768 118.872 148.761 118.872C150.753 118.872 151.749 117.212 151.749 114.888C151.749 112.232 150.421 110.903 148.761 110.903ZM148.761 112.231C149.425 112.231 149.757 112.896 149.757 114.888C149.757 116.88 149.425 117.544 148.761 117.544C148.096 117.544 147.764 116.88 147.764 114.888C147.432 112.896 147.764 112.231 148.761 112.231Z" fill="url(#paint51_linear_332_24967)"/>
<path d="M150.419 130.827V122.857H148.759L146.102 124.518L146.766 125.846L148.427 124.85V130.827H150.419Z" fill="url(#paint52_linear_332_24967)"/>
<path d="M148.761 134.147C146.768 134.147 145.772 135.475 145.772 138.131C145.772 140.788 146.768 142.116 148.761 142.116C150.753 142.116 151.749 140.456 151.749 138.131C151.749 135.807 150.421 134.147 148.761 134.147ZM148.761 135.807C149.425 135.807 149.757 136.471 149.757 138.463C149.757 140.456 149.425 141.12 148.761 141.12C148.096 141.12 147.764 140.456 147.764 138.463C147.432 136.471 147.764 135.807 148.761 135.807Z" fill="url(#paint53_linear_332_24967)"/>
<path d="M148.761 146.101C146.768 146.101 145.772 147.429 145.772 150.085C145.772 152.742 146.768 154.07 148.761 154.07C150.753 154.07 151.749 152.41 151.749 150.085C151.749 147.429 150.421 146.101 148.761 146.101ZM148.761 147.429C149.425 147.429 149.757 148.093 149.757 150.085C149.757 152.078 149.425 152.742 148.761 152.742C148.096 152.742 147.764 152.078 147.764 150.085C147.432 148.093 147.764 147.429 148.761 147.429Z" fill="url(#paint54_linear_332_24967)"/>
<path d="M148.761 157.722C146.768 157.722 145.772 159.05 145.772 161.707C145.772 164.363 146.768 165.691 148.761 165.691C150.753 165.691 151.749 164.031 151.749 161.707C151.749 159.05 150.421 157.722 148.761 157.722ZM148.761 159.05C149.425 159.05 149.757 159.714 149.757 161.707C149.757 163.699 149.425 164.363 148.761 164.363C148.096 164.363 147.764 163.699 147.764 161.707C147.432 159.714 147.764 159.05 148.761 159.05Z" fill="url(#paint55_linear_332_24967)"/>
<path d="M150.419 177.313V169.344H148.759L146.102 171.004L146.766 172.332L148.427 171.336V177.313H150.419Z" fill="url(#paint56_linear_332_24967)"/>
<path d="M150.419 189.266V181.297H148.759L146.102 182.957L146.766 184.286L148.427 183.289V189.266H150.419Z" fill="url(#paint57_linear_332_24967)"/>
</g>
<path d="M137.136 12.6173V4.64819H135.476L132.819 6.30843L133.483 7.6366L135.143 6.6405V12.6173H137.136Z" fill="url(#paint58_linear_332_24967)"/>
<path d="M135.477 16.2703C133.485 16.2703 132.489 17.5985 132.489 20.2549C132.489 22.9112 133.485 24.2394 135.477 24.2394C137.47 24.2394 138.466 22.5792 138.466 20.2549C138.466 17.5985 137.47 16.2703 135.477 16.2703ZM135.477 17.5984C136.141 17.5984 136.474 18.2626 136.474 20.2549C136.474 22.2471 136.141 22.9112 135.477 22.9112C134.813 22.9112 134.481 22.2471 134.481 20.2549C134.481 18.2626 134.813 17.5984 135.477 17.5984Z" fill="url(#paint59_linear_332_24967)"/>
<path d="M137.136 36.1932V28.2241H135.476L132.819 29.8844L133.483 31.2125L135.143 30.2164V36.1932H137.136Z" fill="url(#paint60_linear_332_24967)"/>
<g opacity="0.4">
<path d="M137.136 58.4404V50.8032H135.476L132.819 52.4635L133.483 53.7916L135.143 52.7955V58.7723H137.136V58.4404Z" fill="url(#paint61_linear_332_24967)"/>
<path d="M137.136 69.7297V62.0925H135.476L132.819 63.7528L133.483 65.081L135.143 64.0848V70.0617H137.136V69.7297Z" fill="url(#paint62_linear_332_24967)"/>
<path d="M135.477 73.3823C133.485 73.3823 132.489 74.7105 132.489 77.3668C132.489 80.0232 133.485 81.3514 135.477 81.3514C137.47 81.3514 138.466 80.0232 138.466 77.3668C138.466 74.7105 137.47 73.3823 135.477 73.3823ZM135.477 74.7105C136.141 74.7105 136.474 75.3745 136.474 77.3668C136.474 79.3591 136.141 80.0233 135.477 80.0233C134.813 80.0233 134.481 79.3591 134.481 77.3668C134.481 75.3745 134.813 74.7105 135.477 74.7105Z" fill="url(#paint63_linear_332_24967)"/>
<path d="M137.136 92.3094V84.6724H135.476L132.819 86.3326L133.483 87.6608L135.143 86.6647V92.6415H137.136V92.3094Z" fill="url(#paint64_linear_332_24967)"/>
<path d="M135.477 95.9622C133.485 95.9622 132.489 97.2904 132.489 99.9468C132.489 102.603 133.485 103.931 135.477 103.931C137.47 103.931 138.466 102.603 138.466 99.9468C138.466 97.2904 137.47 95.9622 135.477 95.9622ZM135.477 97.2903C136.141 97.2903 136.474 97.9545 136.474 99.9468C136.474 101.939 136.141 102.603 135.477 102.603C134.813 102.603 134.481 101.939 134.481 99.9468C134.481 97.9545 134.813 97.2903 135.477 97.2903Z" fill="url(#paint65_linear_332_24967)"/>
<path d="M135.477 107.251C133.485 107.251 132.489 108.58 132.489 111.236C132.489 113.892 133.485 115.221 135.477 115.221C137.47 115.221 138.466 113.892 138.466 111.236C138.466 108.58 137.47 107.251 135.477 107.251ZM135.477 108.58C136.141 108.58 136.474 109.244 136.474 111.236C136.474 113.228 136.141 113.892 135.477 113.892C134.813 113.892 134.481 113.228 134.481 111.236C134.481 109.244 134.813 108.58 135.477 108.58Z" fill="url(#paint66_linear_332_24967)"/>
<path d="M135.477 118.541C133.485 118.541 132.489 119.869 132.489 122.525C132.489 125.182 133.485 126.51 135.477 126.51C137.47 126.51 138.466 125.182 138.466 122.525C138.466 119.869 137.47 118.541 135.477 118.541ZM135.477 119.869C136.141 119.869 136.474 120.533 136.474 122.525C136.474 124.518 136.141 125.182 135.477 125.182C134.813 125.182 134.481 124.518 134.481 122.525C134.481 120.533 134.813 119.869 135.477 119.869Z" fill="url(#paint67_linear_332_24967)"/>
<path d="M137.136 137.468V129.831H135.476L132.819 131.491L133.483 132.819L135.143 131.823V137.8H137.136V137.468Z" fill="url(#paint68_linear_332_24967)"/>
<path d="M135.477 141.12C133.485 141.12 132.489 142.448 132.489 145.104C132.489 147.761 133.485 149.089 135.477 149.089C137.47 149.089 138.466 147.761 138.466 145.104C138.466 142.448 137.47 141.12 135.477 141.12ZM135.477 142.116C136.141 142.116 136.474 142.78 136.474 144.772C136.474 146.765 136.141 147.429 135.477 147.429C134.813 147.429 134.481 146.765 134.481 144.772C134.481 142.78 134.813 142.116 135.477 142.116Z" fill="url(#paint69_linear_332_24967)"/>
<path d="M137.136 160.047V152.41H135.476L132.819 154.07L133.483 155.398L135.143 154.402V160.379H137.136V160.047Z" fill="url(#paint70_linear_332_24967)"/>
<path d="M135.477 163.367C133.485 163.367 132.489 164.695 132.489 167.351C132.489 170.008 133.485 171.336 135.477 171.336C137.47 171.336 138.466 170.008 138.466 167.351C138.466 165.027 137.47 163.367 135.477 163.367ZM135.477 164.695C136.141 164.695 136.474 165.359 136.474 167.351C136.474 169.344 136.141 170.008 135.477 170.008C134.813 170.008 134.481 169.344 134.481 167.351C134.481 165.359 134.813 164.695 135.477 164.695Z" fill="url(#paint71_linear_332_24967)"/>
<path d="M137.136 182.626V174.989H135.476L132.819 176.649L133.483 177.977L135.143 176.981V182.958H137.136V182.626Z" fill="url(#paint72_linear_332_24967)"/>
<path d="M135.477 185.947C133.485 185.947 132.489 187.275 132.489 189.931C132.489 192.587 133.485 193.916 135.477 193.916C137.47 193.916 138.466 192.587 138.466 189.931C138.466 187.607 137.47 185.947 135.477 185.947ZM135.477 187.275C136.141 187.275 136.474 187.939 136.474 189.931C136.474 191.923 136.141 192.587 135.477 192.587C134.813 192.587 134.481 191.923 134.481 189.931C134.481 187.939 134.813 187.275 135.477 187.275Z" fill="url(#paint73_linear_332_24967)"/>
<path d="M137.136 205.205V197.568H135.476L132.819 199.228L133.483 200.556L135.143 199.56V205.537H137.136V205.205Z" fill="url(#paint74_linear_332_24967)"/>
<path d="M135.477 208.526C133.485 208.526 132.489 209.854 132.489 212.51C132.489 215.167 133.485 216.495 135.477 216.495C137.47 216.495 138.466 215.167 138.466 212.51C138.466 209.854 137.47 208.526 135.477 208.526ZM135.477 209.854C136.141 209.854 136.474 210.518 136.474 212.51C136.474 214.503 136.141 215.167 135.477 215.167C134.813 215.167 134.481 214.503 134.481 212.51C134.481 210.518 134.813 209.854 135.477 209.854Z" fill="url(#paint75_linear_332_24967)"/>
<path d="M135.477 219.815C133.485 219.815 132.489 221.143 132.489 223.8C132.489 226.456 133.485 227.784 135.477 227.784C137.47 227.784 138.466 226.456 138.466 223.8C138.466 221.143 137.47 219.815 135.477 219.815ZM135.477 221.143C136.141 221.143 136.474 221.807 136.474 223.8C136.474 225.792 136.141 226.456 135.477 226.456C134.813 226.456 134.481 225.792 134.481 223.8C134.481 221.807 134.813 221.143 135.477 221.143Z" fill="url(#paint76_linear_332_24967)"/>
<path d="M137.136 239.074V231.437H135.476L132.819 233.097L133.483 234.425L135.143 233.429V239.406H137.136V239.074Z" fill="url(#paint77_linear_332_24967)"/>
<path d="M135.477 242.394C133.485 242.394 132.489 243.722 132.489 246.379C132.489 249.035 133.485 250.363 135.477 250.363C137.47 250.363 138.466 249.035 138.466 246.379C138.466 243.722 137.47 242.394 135.477 242.394ZM135.477 243.722C136.141 243.722 136.474 244.386 136.474 246.379C136.474 248.371 136.141 249.035 135.477 249.035C134.813 249.035 134.481 248.371 134.481 246.379C134.481 244.386 134.813 243.722 135.477 243.722Z" fill="url(#paint78_linear_332_24967)"/>
</g>
<g opacity="0.7">
<path d="M148.76 6.97314C146.103 6.97314 144.775 8.96534 144.775 12.2858C144.775 15.6063 146.103 17.5986 148.76 17.5986C151.416 17.5986 152.744 15.6063 152.744 12.2858C152.412 8.96534 151.084 6.97314 148.76 6.97314ZM148.76 8.63338C149.756 8.63338 150.088 9.29739 150.088 12.2858C150.088 14.9422 149.756 15.9384 148.76 15.9384C147.763 15.9384 147.431 14.9422 147.431 12.2858C147.099 9.62944 147.763 8.63338 148.76 8.63338Z" fill="url(#paint79_linear_332_24967)"/>
<path d="M150.755 32.2087V21.9153H148.763L145.442 23.9075L146.438 25.5677L148.763 24.2396V32.2087H150.755Z" fill="url(#paint80_linear_332_24967)"/>
<path d="M150.755 47.4834V37.1899H148.763L145.442 39.1822L146.438 40.8425L148.763 39.5143V47.4834H150.755Z" fill="url(#paint81_linear_332_24967)"/>
<path d="M148.76 52.1318C146.103 52.1318 144.775 54.1241 144.775 57.4446C144.775 60.7651 146.103 62.7574 148.76 62.7574C151.416 62.7574 152.744 60.7651 152.744 57.4446C152.412 53.7921 151.084 52.1318 148.76 52.1318ZM148.76 53.7921C149.756 53.7921 150.088 54.4562 150.088 57.4446C150.088 60.101 149.756 61.0971 148.76 61.0971C147.763 61.0971 147.431 60.101 147.431 57.4446C147.099 54.7882 147.763 53.7921 148.76 53.7921Z" fill="url(#paint82_linear_332_24967)"/>
<path d="M150.755 77.3677V67.0742H148.763L145.442 69.0665L146.438 70.7268L148.763 69.3986V77.3677H150.755Z" fill="url(#paint83_linear_332_24967)"/>
</g>
<path d="M111.236 136.471C109.576 136.471 108.58 137.799 108.58 140.124C108.58 142.448 109.576 143.776 111.236 143.776C112.896 143.776 113.893 142.448 113.893 140.124C113.561 137.799 112.896 136.471 111.236 136.471ZM111.236 137.467C111.9 137.467 112.232 138.131 112.232 139.792C112.232 141.784 111.9 142.116 111.236 142.116C110.572 142.116 110.24 141.452 110.24 139.792C110.24 138.131 110.572 137.467 111.236 137.467Z" fill="url(#paint84_linear_332_24967)"/>
<path d="M112.562 153.406V146.765H111.234L108.91 148.093L109.574 149.09L110.902 148.093V153.406H112.562Z" fill="url(#paint85_linear_332_24967)"/>
<path d="M111.236 156.394C109.576 156.394 108.58 157.722 108.58 160.046C108.58 162.371 109.576 163.699 111.236 163.699C112.896 163.699 113.893 162.371 113.893 160.046C113.561 157.722 112.896 156.394 111.236 156.394ZM111.236 157.722C111.9 157.722 112.232 158.386 112.232 160.046C112.232 162.039 111.9 162.371 111.236 162.371C110.572 162.371 110.24 161.707 110.24 160.046C110.24 158.054 110.572 157.722 111.236 157.722Z" fill="url(#paint86_linear_332_24967)"/>
<path d="M112.562 173.329V166.688H111.234L108.91 168.016L109.574 169.012L110.902 168.016V173.329H112.562Z" fill="url(#paint87_linear_332_24967)"/>
<path d="M111.236 176.317C109.576 176.317 108.58 177.645 108.58 179.969C108.58 182.294 109.576 183.622 111.236 183.622C112.896 183.622 113.893 182.294 113.893 179.969C113.561 177.645 112.896 176.317 111.236 176.317ZM111.236 177.645C111.9 177.645 112.232 178.309 112.232 179.969C112.232 181.962 111.9 182.294 111.236 182.294C110.572 182.294 110.24 181.63 110.24 179.969C110.24 178.309 110.572 177.645 111.236 177.645Z" fill="url(#paint88_linear_332_24967)"/>
<path d="M111.236 186.611C109.576 186.611 108.58 187.939 108.58 190.263C108.58 192.588 109.576 193.916 111.236 193.916C112.896 193.916 113.893 192.588 113.893 190.263C113.561 187.607 112.896 186.611 111.236 186.611ZM111.236 187.607C111.9 187.607 112.232 188.271 112.232 189.931C112.232 191.924 111.9 192.256 111.236 192.256C110.572 192.256 110.24 191.592 110.24 189.931C110.24 188.271 110.572 187.607 111.236 187.607Z" fill="url(#paint89_linear_332_24967)"/>
<path d="M111.236 196.572C109.576 196.572 108.58 197.9 108.58 200.225C108.58 202.549 109.576 203.877 111.236 203.877C112.896 203.877 113.893 202.549 113.893 200.225C113.561 197.9 112.896 196.572 111.236 196.572ZM111.236 197.568C111.9 197.568 112.232 198.233 112.232 199.893C112.232 201.885 111.9 202.217 111.236 202.217C110.572 202.217 110.24 201.553 110.24 199.893C110.24 198.233 110.572 197.568 111.236 197.568Z" fill="url(#paint90_linear_332_24967)"/>
<path d="M112.562 213.506V206.865H111.234L108.91 208.193L109.574 209.19L110.902 208.193V213.506H112.562Z" fill="url(#paint91_linear_332_24967)"/>
<path d="M112.562 223.467V216.826H111.234L108.91 218.154L109.574 219.151L110.902 218.154V223.467H112.562Z" fill="url(#paint92_linear_332_24967)"/>
<path d="M126.181 19.2587V10.2935H124.188L121.2 12.2857L122.196 13.6139L124.188 12.2857V19.2587H126.181Z" fill="url(#paint93_linear_332_24967)"/>
<path d="M124.19 23.5754C121.866 23.5754 120.87 25.2357 120.87 28.2241C120.87 31.2125 122.198 32.8727 124.19 32.8727C126.515 32.8727 127.511 31.2125 127.511 28.2241C127.511 25.2357 126.183 23.5754 124.19 23.5754ZM124.19 25.2357C125.186 25.2357 125.518 25.8997 125.518 28.2241C125.518 30.5484 125.186 31.5445 124.19 31.5445C123.194 31.5445 122.862 30.8805 122.862 28.2241C122.862 25.8997 123.194 25.2357 124.19 25.2357Z" fill="url(#paint94_linear_332_24967)"/>
<path d="M126.181 46.1552V37.1899H124.188L121.2 39.1822L122.196 40.5104L124.188 39.1822V46.1552H126.181Z" fill="url(#paint95_linear_332_24967)"/>
<path d="M124.19 50.1392C121.866 50.1392 120.87 51.7994 120.87 54.7878C120.87 57.7762 122.198 59.4364 124.19 59.4364C126.515 59.4364 127.511 57.7762 127.511 54.7878C127.511 51.7994 126.183 50.1392 124.19 50.1392ZM124.19 51.7994C125.186 51.7994 125.518 52.4635 125.518 54.7878C125.518 57.1121 125.186 58.1083 124.19 58.1083C123.194 58.1083 122.862 57.4442 122.862 54.7878C122.862 52.4635 123.194 51.7994 124.19 51.7994Z" fill="url(#paint96_linear_332_24967)"/>
<path d="M124.19 63.4211C121.866 63.4211 120.87 65.0814 120.87 68.0698C120.87 71.0582 122.198 72.7184 124.19 72.7184C126.515 72.7184 127.511 71.0582 127.511 68.0698C127.511 65.0814 126.183 63.4211 124.19 63.4211ZM124.19 65.0814C125.186 65.0814 125.518 65.7455 125.518 68.0698C125.518 70.3941 125.186 71.3902 124.19 71.3902C123.194 71.3902 122.862 70.7262 122.862 68.0698C122.862 65.7455 123.194 65.0814 124.19 65.0814Z" fill="url(#paint97_linear_332_24967)"/>
<path d="M124.19 77.0356C121.866 77.0356 120.87 78.696 120.87 81.6844C120.87 84.6728 122.198 86.333 124.19 86.333C126.515 86.333 127.511 84.6728 127.511 81.6844C127.511 78.696 126.183 77.0356 124.19 77.0356ZM124.19 78.3639C125.186 78.3639 125.518 79.028 125.518 81.3523C125.518 83.6766 125.186 84.6728 124.19 84.6728C123.194 84.6728 122.862 84.0087 122.862 81.3523C122.862 79.36 123.194 78.3639 124.19 78.3639Z" fill="url(#paint98_linear_332_24967)"/>
<path d="M126.181 99.6142V90.6489H124.188L121.2 92.6412L122.196 93.9694L124.188 92.6412V99.6142H126.181Z" fill="url(#paint99_linear_332_24967)"/>
<path d="M124.19 103.599C121.866 103.599 120.87 105.259 120.87 108.248C120.87 111.236 122.198 112.896 124.19 112.896C126.515 112.896 127.511 111.236 127.511 108.248C127.511 105.259 126.183 103.599 124.19 103.599ZM124.19 105.259C125.186 105.259 125.518 105.924 125.518 108.248C125.518 110.572 125.186 111.568 124.19 111.568C123.194 111.568 122.862 110.904 122.862 108.248C122.862 105.924 123.194 105.259 124.19 105.259Z" fill="url(#paint100_linear_332_24967)"/>
<path d="M126.181 126.178V117.213H124.188L121.2 119.205L122.196 120.533L124.188 119.205V126.178H126.181Z" fill="url(#paint101_linear_332_24967)"/>
<path d="M124.19 130.163C121.866 130.163 120.87 131.823 120.87 134.812C120.87 137.8 122.198 139.46 124.19 139.46C126.515 139.46 127.511 137.8 127.511 134.812C127.511 131.823 126.183 130.163 124.19 130.163ZM124.19 131.823C125.186 131.823 125.518 132.487 125.518 134.812C125.518 137.136 125.186 138.132 124.19 138.132C123.194 138.132 122.862 137.468 122.862 134.812C122.862 132.487 123.194 131.823 124.19 131.823Z" fill="url(#paint102_linear_332_24967)"/>
<path d="M126.181 152.742V143.776H124.188L121.2 145.769L122.196 147.097L124.188 145.769V152.742H126.181Z" fill="url(#paint103_linear_332_24967)"/>
<path d="M124.19 157.058C121.866 157.058 120.87 158.719 120.87 161.707C120.87 164.695 122.198 166.356 124.19 166.356C126.515 166.356 127.511 164.695 127.511 161.707C127.511 158.719 126.183 157.058 124.19 157.058ZM124.19 158.387C125.186 158.387 125.518 159.051 125.518 161.375C125.518 163.699 125.186 164.695 124.19 164.695C123.194 164.695 122.862 164.031 122.862 161.375C122.862 159.383 123.194 158.387 124.19 158.387Z" fill="url(#paint104_linear_332_24967)"/>
<path d="M126.181 179.638V170.672H124.188L121.2 172.665L122.196 173.993L124.188 172.665V179.638H126.181Z" fill="url(#paint105_linear_332_24967)"/>
<path d="M124.19 183.622C121.866 183.622 120.87 185.282 120.87 188.271C120.87 191.259 122.198 192.919 124.19 192.919C126.515 192.919 127.511 191.259 127.511 188.271C127.511 185.282 126.183 183.622 124.19 183.622ZM124.19 185.282C125.186 185.282 125.518 185.946 125.518 188.271C125.518 190.595 125.186 191.591 124.19 191.591C123.194 191.591 122.862 190.927 122.862 188.271C122.862 185.946 123.194 185.282 124.19 185.282Z" fill="url(#paint106_linear_332_24967)"/>
<path d="M124.19 196.904C121.866 196.904 120.87 198.564 120.87 201.553C120.87 204.541 122.198 206.201 124.19 206.201C126.515 206.201 127.511 204.541 127.511 201.553C127.511 198.564 126.183 196.904 124.19 196.904ZM124.19 198.564C125.186 198.564 125.518 199.228 125.518 201.553C125.518 203.877 125.186 204.873 124.19 204.873C123.194 204.873 122.862 204.209 122.862 201.553C122.862 199.228 123.194 198.564 124.19 198.564Z" fill="url(#paint107_linear_332_24967)"/>
<path d="M126.181 219.483V210.518H124.188L121.2 212.51L122.196 213.839L124.188 212.51V219.483H126.181Z" fill="url(#paint108_linear_332_24967)"/>
<path d="M124.19 223.8C121.866 223.8 120.87 225.46 120.87 228.449C120.87 231.437 122.198 233.097 124.19 233.097C126.515 233.097 127.511 231.437 127.511 228.449C127.511 225.46 126.183 223.8 124.19 223.8ZM124.19 225.128C125.186 225.128 125.518 225.792 125.518 228.117C125.518 230.441 125.186 231.437 124.19 231.437C123.194 231.437 122.862 230.773 122.862 228.117C122.862 226.124 123.194 225.128 124.19 225.128Z" fill="url(#paint109_linear_332_24967)"/>
<path d="M113.228 12.9493V6.30835H111.899L109.575 7.63652L110.239 8.63272L111.567 7.63652V12.9493H113.228Z" fill="url(#paint110_linear_332_24967)"/>
<path d="M111.901 15.937C110.241 15.937 109.245 17.2652 109.245 19.5895C109.245 21.9139 110.241 23.2421 111.901 23.2421C113.562 23.2421 114.558 21.9139 114.558 19.5895C114.226 17.2652 113.562 15.937 111.901 15.937ZM111.901 17.2652C112.565 17.2652 112.897 17.9293 112.897 19.5895C112.897 21.5818 112.565 21.9139 111.901 21.9139C111.237 21.9139 110.905 21.2498 110.905 19.5895C110.905 17.5973 111.237 17.2652 111.901 17.2652Z" fill="url(#paint111_linear_332_24967)"/>
<path d="M113.228 32.8719V26.231H111.899L109.575 27.5591L110.239 28.5553L111.567 27.5591V32.8719H113.228Z" fill="url(#paint112_linear_332_24967)"/>
<path d="M111.901 36.1926C110.241 36.1926 109.245 37.5208 109.245 39.8452C109.245 42.1695 110.241 43.4977 111.901 43.4977C113.562 43.4977 114.558 42.1695 114.558 39.8452C114.226 37.1888 113.562 36.1926 111.901 36.1926ZM111.901 37.1887C112.565 37.1887 112.897 37.8529 112.897 39.5131C112.897 41.5054 112.565 41.8375 111.901 41.8375C111.237 41.8375 110.905 41.1733 110.905 39.5131C110.905 37.8529 111.237 37.1887 111.901 37.1887Z" fill="url(#paint113_linear_332_24967)"/>
<path d="M113.228 53.1273V46.4863H111.899L109.575 47.8145L110.239 48.8106L111.567 47.8145V53.1273H113.228Z" fill="url(#paint114_linear_332_24967)"/>
<path d="M111.901 56.1152C110.241 56.1152 109.245 57.4434 109.245 59.7678C109.245 62.0921 110.241 63.4203 111.901 63.4203C113.562 63.4203 114.558 62.0921 114.558 59.7678C114.226 57.4434 113.562 56.1152 111.901 56.1152ZM111.901 57.1113C112.565 57.1113 112.897 57.7755 112.897 59.4357C112.897 61.428 112.565 61.7601 111.901 61.7601C111.237 61.7601 110.905 61.0959 110.905 59.4357C110.905 57.7755 111.237 57.1113 111.901 57.1113Z" fill="url(#paint115_linear_332_24967)"/>
<path d="M111.901 66.0767C110.241 66.0767 109.245 67.4049 109.245 69.7292C109.245 72.0535 110.241 73.3817 111.901 73.3817C113.562 73.3817 114.558 72.0535 114.558 69.7292C114.226 67.4049 113.562 66.0767 111.901 66.0767ZM111.901 67.4048C112.565 67.4048 112.897 68.069 112.897 69.7292C112.897 71.7215 112.565 72.0535 111.901 72.0535C111.237 72.0535 110.905 71.3894 110.905 69.7292C110.905 67.7369 111.237 67.4048 111.901 67.4048Z" fill="url(#paint116_linear_332_24967)"/>
<path d="M113.228 83.0115V76.3706H111.899L109.575 77.6988L110.239 78.6949L111.567 77.6988V83.0115H113.228Z" fill="url(#paint117_linear_332_24967)"/>
<path d="M111.901 85.9995C110.241 85.9995 109.245 87.3277 109.245 89.652C109.245 91.9764 110.241 93.3046 111.901 93.3046C113.562 93.3046 114.558 91.9764 114.558 89.652C114.226 87.3277 113.562 85.9995 111.901 85.9995ZM111.901 87.3277C112.565 87.3277 112.897 87.9918 112.897 89.652C112.897 91.6443 112.565 91.9763 111.901 91.9763C111.237 91.9763 110.905 91.3123 110.905 89.652C110.905 87.9918 111.237 87.3277 111.901 87.3277Z" fill="url(#paint118_linear_332_24967)"/>
</g>
<defs>
<linearGradient id="paint0_linear_332_24967" x1="53.5508" y1="205.5" x2="-1.44922" y2="151" gradientUnits="userSpaceOnUse">
<stop stop-color="#1AB2E2"/>
<stop offset="1" stop-color="#1AB2E2" stop-opacity="0"/>
</linearGradient>
<linearGradient id="paint1_linear_332_24967" x1="55.543" y1="203.4" x2="0.329662" y2="148.903" gradientUnits="userSpaceOnUse">
<stop stop-color="#1AB2E2"/>
<stop offset="1" stop-color="#1AB2E2" stop-opacity="0"/>
</linearGradient>
<linearGradient id="paint2_linear_332_24967" x1="56.0536" y1="262.301" x2="173.958" y2="262.301" gradientUnits="userSpaceOnUse">
<stop stop-color="#672A7E"/>
<stop offset="1" stop-color="#893B9A"/>
</linearGradient>
<linearGradient id="paint3_linear_332_24967" x1="220.604" y1="169.919" x2="22.6633" y2="304.771" gradientUnits="userSpaceOnUse">
<stop stop-color="#0A52B0"/>
<stop offset="0.485773" stop-color="#1AB2E2"/>
<stop offset="0.951102" stop-color="#1AB2E2" stop-opacity="0"/>
</linearGradient>
<linearGradient id="paint4_linear_332_24967" x1="116.551" y1="199" x2="116.842" y2="29.4702" gradientUnits="userSpaceOnUse">
<stop stop-color="#ADE3FC" stop-opacity="0.09"/>
<stop offset="0.139623" stop-color="#AAE1FB" stop-opacity="0.01"/>
<stop offset="0.33043" stop-color="#8AC9F4" stop-opacity="0.19"/>
<stop offset="0.631318" stop-color="#73B8EE" stop-opacity="0.33"/>
<stop offset="1" stop-color="#61AAEA" stop-opacity="0"/>
</linearGradient>
<linearGradient id="paint5_linear_332_24967" x1="86.6669" y1="186.229" x2="86.6669" y2="-14.4997" gradientUnits="userSpaceOnUse">
<stop stop-color="white" stop-opacity="0"/>
<stop offset="0.5351" stop-color="white"/>
<stop offset="0.7541" stop-color="white" stop-opacity="0.2459"/>
<stop offset="1" stop-color="white" stop-opacity="0"/>
</linearGradient>
<linearGradient id="paint6_linear_332_24967" x1="86.2569" y1="186.229" x2="86.2569" y2="-14.4992" gradientUnits="userSpaceOnUse">
<stop stop-color="white" stop-opacity="0"/>
<stop offset="0.5351" stop-color="white"/>
<stop offset="0.7541" stop-color="white" stop-opacity="0.2459"/>
<stop offset="1" stop-color="white" stop-opacity="0"/>
</linearGradient>
<linearGradient id="paint7_linear_332_24967" x1="86.6669" y1="186.23" x2="86.6669" y2="-14.5039" gradientUnits="userSpaceOnUse">
<stop stop-color="white" stop-opacity="0"/>
<stop offset="0.5351" stop-color="white"/>
<stop offset="0.7541" stop-color="white" stop-opacity="0.2459"/>
<stop offset="1" stop-color="white" stop-opacity="0"/>
</linearGradient>
<linearGradient id="paint8_linear_332_24967" x1="86.2569" y1="186.229" x2="86.2569" y2="-14.4993" gradientUnits="userSpaceOnUse">
<stop stop-color="white" stop-opacity="0"/>
<stop offset="0.5351" stop-color="white"/>
<stop offset="0.7541" stop-color="white" stop-opacity="0.2459"/>
<stop offset="1" stop-color="white" stop-opacity="0"/>
</linearGradient>
<linearGradient id="paint9_linear_332_24967" x1="86.6669" y1="186.229" x2="86.6669" y2="-14.5076" gradientUnits="userSpaceOnUse">
<stop stop-color="white" stop-opacity="0"/>
<stop offset="0.5351" stop-color="white"/>
<stop offset="0.7541" stop-color="white" stop-opacity="0.2459"/>
<stop offset="1" stop-color="white" stop-opacity="0"/>
</linearGradient>
<linearGradient id="paint10_linear_332_24967" x1="86.6669" y1="186.229" x2="86.6669" y2="-14.5041" gradientUnits="userSpaceOnUse">
<stop stop-color="white" stop-opacity="0"/>
<stop offset="0.5351" stop-color="white"/>
<stop offset="0.7541" stop-color="white" stop-opacity="0.2459"/>
<stop offset="1" stop-color="white" stop-opacity="0"/>
</linearGradient>
<linearGradient id="paint11_linear_332_24967" x1="86.6669" y1="186.228" x2="86.6669" y2="-14.5083" gradientUnits="userSpaceOnUse">
<stop stop-color="white" stop-opacity="0"/>
<stop offset="0.5351" stop-color="white"/>
<stop offset="0.7541" stop-color="white" stop-opacity="0.2459"/>
<stop offset="1" stop-color="white" stop-opacity="0"/>
</linearGradient>
<linearGradient id="paint12_linear_332_24967" x1="86.2569" y1="186.23" x2="86.2569" y2="-14.4982" gradientUnits="userSpaceOnUse">
<stop stop-color="white" stop-opacity="0"/>
<stop offset="0.5351" stop-color="white"/>
<stop offset="0.7541" stop-color="white" stop-opacity="0.2459"/>
<stop offset="1" stop-color="white" stop-opacity="0"/>
</linearGradient>
<linearGradient id="paint13_linear_332_24967" x1="86.2569" y1="186.228" x2="86.2569" y2="-14.5091" gradientUnits="userSpaceOnUse">
<stop stop-color="white" stop-opacity="0"/>
<stop offset="0.5351" stop-color="white"/>
<stop offset="0.7541" stop-color="white" stop-opacity="0.2459"/>
<stop offset="1" stop-color="white" stop-opacity="0"/>
</linearGradient>
<linearGradient id="paint14_linear_332_24967" x1="98.5645" y1="186.229" x2="98.5645" y2="-14.5015" gradientUnits="userSpaceOnUse">
<stop stop-color="white" stop-opacity="0"/>
<stop offset="0.5351" stop-color="white"/>
<stop offset="0.7541" stop-color="white" stop-opacity="0.2459"/>
<stop offset="1" stop-color="white" stop-opacity="0"/>
</linearGradient>
<linearGradient id="paint15_linear_332_24967" x1="98.5645" y1="186.233" x2="98.5645" y2="-14.5022" gradientUnits="userSpaceOnUse">
<stop stop-color="white" stop-opacity="0"/>
<stop offset="0.5351" stop-color="white"/>
<stop offset="0.7541" stop-color="white" stop-opacity="0.2459"/>
<stop offset="1" stop-color="white" stop-opacity="0"/>
</linearGradient>
<linearGradient id="paint16_linear_332_24967" x1="98.6333" y1="186.229" x2="98.6333" y2="-14.5006" gradientUnits="userSpaceOnUse">
<stop stop-color="white" stop-opacity="0"/>
<stop offset="0.5351" stop-color="white"/>
<stop offset="0.7541" stop-color="white" stop-opacity="0.2459"/>
<stop offset="1" stop-color="white" stop-opacity="0"/>
</linearGradient>
<linearGradient id="paint17_linear_332_24967" x1="98.6333" y1="186.229" x2="98.6333" y2="-14.5009" gradientUnits="userSpaceOnUse">
<stop stop-color="white" stop-opacity="0"/>
<stop offset="0.5351" stop-color="white"/>
<stop offset="0.7541" stop-color="white" stop-opacity="0.2459"/>
<stop offset="1" stop-color="white" stop-opacity="0"/>
</linearGradient>
<linearGradient id="paint18_linear_332_24967" x1="98.9816" y1="186.231" x2="98.9816" y2="-14.5022" gradientUnits="userSpaceOnUse">
<stop stop-color="white" stop-opacity="0"/>
<stop offset="0.5351" stop-color="white"/>
<stop offset="0.7541" stop-color="white" stop-opacity="0.2459"/>
<stop offset="1" stop-color="white" stop-opacity="0"/>
</linearGradient>
<linearGradient id="paint19_linear_332_24967" x1="98.6333" y1="186.23" x2="98.6333" y2="-14.5001" gradientUnits="userSpaceOnUse">
<stop stop-color="white" stop-opacity="0"/>
<stop offset="0.5351" stop-color="white"/>
<stop offset="0.7541" stop-color="white" stop-opacity="0.2459"/>
<stop offset="1" stop-color="white" stop-opacity="0"/>
</linearGradient>
<linearGradient id="paint20_linear_332_24967" x1="98.9816" y1="186.231" x2="98.9816" y2="-14.5023" gradientUnits="userSpaceOnUse">
<stop stop-color="white" stop-opacity="0"/>
<stop offset="0.5351" stop-color="white"/>
<stop offset="0.7541" stop-color="white" stop-opacity="0.2459"/>
<stop offset="1" stop-color="white" stop-opacity="0"/>
</linearGradient>
<linearGradient id="paint21_linear_332_24967" x1="98.9816" y1="186.231" x2="98.9816" y2="-14.502" gradientUnits="userSpaceOnUse">
<stop stop-color="white" stop-opacity="0"/>
<stop offset="0.5351" stop-color="white"/>
<stop offset="0.7541" stop-color="white" stop-opacity="0.2459"/>
<stop offset="1" stop-color="white" stop-opacity="0"/>
</linearGradient>
<linearGradient id="paint22_linear_332_24967" x1="98.9816" y1="186.231" x2="98.9816" y2="-14.5026" gradientUnits="userSpaceOnUse">
<stop stop-color="white" stop-opacity="0"/>
<stop offset="0.5351" stop-color="white"/>
<stop offset="0.7541" stop-color="white" stop-opacity="0.2459"/>
<stop offset="1" stop-color="white" stop-opacity="0"/>
</linearGradient>
<linearGradient id="paint23_linear_332_24967" x1="98.6333" y1="186.23" x2="98.6333" y2="-14.4997" gradientUnits="userSpaceOnUse">
<stop stop-color="white" stop-opacity="0"/>
<stop offset="0.5351" stop-color="white"/>
<stop offset="0.7541" stop-color="white" stop-opacity="0.2459"/>
<stop offset="1" stop-color="white" stop-opacity="0"/>
</linearGradient>
<linearGradient id="paint24_linear_332_24967" x1="98.9816" y1="186.231" x2="98.9816" y2="-14.502" gradientUnits="userSpaceOnUse">
<stop stop-color="white" stop-opacity="0"/>
<stop offset="0.5351" stop-color="white"/>
<stop offset="0.7541" stop-color="white" stop-opacity="0.2459"/>
<stop offset="1" stop-color="white" stop-opacity="0"/>
</linearGradient>
<linearGradient id="paint25_linear_332_24967" x1="98.6333" y1="186.229" x2="98.6333" y2="-14.5006" gradientUnits="userSpaceOnUse">
<stop stop-color="white" stop-opacity="0"/>
<stop offset="0.5351" stop-color="white"/>
<stop offset="0.7541" stop-color="white" stop-opacity="0.2459"/>
<stop offset="1" stop-color="white" stop-opacity="0"/>
</linearGradient>
<linearGradient id="paint26_linear_332_24967" x1="98.9816" y1="186.231" x2="98.9816" y2="-14.5025" gradientUnits="userSpaceOnUse">
<stop stop-color="white" stop-opacity="0"/>
<stop offset="0.5351" stop-color="white"/>
<stop offset="0.7541" stop-color="white" stop-opacity="0.2459"/>
<stop offset="1" stop-color="white" stop-opacity="0"/>
</linearGradient>
<linearGradient id="paint27_linear_332_24967" x1="98.6333" y1="186.23" x2="98.6333" y2="-14.5001" gradientUnits="userSpaceOnUse">
<stop stop-color="white" stop-opacity="0"/>
<stop offset="0.5351" stop-color="white"/>
<stop offset="0.7541" stop-color="white" stop-opacity="0.2459"/>
<stop offset="1" stop-color="white" stop-opacity="0"/>
</linearGradient>
<linearGradient id="paint28_linear_332_24967" x1="98.9816" y1="186.231" x2="98.9816" y2="-14.5024" gradientUnits="userSpaceOnUse">
<stop stop-color="white" stop-opacity="0"/>
<stop offset="0.5351" stop-color="white"/>
<stop offset="0.7541" stop-color="white" stop-opacity="0.2459"/>
<stop offset="1" stop-color="white" stop-opacity="0"/>
</linearGradient>
<linearGradient id="paint29_linear_332_24967" x1="98.6333" y1="186.23" x2="98.6333" y2="-14.5" gradientUnits="userSpaceOnUse">
<stop stop-color="white" stop-opacity="0"/>
<stop offset="0.5351" stop-color="white"/>
<stop offset="0.7541" stop-color="white" stop-opacity="0.2459"/>
<stop offset="1" stop-color="white" stop-opacity="0"/>
</linearGradient>
<linearGradient id="paint30_linear_332_24967" x1="98.9816" y1="186.229" x2="98.9816" y2="-14.5013" gradientUnits="userSpaceOnUse">
<stop stop-color="white" stop-opacity="0"/>
<stop offset="0.5351" stop-color="white"/>
<stop offset="0.7541" stop-color="white" stop-opacity="0.2459"/>
<stop offset="1" stop-color="white" stop-opacity="0"/>
</linearGradient>
<linearGradient id="paint31_linear_332_24967" x1="98.9816" y1="186.23" x2="98.9816" y2="-14.5007" gradientUnits="userSpaceOnUse">
<stop stop-color="white" stop-opacity="0"/>
<stop offset="0.5351" stop-color="white"/>
<stop offset="0.7541" stop-color="white" stop-opacity="0.2459"/>
<stop offset="1" stop-color="white" stop-opacity="0"/>
</linearGradient>
<linearGradient id="paint32_linear_332_24967" x1="98.6333" y1="186.23" x2="98.6333" y2="-14.4997" gradientUnits="userSpaceOnUse">
<stop stop-color="white" stop-opacity="0"/>
<stop offset="0.5351" stop-color="white"/>
<stop offset="0.7541" stop-color="white" stop-opacity="0.2459"/>
<stop offset="1" stop-color="white" stop-opacity="0"/>
</linearGradient>
<linearGradient id="paint33_linear_332_24967" x1="98.9816" y1="186.23" x2="98.9816" y2="-14.5007" gradientUnits="userSpaceOnUse">
<stop stop-color="white" stop-opacity="0"/>
<stop offset="0.5351" stop-color="white"/>
<stop offset="0.7541" stop-color="white" stop-opacity="0.2459"/>
<stop offset="1" stop-color="white" stop-opacity="0"/>
</linearGradient>
<linearGradient id="paint34_linear_332_24967" x1="98.3726" y1="186.23" x2="98.3726" y2="-14.4969" gradientUnits="userSpaceOnUse">
<stop stop-color="white" stop-opacity="0"/>
<stop offset="0.5351" stop-color="white"/>
<stop offset="0.7541" stop-color="white" stop-opacity="0.2459"/>
<stop offset="1" stop-color="white" stop-opacity="0"/>
</linearGradient>
<linearGradient id="paint35_linear_332_24967" x1="98.3726" y1="186.23" x2="98.3726" y2="-14.4969" gradientUnits="userSpaceOnUse">
<stop stop-color="white" stop-opacity="0"/>
<stop offset="0.5351" stop-color="white"/>
<stop offset="0.7541" stop-color="white" stop-opacity="0.2459"/>
<stop offset="1" stop-color="white" stop-opacity="0"/>
</linearGradient>
<linearGradient id="paint36_linear_332_24967" x1="99.0087" y1="186.231" x2="99.0087" y2="-14.4983" gradientUnits="userSpaceOnUse">
<stop stop-color="white" stop-opacity="0"/>
<stop offset="0.5351" stop-color="white"/>
<stop offset="0.7541" stop-color="white" stop-opacity="0.2459"/>
<stop offset="1" stop-color="white" stop-opacity="0"/>
</linearGradient>
<linearGradient id="paint37_linear_332_24967" x1="86.3149" y1="125.629" x2="86.3149" y2="-8.66373" gradientUnits="userSpaceOnUse">
<stop stop-color="white" stop-opacity="0"/>
<stop offset="0.5351" stop-color="white"/>
<stop offset="0.7541" stop-color="white" stop-opacity="0.2459"/>
<stop offset="1" stop-color="white" stop-opacity="0"/>
</linearGradient>
<linearGradient id="paint38_linear_332_24967" x1="85.9026" y1="186.228" x2="85.9026" y2="-14.502" gradientUnits="userSpaceOnUse">
<stop stop-color="white" stop-opacity="0"/>
<stop offset="0.5351" stop-color="white"/>
<stop offset="0.7541" stop-color="white" stop-opacity="0.2459"/>
<stop offset="1" stop-color="white" stop-opacity="0"/>
</linearGradient>
<linearGradient id="paint39_linear_332_24967" x1="86.3138" y1="186.232" x2="86.3138" y2="-14.5027" gradientUnits="userSpaceOnUse">
<stop stop-color="white" stop-opacity="0"/>
<stop offset="0.5351" stop-color="white"/>
<stop offset="0.7541" stop-color="white" stop-opacity="0.2459"/>
<stop offset="1" stop-color="white" stop-opacity="0"/>
</linearGradient>
<linearGradient id="paint40_linear_332_24967" x1="85.9026" y1="186.233" x2="85.9026" y2="-14.5035" gradientUnits="userSpaceOnUse">
<stop stop-color="white" stop-opacity="0"/>
<stop offset="0.5351" stop-color="white"/>
<stop offset="0.7541" stop-color="white" stop-opacity="0.2459"/>
<stop offset="1" stop-color="white" stop-opacity="0"/>
</linearGradient>
<linearGradient id="paint41_linear_332_24967" x1="86.3138" y1="186.224" x2="86.3138" y2="-14.4996" gradientUnits="userSpaceOnUse">
<stop stop-color="white" stop-opacity="0"/>
<stop offset="0.5351" stop-color="white"/>
<stop offset="0.7541" stop-color="white" stop-opacity="0.2459"/>
<stop offset="1" stop-color="white" stop-opacity="0"/>
</linearGradient>
<linearGradient id="paint42_linear_332_24967" x1="85.9026" y1="186.228" x2="85.9026" y2="-14.5007" gradientUnits="userSpaceOnUse">
<stop stop-color="white" stop-opacity="0"/>
<stop offset="0.5351" stop-color="white"/>
<stop offset="0.7541" stop-color="white" stop-opacity="0.2459"/>
<stop offset="1" stop-color="white" stop-opacity="0"/>
</linearGradient>
<linearGradient id="paint43_linear_332_24967" x1="86.3138" y1="186.229" x2="86.3138" y2="-14.5001" gradientUnits="userSpaceOnUse">
<stop stop-color="white" stop-opacity="0"/>
<stop offset="0.5351" stop-color="white"/>
<stop offset="0.7541" stop-color="white" stop-opacity="0.2459"/>
<stop offset="1" stop-color="white" stop-opacity="0"/>
</linearGradient>
<linearGradient id="paint44_linear_332_24967" x1="85.9026" y1="186.227" x2="85.9026" y2="-14.4974" gradientUnits="userSpaceOnUse">
<stop stop-color="white" stop-opacity="0"/>
<stop offset="0.5351" stop-color="white"/>
<stop offset="0.7541" stop-color="white" stop-opacity="0.2459"/>
<stop offset="1" stop-color="white" stop-opacity="0"/>
</linearGradient>
<linearGradient id="paint45_linear_332_24967" x1="86.3138" y1="186.228" x2="86.3138" y2="-14.498" gradientUnits="userSpaceOnUse">
<stop stop-color="white" stop-opacity="0"/>
<stop offset="0.5351" stop-color="white"/>
<stop offset="0.7541" stop-color="white" stop-opacity="0.2459"/>
<stop offset="1" stop-color="white" stop-opacity="0"/>
</linearGradient>
<linearGradient id="paint46_linear_332_24967" x1="86.3138" y1="186.231" x2="86.3138" y2="-14.5027" gradientUnits="userSpaceOnUse">
<stop stop-color="white" stop-opacity="0"/>
<stop offset="0.5351" stop-color="white"/>
<stop offset="0.7541" stop-color="white" stop-opacity="0.2459"/>
<stop offset="1" stop-color="white" stop-opacity="0"/>
</linearGradient>
<linearGradient id="paint47_linear_332_24967" x1="85.9026" y1="186.232" x2="85.9026" y2="-14.5051" gradientUnits="userSpaceOnUse">
<stop stop-color="white" stop-opacity="0"/>
<stop offset="0.5351" stop-color="white"/>
<stop offset="0.7541" stop-color="white" stop-opacity="0.2459"/>
<stop offset="1" stop-color="white" stop-opacity="0"/>
</linearGradient>
<linearGradient id="paint48_linear_332_24967" x1="86.3138" y1="186.229" x2="86.3138" y2="-14.4997" gradientUnits="userSpaceOnUse">
<stop stop-color="white" stop-opacity="0"/>
<stop offset="0.5351" stop-color="white"/>
<stop offset="0.7541" stop-color="white" stop-opacity="0.2459"/>
<stop offset="1" stop-color="white" stop-opacity="0"/>
</linearGradient>
<linearGradient id="paint49_linear_332_24967" x1="148.606" y1="186.228" x2="148.606" y2="-14.501" gradientUnits="userSpaceOnUse">
<stop stop-color="white" stop-opacity="0"/>
<stop offset="0.5351" stop-color="white"/>
<stop offset="0.7541" stop-color="white" stop-opacity="0.2459"/>
<stop offset="1" stop-color="white" stop-opacity="0"/>
</linearGradient>
<linearGradient id="paint50_linear_332_24967" x1="148.195" y1="186.231" x2="148.195" y2="-14.5054" gradientUnits="userSpaceOnUse">
<stop stop-color="white" stop-opacity="0"/>
<stop offset="0.5351" stop-color="white"/>
<stop offset="0.7541" stop-color="white" stop-opacity="0.2459"/>
<stop offset="1" stop-color="white" stop-opacity="0"/>
</linearGradient>
<linearGradient id="paint51_linear_332_24967" x1="148.606" y1="186.227" x2="148.606" y2="-14.4982" gradientUnits="userSpaceOnUse">
<stop stop-color="white" stop-opacity="0"/>
<stop offset="0.5351" stop-color="white"/>
<stop offset="0.7541" stop-color="white" stop-opacity="0.2459"/>
<stop offset="1" stop-color="white" stop-opacity="0"/>
</linearGradient>
<linearGradient id="paint52_linear_332_24967" x1="148.195" y1="186.229" x2="148.195" y2="-14.4994" gradientUnits="userSpaceOnUse">
<stop stop-color="white" stop-opacity="0"/>
<stop offset="0.5351" stop-color="white"/>
<stop offset="0.7541" stop-color="white" stop-opacity="0.2459"/>
<stop offset="1" stop-color="white" stop-opacity="0"/>
</linearGradient>
<linearGradient id="paint53_linear_332_24967" x1="148.606" y1="186.229" x2="148.606" y2="-14.5" gradientUnits="userSpaceOnUse">
<stop stop-color="white" stop-opacity="0"/>
<stop offset="0.5351" stop-color="white"/>
<stop offset="0.7541" stop-color="white" stop-opacity="0.2459"/>
<stop offset="1" stop-color="white" stop-opacity="0"/>
</linearGradient>
<linearGradient id="paint54_linear_332_24967" x1="148.606" y1="186.23" x2="148.606" y2="-14.4993" gradientUnits="userSpaceOnUse">
<stop stop-color="white" stop-opacity="0"/>
<stop offset="0.5351" stop-color="white"/>
<stop offset="0.7541" stop-color="white" stop-opacity="0.2459"/>
<stop offset="1" stop-color="white" stop-opacity="0"/>
</linearGradient>
<linearGradient id="paint55_linear_332_24967" x1="148.606" y1="186.23" x2="148.606" y2="-14.5035" gradientUnits="userSpaceOnUse">
<stop stop-color="white" stop-opacity="0"/>
<stop offset="0.5351" stop-color="white"/>
<stop offset="0.7541" stop-color="white" stop-opacity="0.2459"/>
<stop offset="1" stop-color="white" stop-opacity="0"/>
</linearGradient>
<linearGradient id="paint56_linear_332_24967" x1="148.195" y1="186.23" x2="148.195" y2="-14.5069" gradientUnits="userSpaceOnUse">
<stop stop-color="white" stop-opacity="0"/>
<stop offset="0.5351" stop-color="white"/>
<stop offset="0.7541" stop-color="white" stop-opacity="0.2459"/>
<stop offset="1" stop-color="white" stop-opacity="0"/>
</linearGradient>
<linearGradient id="paint57_linear_332_24967" x1="148.195" y1="186.229" x2="148.195" y2="-14.4992" gradientUnits="userSpaceOnUse">
<stop stop-color="white" stop-opacity="0"/>
<stop offset="0.5351" stop-color="white"/>
<stop offset="0.7541" stop-color="white" stop-opacity="0.2459"/>
<stop offset="1" stop-color="white" stop-opacity="0"/>
</linearGradient>
<linearGradient id="paint58_linear_332_24967" x1="135.136" y1="186.227" x2="135.136" y2="-14.5019" gradientUnits="userSpaceOnUse">
<stop stop-color="white" stop-opacity="0"/>
<stop offset="0.5351" stop-color="white"/>
<stop offset="0.7541" stop-color="white" stop-opacity="0.2459"/>
<stop offset="1" stop-color="white" stop-opacity="0"/>
</linearGradient>
<linearGradient id="paint59_linear_332_24967" x1="135.547" y1="186.228" x2="135.547" y2="-14.5011" gradientUnits="userSpaceOnUse">
<stop stop-color="white" stop-opacity="0"/>
<stop offset="0.5351" stop-color="white"/>
<stop offset="0.7541" stop-color="white" stop-opacity="0.2459"/>
<stop offset="1" stop-color="white" stop-opacity="0"/>
</linearGradient>
<linearGradient id="paint60_linear_332_24967" x1="135.136" y1="186.228" x2="135.136" y2="-14.5009" gradientUnits="userSpaceOnUse">
<stop stop-color="white" stop-opacity="0"/>
<stop offset="0.5351" stop-color="white"/>
<stop offset="0.7541" stop-color="white" stop-opacity="0.2459"/>
<stop offset="1" stop-color="white" stop-opacity="0"/>
</linearGradient>
<linearGradient id="paint61_linear_332_24967" x1="135.151" y1="186.232" x2="135.151" y2="-14.5026" gradientUnits="userSpaceOnUse">
<stop stop-color="white" stop-opacity="0"/>
<stop offset="0.5351" stop-color="white"/>
<stop offset="0.7541" stop-color="white" stop-opacity="0.2459"/>
<stop offset="1" stop-color="white" stop-opacity="0"/>
</linearGradient>
<linearGradient id="paint62_linear_332_24967" x1="135.151" y1="186.233" x2="135.151" y2="-14.5045" gradientUnits="userSpaceOnUse">
<stop stop-color="white" stop-opacity="0"/>
<stop offset="0.5351" stop-color="white"/>
<stop offset="0.7541" stop-color="white" stop-opacity="0.2459"/>
<stop offset="1" stop-color="white" stop-opacity="0"/>
</linearGradient>
<linearGradient id="paint63_linear_332_24967" x1="135.548" y1="186.232" x2="135.548" y2="-14.5033" gradientUnits="userSpaceOnUse">
<stop stop-color="white" stop-opacity="0"/>
<stop offset="0.5351" stop-color="white"/>
<stop offset="0.7541" stop-color="white" stop-opacity="0.2459"/>
<stop offset="1" stop-color="white" stop-opacity="0"/>
</linearGradient>
<linearGradient id="paint64_linear_332_24967" x1="135.151" y1="186.228" x2="135.151" y2="-14.4985" gradientUnits="userSpaceOnUse">
<stop stop-color="white" stop-opacity="0"/>
<stop offset="0.5351" stop-color="white"/>
<stop offset="0.7541" stop-color="white" stop-opacity="0.2459"/>
<stop offset="1" stop-color="white" stop-opacity="0"/>
</linearGradient>
<linearGradient id="paint65_linear_332_24967" x1="135.548" y1="186.228" x2="135.548" y2="-14.499" gradientUnits="userSpaceOnUse">
<stop stop-color="white" stop-opacity="0"/>
<stop offset="0.5351" stop-color="white"/>
<stop offset="0.7541" stop-color="white" stop-opacity="0.2459"/>
<stop offset="1" stop-color="white" stop-opacity="0"/>
</linearGradient>
<linearGradient id="paint66_linear_332_24967" x1="135.548" y1="186.232" x2="135.548" y2="-14.5039" gradientUnits="userSpaceOnUse">
<stop stop-color="white" stop-opacity="0"/>
<stop offset="0.5351" stop-color="white"/>
<stop offset="0.7541" stop-color="white" stop-opacity="0.2459"/>
<stop offset="1" stop-color="white" stop-opacity="0"/>
</linearGradient>
<linearGradient id="paint67_linear_332_24967" x1="135.548" y1="186.232" x2="135.548" y2="-14.5058" gradientUnits="userSpaceOnUse">
<stop stop-color="white" stop-opacity="0"/>
<stop offset="0.5351" stop-color="white"/>
<stop offset="0.7541" stop-color="white" stop-opacity="0.2459"/>
<stop offset="1" stop-color="white" stop-opacity="0"/>
</linearGradient>
<linearGradient id="paint68_linear_332_24967" x1="135.151" y1="186.231" x2="135.151" y2="-14.5039" gradientUnits="userSpaceOnUse">
<stop stop-color="white" stop-opacity="0"/>
<stop offset="0.5351" stop-color="white"/>
<stop offset="0.7541" stop-color="white" stop-opacity="0.2459"/>
<stop offset="1" stop-color="white" stop-opacity="0"/>
</linearGradient>
<linearGradient id="paint69_linear_332_24967" x1="135.548" y1="186.229" x2="135.548" y2="-14.4982" gradientUnits="userSpaceOnUse">
<stop stop-color="white" stop-opacity="0"/>
<stop offset="0.5351" stop-color="white"/>
<stop offset="0.7541" stop-color="white" stop-opacity="0.2459"/>
<stop offset="1" stop-color="white" stop-opacity="0"/>
</linearGradient>
<linearGradient id="paint70_linear_332_24967" x1="135.151" y1="186.23" x2="135.151" y2="-14.5046" gradientUnits="userSpaceOnUse">
<stop stop-color="white" stop-opacity="0"/>
<stop offset="0.5351" stop-color="white"/>
<stop offset="0.7541" stop-color="white" stop-opacity="0.2459"/>
<stop offset="1" stop-color="white" stop-opacity="0"/>
</linearGradient>
<linearGradient id="paint71_linear_332_24967" x1="135.548" y1="186.23" x2="135.548" y2="-14.508" gradientUnits="userSpaceOnUse">
<stop stop-color="white" stop-opacity="0"/>
<stop offset="0.5351" stop-color="white"/>
<stop offset="0.7541" stop-color="white" stop-opacity="0.2459"/>
<stop offset="1" stop-color="white" stop-opacity="0"/>
</linearGradient>
<linearGradient id="paint72_linear_332_24967" x1="135.151" y1="186.229" x2="135.151" y2="-14.4993" gradientUnits="userSpaceOnUse">
<stop stop-color="white" stop-opacity="0"/>
<stop offset="0.5351" stop-color="white"/>
<stop offset="0.7541" stop-color="white" stop-opacity="0.2459"/>
<stop offset="1" stop-color="white" stop-opacity="0"/>
</linearGradient>
<linearGradient id="paint73_linear_332_24967" x1="135.548" y1="186.23" x2="135.548" y2="-14.4968" gradientUnits="userSpaceOnUse">
<stop stop-color="white" stop-opacity="0"/>
<stop offset="0.5351" stop-color="white"/>
<stop offset="0.7541" stop-color="white" stop-opacity="0.2459"/>
<stop offset="1" stop-color="white" stop-opacity="0"/>
</linearGradient>
<linearGradient id="paint74_linear_332_24967" x1="135.151" y1="186.229" x2="135.151" y2="-14.5056" gradientUnits="userSpaceOnUse">
<stop stop-color="white" stop-opacity="0"/>
<stop offset="0.5351" stop-color="white"/>
<stop offset="0.7541" stop-color="white" stop-opacity="0.2459"/>
<stop offset="1" stop-color="white" stop-opacity="0"/>
</linearGradient>
<linearGradient id="paint75_linear_332_24967" x1="135.548" y1="186.23" x2="135.548" y2="-14.5001" gradientUnits="userSpaceOnUse">
<stop stop-color="white" stop-opacity="0"/>
<stop offset="0.5351" stop-color="white"/>
<stop offset="0.7541" stop-color="white" stop-opacity="0.2459"/>
<stop offset="1" stop-color="white" stop-opacity="0"/>
</linearGradient>
<linearGradient id="paint76_linear_332_24967" x1="135.548" y1="186.228" x2="135.548" y2="-14.513" gradientUnits="userSpaceOnUse">
<stop stop-color="white" stop-opacity="0"/>
<stop offset="0.5351" stop-color="white"/>
<stop offset="0.7541" stop-color="white" stop-opacity="0.2459"/>
<stop offset="1" stop-color="white" stop-opacity="0"/>
</linearGradient>
<linearGradient id="paint77_linear_332_24967" x1="135.151" y1="186.228" x2="135.151" y2="-14.5092" gradientUnits="userSpaceOnUse">
<stop stop-color="white" stop-opacity="0"/>
<stop offset="0.5351" stop-color="white"/>
<stop offset="0.7541" stop-color="white" stop-opacity="0.2459"/>
<stop offset="1" stop-color="white" stop-opacity="0"/>
</linearGradient>
<linearGradient id="paint78_linear_332_24967" x1="135.548" y1="186.23" x2="135.548" y2="-14.5001" gradientUnits="userSpaceOnUse">
<stop stop-color="white" stop-opacity="0"/>
<stop offset="0.5351" stop-color="white"/>
<stop offset="0.7541" stop-color="white" stop-opacity="0.2459"/>
<stop offset="1" stop-color="white" stop-opacity="0"/>
</linearGradient>
<linearGradient id="paint79_linear_332_24967" x1="148.604" y1="186.23" x2="148.604" y2="-14.5022" gradientUnits="userSpaceOnUse">
<stop stop-color="white" stop-opacity="0"/>
<stop offset="0.5351" stop-color="white"/>
<stop offset="0.7541" stop-color="white" stop-opacity="0.2459"/>
<stop offset="1" stop-color="white" stop-opacity="0"/>
</linearGradient>
<linearGradient id="paint80_linear_332_24967" x1="148.082" y1="186.228" x2="148.082" y2="-14.5017" gradientUnits="userSpaceOnUse">
<stop stop-color="white" stop-opacity="0"/>
<stop offset="0.5351" stop-color="white"/>
<stop offset="0.7541" stop-color="white" stop-opacity="0.2459"/>
<stop offset="1" stop-color="white" stop-opacity="0"/>
</linearGradient>
<linearGradient id="paint81_linear_332_24967" x1="148.082" y1="186.235" x2="148.082" y2="-14.5029" gradientUnits="userSpaceOnUse">
<stop stop-color="white" stop-opacity="0"/>
<stop offset="0.5351" stop-color="white"/>
<stop offset="0.7541" stop-color="white" stop-opacity="0.2459"/>
<stop offset="1" stop-color="white" stop-opacity="0"/>
</linearGradient>
<linearGradient id="paint82_linear_332_24967" x1="148.604" y1="186.228" x2="148.604" y2="-14.5" gradientUnits="userSpaceOnUse">
<stop stop-color="white" stop-opacity="0"/>
<stop offset="0.5351" stop-color="white"/>
<stop offset="0.7541" stop-color="white" stop-opacity="0.2459"/>
<stop offset="1" stop-color="white" stop-opacity="0"/>
</linearGradient>
<linearGradient id="paint83_linear_332_24967" x1="148.082" y1="186.233" x2="148.082" y2="-14.5039" gradientUnits="userSpaceOnUse">
<stop stop-color="white" stop-opacity="0"/>
<stop offset="0.5351" stop-color="white"/>
<stop offset="0.7541" stop-color="white" stop-opacity="0.2459"/>
<stop offset="1" stop-color="white" stop-opacity="0"/>
</linearGradient>
<linearGradient id="paint84_linear_332_24967" x1="111.119" y1="186.23" x2="111.119" y2="-14.501" gradientUnits="userSpaceOnUse">
<stop stop-color="white" stop-opacity="0"/>
<stop offset="0.5351" stop-color="white"/>
<stop offset="0.7541" stop-color="white" stop-opacity="0.2459"/>
<stop offset="1" stop-color="white" stop-opacity="0"/>
</linearGradient>
<linearGradient id="paint85_linear_332_24967" x1="110.767" y1="186.23" x2="110.767" y2="-14.4998" gradientUnits="userSpaceOnUse">
<stop stop-color="white" stop-opacity="0"/>
<stop offset="0.5351" stop-color="white"/>
<stop offset="0.7541" stop-color="white" stop-opacity="0.2459"/>
<stop offset="1" stop-color="white" stop-opacity="0"/>
</linearGradient>
<linearGradient id="paint86_linear_332_24967" x1="111.119" y1="186.23" x2="111.119" y2="-14.5008" gradientUnits="userSpaceOnUse">
<stop stop-color="white" stop-opacity="0"/>
<stop offset="0.5351" stop-color="white"/>
<stop offset="0.7541" stop-color="white" stop-opacity="0.2459"/>
<stop offset="1" stop-color="white" stop-opacity="0"/>
</linearGradient>
<linearGradient id="paint87_linear_332_24967" x1="110.767" y1="186.23" x2="110.767" y2="-14.4997" gradientUnits="userSpaceOnUse">
<stop stop-color="white" stop-opacity="0"/>
<stop offset="0.5351" stop-color="white"/>
<stop offset="0.7541" stop-color="white" stop-opacity="0.2459"/>
<stop offset="1" stop-color="white" stop-opacity="0"/>
</linearGradient>
<linearGradient id="paint88_linear_332_24967" x1="111.119" y1="186.23" x2="111.119" y2="-14.5009" gradientUnits="userSpaceOnUse">
<stop stop-color="white" stop-opacity="0"/>
<stop offset="0.5351" stop-color="white"/>
<stop offset="0.7541" stop-color="white" stop-opacity="0.2459"/>
<stop offset="1" stop-color="white" stop-opacity="0"/>
</linearGradient>
<linearGradient id="paint89_linear_332_24967" x1="111.119" y1="186.23" x2="111.119" y2="-14.5032" gradientUnits="userSpaceOnUse">
<stop stop-color="white" stop-opacity="0"/>
<stop offset="0.5351" stop-color="white"/>
<stop offset="0.7541" stop-color="white" stop-opacity="0.2459"/>
<stop offset="1" stop-color="white" stop-opacity="0"/>
</linearGradient>
<linearGradient id="paint90_linear_332_24967" x1="111.119" y1="186.23" x2="111.119" y2="-14.5032" gradientUnits="userSpaceOnUse">
<stop stop-color="white" stop-opacity="0"/>
<stop offset="0.5351" stop-color="white"/>
<stop offset="0.7541" stop-color="white" stop-opacity="0.2459"/>
<stop offset="1" stop-color="white" stop-opacity="0"/>
</linearGradient>
<linearGradient id="paint91_linear_332_24967" x1="110.767" y1="186.23" x2="110.767" y2="-14.4998" gradientUnits="userSpaceOnUse">
<stop stop-color="white" stop-opacity="0"/>
<stop offset="0.5351" stop-color="white"/>
<stop offset="0.7541" stop-color="white" stop-opacity="0.2459"/>
<stop offset="1" stop-color="white" stop-opacity="0"/>
</linearGradient>
<linearGradient id="paint92_linear_332_24967" x1="110.767" y1="186.23" x2="110.767" y2="-14.5003" gradientUnits="userSpaceOnUse">
<stop stop-color="white" stop-opacity="0"/>
<stop offset="0.5351" stop-color="white"/>
<stop offset="0.7541" stop-color="white" stop-opacity="0.2459"/>
<stop offset="1" stop-color="white" stop-opacity="0"/>
</linearGradient>
<linearGradient id="paint93_linear_332_24967" x1="123.622" y1="186.229" x2="123.622" y2="-14.5016" gradientUnits="userSpaceOnUse">
<stop stop-color="white" stop-opacity="0"/>
<stop offset="0.5351" stop-color="white"/>
<stop offset="0.7541" stop-color="white" stop-opacity="0.2459"/>
<stop offset="1" stop-color="white" stop-opacity="0"/>
</linearGradient>
<linearGradient id="paint94_linear_332_24967" x1="124.091" y1="186.232" x2="124.091" y2="-14.5029" gradientUnits="userSpaceOnUse">
<stop stop-color="white" stop-opacity="0"/>
<stop offset="0.5351" stop-color="white"/>
<stop offset="0.7541" stop-color="white" stop-opacity="0.2459"/>
<stop offset="1" stop-color="white" stop-opacity="0"/>
</linearGradient>
<linearGradient id="paint95_linear_332_24967" x1="123.622" y1="186.232" x2="123.622" y2="-14.5007" gradientUnits="userSpaceOnUse">
<stop stop-color="white" stop-opacity="0"/>
<stop offset="0.5351" stop-color="white"/>
<stop offset="0.7541" stop-color="white" stop-opacity="0.2459"/>
<stop offset="1" stop-color="white" stop-opacity="0"/>
</linearGradient>
<linearGradient id="paint96_linear_332_24967" x1="124.091" y1="186.227" x2="124.091" y2="-14.5008" gradientUnits="userSpaceOnUse">
<stop stop-color="white" stop-opacity="0"/>
<stop offset="0.5351" stop-color="white"/>
<stop offset="0.7541" stop-color="white" stop-opacity="0.2459"/>
<stop offset="1" stop-color="white" stop-opacity="0"/>
</linearGradient>
<linearGradient id="paint97_linear_332_24967" x1="124.091" y1="186.231" x2="124.091" y2="-14.5036" gradientUnits="userSpaceOnUse">
<stop stop-color="white" stop-opacity="0"/>
<stop offset="0.5351" stop-color="white"/>
<stop offset="0.7541" stop-color="white" stop-opacity="0.2459"/>
<stop offset="1" stop-color="white" stop-opacity="0"/>
</linearGradient>
<linearGradient id="paint98_linear_332_24967" x1="124.091" y1="186.231" x2="124.091" y2="-14.5017" gradientUnits="userSpaceOnUse">
<stop stop-color="white" stop-opacity="0"/>
<stop offset="0.5351" stop-color="white"/>
<stop offset="0.7541" stop-color="white" stop-opacity="0.2459"/>
<stop offset="1" stop-color="white" stop-opacity="0"/>
</linearGradient>
<linearGradient id="paint99_linear_332_24967" x1="123.622" y1="186.231" x2="123.622" y2="-14.5019" gradientUnits="userSpaceOnUse">
<stop stop-color="white" stop-opacity="0"/>
<stop offset="0.5351" stop-color="white"/>
<stop offset="0.7541" stop-color="white" stop-opacity="0.2459"/>
<stop offset="1" stop-color="white" stop-opacity="0"/>
</linearGradient>
<linearGradient id="paint100_linear_332_24967" x1="124.091" y1="186.23" x2="124.091" y2="-14.5005" gradientUnits="userSpaceOnUse">
<stop stop-color="white" stop-opacity="0"/>
<stop offset="0.5351" stop-color="white"/>
<stop offset="0.7541" stop-color="white" stop-opacity="0.2459"/>
<stop offset="1" stop-color="white" stop-opacity="0"/>
</linearGradient>
<linearGradient id="paint101_linear_332_24967" x1="123.622" y1="186.23" x2="123.622" y2="-14.5021" gradientUnits="userSpaceOnUse">
<stop stop-color="white" stop-opacity="0"/>
<stop offset="0.5351" stop-color="white"/>
<stop offset="0.7541" stop-color="white" stop-opacity="0.2459"/>
<stop offset="1" stop-color="white" stop-opacity="0"/>
</linearGradient>
<linearGradient id="paint102_linear_332_24967" x1="124.091" y1="186.232" x2="124.091" y2="-14.5054" gradientUnits="userSpaceOnUse">
<stop stop-color="white" stop-opacity="0"/>
<stop offset="0.5351" stop-color="white"/>
<stop offset="0.7541" stop-color="white" stop-opacity="0.2459"/>
<stop offset="1" stop-color="white" stop-opacity="0"/>
</linearGradient>
<linearGradient id="paint103_linear_332_24967" x1="123.622" y1="186.23" x2="123.622" y2="-14.5025" gradientUnits="userSpaceOnUse">
<stop stop-color="white" stop-opacity="0"/>
<stop offset="0.5351" stop-color="white"/>
<stop offset="0.7541" stop-color="white" stop-opacity="0.2459"/>
<stop offset="1" stop-color="white" stop-opacity="0"/>
</linearGradient>
<linearGradient id="paint104_linear_332_24967" x1="124.091" y1="186.229" x2="124.091" y2="-14.4942" gradientUnits="userSpaceOnUse">
<stop stop-color="white" stop-opacity="0"/>
<stop offset="0.5351" stop-color="white"/>
<stop offset="0.7541" stop-color="white" stop-opacity="0.2459"/>
<stop offset="1" stop-color="white" stop-opacity="0"/>
</linearGradient>
<linearGradient id="paint105_linear_332_24967" x1="123.622" y1="186.23" x2="123.622" y2="-14.5024" gradientUnits="userSpaceOnUse">
<stop stop-color="white" stop-opacity="0"/>
<stop offset="0.5351" stop-color="white"/>
<stop offset="0.7541" stop-color="white" stop-opacity="0.2459"/>
<stop offset="1" stop-color="white" stop-opacity="0"/>
</linearGradient>
<linearGradient id="paint106_linear_332_24967" x1="124.091" y1="186.23" x2="124.091" y2="-14.5073" gradientUnits="userSpaceOnUse">
<stop stop-color="white" stop-opacity="0"/>
<stop offset="0.5351" stop-color="white"/>
<stop offset="0.7541" stop-color="white" stop-opacity="0.2459"/>
<stop offset="1" stop-color="white" stop-opacity="0"/>
</linearGradient>
<linearGradient id="paint107_linear_332_24967" x1="124.091" y1="186.229" x2="124.091" y2="-14.5106" gradientUnits="userSpaceOnUse">
<stop stop-color="white" stop-opacity="0"/>
<stop offset="0.5351" stop-color="white"/>
<stop offset="0.7541" stop-color="white" stop-opacity="0.2459"/>
<stop offset="1" stop-color="white" stop-opacity="0"/>
</linearGradient>
<linearGradient id="paint108_linear_332_24967" x1="123.622" y1="186.229" x2="123.622" y2="-14.5108" gradientUnits="userSpaceOnUse">
<stop stop-color="white" stop-opacity="0"/>
<stop offset="0.5351" stop-color="white"/>
<stop offset="0.7541" stop-color="white" stop-opacity="0.2459"/>
<stop offset="1" stop-color="white" stop-opacity="0"/>
</linearGradient>
<linearGradient id="paint109_linear_332_24967" x1="124.091" y1="186.231" x2="124.091" y2="-14.497" gradientUnits="userSpaceOnUse">
<stop stop-color="white" stop-opacity="0"/>
<stop offset="0.5351" stop-color="white"/>
<stop offset="0.7541" stop-color="white" stop-opacity="0.2459"/>
<stop offset="1" stop-color="white" stop-opacity="0"/>
</linearGradient>
<linearGradient id="paint110_linear_332_24967" x1="111.428" y1="186.228" x2="111.428" y2="-14.5017" gradientUnits="userSpaceOnUse">
<stop stop-color="white" stop-opacity="0"/>
<stop offset="0.5351" stop-color="white"/>
<stop offset="0.7541" stop-color="white" stop-opacity="0.2459"/>
<stop offset="1" stop-color="white" stop-opacity="0"/>
</linearGradient>
<linearGradient id="paint111_linear_332_24967" x1="111.78" y1="186.23" x2="111.78" y2="-14.5032" gradientUnits="userSpaceOnUse">
<stop stop-color="white" stop-opacity="0"/>
<stop offset="0.5351" stop-color="white"/>
<stop offset="0.7541" stop-color="white" stop-opacity="0.2459"/>
<stop offset="1" stop-color="white" stop-opacity="0"/>
</linearGradient>
<linearGradient id="paint112_linear_332_24967" x1="111.428" y1="186.228" x2="111.428" y2="-14.5019" gradientUnits="userSpaceOnUse">
<stop stop-color="white" stop-opacity="0"/>
<stop offset="0.5351" stop-color="white"/>
<stop offset="0.7541" stop-color="white" stop-opacity="0.2459"/>
<stop offset="1" stop-color="white" stop-opacity="0"/>
</linearGradient>
<linearGradient id="paint113_linear_332_24967" x1="111.78" y1="186.231" x2="111.78" y2="-14.5029" gradientUnits="userSpaceOnUse">
<stop stop-color="white" stop-opacity="0"/>
<stop offset="0.5351" stop-color="white"/>
<stop offset="0.7541" stop-color="white" stop-opacity="0.2459"/>
<stop offset="1" stop-color="white" stop-opacity="0"/>
</linearGradient>
<linearGradient id="paint114_linear_332_24967" x1="111.428" y1="186.229" x2="111.428" y2="-14.5011" gradientUnits="userSpaceOnUse">
<stop stop-color="white" stop-opacity="0"/>
<stop offset="0.5351" stop-color="white"/>
<stop offset="0.7541" stop-color="white" stop-opacity="0.2459"/>
<stop offset="1" stop-color="white" stop-opacity="0"/>
</linearGradient>
<linearGradient id="paint115_linear_332_24967" x1="111.78" y1="186.23" x2="111.78" y2="-14.5032" gradientUnits="userSpaceOnUse">
<stop stop-color="white" stop-opacity="0"/>
<stop offset="0.5351" stop-color="white"/>
<stop offset="0.7541" stop-color="white" stop-opacity="0.2459"/>
<stop offset="1" stop-color="white" stop-opacity="0"/>
</linearGradient>
<linearGradient id="paint116_linear_332_24967" x1="111.78" y1="186.231" x2="111.78" y2="-14.503" gradientUnits="userSpaceOnUse">
<stop stop-color="white" stop-opacity="0"/>
<stop offset="0.5351" stop-color="white"/>
<stop offset="0.7541" stop-color="white" stop-opacity="0.2459"/>
<stop offset="1" stop-color="white" stop-opacity="0"/>
</linearGradient>
<linearGradient id="paint117_linear_332_24967" x1="111.428" y1="186.229" x2="111.428" y2="-14.501" gradientUnits="userSpaceOnUse">
<stop stop-color="white" stop-opacity="0"/>
<stop offset="0.5351" stop-color="white"/>
<stop offset="0.7541" stop-color="white" stop-opacity="0.2459"/>
<stop offset="1" stop-color="white" stop-opacity="0"/>
</linearGradient>
<linearGradient id="paint118_linear_332_24967" x1="111.78" y1="186.23" x2="111.78" y2="-14.503" gradientUnits="userSpaceOnUse">
<stop stop-color="white" stop-opacity="0"/>
<stop offset="0.5351" stop-color="white"/>
<stop offset="0.7541" stop-color="white" stop-opacity="0.2459"/>
<stop offset="1" stop-color="white" stop-opacity="0"/>
</linearGradient>
</defs>
</svg>
