<svg width="14" height="106" viewBox="0 0 14 106" fill="none" xmlns="http://www.w3.org/2000/svg">
<path d="M7.50684 1.05478C7.50684 0.775038 7.61797 0.506755 7.81578 0.308945C8.01359 0.111135 8.28187 0 8.56162 0C8.84137 0 9.10966 0.111135 9.30747 0.308945C9.50528 0.506755 9.6164 0.775038 9.6164 1.05478V3.3512C9.6164 3.63094 9.50528 3.89923 9.30747 4.09704C9.10966 4.29485 8.84137 4.40598 8.56162 4.40598C8.28187 4.40598 8.01359 4.29485 7.81578 4.09704C7.61797 3.89923 7.50684 3.63094 7.50684 3.3512V1.05478ZM8.19998 3.39339C8.19998 3.71284 8.33861 3.83338 8.56162 3.83338C8.78463 3.83338 8.91724 3.71284 8.91724 3.39339V0.982459C8.91724 0.66301 8.7786 0.542457 8.56162 0.542457C8.34464 0.542457 8.19998 0.66301 8.19998 0.982459V3.39339Z" fill="#1AB2E2"/>
<path d="M7.50684 7.38364C7.50684 7.1039 7.61797 6.83561 7.81578 6.6378C8.01359 6.43999 8.28187 6.32886 8.56162 6.32886C8.84137 6.32886 9.10966 6.43999 9.30747 6.6378C9.50528 6.83561 9.6164 7.1039 9.6164 7.38364V9.68005C9.6164 9.9598 9.50528 10.2281 9.30747 10.4259C9.10966 10.6237 8.84137 10.7348 8.56162 10.7348C8.28187 10.7348 8.01359 10.6237 7.81578 10.4259C7.61797 10.2281 7.50684 9.9598 7.50684 9.68005V7.38364ZM8.19998 9.72828C8.19998 10.0417 8.33861 10.1622 8.56162 10.1622C8.78463 10.1622 8.91724 10.0417 8.91724 9.72828V7.31735C8.91724 7.00393 8.7786 6.88338 8.56162 6.88338C8.34464 6.88338 8.19998 7.00393 8.19998 7.31735V9.72828Z" fill="#1AB2E2"/>
<path d="M7.99512 13.1939C8.16847 13.2153 8.34348 13.1699 8.48455 13.0669C8.62563 12.9639 8.72218 12.811 8.75457 12.6394H9.2247V17.0574H8.53155V13.7123H7.99512V13.1939Z" fill="#1AB2E2"/>
<path d="M7.50684 20.0108C7.50684 19.7311 7.61797 19.4628 7.81578 19.265C8.01359 19.0672 8.28187 18.9561 8.56162 18.9561C8.84137 18.9561 9.10966 19.0672 9.30747 19.265C9.50528 19.4628 9.6164 19.7311 9.6164 20.0108V22.3073C9.6164 22.587 9.50528 22.8553 9.30747 23.0531C9.10966 23.2509 8.84137 23.362 8.56162 23.362C8.28187 23.362 8.01359 23.2509 7.81578 23.0531C7.61797 22.8553 7.50684 22.587 7.50684 22.3073V20.0108ZM8.19998 22.3494C8.19998 22.6689 8.33861 22.7894 8.56162 22.7894C8.78463 22.7894 8.91724 22.6689 8.91724 22.3494V19.9686C8.91724 19.6492 8.7786 19.5286 8.56162 19.5286C8.34464 19.5286 8.19998 19.6492 8.19998 19.9686V22.3494Z" fill="#1AB2E2"/>
<path d="M7.99512 25.8211C8.16847 25.8425 8.34348 25.7971 8.48455 25.6941C8.62563 25.5911 8.72218 25.4382 8.75457 25.2666H9.2247V29.6786H8.53155V26.3093H7.99512V25.8211Z" fill="#1AB2E2"/>
<path d="M7.50684 32.638C7.50684 32.3583 7.61797 32.09 7.81578 31.8922C8.01359 31.6944 8.28187 31.5833 8.56162 31.5833C8.84137 31.5833 9.10966 31.6944 9.30747 31.8922C9.50528 32.09 9.6164 32.3583 9.6164 32.638V34.9344C9.6164 35.2142 9.50528 35.4825 9.30747 35.6803C9.10966 35.8781 8.84137 35.9892 8.56162 35.9892C8.28187 35.9892 8.01359 35.8781 7.81578 35.6803C7.61797 35.4825 7.50684 35.2142 7.50684 34.9344V32.638ZM8.19998 34.9766C8.19998 35.2901 8.33861 35.4106 8.56162 35.4106C8.78463 35.4106 8.91724 35.2901 8.91724 34.9766V32.5657C8.91724 32.2523 8.7786 32.1317 8.56162 32.1317C8.34464 32.1317 8.19998 32.2523 8.19998 32.5657V34.9766Z" fill="#1AB2E2"/>
<path d="M7.99512 38.4244C8.16847 38.4458 8.34348 38.4004 8.48455 38.2974C8.62563 38.1944 8.72218 38.0415 8.75457 37.8699H9.2247V42.2879H8.53155V38.9186H7.99512V38.4244Z" fill="#1AB2E2"/>
<path d="M7.50684 45.2594C7.50684 44.9796 7.61797 44.7113 7.81578 44.5135C8.01359 44.3157 8.28187 44.2046 8.56162 44.2046C8.84137 44.2046 9.10966 44.3157 9.30747 44.5135C9.50528 44.7113 9.6164 44.9796 9.6164 45.2594V47.5558C9.6164 47.8355 9.50528 48.1038 9.30747 48.3016C9.10966 48.4995 8.84137 48.6106 8.56162 48.6106C8.28187 48.6106 8.01359 48.4995 7.81578 48.3016C7.61797 48.1038 7.50684 47.8355 7.50684 47.5558V45.2594ZM8.19998 47.604C8.19998 47.9174 8.33861 48.038 8.56162 48.038C8.78463 48.038 8.91724 47.9174 8.91724 47.604V45.1931C8.91724 44.8797 8.7786 44.7591 8.56162 44.7591C8.34464 44.7591 8.19998 44.8797 8.19998 45.1931V47.604Z" fill="#1AB2E2"/>
<path d="M7.50684 51.576C7.50684 51.2963 7.61797 51.028 7.81578 50.8302C8.01359 50.6324 8.28187 50.5212 8.56162 50.5212C8.84137 50.5212 9.10966 50.6324 9.30747 50.8302C9.50528 51.028 9.6164 51.2963 9.6164 51.576V53.8724C9.6164 54.1522 9.50528 54.4205 9.30747 54.6183C9.10966 54.8161 8.84137 54.9272 8.56162 54.9272C8.28187 54.9272 8.01359 54.8161 7.81578 54.6183C7.61797 54.4205 7.50684 54.1522 7.50684 53.8724V51.576ZM8.19998 53.9146C8.19998 54.2281 8.33861 54.3486 8.56162 54.3486C8.78463 54.3486 8.91724 54.2281 8.91724 53.9146V51.5037C8.91724 51.1903 8.7786 51.0697 8.56162 51.0697C8.34464 51.0697 8.19998 51.1903 8.19998 51.5037V53.9146Z" fill="#1AB2E2"/>
<path d="M7.50684 57.8866C7.50684 57.6068 7.61797 57.3385 7.81578 57.1407C8.01359 56.9429 8.28187 56.8318 8.56162 56.8318C8.84137 56.8318 9.10966 56.9429 9.30747 57.1407C9.50528 57.3385 9.6164 57.6068 9.6164 57.8866V60.183C9.6164 60.4627 9.50528 60.731 9.30747 60.9288C9.10966 61.1266 8.84137 61.2378 8.56162 61.2378C8.28187 61.2378 8.01359 61.1266 7.81578 60.9288C7.61797 60.731 7.50684 60.4627 7.50684 60.183V57.8866ZM8.19998 60.2252C8.19998 60.5446 8.33861 60.6652 8.56162 60.6652C8.78463 60.6652 8.91724 60.5446 8.91724 60.2252V57.8444C8.91724 57.5249 8.7786 57.4104 8.56162 57.4104C8.34464 57.4104 8.19998 57.5249 8.19998 57.8444V60.2252Z" fill="#1AB2E2"/>
<path d="M7.99512 63.6968C8.16847 63.7183 8.34348 63.6729 8.48455 63.5698C8.62563 63.4668 8.72218 63.314 8.75457 63.1423H9.2247V67.5543H8.53155V64.1851H7.99512V63.6968Z" fill="#1AB2E2"/>
<path d="M7.99512 70.0076C8.16847 70.029 8.34348 69.9836 8.48455 69.8806C8.62563 69.7776 8.72218 69.6248 8.75457 69.4531H9.2247V73.8712H8.53155V70.5019H7.99512V70.0076Z" fill="#1AB2E2"/>
<path d="M7.99512 76.3182C8.16847 76.3396 8.34348 76.2942 8.48455 76.1912C8.62563 76.0882 8.72218 75.9353 8.75457 75.7637H9.2247V80.1817H8.53155V76.8124H7.99512V76.3182Z" fill="#1AB2E2"/>
<path d="M7.99512 82.6348C8.16847 82.6563 8.34348 82.6108 8.48455 82.5078C8.62563 82.4048 8.72218 82.252 8.75457 82.0803H9.2247V86.4923H8.53155V83.1231H7.99512V82.6348Z" fill="#1AB2E2"/>
<path d="M8.2002 91.7905C8.2002 92.1099 8.33882 92.2244 8.56183 92.2244C8.78484 92.2244 8.91745 92.1099 8.91745 91.7905V89.3795C8.91745 89.0661 8.77881 88.9456 8.56183 88.9456C8.34485 88.9456 8.2002 89.0661 8.2002 89.3795V91.7905Z" fill="#1AB2E2"/>
<path d="M11.7441 25.8211C11.9182 25.8427 12.094 25.7975 12.2361 25.6946C12.3781 25.5917 12.4759 25.4387 12.5096 25.2666H12.9737V29.6786H12.2806V26.3093H11.7441V25.8211Z" fill="#1AB2E2"/>
<path d="M11.7441 32.1319C11.9182 32.1535 12.094 32.1083 12.2361 32.0053C12.3781 31.9024 12.4759 31.7495 12.5096 31.5774H12.9737V36.0135H12.2806V32.6442H11.7441V32.1319Z" fill="#1AB2E2"/>
<path d="M11.2862 45.2592C11.2752 45.1144 11.2943 44.9689 11.3422 44.8318C11.3901 44.6947 11.4657 44.5689 11.5645 44.4624C11.6632 44.3559 11.7829 44.271 11.916 44.2129C12.0491 44.1548 12.1928 44.1248 12.338 44.1248C12.4832 44.1248 12.6269 44.1548 12.76 44.2129C12.8931 44.271 13.0127 44.3559 13.1115 44.4624C13.2102 44.5689 13.2859 44.6947 13.3338 44.8318C13.3817 44.9689 13.4007 45.1144 13.3898 45.2592V47.5556C13.4007 47.7004 13.3817 47.846 13.3338 47.9831C13.2859 48.1202 13.2102 48.2459 13.1115 48.3524C13.0127 48.4589 12.8931 48.5439 12.76 48.602C12.6269 48.6601 12.4832 48.6901 12.338 48.6901C12.1928 48.6901 12.0491 48.6601 11.916 48.602C11.7829 48.5439 11.6632 48.4589 11.5645 48.3524C11.4657 48.2459 11.3901 48.1202 11.3422 47.9831C11.2943 47.846 11.2752 47.7004 11.2862 47.5556V45.2592ZM11.9794 47.6039C11.9794 47.9173 12.118 48.0378 12.335 48.0378C12.552 48.0378 12.6966 47.9173 12.6966 47.6039V45.1929C12.6966 44.8795 12.558 44.759 12.335 44.759C12.112 44.759 11.9794 44.8795 11.9794 45.1929V47.6039Z" fill="#1AB2E2"/>
<path d="M11.7441 51.0816C11.9182 51.1032 12.094 51.058 12.2361 50.9551C12.3781 50.8522 12.4759 50.6992 12.5096 50.5271H12.9737V54.9451H12.2806V51.5638H11.7441V51.0816Z" fill="#1AB2E2"/>
<path d="M11.2862 57.8867C11.2752 57.7419 11.2943 57.5963 11.3422 57.4592C11.3901 57.3221 11.4657 57.1964 11.5645 57.0899C11.6632 56.9834 11.7829 56.8984 11.916 56.8403C12.0491 56.7822 12.1928 56.7522 12.338 56.7522C12.4832 56.7522 12.6269 56.7822 12.76 56.8403C12.8931 56.8984 13.0127 56.9834 13.1115 57.0899C13.2102 57.1964 13.2859 57.3221 13.3338 57.4592C13.3817 57.5963 13.4007 57.7419 13.3898 57.8867V60.1831C13.4007 60.3279 13.3817 60.4734 13.3338 60.6105C13.2859 60.7476 13.2102 60.8734 13.1115 60.9799C13.0127 61.0864 12.8931 61.1713 12.76 61.2294C12.6269 61.2875 12.4832 61.3175 12.338 61.3175C12.1928 61.3175 12.0491 61.2875 11.916 61.2294C11.7829 61.1713 11.6632 61.0864 11.5645 60.9799C11.4657 60.8734 11.3901 60.7476 11.3422 60.6105C11.2943 60.4734 11.2752 60.3279 11.2862 60.1831V57.8867ZM11.9794 60.2253C11.9794 60.5447 12.118 60.6653 12.335 60.6653C12.552 60.6653 12.6966 60.5447 12.6966 60.2253V57.8445C12.6966 57.525 12.558 57.4105 12.335 57.4105C12.112 57.4105 11.9794 57.525 11.9794 57.8445V60.2253Z" fill="#1AB2E2"/>
<path d="M11.9551 72.8525C11.9551 73.1659 12.0937 73.2864 12.3107 73.2864C12.5277 73.2864 12.6723 73.1659 12.6723 72.8525V70.4415C12.6723 70.1281 12.5337 70.0076 12.3107 70.0076C12.0877 70.0076 11.9551 70.1281 11.9551 70.4415V72.8525Z" fill="#1AB2E2"/>
<path d="M11.7446 76.3183C11.9116 76.3363 12.0794 76.293 12.2169 76.1966C12.3543 76.1001 12.4521 75.9571 12.492 75.7939H12.9561V80.212H12.263V76.8427H11.7266L11.7446 76.3183Z" fill="#1AB2E2"/>
<path d="M11.7441 82.6348C11.9182 82.6564 12.094 82.6112 12.2361 82.5083C12.3781 82.4054 12.4759 82.2525 12.5096 82.0803H12.9737V86.4923H12.2806V83.1231H11.7441V82.6348Z" fill="#1AB2E2"/>
<path d="M11.2862 102.073C11.2752 101.928 11.2943 101.783 11.3422 101.646C11.3901 101.508 11.4657 101.383 11.5645 101.276C11.6632 101.17 11.7829 101.085 11.916 101.027C12.0491 100.968 12.1928 100.938 12.338 100.938C12.4832 100.938 12.6269 100.968 12.76 101.027C12.8931 101.085 13.0127 101.17 13.1115 101.276C13.2102 101.383 13.2859 101.508 13.3338 101.646C13.3817 101.783 13.4007 101.928 13.3898 102.073V104.375C13.4007 104.52 13.3817 104.666 13.3338 104.803C13.2859 104.94 13.2102 105.066 13.1115 105.172C13.0127 105.279 12.8931 105.364 12.76 105.422C12.6269 105.48 12.4832 105.51 12.338 105.51C12.1928 105.51 12.0491 105.48 11.916 105.422C11.7829 105.364 11.6632 105.279 11.5645 105.172C11.4657 105.066 11.3901 104.94 11.3422 104.803C11.2943 104.666 11.2752 104.52 11.2862 104.375V102.073ZM11.9794 104.418C11.9794 104.731 12.118 104.852 12.335 104.852C12.552 104.852 12.6966 104.731 12.6966 104.418V102.007C12.6966 101.693 12.558 101.573 12.335 101.573C12.112 101.573 11.9794 101.693 11.9794 102.007V104.418Z" fill="#1AB2E2"/>
<path d="M3.75195 20.0108C3.75195 19.7311 3.86308 19.4628 4.06089 19.265C4.2587 19.0672 4.52699 18.9561 4.80674 18.9561C5.08648 18.9561 5.35477 19.0672 5.55258 19.265C5.75039 19.4628 5.86152 19.7311 5.86152 20.0108V22.3073C5.86152 22.587 5.75039 22.8553 5.55258 23.0531C5.35477 23.2509 5.08648 23.362 4.80674 23.362C4.52699 23.362 4.2587 23.2509 4.06089 23.0531C3.86308 22.8553 3.75195 22.587 3.75195 22.3073V20.0108ZM4.44509 22.3494C4.44509 22.6689 4.58373 22.7894 4.80674 22.7894C5.02975 22.7894 5.16838 22.6689 5.16838 22.3494V19.9686C5.16838 19.6492 5.02975 19.5286 4.80674 19.5286C4.58373 19.5286 4.44509 19.6492 4.44509 19.9686V22.3494Z" fill="#1AB2E2"/>
<path d="M4.24023 25.8211C4.41431 25.8427 4.5901 25.7975 4.73215 25.6946C4.87421 25.5917 4.97196 25.4387 5.00571 25.2666H5.46982V29.6786H4.77667V26.3093H4.24023V25.8211Z" fill="#1AB2E2"/>
<path d="M4.24023 32.1319C4.41431 32.1535 4.5901 32.1083 4.73215 32.0053C4.87421 31.9024 4.97196 31.7495 5.00571 31.5774H5.46982V36.0135H4.77667V32.6442H4.24023V32.1319Z" fill="#1AB2E2"/>
<path d="M3.75195 38.9488C3.75195 38.6691 3.86308 38.4008 4.06089 38.203C4.2587 38.0052 4.52699 37.894 4.80674 37.894C5.08648 37.894 5.35477 38.0052 5.55258 38.203C5.75039 38.4008 5.86152 38.6691 5.86152 38.9488V41.2452C5.86152 41.525 5.75039 41.7933 5.55258 41.9911C5.35477 42.1889 5.08648 42.3 4.80674 42.3C4.52699 42.3 4.2587 42.1889 4.06089 41.9911C3.86308 41.7933 3.75195 41.525 3.75195 41.2452V38.9488ZM4.44509 41.2874C4.44509 41.6069 4.58373 41.7274 4.80674 41.7274C5.02975 41.7274 5.16838 41.6069 5.16838 41.2874V38.9066C5.16838 38.5872 5.02975 38.4666 4.80674 38.4666C4.58373 38.4666 4.44509 38.5872 4.44509 38.9066V41.2874Z" fill="#1AB2E2"/>
<path d="M3.75195 51.576C3.75195 51.2963 3.86308 51.028 4.06089 50.8302C4.2587 50.6324 4.52699 50.5212 4.80674 50.5212C5.08648 50.5212 5.35477 50.6324 5.55258 50.8302C5.75039 51.028 5.86152 51.2963 5.86152 51.576V53.8724C5.86152 54.1522 5.75039 54.4205 5.55258 54.6183C5.35477 54.8161 5.08648 54.9272 4.80674 54.9272C4.52699 54.9272 4.2587 54.8161 4.06089 54.6183C3.86308 54.4205 3.75195 54.1522 3.75195 53.8724V51.576ZM4.44509 53.9146C4.44509 54.2281 4.58373 54.3486 4.80674 54.3486C5.02975 54.3486 5.16838 54.2281 5.16838 53.9146V51.5037C5.16838 51.1903 5.02975 51.0697 4.80674 51.0697C4.58373 51.0697 4.44509 51.1903 4.44509 51.5037V53.9146Z" fill="#1AB2E2"/>
<path d="M3.75195 57.8866C3.75195 57.6068 3.86308 57.3385 4.06089 57.1407C4.2587 56.9429 4.52699 56.8318 4.80674 56.8318C5.08648 56.8318 5.35477 56.9429 5.55258 57.1407C5.75039 57.3385 5.86152 57.6068 5.86152 57.8866V60.183C5.86152 60.4627 5.75039 60.731 5.55258 60.9288C5.35477 61.1266 5.08648 61.2378 4.80674 61.2378C4.52699 61.2378 4.2587 61.1266 4.06089 60.9288C3.86308 60.731 3.75195 60.4627 3.75195 60.183V57.8866ZM4.44509 60.2252C4.44509 60.5446 4.58373 60.6652 4.80674 60.6652C5.02975 60.6652 5.16838 60.5446 5.16838 60.2252V57.8444C5.16838 57.5249 5.02975 57.4104 4.80674 57.4104C4.58373 57.4104 4.44509 57.5249 4.44509 57.8444V60.2252Z" fill="#1AB2E2"/>
<path d="M4.24023 63.6968C4.41431 63.7184 4.5901 63.6732 4.73215 63.5703C4.87421 63.4674 4.97196 63.3145 5.00571 63.1423H5.46982V67.5543H4.77667V64.1851H4.24023V63.6968Z" fill="#1AB2E2"/>
<path d="M3.75195 70.5138C3.75195 70.234 3.86308 69.9657 4.06089 69.7679C4.2587 69.5701 4.52699 69.459 4.80674 69.459C5.08648 69.459 5.35477 69.5701 5.55258 69.7679C5.75039 69.9657 5.86152 70.234 5.86152 70.5138V72.8102C5.86152 73.0899 5.75039 73.3582 5.55258 73.556C5.35477 73.7538 5.08648 73.865 4.80674 73.865C4.52699 73.865 4.2587 73.7538 4.06089 73.556C3.86308 73.3582 3.75195 73.0899 3.75195 72.8102V70.5138ZM4.44509 72.8524C4.44509 73.1658 4.58373 73.2863 4.80674 73.2863C5.02975 73.2863 5.16838 73.1658 5.16838 72.8524V70.4414C5.16838 70.128 5.02975 70.0075 4.80674 70.0075C4.58373 70.0075 4.44509 70.128 4.44509 70.4414V72.8524Z" fill="#1AB2E2"/>
<path d="M4.24023 76.3182C4.41431 76.3398 4.5901 76.2945 4.73215 76.1916C4.87421 76.0887 4.97196 75.9358 5.00571 75.7637H5.46982V80.1817H4.77667V76.8124H4.24023V76.3182Z" fill="#1AB2E2"/>
<path d="M0.00301393 7.38349C-0.00795658 7.23867 0.0110946 7.09316 0.0589776 6.95605C0.106861 6.81894 0.182549 6.6932 0.281287 6.5867C0.380025 6.4802 0.499686 6.39523 0.632787 6.33713C0.765887 6.27903 0.909551 6.24902 1.05478 6.24902C1.20001 6.24902 1.34368 6.27903 1.47678 6.33713C1.60989 6.39523 1.72955 6.4802 1.82828 6.5867C1.92702 6.6932 2.00271 6.81894 2.05059 6.95605C2.09848 7.09316 2.11753 7.23867 2.10656 7.38349V9.6799C2.11753 9.82472 2.09848 9.97023 2.05059 10.1073C2.00271 10.2445 1.92702 10.3702 1.82828 10.4767C1.72955 10.5832 1.60989 10.6682 1.47678 10.7263C1.34368 10.7844 1.20001 10.8144 1.05478 10.8144C0.909551 10.8144 0.765887 10.7844 0.632787 10.7263C0.499686 10.6682 0.380025 10.5832 0.281287 10.4767C0.182549 10.3702 0.106861 10.2445 0.0589776 10.1073C0.0110946 9.97023 -0.00795658 9.82472 0.00301393 9.6799V7.38349ZM0.696154 9.72813C0.696154 10.0416 0.83479 10.1621 1.05177 10.1621C1.26876 10.1621 1.41341 10.0416 1.41341 9.72813V7.3172C1.41341 7.00378 1.27479 6.88323 1.05177 6.88323C0.828762 6.88323 0.696154 7.00378 0.696154 7.3172V9.72813Z" fill="#1AB2E2"/>
<path d="M0.485352 19.5045C0.659428 19.526 0.835209 19.4808 0.977261 19.3779C1.11931 19.275 1.21708 19.1221 1.25083 18.95H1.71492V23.3559H1.03987V19.9867H0.503433L0.485352 19.5045Z" fill="#1AB2E2"/>
<path d="M0.485352 32.1319C0.659428 32.1535 0.835209 32.1083 0.977261 32.0053C1.11931 31.9024 1.21708 31.7495 1.25083 31.5774H1.71492V36.0135H1.03987V32.6442H0.503433L0.485352 32.1319Z" fill="#1AB2E2"/>
<path d="M0.00301393 38.9487C-0.00795658 38.8039 0.0110946 38.6583 0.0589776 38.5212C0.106861 38.3841 0.182549 38.2584 0.281287 38.1519C0.380025 38.0454 0.499686 37.9604 0.632787 37.9023C0.765887 37.8442 0.909551 37.8142 1.05478 37.8142C1.20001 37.8142 1.34368 37.8442 1.47678 37.9023C1.60989 37.9604 1.72955 38.0454 1.82828 38.1519C1.92702 38.2584 2.00271 38.3841 2.05059 38.5212C2.09848 38.6583 2.11753 38.8039 2.10656 38.9487V41.2451C2.11753 41.3899 2.09848 41.5354 2.05059 41.6725C2.00271 41.8097 1.92702 41.9354 1.82828 42.0419C1.72955 42.1484 1.60989 42.2334 1.47678 42.2915C1.34368 42.3496 1.20001 42.3796 1.05478 42.3796C0.909551 42.3796 0.765887 42.3496 0.632787 42.2915C0.499686 42.2334 0.380025 42.1484 0.281287 42.0419C0.182549 41.9354 0.106861 41.8097 0.0589776 41.6725C0.0110946 41.5354 -0.00795658 41.3899 0.00301393 41.2451V38.9487ZM0.696154 41.2933C0.696154 41.6067 0.83479 41.7273 1.05177 41.7273C1.26876 41.7273 1.41341 41.6067 1.41341 41.2933V38.8824C1.41341 38.5629 1.27479 38.4484 1.05177 38.4484C0.828762 38.4484 0.696154 38.5629 0.696154 38.8824V41.2933Z" fill="#1AB2E2"/>
<path d="M0.485352 57.3802C0.659428 57.4018 0.835209 57.3566 0.977261 57.2537C1.11931 57.1508 1.21708 56.9978 1.25083 56.8257H1.71492V61.2437H1.03987V57.8744H0.503433L0.485352 57.3802Z" fill="#1AB2E2"/>
<path d="M0.485352 63.6968C0.659428 63.7184 0.835209 63.6732 0.977261 63.5703C1.11931 63.4674 1.21708 63.3145 1.25083 63.1423H1.71492V67.5543H1.03987V64.1851H0.503433L0.485352 63.6968Z" fill="#1AB2E2"/>
<path d="M0.485352 70.0076C0.659428 70.0292 0.835209 69.984 0.977261 69.8811C1.11931 69.7782 1.21708 69.6253 1.25083 69.4531H1.71492V73.8712H1.03987V70.5019H0.503433L0.485352 70.0076Z" fill="#1AB2E2"/>
</svg>
