<svg width="14" height="74" viewBox="0 0 14 74" fill="none" xmlns="http://www.w3.org/2000/svg">
<path d="M11.2588 1.05478C11.2588 0.775038 11.3699 0.506748 11.5677 0.308938C11.7655 0.111128 12.0338 0 12.3136 0C12.5933 0 12.8616 0.111128 13.0594 0.308938C13.2572 0.506748 13.3684 0.775038 13.3684 1.05478V3.3512C13.3684 3.63094 13.2572 3.89923 13.0594 4.09704C12.8616 4.29485 12.5933 4.40598 12.3136 4.40598C12.0338 4.40598 11.7655 4.29485 11.5677 4.09704C11.3699 3.89923 11.2588 3.63094 11.2588 3.3512V1.05478ZM11.9519 3.39339C11.9519 3.70681 12.0906 3.82736 12.3136 3.82736C12.5366 3.82736 12.6692 3.70681 12.6692 3.39339V0.982456C12.6692 0.669035 12.5306 0.548487 12.3136 0.548487C12.0966 0.548487 11.9519 0.669035 11.9519 0.982456V3.39339Z" fill="#1AB2E2"/>
<path d="M11.2588 7.36533C11.2588 7.08558 11.3699 6.8173 11.5677 6.61948C11.7655 6.42167 12.0338 6.31055 12.3136 6.31055C12.5933 6.31055 12.8616 6.42167 13.0594 6.61948C13.2572 6.8173 13.3684 7.08558 13.3684 7.36533V9.66174C13.3684 9.94149 13.2572 10.2098 13.0594 10.4076C12.8616 10.6054 12.5933 10.7165 12.3136 10.7165C12.0338 10.7165 11.7655 10.6054 11.5677 10.4076C11.3699 10.2098 11.2588 9.94149 11.2588 9.66174V7.36533ZM11.9519 9.72804C11.9519 10.0475 12.0906 10.168 12.3136 10.168C12.5366 10.168 12.6692 10.0475 12.6692 9.72804V7.31711C12.6692 6.99766 12.5306 6.87712 12.3136 6.87712C12.0966 6.87712 11.9519 6.99766 11.9519 7.31711V9.72804Z" fill="#1AB2E2"/>
<path d="M11.7471 25.7969C11.9204 25.8184 12.0954 25.773 12.2365 25.6699C12.3776 25.5669 12.4741 25.4141 12.5065 25.2424H13.0007V29.6605H12.3076V26.2912H11.7712L11.7471 25.7969Z" fill="#1AB2E2"/>
<path d="M11.7471 32.1136C11.9204 32.135 12.0954 32.0896 12.2365 31.9866C12.3776 31.8836 12.4741 31.7307 12.5065 31.5591H13.0007V35.9711H12.3076V32.6319H11.7712L11.7471 32.1136Z" fill="#1AB2E2"/>
<path d="M11.2588 51.5519C11.2588 51.2721 11.3699 51.0038 11.5677 50.806C11.7655 50.6082 12.0338 50.4971 12.3136 50.4971C12.5933 50.4971 12.8616 50.6082 13.0594 50.806C13.2572 51.0038 13.3684 51.2721 13.3684 51.5519V53.8483C13.3684 54.128 13.2572 54.3963 13.0594 54.5941C12.8616 54.7919 12.5933 54.903 12.3136 54.903C12.0338 54.903 11.7655 54.7919 11.5677 54.5941C11.3699 54.3963 11.2588 54.128 11.2588 53.8483V51.5519ZM11.9519 53.8965C11.9519 54.2099 12.0906 54.3305 12.3136 54.3305C12.5366 54.3305 12.6692 54.2099 12.6692 53.8965V51.4856C12.6692 51.1721 12.5306 51.0516 12.3136 51.0516C12.0966 51.0516 11.9519 51.1721 11.9519 51.4856V53.8965Z" fill="#1AB2E2"/>
<path d="M11.2588 64.1791C11.2588 63.8993 11.3699 63.631 11.5677 63.4332C11.7655 63.2354 12.0338 63.1243 12.3136 63.1243C12.5933 63.1243 12.8616 63.2354 13.0594 63.4332C13.2572 63.631 13.3684 63.8993 13.3684 64.1791V66.4755C13.3684 66.7552 13.2572 67.0235 13.0594 67.2213C12.8616 67.4191 12.5933 67.5303 12.3136 67.5303C12.0338 67.5303 11.7655 67.4191 11.5677 67.2213C11.3699 67.0235 11.2588 66.7552 11.2588 66.4755V64.1791ZM11.9519 66.5177C11.9519 66.8371 12.0906 66.9577 12.3136 66.9577C12.5366 66.9577 12.6692 66.8371 12.6692 66.5177V64.1369C12.6692 63.8174 12.5306 63.7029 12.3136 63.7029C12.0966 63.7029 11.9519 63.8174 11.9519 64.1369V66.5177Z" fill="#1AB2E2"/>
<path d="M0 13.6759C0 13.3961 0.111135 13.1278 0.308945 12.93C0.506755 12.7322 0.775038 12.6211 1.05478 12.6211C1.33453 12.6211 1.60283 12.7322 1.80064 12.93C1.99845 13.1278 2.10957 13.3961 2.10957 13.6759V15.9723C2.10957 16.252 1.99845 16.5203 1.80064 16.7181C1.60283 16.9159 1.33453 17.0271 1.05478 17.0271C0.775038 17.0271 0.506755 16.9159 0.308945 16.7181C0.111135 16.5203 0 16.252 0 15.9723V13.6759ZM0.69314 16.0205C0.69314 16.3339 0.831772 16.4545 1.05478 16.4545C1.27779 16.4545 1.41039 16.3339 1.41039 16.0205V13.6096C1.41039 13.2962 1.27177 13.1756 1.05478 13.1756C0.8378 13.1756 0.69314 13.2962 0.69314 13.6096V16.0205Z" fill="#1AB2E2"/>
<path d="M0 19.9745C0 19.6947 0.111135 19.4264 0.308945 19.2286C0.506755 19.0308 0.775038 18.9197 1.05478 18.9197C1.33453 18.9197 1.60283 19.0308 1.80064 19.2286C1.99845 19.4264 2.10957 19.6947 2.10957 19.9745V22.2709C2.10957 22.5506 1.99845 22.8189 1.80064 23.0167C1.60283 23.2145 1.33453 23.3257 1.05478 23.3257C0.775038 23.3257 0.506755 23.2145 0.308945 23.0167C0.111135 22.8189 0 22.5506 0 22.2709V19.9745ZM0.69314 22.3131C0.69314 22.6265 0.831772 22.747 1.05478 22.747C1.27779 22.747 1.41039 22.6265 1.41039 22.3131V19.9745C1.41039 19.661 1.27177 19.5405 1.05478 19.5405C0.8378 19.5405 0.69314 19.661 0.69314 19.9745V22.3131Z" fill="#1AB2E2"/>
<path d="M0 26.3031C0 26.0233 0.111135 25.755 0.308945 25.5572C0.506755 25.3594 0.775038 25.2483 1.05478 25.2483C1.33453 25.2483 1.60283 25.3594 1.80064 25.5572C1.99845 25.755 2.10957 26.0233 2.10957 26.3031V28.5995C2.10957 28.8792 1.99845 29.1475 1.80064 29.3453C1.60283 29.5431 1.33453 29.6543 1.05478 29.6543C0.775038 29.6543 0.506755 29.5431 0.308945 29.3453C0.111135 29.1475 0 28.8792 0 28.5995V26.3031ZM0.69314 28.6417C0.69314 28.9611 0.831772 29.0817 1.05478 29.0817C1.27779 29.0817 1.41039 28.9611 1.41039 28.6417V26.2609C1.41039 25.9414 1.27177 25.8209 1.05478 25.8209C0.8378 25.8209 0.69314 25.9414 0.69314 26.2609V28.6417Z" fill="#1AB2E2"/>
<path d="M0.488281 32.1136C0.661638 32.135 0.836655 32.0896 0.977726 31.9866C1.1188 31.8836 1.21534 31.7307 1.24773 31.5591H1.71786V35.9711H1.02472V32.6319H0.488281V32.1136Z" fill="#1AB2E2"/>
<path d="M0.488281 44.7347C0.661638 44.7561 0.836655 44.7107 0.977726 44.6077C1.1188 44.5047 1.21534 44.3518 1.24773 44.1802H1.71786V48.5982H1.02472V45.2289H0.488281V44.7347Z" fill="#1AB2E2"/>
<path d="M0.488281 51.0516C0.661638 51.073 0.836655 51.0276 0.977726 50.9246C1.1188 50.8216 1.21534 50.6687 1.24773 50.4971H1.71786V54.9332H1.02472V51.5639H0.488281V51.0516Z" fill="#1AB2E2"/>
<path d="M0 64.1791C0 63.8993 0.111135 63.631 0.308945 63.4332C0.506755 63.2354 0.775038 63.1243 1.05478 63.1243C1.33453 63.1243 1.60283 63.2354 1.80064 63.4332C1.99845 63.631 2.10957 63.8993 2.10957 64.1791V66.4755C2.10957 66.7552 1.99845 67.0235 1.80064 67.2213C1.60283 67.4191 1.33453 67.5303 1.05478 67.5303C0.775038 67.5303 0.506755 67.4191 0.308945 67.2213C0.111135 67.0235 0 66.7552 0 66.4755V64.1791ZM0.69314 66.5177C0.69314 66.8371 0.831772 66.9577 1.05478 66.9577C1.27779 66.9577 1.41039 66.8371 1.41039 66.5177V64.1369C1.41039 63.8174 1.27177 63.7029 1.05478 63.7029C0.8378 63.7029 0.69314 63.8174 0.69314 64.1369V66.5177Z" fill="#1AB2E2"/>
<path d="M0.488281 70.0013C0.661638 70.0227 0.836655 69.9773 0.977726 69.8743C1.1188 69.7713 1.21534 69.6184 1.24773 69.4468H1.71786V73.8588H1.02472V70.4895H0.488281V70.0013Z" fill="#1AB2E2"/>
<path d="M7.50391 1.05478C7.50391 0.775038 7.61504 0.506748 7.81285 0.308938C8.01066 0.111128 8.27894 0 8.55869 0C8.83844 0 9.10672 0.111128 9.30453 0.308938C9.50234 0.506748 9.61347 0.775038 9.61347 1.05478V3.3512C9.61347 3.63094 9.50234 3.89923 9.30453 4.09704C9.10672 4.29485 8.83844 4.40598 8.55869 4.40598C8.27894 4.40598 8.01066 4.29485 7.81285 4.09704C7.61504 3.89923 7.50391 3.63094 7.50391 3.3512V1.05478ZM8.17896 3.39339C8.17896 3.70681 8.31759 3.82736 8.53458 3.82736C8.75156 3.82736 8.89622 3.70681 8.89622 3.39339V0.982456C8.89622 0.669035 8.75759 0.548487 8.53458 0.548487C8.31156 0.548487 8.17896 0.669035 8.17896 0.982456V3.39339Z" fill="#1AB2E2"/>
<path d="M7.99219 6.85896C8.16626 6.88054 8.34204 6.83532 8.4841 6.73241C8.62615 6.62951 8.7239 6.47658 8.75765 6.30444H9.22177V10.7225H8.52861V7.3532H7.99219V6.85896Z" fill="#1AB2E2"/>
<path d="M7.50391 13.6759C7.50391 13.3961 7.61504 13.1278 7.81285 12.93C8.01066 12.7322 8.27894 12.6211 8.55869 12.6211C8.83844 12.6211 9.10672 12.7322 9.30453 12.93C9.50234 13.1278 9.61347 13.3961 9.61347 13.6759V15.9723C9.61347 16.252 9.50234 16.5203 9.30453 16.7181C9.10672 16.9159 8.83844 17.0271 8.55869 17.0271C8.27894 17.0271 8.01066 16.9159 7.81285 16.7181C7.61504 16.5203 7.50391 16.252 7.50391 15.9723V13.6759ZM8.17896 16.0205C8.17896 16.3339 8.31759 16.4545 8.53458 16.4545C8.75156 16.4545 8.89622 16.3339 8.89622 16.0205V13.6096C8.89622 13.2962 8.75759 13.1756 8.53458 13.1756C8.31156 13.1756 8.17896 13.2962 8.17896 13.6096V16.0205Z" fill="#1AB2E2"/>
<path d="M7.99219 19.4862C8.16626 19.5077 8.34204 19.4625 8.4841 19.3596C8.62615 19.2567 8.7239 19.1038 8.75765 18.9316H9.22177V23.3497H8.52861V19.9744H7.99219V19.4862Z" fill="#1AB2E2"/>
<path d="M7.99219 25.7969C8.16626 25.8185 8.34204 25.7733 8.4841 25.6704C8.62615 25.5675 8.7239 25.4146 8.75765 25.2424H9.22177V29.6605H8.52861V26.2912H7.99219V25.7969Z" fill="#1AB2E2"/>
<path d="M7.99219 32.1136C8.16626 32.1352 8.34204 32.09 8.4841 31.9871C8.62615 31.8842 8.7239 31.7312 8.75765 31.5591H9.22177V35.9711H8.52861V32.6319H7.99219V32.1136Z" fill="#1AB2E2"/>
<path d="M7.50391 38.9305C7.50391 38.6508 7.61504 38.3825 7.81285 38.1847C8.01066 37.9869 8.27894 37.8757 8.55869 37.8757C8.83844 37.8757 9.10672 37.9869 9.30453 38.1847C9.50234 38.3825 9.61347 38.6508 9.61347 38.9305V41.2269C9.61347 41.5067 9.50234 41.775 9.30453 41.9728C9.10672 42.1706 8.83844 42.2817 8.55869 42.2817C8.27894 42.2817 8.01066 42.1706 7.81285 41.9728C7.61504 41.775 7.50391 41.5067 7.50391 41.2269V38.9305ZM8.17896 41.2691C8.17896 41.5825 8.31759 41.7031 8.53458 41.7031C8.75156 41.7031 8.89622 41.5825 8.89622 41.2691V38.8582C8.89622 38.5448 8.75759 38.4242 8.53458 38.4242C8.31156 38.4242 8.17896 38.5448 8.17896 38.8582V41.2691Z" fill="#1AB2E2"/>
<path d="M7.50391 45.2411C7.50391 44.9613 7.61504 44.693 7.81285 44.4952C8.01066 44.2974 8.27894 44.1863 8.55869 44.1863C8.83844 44.1863 9.10672 44.2974 9.30453 44.4952C9.50234 44.693 9.61347 44.9613 9.61347 45.2411V47.5375C9.61347 47.8172 9.50234 48.0855 9.30453 48.2833C9.10672 48.4811 8.83844 48.5923 8.55869 48.5923C8.27894 48.5923 8.01066 48.4811 7.81285 48.2833C7.61504 48.0855 7.50391 47.8172 7.50391 47.5375V45.2411ZM8.17896 47.5797C8.17896 47.8991 8.31759 48.0197 8.53458 48.0197C8.75156 48.0197 8.89622 47.8991 8.89622 47.5797V45.1687C8.89622 44.8493 8.75759 44.7348 8.53458 44.7348C8.31156 44.7348 8.17896 44.8493 8.17896 45.1687V47.5797Z" fill="#1AB2E2"/>
<path d="M4.23633 6.85896C4.4104 6.88054 4.5862 6.83532 4.72826 6.73241C4.87031 6.62951 4.96806 6.47658 5.00181 6.30444H5.46591V10.7225H4.77277V7.3532H4.23633V6.85896Z" fill="#1AB2E2"/>
<path d="M3.75497 13.676C3.744 13.5311 3.76304 13.3856 3.81092 13.2485C3.85881 13.1114 3.93449 12.9857 4.03323 12.8792C4.13197 12.7727 4.25164 12.6877 4.38474 12.6296C4.51784 12.5715 4.66151 12.5415 4.80674 12.5415C4.95196 12.5415 5.09563 12.5715 5.22873 12.6296C5.36183 12.6877 5.4815 12.7727 5.58024 12.8792C5.67898 12.9857 5.75466 13.1114 5.80255 13.2485C5.85043 13.3856 5.86947 13.5311 5.8585 13.676V15.9724C5.86947 16.1172 5.85043 16.2627 5.80255 16.3998C5.75466 16.5369 5.67898 16.6627 5.58024 16.7692C5.4815 16.8757 5.36183 16.9606 5.22873 17.0187C5.09563 17.0768 4.95196 17.1068 4.80674 17.1068C4.66151 17.1068 4.51784 17.0768 4.38474 17.0187C4.25164 16.9606 4.13197 16.8757 4.03323 16.7692C3.93449 16.6627 3.85881 16.5369 3.81092 16.3998C3.76304 16.2627 3.744 16.1172 3.75497 15.9724V13.676ZM4.44811 16.0206C4.44811 16.334 4.58673 16.4546 4.80372 16.4546C5.0207 16.4546 5.16536 16.334 5.16536 16.0206V13.6097C5.16536 13.2962 5.02673 13.1757 4.80372 13.1757C4.58071 13.1757 4.44811 13.2962 4.44811 13.6097V16.0206Z" fill="#1AB2E2"/>
<path d="M3.75497 19.9746C3.744 19.8297 3.76304 19.6842 3.81092 19.5471C3.85881 19.41 3.93449 19.2843 4.03323 19.1777C4.13197 19.0712 4.25164 18.9863 4.38474 18.9282C4.51784 18.8701 4.66151 18.8401 4.80674 18.8401C4.95196 18.8401 5.09563 18.8701 5.22873 18.9282C5.36183 18.9863 5.4815 19.0712 5.58024 19.1777C5.67898 19.2843 5.75466 19.41 5.80255 19.5471C5.85043 19.6842 5.86947 19.8297 5.8585 19.9746V22.271C5.86947 22.4158 5.85043 22.5613 5.80255 22.6984C5.75466 22.8355 5.67898 22.9613 5.58024 23.0678C5.4815 23.1743 5.36183 23.2592 5.22873 23.3173C5.09563 23.3754 4.95196 23.4054 4.80674 23.4054C4.66151 23.4054 4.51784 23.3754 4.38474 23.3173C4.25164 23.2592 4.13197 23.1743 4.03323 23.0678C3.93449 22.9613 3.85881 22.8355 3.81092 22.6984C3.76304 22.5613 3.744 22.4158 3.75497 22.271V19.9746ZM4.44811 22.3132C4.44811 22.6266 4.58673 22.7471 4.80372 22.7471C5.0207 22.7471 5.16536 22.6266 5.16536 22.3132V19.9746C5.16536 19.6611 5.02673 19.5406 4.80372 19.5406C4.58071 19.5406 4.44811 19.6611 4.44811 19.9746V22.3132Z" fill="#1AB2E2"/>
<path d="M4.23633 25.7969C4.4104 25.8185 4.5862 25.7733 4.72826 25.6704C4.87031 25.5675 4.96806 25.4146 5.00181 25.2424H5.46591V29.6605H4.77277V26.2912H4.23633V25.7969Z" fill="#1AB2E2"/>
<path d="M4.23633 38.4241C4.4104 38.4457 4.5862 38.4005 4.72826 38.2976C4.87031 38.1947 4.96806 38.0418 5.00181 37.8696H5.46591V42.2756H4.77277V38.9184H4.23633V38.4241Z" fill="#1AB2E2"/>
<path d="M4.23633 44.7347C4.4104 44.7563 4.5862 44.711 4.72826 44.6081C4.87031 44.5052 4.96806 44.3523 5.00181 44.1802H5.46591V48.5982H4.77277V45.2289H4.23633V44.7347Z" fill="#1AB2E2"/>
<path d="M4.23633 51.0516C4.4104 51.0732 4.5862 51.0279 4.72826 50.925C4.87031 50.8221 4.96806 50.6692 5.00181 50.4971H5.46591V54.9332H4.77277V51.5639H4.23633V51.0516Z" fill="#1AB2E2"/>
</svg>
