<svg width="797" height="410" viewBox="0 0 797 410" fill="none" xmlns="http://www.w3.org/2000/svg">
<g filter="url(#filter0_b_265_9579)">
<path d="M0 26.8309L30.9182 0H305.564L314.774 8.44118H483.59L494.103 0H796.638V170.934L788.744 177.265V277.956L796.638 283.382V390.404L771.311 410H493.376L484.495 403.368H304.907L297.341 410H48.022L5.26268 374.728V345.485L0 340.662V199.272L5.26268 192.037V159.478L0 153.449V26.8309Z" fill="#191825"/>
<path d="M314.577 8.65645L314.66 8.7332H314.774H483.59H483.692L483.773 8.66888L494.205 0.292023H796.346V170.794L788.561 177.037L788.452 177.125V177.265V277.956V278.109L788.579 278.197L796.346 283.536V390.261L771.212 409.708H493.473L484.67 403.134L484.592 403.076H484.495H304.907H304.797L304.714 403.148L297.232 409.708H48.1269L5.5547 374.59V345.485V345.357L5.45999 345.27L0.292023 340.533V199.367L5.49884 192.209L5.5547 192.132V192.037V159.478V159.368L5.48269 159.286L0.292023 153.339V26.9641L31.0273 0.292023H305.451L314.577 8.65645Z" stroke="url(#paint0_linear_265_9579)" stroke-opacity="0.5" stroke-width="0.584046"/>
<path d="M314.577 8.65645L314.66 8.7332H314.774H483.59H483.692L483.773 8.66888L494.205 0.292023H796.346V170.794L788.561 177.037L788.452 177.125V177.265V277.956V278.109L788.579 278.197L796.346 283.536V390.261L771.212 409.708H493.473L484.67 403.134L484.592 403.076H484.495H304.907H304.797L304.714 403.148L297.232 409.708H48.1269L5.5547 374.59V345.485V345.357L5.45999 345.27L0.292023 340.533V199.367L5.49884 192.209L5.5547 192.132V192.037V159.478V159.368L5.48269 159.286L0.292023 153.339V26.9641L31.0273 0.292023H305.451L314.577 8.65645Z" stroke="black" stroke-opacity="0.4" stroke-width="0.584046"/>
</g>
<defs>
<filter id="filter0_b_265_9579" x="-5.25641" y="-5.25641" width="807.151" height="420.513" filterUnits="userSpaceOnUse" color-interpolation-filters="sRGB">
<feFlood flood-opacity="0" result="BackgroundImageFix"/>
<feGaussianBlur in="BackgroundImageFix" stdDeviation="2.62821"/>
<feComposite in2="SourceAlpha" operator="in" result="effect1_backgroundBlur_265_9579"/>
<feBlend mode="normal" in="SourceGraphic" in2="effect1_backgroundBlur_265_9579" result="shape"/>
</filter>
<linearGradient id="paint0_linear_265_9579" x1="-84.1025" y1="-124.445" x2="768.587" y2="526.824" gradientUnits="userSpaceOnUse">
<stop stop-color="#0A52B0"/>
<stop offset="1" stop-color="#93F1F6"/>
</linearGradient>
</defs>
</svg>
