<svg width="106" height="244" viewBox="0 0 106 244" fill="none" xmlns="http://www.w3.org/2000/svg">
<path d="M1.46546 204.09L51.9643 232.248C52.6624 232.714 53.5932 232.714 54.5241 232.248L104.092 204.09L104.557 203.159V203.857V214.562C104.557 215.027 104.325 215.725 103.859 215.958L54.7568 243.651C53.8259 244.117 52.4297 244.117 51.4988 243.651L1.69818 215.725C1.23276 215.493 1 215.027 1 214.562V204.09V203.857V203.392L1.46546 204.09Z" fill="#1A1926"/>
<path d="M54.771 232.683L104.057 204.685V214.562C104.057 214.722 104.015 214.944 103.926 215.144C103.834 215.351 103.724 215.467 103.636 215.511L103.625 215.517L103.614 215.523L54.5226 243.209C54.1421 243.397 53.6447 243.5 53.1278 243.5C52.6107 243.5 52.1131 243.397 51.7325 243.209L1.94273 215.289L1.93239 215.284L1.92179 215.278C1.64919 215.142 1.5 214.866 1.5 214.562V204.682L51.7044 232.676C52.5869 233.254 53.7083 233.215 54.7477 232.695L54.7595 232.689L54.771 232.683Z" stroke="url(#paint0_linear_321_11180)" stroke-opacity="0.2"/>
<path d="M1.69783 204.09L52.1966 232.248C52.8947 232.714 53.8256 232.714 54.7565 232.248L104.557 204.09C105.255 203.624 105.255 202.694 104.557 202.461L53.8256 174.07C53.1275 173.837 52.4294 173.837 51.9639 174.07L1.93056 202.461C0.999706 202.694 0.999692 203.624 1.69783 204.09Z" fill="#3C3B4A"/>
<path d="M1.46546 181.051L51.9643 209.21C52.6624 209.675 53.5932 209.675 54.5241 209.21L104.092 181.051L104.557 180.12V180.819V191.523C104.557 191.989 104.325 192.687 103.859 192.92L54.7568 220.612C53.8259 221.078 52.4297 221.078 51.4988 220.612L1.69818 192.687C1.23276 192.454 1 191.989 1 191.523V181.051V180.819V180.353L1.46546 181.051Z" fill="#1A1926"/>
<path d="M54.771 209.644L104.057 181.646V191.523C104.057 191.683 104.015 191.905 103.926 192.106C103.834 192.312 103.724 192.428 103.636 192.472L103.625 192.478L103.614 192.484L54.5226 220.171C54.1421 220.358 53.6447 220.462 53.1278 220.462C52.6107 220.462 52.1131 220.358 51.7325 220.17L1.94273 192.251L1.93239 192.245L1.92179 192.24C1.64919 192.103 1.5 191.827 1.5 191.523V181.643L51.7044 209.637C52.5869 210.215 53.7083 210.176 54.7477 209.657L54.7595 209.651L54.771 209.644Z" stroke="url(#paint1_linear_321_11180)" stroke-opacity="0.2"/>
<path d="M1.69841 181.284L52.1972 209.442C52.8953 209.907 53.8262 209.907 54.757 209.442L104.558 181.284C105.256 180.818 105.256 179.887 104.558 179.655L53.8262 151.264C53.1281 151.031 52.4299 151.031 51.9645 151.264L1.69841 179.422C1.00027 179.887 1.00027 180.818 1.69841 181.284Z" fill="#3C3B4A"/>
<path d="M1.69783 168.95L52.1966 197.108C52.8947 197.574 53.8256 197.574 54.7564 197.108L104.557 168.95C105.255 168.484 105.255 167.554 104.557 167.321L53.8256 138.93C53.1275 138.697 52.4294 138.697 51.9639 138.93L1.93056 167.321C0.999706 167.554 0.999692 168.484 1.69783 168.95Z" stroke="url(#paint2_linear_321_11180)" stroke-width="1.28877" stroke-miterlimit="10"/>
<path d="M1.46546 145.912L51.9643 174.07C52.6624 174.535 53.5932 174.535 54.5241 174.07L104.092 145.912L104.557 144.981V145.679V156.384C104.557 156.849 104.325 157.547 103.859 157.78L54.7568 185.473C53.8259 185.938 52.4297 185.938 51.4988 185.473L1.69818 157.547C1.23276 157.315 1 156.849 1 156.384V145.912V145.679V145.213L1.46546 145.912Z" fill="#1A1926"/>
<path d="M54.771 174.505L104.057 146.506V156.384C104.057 156.544 104.015 156.766 103.926 156.966C103.834 157.173 103.724 157.289 103.636 157.333L103.625 157.338L103.614 157.344L54.5226 185.031C54.1421 185.219 53.6447 185.322 53.1278 185.322C52.6107 185.322 52.1131 185.218 51.7325 185.031L1.94273 157.111L1.93239 157.105L1.92179 157.1C1.64919 156.964 1.5 156.687 1.5 156.384V146.503L51.7044 174.497C52.5869 175.076 53.7083 175.037 54.7477 174.517L54.7595 174.511L54.771 174.505Z" stroke="url(#paint3_linear_321_11180)" stroke-opacity="0.2"/>
<path d="M1.69783 146.144L52.1966 174.302C52.8947 174.768 53.8256 174.768 54.7565 174.302L104.557 146.144C105.255 145.679 105.255 144.748 104.557 144.515L53.8256 116.124C53.1275 115.891 52.4294 115.891 51.9639 116.124L1.93056 144.515C0.999706 144.748 0.999692 145.679 1.69783 146.144Z" fill="#3C3B4A"/>
<path d="M11.938 145.446L12.6361 145.911L52.1973 168.019C52.8955 168.252 53.5937 168.252 54.0591 168.019L93.1549 145.911L93.8531 145.446C94.3185 145.213 94.3185 144.515 93.8531 144.05L53.3609 121.477C52.8955 121.244 52.1974 121.244 51.732 121.477L11.7052 144.05C11.2398 144.515 11.2398 145.213 11.938 145.446Z" fill="#0A0B0E"/>
<path d="M12.6357 145.911L52.197 168.019C52.8952 168.252 53.5933 168.252 54.0588 168.019L93.1546 145.911L53.3606 123.571C52.8952 123.338 52.1971 123.338 51.7316 123.571L12.6357 145.911Z" fill="#1A1926"/>
<path opacity="0.25" d="M1 0V145.213C1 145.446 1.23274 145.911 1.46546 146.144L51.9643 174.302C52.6624 174.768 53.5932 174.768 54.5241 174.302L104.325 146.144C104.558 145.911 104.79 145.679 104.79 145.213V0H1Z" fill="url(#paint4_linear_321_11180)"/>
<defs>
<linearGradient id="paint0_linear_321_11180" x1="-9.93275" y1="190.763" x2="78.1081" y2="278.515" gradientUnits="userSpaceOnUse">
<stop stop-color="#0A52B0"/>
<stop offset="0.485773" stop-color="#1AB2E2"/>
<stop offset="0.951102" stop-color="#1AB2E2" stop-opacity="0"/>
</linearGradient>
<linearGradient id="paint1_linear_321_11180" x1="-9.93275" y1="167.724" x2="78.1081" y2="255.477" gradientUnits="userSpaceOnUse">
<stop stop-color="#0A52B0"/>
<stop offset="0.485773" stop-color="#1AB2E2"/>
<stop offset="0.951102" stop-color="#1AB2E2" stop-opacity="0"/>
</linearGradient>
<linearGradient id="paint2_linear_321_11180" x1="-9.76666" y1="120.938" x2="108.876" y2="203.469" gradientUnits="userSpaceOnUse">
<stop stop-color="#0A52B0"/>
<stop offset="0.485773" stop-color="#1AB2E2"/>
<stop offset="0.951102" stop-color="#1AB2E2" stop-opacity="0"/>
</linearGradient>
<linearGradient id="paint3_linear_321_11180" x1="-9.93275" y1="132.584" x2="78.1081" y2="220.337" gradientUnits="userSpaceOnUse">
<stop stop-color="#0A52B0"/>
<stop offset="0.485773" stop-color="#1AB2E2"/>
<stop offset="0.951102" stop-color="#1AB2E2" stop-opacity="0"/>
</linearGradient>
<linearGradient id="paint4_linear_321_11180" x1="52.8928" y1="158.324" x2="52.8928" y2="36.4092" gradientUnits="userSpaceOnUse">
<stop stop-color="#1AB2E2"/>
<stop offset="0.9698" stop-color="#1AB2E2" stop-opacity="0"/>
</linearGradient>
</defs>
</svg>
