<svg width="473" height="302" viewBox="0 0 473 302" fill="none" xmlns="http://www.w3.org/2000/svg">
<g filter="url(#filter0_d_321_10109)">
<rect x="34" y="19" width="422" height="250.702" fill="#1A1926"/>
<rect x="34.4461" y="19.4461" width="421.108" height="249.81" stroke="url(#paint0_linear_321_10109)" stroke-opacity="0.2" stroke-width="0.892178"/>
</g>
<g filter="url(#filter1_d_321_10109)">
<rect x="48.2744" y="32" width="107.953" height="223.937" fill="#2E2D3A"/>
</g>
<rect width="79.3887" height="5.67062" transform="translate(66.0273 41.8142)" fill="#3C3B4A"/>
<rect width="5.67062" height="5.67062" transform="translate(58.0889 41.814)" fill="#3C3B4A"/>
<rect width="79.3887" height="5.67062" transform="translate(66.0273 53.052)" fill="#3C3B4A"/>
<rect width="5.67062" height="5.67062" transform="translate(58.0889 53.0518)" fill="#3C3B4A"/>
<rect width="79.3887" height="5.67062" transform="translate(66.0273 64.2898)" fill="#3C3B4A"/>
<rect width="5.67062" height="5.67062" transform="translate(58.0889 64.2898)" fill="#3C3B4A"/>
<g filter="url(#filter2_b_321_10109)">
<rect x="66.0273" y="75.5276" width="79.3887" height="5.67062" fill="url(#paint1_linear_321_10109)"/>
<rect x="66.4734" y="75.9737" width="78.4965" height="4.77844" stroke="url(#paint2_linear_321_10109)" stroke-opacity="0.5" stroke-width="0.892178"/>
</g>
<g filter="url(#filter3_b_321_10109)">
<rect x="58.0889" y="75.5276" width="5.67062" height="5.67062" fill="url(#paint3_linear_321_10109)"/>
<rect x="58.535" y="75.9737" width="4.77844" height="4.77844" stroke="url(#paint4_linear_321_10109)" stroke-opacity="0.5" stroke-width="0.892178"/>
</g>
<rect width="71.8279" height="5.67062" transform="translate(73.5889 86.7654)" fill="#3C3B4A"/>
<rect width="5.67062" height="5.67062" transform="translate(65.6494 86.7654)" fill="#3C3B4A"/>
<rect width="71.8279" height="5.67062" transform="translate(73.5889 98.0032)" fill="#3C3B4A"/>
<rect width="5.67062" height="5.67062" transform="translate(65.6494 98.0032)" fill="#3C3B4A"/>
<rect width="71.8279" height="5.67062" transform="translate(73.5889 109.241)" fill="#3C3B4A"/>
<rect width="5.67062" height="5.67062" transform="translate(65.6494 109.241)" fill="#3C3B4A"/>
<rect width="79.3887" height="5.67062" transform="translate(66.0273 120.479)" fill="#3C3B4A"/>
<rect width="5.67062" height="5.67062" transform="translate(58.0889 120.479)" fill="#3C3B4A"/>
<rect width="79.3887" height="5.67062" transform="translate(66.0273 131.716)" fill="#3C3B4A"/>
<rect width="5.67062" height="5.67062" transform="translate(58.0889 131.717)" fill="#3C3B4A"/>
<rect width="71.8279" height="5.67062" transform="translate(73.5889 142.954)" fill="#3C3B4A"/>
<rect width="5.67062" height="5.67062" transform="translate(65.6494 142.954)" fill="#3C3B4A"/>
<rect width="16.2273" height="223.937" transform="translate(161.228 32)" fill="#2E2D3A"/>
<path d="M169.916 38.6007V41.842H169.381V39.2352L168.589 39.5037V39.0622L169.852 38.6007H169.916Z" fill="#0A52B0"/>
<path d="M170.622 54.397V54.823H168.456V54.4569L169.508 53.3099C169.623 53.1798 169.714 53.0674 169.781 52.9727C169.847 52.878 169.894 52.793 169.921 52.7176C169.949 52.6407 169.963 52.566 169.963 52.4935C169.963 52.3914 169.943 52.302 169.905 52.225C169.868 52.1467 169.813 52.0853 169.741 52.0409C169.668 51.9951 169.58 51.9721 169.477 51.9721C169.357 51.9721 169.256 51.998 169.175 52.0498C169.094 52.1015 169.032 52.1733 168.991 52.265C168.95 52.3552 168.929 52.4587 168.929 52.5756H168.394C168.394 52.3877 168.437 52.2162 168.523 52.0609C168.609 51.9041 168.733 51.7799 168.896 51.6882C169.058 51.595 169.254 51.5484 169.483 51.5484C169.699 51.5484 169.883 51.5846 170.034 51.6571C170.185 51.7296 170.299 51.8324 170.378 51.9655C170.457 52.0986 170.497 52.2561 170.497 52.438C170.497 52.5386 170.481 52.6384 170.449 52.7375C170.416 52.8366 170.369 52.9357 170.309 53.0348C170.25 53.1324 170.179 53.2308 170.098 53.3299C170.017 53.4275 169.927 53.5266 169.83 53.6272L169.131 54.397H170.622Z" fill="#0A52B0"/>
<path d="M169.084 65.9485H169.404C169.528 65.9485 169.631 65.927 169.712 65.8841C169.795 65.8412 169.856 65.7821 169.896 65.7066C169.936 65.6312 169.956 65.5447 169.956 65.4471C169.956 65.345 169.938 65.2578 169.901 65.1853C169.865 65.1113 169.81 65.0544 169.736 65.0145C169.664 64.9745 169.571 64.9546 169.459 64.9546C169.364 64.9546 169.279 64.9738 169.202 65.0122C169.126 65.0492 169.066 65.1025 169.022 65.172C168.978 65.24 168.955 65.3214 168.955 65.416H168.419C168.419 65.2444 168.464 65.0921 168.554 64.959C168.644 64.8259 168.767 64.7216 168.922 64.6462C169.079 64.5693 169.255 64.5308 169.45 64.5308C169.659 64.5308 169.841 64.5656 169.996 64.6351C170.153 64.7031 170.275 64.8052 170.362 64.9412C170.449 65.0773 170.493 65.2459 170.493 65.4471C170.493 65.5388 170.471 65.632 170.429 65.7266C170.386 65.8213 170.322 65.9078 170.238 65.9862C170.153 66.0631 170.048 66.126 169.923 66.1748C169.797 66.2221 169.651 66.2458 169.486 66.2458H169.084V65.9485ZM169.084 66.3656V66.0727H169.486C169.675 66.0727 169.836 66.0949 169.969 66.1393C170.104 66.1836 170.213 66.245 170.298 66.3234C170.382 66.4003 170.443 66.4883 170.482 66.5874C170.522 66.6865 170.542 66.7915 170.542 66.9025C170.542 67.0533 170.514 67.1879 170.46 67.3062C170.406 67.4231 170.33 67.5222 170.231 67.6035C170.132 67.6849 170.016 67.7463 169.883 67.7877C169.751 67.8291 169.608 67.8498 169.452 67.8498C169.313 67.8498 169.18 67.8306 169.053 67.7921C168.926 67.7537 168.812 67.6967 168.711 67.6213C168.611 67.5444 168.531 67.449 168.472 67.3351C168.414 67.2197 168.385 67.0866 168.385 66.9357H168.92C168.92 67.0319 168.942 67.1169 168.987 67.1909C169.032 67.2633 169.096 67.3203 169.177 67.3617C169.26 67.4031 169.355 67.4238 169.461 67.4238C169.574 67.4238 169.671 67.4039 169.752 67.3639C169.833 67.324 169.895 67.2648 169.938 67.1864C169.983 67.108 170.005 67.0134 170.005 66.9025C170.005 66.7767 169.98 66.6747 169.932 66.5963C169.883 66.5179 169.813 66.4602 169.723 66.4232C169.633 66.3848 169.526 66.3656 169.404 66.3656H169.084Z" fill="#0A52B0"/>
<path d="M170.681 79.6362V80.0621H168.352L168.334 79.7404L169.728 77.5574H170.156L169.692 78.3516L168.891 79.6362H170.681ZM170.278 77.5574V80.7876H169.743V77.5574H170.278Z" fill="#0A52B0"/>
<path d="M169.018 92.2678L168.592 92.1635L168.767 90.5395H170.508V90.9921H169.211L169.122 91.7842C169.172 91.7546 169.242 91.7257 169.33 91.6976C169.419 91.668 169.52 91.6533 169.634 91.6533C169.787 91.6533 169.923 91.6784 170.043 91.7287C170.164 91.7775 170.267 91.8492 170.351 91.9439C170.435 92.0371 170.5 92.151 170.544 92.2855C170.588 92.4187 170.611 92.5688 170.611 92.7359C170.611 92.8853 170.588 93.0251 170.544 93.1552C170.501 93.2854 170.436 93.4 170.349 93.4991C170.261 93.5982 170.151 93.6759 170.018 93.7321C169.887 93.7868 169.73 93.8141 169.55 93.8141C169.415 93.8141 169.286 93.7949 169.162 93.7565C169.039 93.7165 168.929 93.6581 168.831 93.5812C168.734 93.5028 168.655 93.4067 168.596 93.2928C168.537 93.1774 168.503 93.045 168.494 92.8957H169.018C169.031 93.0007 169.06 93.0902 169.104 93.1641C169.15 93.2366 169.211 93.292 169.286 93.3305C169.361 93.369 169.449 93.3882 169.548 93.3882C169.638 93.3882 169.716 93.3727 169.781 93.3416C169.846 93.3091 169.9 93.2632 169.943 93.204C169.987 93.1434 170.02 93.0724 170.04 92.9911C170.063 92.9097 170.074 92.8195 170.074 92.7204C170.074 92.6257 170.061 92.5392 170.036 92.4608C170.012 92.3824 169.976 92.3144 169.927 92.2567C169.88 92.199 169.82 92.1547 169.747 92.1236C169.675 92.0911 169.591 92.0748 169.497 92.0748C169.37 92.0748 169.272 92.0933 169.204 92.1302C169.137 92.1672 169.075 92.2131 169.018 92.2678Z" fill="#0A52B0"/>
<path d="M170.071 103.5H170.138V103.937H170.1C169.909 103.937 169.745 103.967 169.605 104.026C169.468 104.085 169.355 104.167 169.266 104.27C169.177 104.374 169.111 104.495 169.066 104.634C169.023 104.772 169.002 104.918 169.002 105.073V105.581C169.002 105.71 169.016 105.824 169.044 105.923C169.072 106.021 169.111 106.103 169.162 106.169C169.214 106.234 169.273 106.284 169.339 106.318C169.406 106.352 169.478 106.369 169.554 106.369C169.634 106.369 169.707 106.353 169.772 106.32C169.837 106.286 169.892 106.239 169.938 106.18C169.984 106.121 170.019 106.051 170.043 105.97C170.066 105.888 170.078 105.799 170.078 105.703C170.078 105.612 170.066 105.526 170.043 105.446C170.02 105.365 169.987 105.294 169.943 105.233C169.898 105.171 169.843 105.123 169.776 105.089C169.711 105.053 169.636 105.036 169.55 105.036C169.444 105.036 169.347 105.061 169.259 105.111C169.174 105.161 169.104 105.227 169.051 105.308C168.999 105.388 168.971 105.473 168.967 105.564L168.762 105.497C168.774 105.359 168.805 105.236 168.853 105.126C168.904 105.017 168.969 104.924 169.051 104.847C169.132 104.77 169.226 104.712 169.333 104.672C169.441 104.63 169.559 104.61 169.688 104.61C169.844 104.61 169.98 104.639 170.096 104.698C170.211 104.757 170.307 104.838 170.382 104.94C170.459 105.041 170.516 105.156 170.553 105.286C170.591 105.415 170.611 105.549 170.611 105.69C170.611 105.845 170.587 105.99 170.54 106.125C170.492 106.258 170.423 106.375 170.331 106.475C170.241 106.576 170.131 106.654 170 106.711C169.872 106.767 169.725 106.795 169.561 106.795C169.388 106.795 169.234 106.762 169.097 106.695C168.963 106.628 168.848 106.537 168.754 106.42C168.66 106.303 168.589 106.168 168.541 106.016C168.492 105.864 168.467 105.703 168.467 105.532V105.311C168.467 105.065 168.498 104.834 168.561 104.616C168.623 104.397 168.718 104.204 168.847 104.037C168.977 103.87 169.143 103.739 169.346 103.644C169.549 103.548 169.79 103.5 170.071 103.5Z" fill="#0A52B0"/>
<path d="M170.602 116.502V116.795L169.31 119.733H168.747L170.036 116.928H168.363V116.502H170.602Z" fill="#0A52B0"/>
<path d="M170.568 131.834C170.568 132.035 170.522 132.204 170.429 132.342C170.335 132.479 170.208 132.583 170.047 132.654C169.887 132.724 169.707 132.759 169.506 132.759C169.305 132.759 169.123 132.724 168.962 132.654C168.801 132.583 168.674 132.479 168.581 132.342C168.487 132.204 168.441 132.035 168.441 131.834C168.441 131.7 168.467 131.58 168.518 131.472C168.57 131.363 168.643 131.269 168.738 131.19C168.834 131.11 168.947 131.049 169.075 131.006C169.205 130.963 169.347 130.942 169.501 130.942C169.705 130.942 169.888 130.979 170.049 131.055C170.21 131.13 170.337 131.235 170.429 131.368C170.522 131.501 170.568 131.656 170.568 131.834ZM170.031 131.807C170.031 131.699 170.009 131.604 169.965 131.523C169.921 131.442 169.858 131.379 169.779 131.334C169.699 131.29 169.606 131.268 169.501 131.268C169.395 131.268 169.302 131.29 169.224 131.334C169.146 131.379 169.084 131.442 169.04 131.523C168.997 131.604 168.975 131.699 168.975 131.807C168.975 131.916 168.997 132.011 169.04 132.091C169.083 132.169 169.144 132.229 169.224 132.271C169.304 132.312 169.398 132.333 169.506 132.333C169.614 132.333 169.707 132.312 169.785 132.271C169.864 132.229 169.924 132.169 169.967 132.091C170.01 132.011 170.031 131.916 170.031 131.807ZM170.495 130.334C170.495 130.495 170.452 130.639 170.366 130.764C170.282 130.89 170.165 130.989 170.016 131.062C169.867 131.133 169.696 131.168 169.506 131.168C169.313 131.168 169.142 131.133 168.991 131.062C168.842 130.989 168.724 130.89 168.638 130.764C168.554 130.639 168.512 130.495 168.512 130.334C168.512 130.142 168.554 129.98 168.638 129.848C168.724 129.715 168.842 129.614 168.991 129.544C169.14 129.474 169.311 129.44 169.503 129.44C169.696 129.44 169.867 129.474 170.016 129.544C170.165 129.614 170.282 129.715 170.366 129.848C170.452 129.98 170.495 130.142 170.495 130.334ZM169.96 130.352C169.96 130.255 169.941 130.171 169.903 130.099C169.866 130.025 169.813 129.967 169.745 129.926C169.677 129.884 169.597 129.863 169.503 129.863C169.41 129.863 169.33 129.883 169.262 129.923C169.194 129.963 169.141 130.02 169.104 130.092C169.067 130.164 169.049 130.251 169.049 130.352C169.049 130.451 169.067 130.537 169.104 130.611C169.141 130.684 169.194 130.741 169.262 130.782C169.331 130.823 169.412 130.844 169.506 130.844C169.599 130.844 169.679 130.823 169.747 130.782C169.816 130.741 169.868 130.684 169.905 130.611C169.942 130.537 169.96 130.451 169.96 130.352Z" fill="#0A52B0"/>
<path d="M168.887 145.275H168.931C169.135 145.275 169.305 145.248 169.441 145.195C169.579 145.14 169.688 145.064 169.77 144.968C169.851 144.872 169.909 144.759 169.945 144.629C169.98 144.499 169.998 144.358 169.998 144.205V143.648C169.998 143.517 169.984 143.401 169.956 143.302C169.929 143.202 169.891 143.118 169.841 143.052C169.792 142.983 169.735 142.932 169.67 142.898C169.606 142.864 169.537 142.847 169.463 142.847C169.382 142.847 169.309 142.866 169.244 142.903C169.18 142.938 169.126 142.988 169.082 143.052C169.039 143.114 169.006 143.187 168.982 143.271C168.96 143.354 168.949 143.443 168.949 143.537C168.949 143.626 168.959 143.712 168.98 143.795C169.002 143.876 169.035 143.949 169.077 144.012C169.12 144.076 169.174 144.126 169.239 144.163C169.305 144.2 169.381 144.218 169.468 144.218C169.551 144.218 169.627 144.203 169.696 144.172C169.766 144.139 169.827 144.096 169.878 144.041C169.93 143.986 169.971 143.925 170 143.857C170.03 143.789 170.046 143.719 170.049 143.648L170.253 143.71C170.253 143.823 170.23 143.934 170.182 144.043C170.136 144.151 170.072 144.25 169.989 144.34C169.908 144.429 169.813 144.5 169.703 144.553C169.595 144.607 169.478 144.633 169.35 144.633C169.197 144.633 169.06 144.605 168.942 144.547C168.825 144.488 168.728 144.408 168.649 144.307C168.572 144.207 168.515 144.091 168.476 143.961C168.438 143.831 168.419 143.694 168.419 143.551C168.419 143.395 168.442 143.25 168.49 143.114C168.537 142.978 168.606 142.858 168.696 142.754C168.786 142.649 168.896 142.568 169.024 142.51C169.154 142.451 169.302 142.421 169.466 142.421C169.64 142.421 169.793 142.455 169.925 142.523C170.057 142.592 170.168 142.685 170.258 142.805C170.348 142.925 170.416 143.064 170.462 143.222C170.508 143.381 170.531 143.551 170.531 143.733V143.921C170.531 144.112 170.514 144.296 170.48 144.474C170.446 144.65 170.39 144.813 170.313 144.964C170.238 145.113 170.138 145.245 170.014 145.359C169.891 145.471 169.74 145.559 169.561 145.623C169.384 145.685 169.175 145.716 168.935 145.716H168.887V145.275Z" fill="#0A52B0"/>
<path d="M168.625 155.437V158.678H168.09V156.071L167.298 156.34V155.898L168.561 155.437H168.625ZM171.853 156.792V157.32C171.853 157.573 171.828 157.789 171.777 157.968C171.729 158.146 171.658 158.29 171.564 158.401C171.471 158.512 171.36 158.593 171.229 158.645C171.101 158.696 170.957 158.722 170.797 158.722C170.67 158.722 170.551 158.706 170.442 158.674C170.334 158.641 170.236 158.59 170.149 158.52C170.062 158.451 169.987 158.361 169.925 158.252C169.864 158.141 169.817 158.009 169.783 157.855C169.75 157.701 169.734 157.523 169.734 157.32V156.792C169.734 156.538 169.759 156.323 169.81 156.149C169.86 155.973 169.932 155.83 170.025 155.721C170.118 155.61 170.229 155.529 170.358 155.479C170.488 155.429 170.633 155.403 170.792 155.403C170.921 155.403 171.039 155.42 171.147 155.452C171.257 155.483 171.354 155.533 171.44 155.601C171.528 155.669 171.601 155.758 171.662 155.867C171.724 155.975 171.772 156.106 171.804 156.26C171.837 156.412 171.853 156.59 171.853 156.792ZM171.318 157.396V156.712C171.318 156.584 171.311 156.47 171.296 156.373C171.281 156.274 171.259 156.19 171.229 156.122C171.201 156.053 171.166 155.996 171.123 155.954C171.08 155.909 171.031 155.877 170.977 155.858C170.922 155.837 170.86 155.827 170.792 155.827C170.71 155.827 170.636 155.843 170.571 155.876C170.505 155.907 170.451 155.957 170.406 156.027C170.362 156.096 170.328 156.188 170.304 156.302C170.282 156.414 170.271 156.551 170.271 156.712V157.396C170.271 157.526 170.278 157.64 170.293 157.74C170.308 157.839 170.33 157.924 170.36 157.995C170.389 158.064 170.425 158.122 170.466 158.168C170.509 158.212 170.558 158.245 170.613 158.265C170.669 158.286 170.73 158.296 170.797 158.296C170.881 158.296 170.956 158.28 171.021 158.248C171.086 158.215 171.141 158.163 171.185 158.092C171.229 158.02 171.263 157.926 171.285 157.811C171.307 157.695 171.318 157.557 171.318 157.396Z" fill="#0A52B0"/>
<path d="M168.625 168.418V171.66H168.09V169.053L167.298 169.321V168.88L168.561 168.418H168.625ZM171.207 168.418V171.66H170.673V169.053L169.881 169.321V168.88L171.143 168.418H171.207Z" fill="#0A52B0"/>
<path d="M168.625 181.401V184.642H168.09V182.035L167.298 182.304V181.862L168.561 181.401H168.625ZM171.913 184.216V184.642H169.747V184.276L170.799 183.129C170.914 182.999 171.005 182.886 171.072 182.792C171.139 182.697 171.185 182.612 171.212 182.537C171.24 182.46 171.254 182.385 171.254 182.313C171.254 182.211 171.235 182.121 171.196 182.044C171.159 181.966 171.105 181.904 171.032 181.86C170.96 181.814 170.872 181.791 170.768 181.791C170.648 181.791 170.548 181.817 170.466 181.869C170.385 181.921 170.324 181.992 170.282 182.084C170.241 182.174 170.22 182.278 170.22 182.395H169.685C169.685 182.207 169.728 182.035 169.814 181.88C169.9 181.723 170.024 181.599 170.187 181.507C170.349 181.414 170.545 181.367 170.775 181.367C170.991 181.367 171.174 181.404 171.325 181.476C171.476 181.549 171.59 181.651 171.669 181.785C171.749 181.918 171.789 182.075 171.789 182.257C171.789 182.358 171.772 182.458 171.74 182.557C171.707 182.656 171.661 182.755 171.6 182.854C171.541 182.952 171.471 183.05 171.389 183.149C171.308 183.247 171.218 183.346 171.121 183.446L170.422 184.216H171.913Z" fill="#0A52B0"/>
<path d="M168.625 194.382V197.624H168.09V195.017L167.298 195.285V194.844L168.561 194.382H168.625ZM170.375 195.767H170.695C170.819 195.767 170.922 195.745 171.003 195.702C171.086 195.66 171.147 195.6 171.187 195.525C171.227 195.45 171.247 195.363 171.247 195.265C171.247 195.163 171.229 195.076 171.192 195.004C171.156 194.93 171.102 194.873 171.028 194.833C170.955 194.793 170.863 194.773 170.75 194.773C170.656 194.773 170.57 194.792 170.493 194.831C170.417 194.868 170.358 194.921 170.313 194.99C170.269 195.058 170.247 195.14 170.247 195.234H169.71C169.71 195.063 169.755 194.91 169.845 194.777C169.935 194.644 170.058 194.54 170.213 194.465C170.37 194.388 170.546 194.349 170.741 194.349C170.95 194.349 171.132 194.384 171.287 194.453C171.444 194.521 171.566 194.624 171.653 194.76C171.74 194.896 171.784 195.064 171.784 195.265C171.784 195.357 171.763 195.45 171.72 195.545C171.677 195.64 171.613 195.726 171.529 195.805C171.445 195.881 171.34 195.944 171.214 195.993C171.088 196.04 170.943 196.064 170.777 196.064H170.375V195.767ZM170.375 196.184V195.891H170.777C170.966 195.891 171.127 195.913 171.261 195.958C171.395 196.002 171.505 196.063 171.589 196.142C171.673 196.219 171.735 196.307 171.773 196.406C171.813 196.505 171.833 196.61 171.833 196.721C171.833 196.872 171.806 197.006 171.751 197.125C171.698 197.241 171.621 197.341 171.522 197.422C171.423 197.503 171.307 197.565 171.174 197.606C171.042 197.647 170.899 197.668 170.744 197.668C170.605 197.668 170.471 197.649 170.344 197.61C170.217 197.572 170.103 197.515 170.003 197.44C169.902 197.363 169.822 197.267 169.763 197.153C169.705 197.038 169.676 196.905 169.676 196.754H170.211C170.211 196.85 170.233 196.935 170.278 197.009C170.324 197.082 170.387 197.139 170.469 197.18C170.551 197.221 170.646 197.242 170.752 197.242C170.865 197.242 170.962 197.222 171.043 197.182C171.124 197.142 171.187 197.083 171.229 197.005C171.274 196.926 171.296 196.832 171.296 196.721C171.296 196.595 171.272 196.493 171.223 196.415C171.174 196.336 171.105 196.279 171.014 196.242C170.924 196.203 170.818 196.184 170.695 196.184H170.375Z" fill="#0A52B0"/>
<path d="M168.625 207.365V210.606H168.09V207.999L167.298 208.268V207.826L168.561 207.365H168.625ZM171.973 209.455V209.88H169.643L169.625 209.559L171.019 207.376H171.447L170.983 208.17L170.182 209.455H171.973ZM171.569 207.376V210.606H171.034V207.376H171.569Z" fill="#0A52B0"/>
<path d="M168.625 220.346V223.588H168.09V220.981L167.298 221.249V220.808L168.561 220.346H168.625ZM170.309 222.086L169.883 221.981L170.058 220.357H171.8V220.81H170.502L170.413 221.602C170.463 221.572 170.533 221.544 170.622 221.515C170.71 221.486 170.812 221.471 170.926 221.471C171.078 221.471 171.214 221.496 171.334 221.547C171.455 221.595 171.558 221.667 171.642 221.762C171.726 221.855 171.791 221.969 171.835 222.103C171.88 222.237 171.902 222.387 171.902 222.554C171.902 222.703 171.88 222.843 171.835 222.973C171.792 223.103 171.727 223.218 171.64 223.317C171.553 223.416 171.442 223.494 171.309 223.55C171.178 223.605 171.022 223.632 170.841 223.632C170.707 223.632 170.577 223.613 170.453 223.574C170.33 223.534 170.22 223.476 170.122 223.399C170.025 223.321 169.946 223.225 169.887 223.111C169.828 222.995 169.794 222.863 169.785 222.714H170.309C170.322 222.819 170.351 222.908 170.395 222.982C170.441 223.054 170.502 223.11 170.577 223.148C170.653 223.187 170.74 223.206 170.839 223.206C170.929 223.206 171.007 223.191 171.072 223.159C171.137 223.127 171.191 223.081 171.234 223.022C171.278 222.961 171.311 222.89 171.332 222.809C171.354 222.728 171.365 222.637 171.365 222.538C171.365 222.444 171.352 222.357 171.327 222.279C171.303 222.2 171.267 222.132 171.218 222.075C171.171 222.017 171.111 221.973 171.039 221.941C170.966 221.909 170.883 221.893 170.788 221.893C170.661 221.893 170.563 221.911 170.495 221.948C170.429 221.985 170.366 222.031 170.309 222.086Z" fill="#0A52B0"/>
<path d="M168.625 233.328V236.57H168.09V233.963L167.298 234.231V233.79L168.561 233.328H168.625ZM171.363 233.319H171.429V233.756H171.391C171.201 233.756 171.036 233.786 170.897 233.845C170.759 233.904 170.646 233.986 170.557 234.089C170.469 234.193 170.402 234.314 170.358 234.453C170.315 234.591 170.293 234.737 170.293 234.892V235.4C170.293 235.529 170.307 235.643 170.335 235.742C170.364 235.84 170.403 235.922 170.453 235.988C170.505 236.053 170.564 236.103 170.63 236.137C170.697 236.171 170.769 236.188 170.846 236.188C170.926 236.188 170.998 236.172 171.063 236.139C171.128 236.105 171.184 236.059 171.229 235.999C171.275 235.94 171.31 235.87 171.334 235.789C171.357 235.707 171.369 235.619 171.369 235.522C171.369 235.431 171.357 235.345 171.334 235.265C171.312 235.184 171.278 235.113 171.234 235.052C171.19 234.99 171.134 234.942 171.068 234.908C171.002 234.872 170.927 234.855 170.841 234.855C170.735 234.855 170.638 234.88 170.551 234.93C170.465 234.98 170.395 235.046 170.342 235.128C170.29 235.207 170.262 235.292 170.258 235.383L170.054 235.316C170.065 235.179 170.096 235.055 170.145 234.946C170.195 234.836 170.261 234.743 170.342 234.666C170.423 234.589 170.517 234.531 170.624 234.491C170.732 234.449 170.85 234.429 170.979 234.429C171.136 234.429 171.272 234.458 171.387 234.517C171.502 234.577 171.598 234.657 171.673 234.759C171.75 234.86 171.807 234.975 171.844 235.105C171.882 235.234 171.902 235.369 171.902 235.509C171.902 235.664 171.878 235.809 171.831 235.944C171.783 236.077 171.714 236.194 171.622 236.294C171.532 236.395 171.422 236.473 171.292 236.53C171.163 236.586 171.017 236.614 170.852 236.614C170.679 236.614 170.525 236.581 170.389 236.514C170.254 236.448 170.139 236.356 170.045 236.239C169.952 236.122 169.881 235.988 169.832 235.835C169.783 235.683 169.759 235.522 169.759 235.352V235.13C169.759 234.884 169.79 234.653 169.852 234.435C169.914 234.216 170.009 234.023 170.138 233.856C170.268 233.689 170.434 233.558 170.637 233.464C170.84 233.367 171.082 233.319 171.363 233.319Z" fill="#0A52B0"/>
<path d="M168.625 246.31V249.551H168.09V246.944L167.298 247.213V246.771L168.561 246.31H168.625ZM171.893 246.321V246.614L170.602 249.551H170.038L171.327 246.747H169.654V246.321H171.893Z" fill="#0A52B0"/>
<g opacity="0.5">
<g filter="url(#filter4_d_321_10109)">
<rect x="182.455" y="32" width="50.8541" height="9.81395" fill="#1AB2E2"/>
</g>
<g filter="url(#filter5_d_321_10109)">
<rect x="235.985" y="32" width="30.334" height="9.81395" fill="#43C698"/>
</g>
<g filter="url(#filter6_d_321_10109)">
<rect x="268.996" y="32" width="30.334" height="9.81395" fill="#E29C75"/>
</g>
<g filter="url(#filter7_d_321_10109)">
<rect x="302.007" y="32" width="74.9429" height="9.81395" fill="#EAE7ED"/>
</g>
<g filter="url(#filter8_d_321_10109)">
<rect x="182.455" y="44.814" width="109.738" height="9.81395" fill="#E29C75"/>
</g>
<g filter="url(#filter9_d_321_10109)">
<rect x="294.869" y="44.814" width="50.8541" height="9.81395" fill="#1AB2E2"/>
</g>
<g filter="url(#filter10_d_321_10109)">
<rect x="348.4" y="44.814" width="16.9514" height="9.81395" fill="#1AB2E2"/>
</g>
<g filter="url(#filter11_d_321_10109)">
<rect x="182.455" y="57.6279" width="56.2072" height="9.81395" fill="#EAE7ED"/>
</g>
<g filter="url(#filter12_d_321_10109)">
<rect x="241.339" y="57.6279" width="29.4419" height="9.81395" fill="#43C698"/>
</g>
<g filter="url(#filter13_d_321_10109)">
<rect x="182.455" y="70.4419" width="34.7949" height="9.81395" fill="#1AB2E2"/>
</g>
<g filter="url(#filter14_d_321_10109)">
<rect x="219.927" y="70.4419" width="73.1586" height="9.81395" fill="#43C698"/>
</g>
<g filter="url(#filter15_d_321_10109)">
<rect x="295.762" y="70.4419" width="32.1184" height="9.81395" fill="#E29C75"/>
</g>
<g filter="url(#filter16_d_321_10109)">
<rect x="182.455" y="83.2559" width="109.738" height="9.81395" fill="#E29C75"/>
</g>
<g filter="url(#filter17_d_321_10109)">
<rect x="294.869" y="83.2559" width="99.9239" height="9.81395" fill="#EAE7ED"/>
</g>
<g filter="url(#filter18_d_321_10109)">
<rect x="182.455" y="96.0698" width="56.2072" height="9.81395" fill="#EAE7ED"/>
</g>
<g filter="url(#filter19_d_321_10109)">
<rect x="241.339" y="96.0698" width="76.7273" height="9.81395" fill="#1AB2E2"/>
</g>
<g filter="url(#filter20_d_321_10109)">
<rect x="182.455" y="108.884" width="109.738" height="9.81395" fill="#EAE7ED"/>
</g>
<g filter="url(#filter21_d_321_10109)">
<rect x="294.869" y="108.884" width="99.9239" height="9.81395" fill="#E29C75"/>
</g>
<g filter="url(#filter22_d_321_10109)">
<rect x="236.793" y="121.759" width="39.2558" height="9.81395" fill="#EAE7ED"/>
</g>
<g filter="url(#filter23_d_321_10109)">
<rect x="278.726" y="121.759" width="20.5201" height="9.81395" fill="#EAE7ED"/>
</g>
<g filter="url(#filter24_d_321_10109)">
<rect x="301.922" y="121.759" width="71.3742" height="9.81395" fill="#43C698"/>
</g>
<g filter="url(#filter25_d_321_10109)">
<rect x="236.793" y="135.142" width="21.4123" height="9.81395" fill="#E29C75"/>
</g>
<g filter="url(#filter26_d_321_10109)">
<rect x="260.882" y="135.142" width="20.5201" height="9.81395" fill="#EAE7ED"/>
</g>
<g filter="url(#filter27_d_321_10109)">
<rect x="284.078" y="135.142" width="40.148" height="9.81395" fill="#43C698"/>
</g>
</g>
<g filter="url(#filter28_d_321_10109)">
<rect x="174" y="107" width="142" height="73" fill="#1A1926"/>
<rect x="174.5" y="107.5" width="141" height="72" stroke="url(#paint5_linear_321_10109)" stroke-opacity="0.5"/>
</g>
<path d="M236.387 128.109C240.207 121.408 249.855 121.372 253.726 128.044L259.5 138L265.528 148.98C269.15 155.576 264.462 163.659 256.938 163.791L245 164L233.026 163.58C225.512 163.316 220.965 155.166 224.689 148.634L236.387 128.109Z" fill="#D70601"/>
<path d="M245.481 152.815L245.189 151.647C245.043 151.014 241.686 136.467 243.973 133.596C244.265 133.255 244.606 133.061 244.995 133.061C245.189 132.963 245.579 132.963 245.919 133.207C247.622 134.472 247.525 140.846 245.676 151.647L245.481 152.815ZM245.043 133.547C244.751 133.547 244.557 133.645 244.362 133.888C242.611 136.126 244.654 146.684 245.433 150.333C247.671 136.807 246.357 134.131 245.676 133.596C245.433 133.401 245.189 133.499 245.189 133.499L245.141 133.547H245.043Z" fill="white"/>
<path d="M245.189 157.875C243.973 157.875 243 156.901 243 155.685C243 154.469 243.973 153.496 245.189 153.496C246.406 153.496 247.379 154.469 247.379 155.685C247.379 156.901 246.406 157.875 245.189 157.875ZM245.189 153.982C244.265 153.982 243.487 154.761 243.487 155.685C243.487 156.609 244.265 157.388 245.189 157.388C246.114 157.388 246.892 156.609 246.892 155.685C246.892 154.761 246.114 153.982 245.189 153.982Z" fill="url(#paint6_linear_321_10109)"/>
<path d="M245.189 157.875C243.973 157.875 243 156.901 243 155.685C243 154.469 243.973 153.496 245.189 153.496C246.406 153.496 247.379 154.469 247.379 155.685C247.379 156.901 246.406 157.875 245.189 157.875ZM245.189 153.982C244.265 153.982 243.487 154.761 243.487 155.685C243.487 156.609 244.265 157.388 245.189 157.388C246.114 157.388 246.892 156.609 246.892 155.685C246.892 154.761 246.114 153.982 245.189 153.982Z" fill="white"/>
<defs>
<filter id="filter0_d_321_10109" x="0.48" y="0.619999" width="471.9" height="300.602" filterUnits="userSpaceOnUse" color-interpolation-filters="sRGB">
<feFlood flood-opacity="0" result="BackgroundImageFix"/>
<feColorMatrix in="SourceAlpha" type="matrix" values="0 0 0 0 0 0 0 0 0 0 0 0 0 0 0 0 0 0 127 0" result="hardAlpha"/>
<feOffset dx="-8.57" dy="6.57"/>
<feGaussianBlur stdDeviation="12.475"/>
<feComposite in2="hardAlpha" operator="out"/>
<feColorMatrix type="matrix" values="0 0 0 0 0 0 0 0 0 0 0 0 0 0 0 0 0 0 0.28 0"/>
<feBlend mode="normal" in2="BackgroundImageFix" result="effect1_dropShadow_321_10109"/>
<feBlend mode="normal" in="SourceGraphic" in2="effect1_dropShadow_321_10109" result="shape"/>
</filter>
<filter id="filter1_d_321_10109" x="44.7057" y="32" width="115.091" height="231.074" filterUnits="userSpaceOnUse" color-interpolation-filters="sRGB">
<feFlood flood-opacity="0" result="BackgroundImageFix"/>
<feColorMatrix in="SourceAlpha" type="matrix" values="0 0 0 0 0 0 0 0 0 0 0 0 0 0 0 0 0 0 127 0" result="hardAlpha"/>
<feOffset dy="3.56871"/>
<feGaussianBlur stdDeviation="1.78436"/>
<feComposite in2="hardAlpha" operator="out"/>
<feColorMatrix type="matrix" values="0 0 0 0 0 0 0 0 0 0 0 0 0 0 0 0 0 0 0.15 0"/>
<feBlend mode="normal" in2="BackgroundImageFix" result="effect1_dropShadow_321_10109"/>
<feBlend mode="normal" in="SourceGraphic" in2="effect1_dropShadow_321_10109" result="shape"/>
</filter>
<filter id="filter2_b_321_10109" x="50.8603" y="60.3606" width="109.723" height="36.0047" filterUnits="userSpaceOnUse" color-interpolation-filters="sRGB">
<feFlood flood-opacity="0" result="BackgroundImageFix"/>
<feGaussianBlur in="BackgroundImageFix" stdDeviation="7.58351"/>
<feComposite in2="SourceAlpha" operator="in" result="effect1_backgroundBlur_321_10109"/>
<feBlend mode="normal" in="SourceGraphic" in2="effect1_backgroundBlur_321_10109" result="shape"/>
</filter>
<filter id="filter3_b_321_10109" x="42.9218" y="60.3606" width="36.0049" height="36.0047" filterUnits="userSpaceOnUse" color-interpolation-filters="sRGB">
<feFlood flood-opacity="0" result="BackgroundImageFix"/>
<feGaussianBlur in="BackgroundImageFix" stdDeviation="7.58351"/>
<feComposite in2="SourceAlpha" operator="in" result="effect1_backgroundBlur_321_10109"/>
<feBlend mode="normal" in="SourceGraphic" in2="effect1_backgroundBlur_321_10109" result="shape"/>
</filter>
<filter id="filter4_d_321_10109" x="178.886" y="32" width="57.9919" height="16.9514" filterUnits="userSpaceOnUse" color-interpolation-filters="sRGB">
<feFlood flood-opacity="0" result="BackgroundImageFix"/>
<feColorMatrix in="SourceAlpha" type="matrix" values="0 0 0 0 0 0 0 0 0 0 0 0 0 0 0 0 0 0 127 0" result="hardAlpha"/>
<feOffset dy="3.56871"/>
<feGaussianBlur stdDeviation="1.78436"/>
<feComposite in2="hardAlpha" operator="out"/>
<feColorMatrix type="matrix" values="0 0 0 0 0 0 0 0 0 0 0 0 0 0 0 0 0 0 0.15 0"/>
<feBlend mode="normal" in2="BackgroundImageFix" result="effect1_dropShadow_321_10109"/>
<feBlend mode="normal" in="SourceGraphic" in2="effect1_dropShadow_321_10109" result="shape"/>
</filter>
<filter id="filter5_d_321_10109" x="232.417" y="32" width="37.4714" height="16.9514" filterUnits="userSpaceOnUse" color-interpolation-filters="sRGB">
<feFlood flood-opacity="0" result="BackgroundImageFix"/>
<feColorMatrix in="SourceAlpha" type="matrix" values="0 0 0 0 0 0 0 0 0 0 0 0 0 0 0 0 0 0 127 0" result="hardAlpha"/>
<feOffset dy="3.56871"/>
<feGaussianBlur stdDeviation="1.78436"/>
<feComposite in2="hardAlpha" operator="out"/>
<feColorMatrix type="matrix" values="0 0 0 0 0 0 0 0 0 0 0 0 0 0 0 0 0 0 0.15 0"/>
<feBlend mode="normal" in2="BackgroundImageFix" result="effect1_dropShadow_321_10109"/>
<feBlend mode="normal" in="SourceGraphic" in2="effect1_dropShadow_321_10109" result="shape"/>
</filter>
<filter id="filter6_d_321_10109" x="265.427" y="32" width="37.4714" height="16.9514" filterUnits="userSpaceOnUse" color-interpolation-filters="sRGB">
<feFlood flood-opacity="0" result="BackgroundImageFix"/>
<feColorMatrix in="SourceAlpha" type="matrix" values="0 0 0 0 0 0 0 0 0 0 0 0 0 0 0 0 0 0 127 0" result="hardAlpha"/>
<feOffset dy="3.56871"/>
<feGaussianBlur stdDeviation="1.78436"/>
<feComposite in2="hardAlpha" operator="out"/>
<feColorMatrix type="matrix" values="0 0 0 0 0 0 0 0 0 0 0 0 0 0 0 0 0 0 0.15 0"/>
<feBlend mode="normal" in2="BackgroundImageFix" result="effect1_dropShadow_321_10109"/>
<feBlend mode="normal" in="SourceGraphic" in2="effect1_dropShadow_321_10109" result="shape"/>
</filter>
<filter id="filter7_d_321_10109" x="298.438" y="32" width="82.0808" height="16.9514" filterUnits="userSpaceOnUse" color-interpolation-filters="sRGB">
<feFlood flood-opacity="0" result="BackgroundImageFix"/>
<feColorMatrix in="SourceAlpha" type="matrix" values="0 0 0 0 0 0 0 0 0 0 0 0 0 0 0 0 0 0 127 0" result="hardAlpha"/>
<feOffset dy="3.56871"/>
<feGaussianBlur stdDeviation="1.78436"/>
<feComposite in2="hardAlpha" operator="out"/>
<feColorMatrix type="matrix" values="0 0 0 0 0 0 0 0 0 0 0 0 0 0 0 0 0 0 0.15 0"/>
<feBlend mode="normal" in2="BackgroundImageFix" result="effect1_dropShadow_321_10109"/>
<feBlend mode="normal" in="SourceGraphic" in2="effect1_dropShadow_321_10109" result="shape"/>
</filter>
<filter id="filter8_d_321_10109" x="178.886" y="44.814" width="116.876" height="16.9514" filterUnits="userSpaceOnUse" color-interpolation-filters="sRGB">
<feFlood flood-opacity="0" result="BackgroundImageFix"/>
<feColorMatrix in="SourceAlpha" type="matrix" values="0 0 0 0 0 0 0 0 0 0 0 0 0 0 0 0 0 0 127 0" result="hardAlpha"/>
<feOffset dy="3.56871"/>
<feGaussianBlur stdDeviation="1.78436"/>
<feComposite in2="hardAlpha" operator="out"/>
<feColorMatrix type="matrix" values="0 0 0 0 0 0 0 0 0 0 0 0 0 0 0 0 0 0 0.15 0"/>
<feBlend mode="normal" in2="BackgroundImageFix" result="effect1_dropShadow_321_10109"/>
<feBlend mode="normal" in="SourceGraphic" in2="effect1_dropShadow_321_10109" result="shape"/>
</filter>
<filter id="filter9_d_321_10109" x="291.3" y="44.814" width="57.9919" height="16.9514" filterUnits="userSpaceOnUse" color-interpolation-filters="sRGB">
<feFlood flood-opacity="0" result="BackgroundImageFix"/>
<feColorMatrix in="SourceAlpha" type="matrix" values="0 0 0 0 0 0 0 0 0 0 0 0 0 0 0 0 0 0 127 0" result="hardAlpha"/>
<feOffset dy="3.56871"/>
<feGaussianBlur stdDeviation="1.78436"/>
<feComposite in2="hardAlpha" operator="out"/>
<feColorMatrix type="matrix" values="0 0 0 0 0 0 0 0 0 0 0 0 0 0 0 0 0 0 0.15 0"/>
<feBlend mode="normal" in2="BackgroundImageFix" result="effect1_dropShadow_321_10109"/>
<feBlend mode="normal" in="SourceGraphic" in2="effect1_dropShadow_321_10109" result="shape"/>
</filter>
<filter id="filter10_d_321_10109" x="344.832" y="44.814" width="24.0886" height="16.9514" filterUnits="userSpaceOnUse" color-interpolation-filters="sRGB">
<feFlood flood-opacity="0" result="BackgroundImageFix"/>
<feColorMatrix in="SourceAlpha" type="matrix" values="0 0 0 0 0 0 0 0 0 0 0 0 0 0 0 0 0 0 127 0" result="hardAlpha"/>
<feOffset dy="3.56871"/>
<feGaussianBlur stdDeviation="1.78436"/>
<feComposite in2="hardAlpha" operator="out"/>
<feColorMatrix type="matrix" values="0 0 0 0 0 0 0 0 0 0 0 0 0 0 0 0 0 0 0.15 0"/>
<feBlend mode="normal" in2="BackgroundImageFix" result="effect1_dropShadow_321_10109"/>
<feBlend mode="normal" in="SourceGraphic" in2="effect1_dropShadow_321_10109" result="shape"/>
</filter>
<filter id="filter11_d_321_10109" x="178.886" y="57.6279" width="63.3445" height="16.9514" filterUnits="userSpaceOnUse" color-interpolation-filters="sRGB">
<feFlood flood-opacity="0" result="BackgroundImageFix"/>
<feColorMatrix in="SourceAlpha" type="matrix" values="0 0 0 0 0 0 0 0 0 0 0 0 0 0 0 0 0 0 127 0" result="hardAlpha"/>
<feOffset dy="3.56871"/>
<feGaussianBlur stdDeviation="1.78436"/>
<feComposite in2="hardAlpha" operator="out"/>
<feColorMatrix type="matrix" values="0 0 0 0 0 0 0 0 0 0 0 0 0 0 0 0 0 0 0.15 0"/>
<feBlend mode="normal" in2="BackgroundImageFix" result="effect1_dropShadow_321_10109"/>
<feBlend mode="normal" in="SourceGraphic" in2="effect1_dropShadow_321_10109" result="shape"/>
</filter>
<filter id="filter12_d_321_10109" x="237.77" y="57.6279" width="36.5788" height="16.9514" filterUnits="userSpaceOnUse" color-interpolation-filters="sRGB">
<feFlood flood-opacity="0" result="BackgroundImageFix"/>
<feColorMatrix in="SourceAlpha" type="matrix" values="0 0 0 0 0 0 0 0 0 0 0 0 0 0 0 0 0 0 127 0" result="hardAlpha"/>
<feOffset dy="3.56871"/>
<feGaussianBlur stdDeviation="1.78436"/>
<feComposite in2="hardAlpha" operator="out"/>
<feColorMatrix type="matrix" values="0 0 0 0 0 0 0 0 0 0 0 0 0 0 0 0 0 0 0.15 0"/>
<feBlend mode="normal" in2="BackgroundImageFix" result="effect1_dropShadow_321_10109"/>
<feBlend mode="normal" in="SourceGraphic" in2="effect1_dropShadow_321_10109" result="shape"/>
</filter>
<filter id="filter13_d_321_10109" x="178.886" y="70.4419" width="41.9323" height="16.9514" filterUnits="userSpaceOnUse" color-interpolation-filters="sRGB">
<feFlood flood-opacity="0" result="BackgroundImageFix"/>
<feColorMatrix in="SourceAlpha" type="matrix" values="0 0 0 0 0 0 0 0 0 0 0 0 0 0 0 0 0 0 127 0" result="hardAlpha"/>
<feOffset dy="3.56871"/>
<feGaussianBlur stdDeviation="1.78436"/>
<feComposite in2="hardAlpha" operator="out"/>
<feColorMatrix type="matrix" values="0 0 0 0 0 0 0 0 0 0 0 0 0 0 0 0 0 0 0.15 0"/>
<feBlend mode="normal" in2="BackgroundImageFix" result="effect1_dropShadow_321_10109"/>
<feBlend mode="normal" in="SourceGraphic" in2="effect1_dropShadow_321_10109" result="shape"/>
</filter>
<filter id="filter14_d_321_10109" x="216.358" y="70.4419" width="80.2956" height="16.9514" filterUnits="userSpaceOnUse" color-interpolation-filters="sRGB">
<feFlood flood-opacity="0" result="BackgroundImageFix"/>
<feColorMatrix in="SourceAlpha" type="matrix" values="0 0 0 0 0 0 0 0 0 0 0 0 0 0 0 0 0 0 127 0" result="hardAlpha"/>
<feOffset dy="3.56871"/>
<feGaussianBlur stdDeviation="1.78436"/>
<feComposite in2="hardAlpha" operator="out"/>
<feColorMatrix type="matrix" values="0 0 0 0 0 0 0 0 0 0 0 0 0 0 0 0 0 0 0.15 0"/>
<feBlend mode="normal" in2="BackgroundImageFix" result="effect1_dropShadow_321_10109"/>
<feBlend mode="normal" in="SourceGraphic" in2="effect1_dropShadow_321_10109" result="shape"/>
</filter>
<filter id="filter15_d_321_10109" x="292.193" y="70.4419" width="39.2556" height="16.9514" filterUnits="userSpaceOnUse" color-interpolation-filters="sRGB">
<feFlood flood-opacity="0" result="BackgroundImageFix"/>
<feColorMatrix in="SourceAlpha" type="matrix" values="0 0 0 0 0 0 0 0 0 0 0 0 0 0 0 0 0 0 127 0" result="hardAlpha"/>
<feOffset dy="3.56871"/>
<feGaussianBlur stdDeviation="1.78436"/>
<feComposite in2="hardAlpha" operator="out"/>
<feColorMatrix type="matrix" values="0 0 0 0 0 0 0 0 0 0 0 0 0 0 0 0 0 0 0.15 0"/>
<feBlend mode="normal" in2="BackgroundImageFix" result="effect1_dropShadow_321_10109"/>
<feBlend mode="normal" in="SourceGraphic" in2="effect1_dropShadow_321_10109" result="shape"/>
</filter>
<filter id="filter16_d_321_10109" x="178.886" y="83.2559" width="116.876" height="16.9514" filterUnits="userSpaceOnUse" color-interpolation-filters="sRGB">
<feFlood flood-opacity="0" result="BackgroundImageFix"/>
<feColorMatrix in="SourceAlpha" type="matrix" values="0 0 0 0 0 0 0 0 0 0 0 0 0 0 0 0 0 0 127 0" result="hardAlpha"/>
<feOffset dy="3.56871"/>
<feGaussianBlur stdDeviation="1.78436"/>
<feComposite in2="hardAlpha" operator="out"/>
<feColorMatrix type="matrix" values="0 0 0 0 0 0 0 0 0 0 0 0 0 0 0 0 0 0 0.15 0"/>
<feBlend mode="normal" in2="BackgroundImageFix" result="effect1_dropShadow_321_10109"/>
<feBlend mode="normal" in="SourceGraphic" in2="effect1_dropShadow_321_10109" result="shape"/>
</filter>
<filter id="filter17_d_321_10109" x="291.3" y="83.2559" width="107.061" height="16.9514" filterUnits="userSpaceOnUse" color-interpolation-filters="sRGB">
<feFlood flood-opacity="0" result="BackgroundImageFix"/>
<feColorMatrix in="SourceAlpha" type="matrix" values="0 0 0 0 0 0 0 0 0 0 0 0 0 0 0 0 0 0 127 0" result="hardAlpha"/>
<feOffset dy="3.56871"/>
<feGaussianBlur stdDeviation="1.78436"/>
<feComposite in2="hardAlpha" operator="out"/>
<feColorMatrix type="matrix" values="0 0 0 0 0 0 0 0 0 0 0 0 0 0 0 0 0 0 0.15 0"/>
<feBlend mode="normal" in2="BackgroundImageFix" result="effect1_dropShadow_321_10109"/>
<feBlend mode="normal" in="SourceGraphic" in2="effect1_dropShadow_321_10109" result="shape"/>
</filter>
<filter id="filter18_d_321_10109" x="178.886" y="96.0698" width="63.3445" height="16.9514" filterUnits="userSpaceOnUse" color-interpolation-filters="sRGB">
<feFlood flood-opacity="0" result="BackgroundImageFix"/>
<feColorMatrix in="SourceAlpha" type="matrix" values="0 0 0 0 0 0 0 0 0 0 0 0 0 0 0 0 0 0 127 0" result="hardAlpha"/>
<feOffset dy="3.56871"/>
<feGaussianBlur stdDeviation="1.78436"/>
<feComposite in2="hardAlpha" operator="out"/>
<feColorMatrix type="matrix" values="0 0 0 0 0 0 0 0 0 0 0 0 0 0 0 0 0 0 0.15 0"/>
<feBlend mode="normal" in2="BackgroundImageFix" result="effect1_dropShadow_321_10109"/>
<feBlend mode="normal" in="SourceGraphic" in2="effect1_dropShadow_321_10109" result="shape"/>
</filter>
<filter id="filter19_d_321_10109" x="237.77" y="96.0698" width="83.865" height="16.9514" filterUnits="userSpaceOnUse" color-interpolation-filters="sRGB">
<feFlood flood-opacity="0" result="BackgroundImageFix"/>
<feColorMatrix in="SourceAlpha" type="matrix" values="0 0 0 0 0 0 0 0 0 0 0 0 0 0 0 0 0 0 127 0" result="hardAlpha"/>
<feOffset dy="3.56871"/>
<feGaussianBlur stdDeviation="1.78436"/>
<feComposite in2="hardAlpha" operator="out"/>
<feColorMatrix type="matrix" values="0 0 0 0 0 0 0 0 0 0 0 0 0 0 0 0 0 0 0.15 0"/>
<feBlend mode="normal" in2="BackgroundImageFix" result="effect1_dropShadow_321_10109"/>
<feBlend mode="normal" in="SourceGraphic" in2="effect1_dropShadow_321_10109" result="shape"/>
</filter>
<filter id="filter20_d_321_10109" x="178.886" y="108.884" width="116.876" height="16.9514" filterUnits="userSpaceOnUse" color-interpolation-filters="sRGB">
<feFlood flood-opacity="0" result="BackgroundImageFix"/>
<feColorMatrix in="SourceAlpha" type="matrix" values="0 0 0 0 0 0 0 0 0 0 0 0 0 0 0 0 0 0 127 0" result="hardAlpha"/>
<feOffset dy="3.56871"/>
<feGaussianBlur stdDeviation="1.78436"/>
<feComposite in2="hardAlpha" operator="out"/>
<feColorMatrix type="matrix" values="0 0 0 0 0 0 0 0 0 0 0 0 0 0 0 0 0 0 0.15 0"/>
<feBlend mode="normal" in2="BackgroundImageFix" result="effect1_dropShadow_321_10109"/>
<feBlend mode="normal" in="SourceGraphic" in2="effect1_dropShadow_321_10109" result="shape"/>
</filter>
<filter id="filter21_d_321_10109" x="291.3" y="108.884" width="107.061" height="16.9514" filterUnits="userSpaceOnUse" color-interpolation-filters="sRGB">
<feFlood flood-opacity="0" result="BackgroundImageFix"/>
<feColorMatrix in="SourceAlpha" type="matrix" values="0 0 0 0 0 0 0 0 0 0 0 0 0 0 0 0 0 0 127 0" result="hardAlpha"/>
<feOffset dy="3.56871"/>
<feGaussianBlur stdDeviation="1.78436"/>
<feComposite in2="hardAlpha" operator="out"/>
<feColorMatrix type="matrix" values="0 0 0 0 0 0 0 0 0 0 0 0 0 0 0 0 0 0 0.15 0"/>
<feBlend mode="normal" in2="BackgroundImageFix" result="effect1_dropShadow_321_10109"/>
<feBlend mode="normal" in="SourceGraphic" in2="effect1_dropShadow_321_10109" result="shape"/>
</filter>
<filter id="filter22_d_321_10109" x="233.224" y="121.759" width="46.3933" height="16.9514" filterUnits="userSpaceOnUse" color-interpolation-filters="sRGB">
<feFlood flood-opacity="0" result="BackgroundImageFix"/>
<feColorMatrix in="SourceAlpha" type="matrix" values="0 0 0 0 0 0 0 0 0 0 0 0 0 0 0 0 0 0 127 0" result="hardAlpha"/>
<feOffset dy="3.56871"/>
<feGaussianBlur stdDeviation="1.78436"/>
<feComposite in2="hardAlpha" operator="out"/>
<feColorMatrix type="matrix" values="0 0 0 0 0 0 0 0 0 0 0 0 0 0 0 0 0 0 0.15 0"/>
<feBlend mode="normal" in2="BackgroundImageFix" result="effect1_dropShadow_321_10109"/>
<feBlend mode="normal" in="SourceGraphic" in2="effect1_dropShadow_321_10109" result="shape"/>
</filter>
<filter id="filter23_d_321_10109" x="275.157" y="121.759" width="27.6579" height="16.9514" filterUnits="userSpaceOnUse" color-interpolation-filters="sRGB">
<feFlood flood-opacity="0" result="BackgroundImageFix"/>
<feColorMatrix in="SourceAlpha" type="matrix" values="0 0 0 0 0 0 0 0 0 0 0 0 0 0 0 0 0 0 127 0" result="hardAlpha"/>
<feOffset dy="3.56871"/>
<feGaussianBlur stdDeviation="1.78436"/>
<feComposite in2="hardAlpha" operator="out"/>
<feColorMatrix type="matrix" values="0 0 0 0 0 0 0 0 0 0 0 0 0 0 0 0 0 0 0.15 0"/>
<feBlend mode="normal" in2="BackgroundImageFix" result="effect1_dropShadow_321_10109"/>
<feBlend mode="normal" in="SourceGraphic" in2="effect1_dropShadow_321_10109" result="shape"/>
</filter>
<filter id="filter24_d_321_10109" x="298.353" y="121.759" width="78.5114" height="16.9514" filterUnits="userSpaceOnUse" color-interpolation-filters="sRGB">
<feFlood flood-opacity="0" result="BackgroundImageFix"/>
<feColorMatrix in="SourceAlpha" type="matrix" values="0 0 0 0 0 0 0 0 0 0 0 0 0 0 0 0 0 0 127 0" result="hardAlpha"/>
<feOffset dy="3.56871"/>
<feGaussianBlur stdDeviation="1.78436"/>
<feComposite in2="hardAlpha" operator="out"/>
<feColorMatrix type="matrix" values="0 0 0 0 0 0 0 0 0 0 0 0 0 0 0 0 0 0 0.15 0"/>
<feBlend mode="normal" in2="BackgroundImageFix" result="effect1_dropShadow_321_10109"/>
<feBlend mode="normal" in="SourceGraphic" in2="effect1_dropShadow_321_10109" result="shape"/>
</filter>
<filter id="filter25_d_321_10109" x="233.224" y="135.142" width="28.5495" height="16.9514" filterUnits="userSpaceOnUse" color-interpolation-filters="sRGB">
<feFlood flood-opacity="0" result="BackgroundImageFix"/>
<feColorMatrix in="SourceAlpha" type="matrix" values="0 0 0 0 0 0 0 0 0 0 0 0 0 0 0 0 0 0 127 0" result="hardAlpha"/>
<feOffset dy="3.56871"/>
<feGaussianBlur stdDeviation="1.78436"/>
<feComposite in2="hardAlpha" operator="out"/>
<feColorMatrix type="matrix" values="0 0 0 0 0 0 0 0 0 0 0 0 0 0 0 0 0 0 0.15 0"/>
<feBlend mode="normal" in2="BackgroundImageFix" result="effect1_dropShadow_321_10109"/>
<feBlend mode="normal" in="SourceGraphic" in2="effect1_dropShadow_321_10109" result="shape"/>
</filter>
<filter id="filter26_d_321_10109" x="257.313" y="135.142" width="27.6579" height="16.9514" filterUnits="userSpaceOnUse" color-interpolation-filters="sRGB">
<feFlood flood-opacity="0" result="BackgroundImageFix"/>
<feColorMatrix in="SourceAlpha" type="matrix" values="0 0 0 0 0 0 0 0 0 0 0 0 0 0 0 0 0 0 127 0" result="hardAlpha"/>
<feOffset dy="3.56871"/>
<feGaussianBlur stdDeviation="1.78436"/>
<feComposite in2="hardAlpha" operator="out"/>
<feColorMatrix type="matrix" values="0 0 0 0 0 0 0 0 0 0 0 0 0 0 0 0 0 0 0.15 0"/>
<feBlend mode="normal" in2="BackgroundImageFix" result="effect1_dropShadow_321_10109"/>
<feBlend mode="normal" in="SourceGraphic" in2="effect1_dropShadow_321_10109" result="shape"/>
</filter>
<filter id="filter27_d_321_10109" x="280.509" y="135.142" width="47.2859" height="16.9514" filterUnits="userSpaceOnUse" color-interpolation-filters="sRGB">
<feFlood flood-opacity="0" result="BackgroundImageFix"/>
<feColorMatrix in="SourceAlpha" type="matrix" values="0 0 0 0 0 0 0 0 0 0 0 0 0 0 0 0 0 0 127 0" result="hardAlpha"/>
<feOffset dy="3.56871"/>
<feGaussianBlur stdDeviation="1.78436"/>
<feComposite in2="hardAlpha" operator="out"/>
<feColorMatrix type="matrix" values="0 0 0 0 0 0 0 0 0 0 0 0 0 0 0 0 0 0 0.15 0"/>
<feBlend mode="normal" in2="BackgroundImageFix" result="effect1_dropShadow_321_10109"/>
<feBlend mode="normal" in="SourceGraphic" in2="effect1_dropShadow_321_10109" result="shape"/>
</filter>
<filter id="filter28_d_321_10109" x="144" y="98" width="184" height="115" filterUnits="userSpaceOnUse" color-interpolation-filters="sRGB">
<feFlood flood-opacity="0" result="BackgroundImageFix"/>
<feColorMatrix in="SourceAlpha" type="matrix" values="0 0 0 0 0 0 0 0 0 0 0 0 0 0 0 0 0 0 127 0" result="hardAlpha"/>
<feOffset dx="-9" dy="12"/>
<feGaussianBlur stdDeviation="10.5"/>
<feComposite in2="hardAlpha" operator="out"/>
<feColorMatrix type="matrix" values="0 0 0 0 0 0 0 0 0 0 0 0 0 0 0 0 0 0 0.31 0"/>
<feBlend mode="normal" in2="BackgroundImageFix" result="effect1_dropShadow_321_10109"/>
<feBlend mode="normal" in="SourceGraphic" in2="effect1_dropShadow_321_10109" result="shape"/>
</filter>
<linearGradient id="paint0_linear_321_10109" x1="-10.5513" y1="-57.0943" x2="486.864" y2="272.035" gradientUnits="userSpaceOnUse">
<stop stop-color="#0A52B0"/>
<stop offset="0.485773" stop-color="#1AB2E2"/>
<stop offset="0.951102" stop-color="#1AB2E2" stop-opacity="0"/>
</linearGradient>
<linearGradient id="paint1_linear_321_10109" x1="84.8515" y1="75.5276" x2="158.511" y2="91.7933" gradientUnits="userSpaceOnUse">
<stop stop-color="#1AB2E2" stop-opacity="0.27"/>
<stop offset="1" stop-color="#0A52B0" stop-opacity="0.18"/>
</linearGradient>
<linearGradient id="paint2_linear_321_10109" x1="-6.14843" y1="52.0744" x2="184.331" y2="81.0702" gradientUnits="userSpaceOnUse">
<stop stop-color="#0A52B0"/>
<stop offset="0.43963" stop-color="#1AB2E2"/>
<stop offset="0.795561" stop-color="#1AB2E2" stop-opacity="0"/>
</linearGradient>
<linearGradient id="paint3_linear_321_10109" x1="59.4334" y1="75.5276" x2="77.2707" y2="92.2224" gradientUnits="userSpaceOnUse">
<stop stop-color="#1AB2E2" stop-opacity="0.27"/>
<stop offset="1" stop-color="#0A52B0" stop-opacity="0.18"/>
</linearGradient>
<linearGradient id="paint4_linear_321_10109" x1="43.0916" y1="76.9842" x2="47.9245" y2="88.3542" gradientUnits="userSpaceOnUse">
<stop stop-color="#0A52B0"/>
<stop offset="0.43963" stop-color="#1AB2E2"/>
<stop offset="0.795561" stop-color="#1AB2E2" stop-opacity="0"/>
</linearGradient>
<linearGradient id="paint5_linear_321_10109" x1="159.009" y1="84.8427" x2="342.004" y2="265.215" gradientUnits="userSpaceOnUse">
<stop stop-color="#0A52B0"/>
<stop offset="0.485773" stop-color="#1AB2E2"/>
<stop offset="0.951102" stop-color="#1AB2E2" stop-opacity="0"/>
</linearGradient>
<linearGradient id="paint6_linear_321_10109" x1="242.538" y1="152.166" x2="248.966" y2="154.693" gradientUnits="userSpaceOnUse">
<stop stop-color="#1AB2E2"/>
<stop offset="1" stop-color="#0A52B0"/>
</linearGradient>
</defs>
</svg>
