<svg viewBox="0 0 2354.99994816 2506.00516947" xmlns="http://www.w3.org/2000/svg" xmlns:xlink="http://www.w3.org/1999/xlink"><linearGradient id="a" gradientUnits="userSpaceOnUse" x1="1182.531744" x2="1182.531744" y1="2063.889409" y2="507.722783"><stop offset="0" stop-color="#00ff7a"/><stop offset=".0320541884" stop-color="#01dd73"/><stop offset=".08701348052" stop-color="#03aa69"/><stop offset=".1444807078" stop-color="#057c60"/><stop offset=".20335976587" stop-color="#065658"/><stop offset=".26398639203" stop-color="#073652"/><stop offset=".32694003918" stop-color="#081e4e"/><stop offset=".39317957098" stop-color="#090d4a"/><stop offset=".46488906543" stop-color="#090348"/><stop offset=".5521453373" stop-color="#0a0048"/><stop offset="1" stop-color="#00ff60"/></linearGradient><linearGradient id="b" gradientUnits="userSpaceOnUse" x1="1182.55261" x2="1182.55261" y1="680.714889" y2="2477.157874"><stop offset="0" stop-color="#032b86"/><stop offset=".14824734428" stop-color="#041962"/><stop offset=".29727456533" stop-color="#050b46"/><stop offset=".42747892093" stop-color="#050335"/><stop offset=".52360074482" stop-color="#06002f"/><stop offset=".68666005757" stop-color="#030118"/><stop offset=".86585274734" stop-color="#000206"/><stop offset=".994382" stop-color="#000300"/></linearGradient><radialGradient id="c" cx="480.038167" cy="654.676914" fx="480.038167" fy="654.676914" gradientUnits="userSpaceOnUse" r="508.976455"><stop offset=".11657261966"/><stop offset=".57972014896" stop-color="#030000"/><stop offset="1"/></radialGradient><linearGradient id="d" gradientUnits="userSpaceOnUse" x1="466.968718" x2="466.968718" y1="1269.592687" y2="21.034093"><stop offset="0"/><stop offset=".1128870584" stop-color="#000400"/><stop offset=".23696247437" stop-color="#031100"/><stop offset=".36641740433" stop-color="#072700"/><stop offset=".49962296307" stop-color="#0d4600"/><stop offset=".63578173579" stop-color="#156e00"/><stop offset=".77426534633" stop-color="#1f9e00"/><stop offset=".91212500531" stop-color="#2ad700"/><stop offset="1" stop-color="#32ff00"/></linearGradient><radialGradient id="e" cx="1866.419472" cy="671.72211" fx="1866.419472" fy="671.72211" r="507.678747" xlink:href="#c"/><linearGradient id="f" x1="1879.40915" x2="1879.40915" xlink:href="#d" y1="1286.592687" y2="38.034093"/><linearGradient id="g" gradientUnits="userSpaceOnUse" x1="864.860814" x2="864.860814" y1="1441.613587" y2="1781.009206"><stop offset="0" stop-color="#15ff9e"/><stop offset=".53350281085" stop-color="#2eff74"/><stop offset=".99878058862" stop-color="#c3ff00"/></linearGradient><linearGradient id="h" x1="1500.298781" x2="1500.298781" xlink:href="#g" y1="1441.692735" y2="1780.931287"/><linearGradient id="i" x1="1182.55261" x2="1182.55261" xlink:href="#g" y1="1716.950376" y2="1963.882986"/><radialGradient id="j" cx="1996.223578" cy="2102.335607" fx="1996.223578" fy="2102.335607" gradientUnits="userSpaceOnUse" r="349.953254"><stop offset=".11657261966" stop-color="#90ff00"/><stop offset=".57972014896" stop-color="#2ddb1a"/><stop offset="1" stop-color="#65ff46"/></radialGradient><radialGradient id="k" cx="376.477972" fx="376.477972" xlink:href="#j"/><symbol id="l" viewBox="0 0 2356.10834345 2505.624303"><path d="m1529.38315424 2063.88940905-346.45556641-346.45553589-346.45556641 346.45553589h-431.62496948v-431.34164429l346.73886108-346.7388916-346.66946411-346.67221069-3.375-431.4083252h434.64724731l346.7388916 346.73886108 346.7472229-346.74441528 433.847229.30554199-2.56665039 431.3722229-346.41018677 346.68427277 346.46292114 346.46294403v431.34164429h-431.62496948zm199.78884888-238.72497559v-103.55273438l-278.67276001-278.67019653-103.79850769 103.57891846 278.9098053 278.64401245zm-988.92736816 0 278.9098053-278.64401245-103.79850769-103.57891846-278.67276001 278.67019653v103.55273438zm442.68295288-435.54859924 103.58735657-103.80696106-103.58735657-103.80695343-103.58735657 103.80695343zm267.57159424-267.82575989 278.67282104-278.67288208v-103.55273438h-103.56140137l-278.90994263 278.64668274 103.79852295 103.57893372zm-534.87715149-.01731873 103.54705811-103.54705811-278.92451477-278.66123962h-103.51623535l.21948242 103.53411865z" fill="url(#a)"/><path d="m1538.48041376 529.01358508 403.63330078.28417969-2.38867188 401.23828125-355.27246094 355.55566406 355.27246094 355.27246094v401.24414063h-401.52783203l-355.27246094-355.27197266-355.27246094 355.27197266h-401.52148438v-401.24414063l355.55566406-355.55566406-355.55566406-355.55566406-3.13964844-401.23925781h404.37792969l355.55566406 355.55566406 355.55566406-355.55566406m-87.96679688 622.85644531 299.93896484-299.93359375v-133.65527344h-133.64990234l-300.22216797 299.93847656zm-534.89453125 0 133.65625-133.65039063-300.22265625-299.93847656h-133.65039063l.28417969 133.65527344zm267.30566406 267.87744141 133.65576172-133.93896484-133.65576172-133.93847656-133.64941406 133.93847656zm433.87792969 426.69970703h133.64990234v-133.64990234l-299.93896484-299.93896484-133.93310547 133.65039063 300.22216797 299.93847656m-1001.40039063 0h133.65039063l300.22265625-299.93847656-133.93945313-133.65039063-299.93359375 299.93896484v133.64990234m905.46142581-1360.0107422-12.48339844 12.47753906-325.45556641 325.45605469-325.45507813-325.45605469-12.46679688-12.46679688h-464.91113281l.33886719 42.90039063 3.13867188 401.23828125.13378906 17.43359375 12.32714844 12.33398438 325.45605469 325.45507813-325.45605469 325.45556641-12.46679688 12.46679688v461.44433594h461.72265625l12.46679688-12.46679688 325.171875-325.17236328 325.17236328 325.17236328 12.46679688 12.46679688h461.72753906v-461.44433594l-12.46630859-12.46679688-325.18701172-325.18701172 325.19775391-325.45703125 12.35009766-12.35644531.10009766-17.47167969 2.38867188-401.23925781.25585938-42.7890625-42.7890625-.03320313-403.63330078-.28320313-17.64453125-.01074219zm113.55517578 274.41113281h73.46728516v73.45507813l-257.40673828 257.40234375-73.65820313-73.50292969zm-976.359375 0h73.37695313l257.62890625 257.38574219-73.44238281 73.43945313-257.40722656-257.40722656-.15625-73.41796875zm451.34521484 524.9609375 73.52099609-73.6796875 73.52392578 73.6796875-73.52392578 73.68017578zm-451.43505859 444.62207031 257.40234375-257.40722656 73.66210938 73.50341797-257.59765625 257.35400391h-73.46679688v-73.45019531zm718.8515625-183.90429688 73.65771484-73.50244141 257.40722656 257.40673828v73.45019531h-73.46728516l-257.59765625-257.35449219z"/><path d="m1855.76357021 1199.21581069c-3.32863993-31.83807845-31.85712352-205.80208711-266.66968489-384.67678216-141.66249121-107.91562316-285.18632468-136.27674172-406.54169272-133.66209558-121.35536804-2.61464613-264.87747325 25.74647242-406.54169272 133.66209558-234.84021362 178.89720525-263.34795802 352.880261-266.67141315 384.68717148-5.96251701 26.87890856-7.76509825 55.08245573-6.42569225 83.91282535-2.82225805 92.39917018 9.98419153 182.94904097 49.80689213 269.83494408 31.14680627 67.80244943 40.49153946 139.01086506 23.21925104 217.02774995-4.46065403 20.00117714-3.94735909 42.80400822-.66883887 65.75575292 10.80684606 75.66370337 50.202665 144.31461413 106.16736818 196.25776295l501.11412564 445.14263844 501.11412564-445.14263844c55.96470318-51.94314881 95.36052212-120.59405958 106.16736818-196.25776295 3.27852023-22.9517447 3.79181517-45.75457578-.6671106-65.75575292-17.27228842-78.01688489-7.9292835-149.22530052 23.21925104-217.02774995 39.8175158-86.88070844 52.62396539-177.42365302 49.80516386-269.81762854 1.34113426-28.84075894-.46144697-57.05296387-6.42742052-83.94053021z" fill="url(#b)"/><path d="m1855.76357021 1199.21581069c-3.32863993-31.83807845-31.85712352-205.80208711-266.66968489-384.67678216-141.66249121-107.91562316-285.18632468-136.27674172-406.54169272-133.66209558-121.35536804-2.61464613-264.87747325 25.74647242-406.54169272 133.66209558-234.84021362 178.89720525-263.34795802 352.880261-266.67141315 384.68717148-5.96251701 26.87890856-7.76509825 55.08245573-6.42569225 83.91282535-2.82225805 92.39917018 9.98419153 182.94904097 49.80689213 269.83494408 31.14680627 67.80244943 40.49153946 139.01086506 23.21925104 217.02774995-4.46065403 20.00117714-3.94735909 42.80400822-.66883887 65.75575292 10.80684606 75.66370337 50.202665 144.31461413 106.16736818 196.25776295l501.11412564 445.14263844 501.11412564-445.14263844c55.96470318-51.94314881 95.36052212-120.59405958 106.16736818-196.25776295 3.27852023-22.9517447 3.79181517-45.75457578-.6671106-65.75575292-17.27228842-78.01688489-7.9292835-149.22530052 23.21925104-217.02774995 39.8175158-86.88070844 52.62396539-177.42365302 49.80516386-269.81762854 1.34113426-28.84075894-.46144697-57.05296387-6.42742052-83.94053021z" fill="none" stroke="#000" stroke-linecap="square" stroke-miterlimit="500" stroke-width="42.56447"/><path d="m715.19067987 1248.31018256c-24.4694519-.00555563-50.05557251-5.61944389-76.05001831-16.6916666l-.2333374-.09722137c-9.6444397-3.97222328-18.81112671-8.41666794-28.5194397-13.1194458-67.1194458-33.15832901-117.96942139-61.28611374-163.73608398-98.85554886-48.19726563-39.56388855-87.40557861-87.04167175-127.1305542-153.93612671-44.70281982-75.2527771-57.86669922-178.3527832-73.11114502-297.73052979-21.59851074-169.1574707-48.11444092-376.84820557-173.45129395-606.83599854l79.88739014 29.20544434c54.4888916 19.7166748 101.08612061 52.46386719 134.81945801 94.72497559 32.78057861 40.98608398 48.4777832 81.43609619 66.652771 128.26947021l.93060303 2.3972168c17.152771 44.1194458 22.01940918 64.4944458 33.777771 113.7166748 5.57220459 23.31939697 12.5055542 52.3416748 22.8972168 92.94720459 21.53051758 84.78613281 70.26940918 143.8805542 131.7444458 212.31665039 48.3527832 53.6055603 179.80276489 128.18890381 239.81109619 154.89169312 41.54721069 18.4055481 72.32778931 48.6333313 89.04998779 87.42498779 15.1027832 35.0305481 18.6166687 77.0055542 9.89724731 118.19166565-8.875 41.92499542-29.56390381 80.28055573-58.2555542 108-30.59719849 29.55847549-68.27297974 45.18055439-108.9588623 45.18055439-.00744629 0-.01425171.00000095-.021698 0z" fill="url(#c)"/><path d="m117.08295282 99.83487414 28.45410156 10.40332031.13378906.04394531c50.72753906 18.36132813 94.078125 48.77832031 125.38867188 88.00585938 30.72265625 38.40527344 45.8671875 77.43359375 63.40527344 122.62207031l.95019531 2.45019531c16.62207031 42.75585938 21.38867188 62.71679688 32.91113281 110.94433594 5.5859375 23.375 12.53613281 52.47167969 22.95898438 93.19921875l-.00292969.00097656c10.61132813 41.78320313 28.62207031 81.26074219 55.04980469 120.68847656 24.17773438 36.06640625 53.52246094 69.49414063 81.5 100.65039063l.06152344.06640625c28.71582031 31.828125 80.42773438 66.83886719 118.76074219 90.60546875 43.70019531 27.10058594 92.81054688 53.70605469 128.17773438 69.43945313l.05566406.02734375c84.3828125 37.38378906 100.12792969 118.37792969 86.72753906 181.7109375-8.00585938 37.81640625-26.54980469 72.30566406-52.22753906 97.1171875-18.51660156 17.88867188-49.88867188 39.21582031-94.20019531 39.21582031-21.578125 0-44.35546875-5.03808594-67.70019531-14.98828125l-.46679688-.19433594c-8.98535156-3.70019531-17.81152344-7.97167969-27.14355469-12.49121094-65.84960938-32.53417969-115.53417969-59.98535156-159.72265625-96.25390625-46.20019531-37.92773438-83.92773438-83.68261719-122.33886719-148.36035156-19.10546875-32.16113281-33.29980469-71.48925781-44.67773438-123.76171875-10.75585938-49.39453125-17.97265625-105.93261719-25.6171875-165.7890625-20.29199219-158.94726563-44.8828125-351.55566406-150.4375-565.35253906m-91.58398437-78.80273438c249.3046875 414.20019531 159.78808594 760.27832031 275.72167969 955.44433594 84.89453125 142.95605469 166.97265625 195.41113281 299.828125 261.04980469 9.75 4.72265625 19.49414063 9.4453125 29.75488281 13.67285156 29.80957031 12.69726563 58.10742188 18.39355469 84.38671875 18.39355469 193.95605469 0 279.55566406-309.75683594 76.94140625-399.52734375-62.58300781-27.84375-188.00585938-100.19433594-232.6328125-149.66601563-58.73339844-65.38964844-106.43945313-122.57226563-126.96191406-203.37304688-32.57226563-127.28808594-31.54394531-142.45507813-57.44921875-209.08886719-18.72265625-48.22753906-35.39453125-91.98828125-70.7890625-136.23828125-37.70605469-47.23925781-88.48925781-81.29980469-144.14453125-101.43945313z"/><path d="m301.22013927 976.47609934c84.8965047 142.95585093 166.97163566 195.41444793 299.83080923 261.04981475 9.74640376 4.72372441 19.49285644 9.44754366 29.7522417 13.67401895 249.81621439 106.40884652 391.3959755-279.19898096 161.32901046-381.13277506-62.58232343-27.84528702-188.00341212-100.19342216-232.63177466-149.66857184-58.73506008-65.38678968-106.44121374-122.56911108-126.96003317-203.37024422-32.57359099-127.29283549-31.547628-142.45860181-57.45260634-209.08846688-18.7233842-48.23207429-35.39491582-91.9889776-70.78983163-136.24314189-37.70328361-47.2375879-88.48727731-81.2983704-144.14449735-101.43649755l-134.65455989-49.22644804c249.30330628 414.19901782 159.79007821 760.27648842 275.72124165 955.44231178z" fill="none" stroke="#000" stroke-linecap="round" stroke-miterlimit="500" stroke-width="22"/><path d="m48.25092157 39.99893664 108.49902344 39.66503906c56.38476563 20.40039063 104.70117188 54.38183594 139.73730469 98.27832031 33.84667969 42.31738281 49.83105469 83.50585938 68.33984375 131.20019531l.94042969 2.421875c17.4296875 44.83105469 22.35058594 65.4296875 34.23925781 115.19238281 5.56054688 23.27734375 12.48046875 52.24414063 22.84082031 92.73339844 20.90625 82.32421875 68.7890625 140.32226563 129.2265625 207.60644531 47.25683594 52.38867188 176.76757813 125.75488281 236.00585938 152.11328125 22.90820313 10.14941406 42.76171875 23.62890625 59.00976563 40.06445313 15.140625 15.31445313 27.18261719 33.20703125 35.79589844 53.18359375 8.16894531 18.94335938 13.17871094 39.54296875 14.89257813 61.22753906 1.65722656 20.95898438.20703125 42.40722656-4.30957031 63.75-9.33300781 44.10546875-31.15722656 84.51757813-61.453125 113.79003906-32.74707031 31.64160156-73.14550781 48.3671875-116.82714844 48.3671875-25.98730469 0-53.05859375-5.91894531-80.46582031-17.59277344l-.109375-.046875c-9.95800781-4.1015625-19.70898438-8.82519531-29.16601563-13.40820313-66.0234375-32.61914063-119.515625-62.15820313-165.953125-100.27832031-24.14648438-19.82128906-45.93554688-41.51660156-66.61132813-66.32421875-21.71386719-26.05273438-42.34277344-55.6796875-63.06542969-90.57226563-20.94628906-35.26171875-36.35742188-77.671875-48.50195313-133.46582031-11.05273438-50.78417969-18.359375-108.00878906-26.09570313-168.59179688-22.29980469-174.66113281-49.87011719-390.62988281-186.96875-629.31347656m-22.75195313-18.96484375c249.30371094 414.19824219 159.79003906 760.27539063 275.72070313 955.44238281 84.89648438 142.95507813 166.97167969 195.41503906 299.83203125 261.05078125 9.74511719 4.72265625 19.4921875 9.44726563 29.75292969 13.67285156 29.80859375 12.69628906 58.10449219 18.39257813 84.38378906 18.39257813 193.95507813 0 279.55761719-309.75488281 76.94335938-399.52539063-62.58203125-27.84570313-188.00292969-100.19335938-232.63183594-149.66894531-58.734375-65.38671875-106.43945313-122.5703125-126.95996094-203.37011719-32.57324219-127.29296875-31.546875-142.45800781-57.453125-209.08886719-18.72265625-48.23144531-35.39355469-91.98828125-70.79003906-136.2421875-37.70214844-47.23925781-88.48632813-81.29882813-144.14355469-101.43554688l-134.65429687-49.22753903z" fill="url(#d)"/><path d="m1633.01508173 1265.31024359c-40.2166748-.00277805-77.4888916-15.54166651-107.78613281-44.9388895-28.44165039-27.59722137-49.0083313-65.81944656-57.91387939-107.63055038-8.79721069-41.30000305-5.3944397-83.41667175 9.58334351-118.59443665 16.56942749-38.91668701 47.1416626-69.222229 88.41665649-87.64724731 59.6083374-26.71664429 190.11108398-101.31665039 238.0916748-154.902771 61.04998779-68.4694519 109.42779541-127.55831909 130.80279541-212.36386108 10.30273438-40.56390381 17.18609619-69.58337402 22.71386719-92.90002441 11.67498779-49.23608398 16.50830078-69.6138916 33.5333252-113.7277832l.93890381-2.43890381c18.03887939-46.82775879 33.6194458-87.2722168 66.1416626-128.23614502 33.4833374-42.2611084 79.71112061-74.99438477 133.69995117-94.67492676l79.07397461-29.12072754c-124.38232422 229.95690918-150.70666504 437.63189697-172.14337158 606.76794434-15.1305542 119.3916626-28.20001221 222.5-72.57775879 297.7666626-39.43334961 66.8944397-78.35003662 114.36665344-126.18334961 153.92777252-45.41668701 37.56111145-95.8805542 65.68055344-162.58056641 98.8777771l.1472168-.07222366-.10552979.05277824c-9.61669922 4.6916666-18.70001221 9.125-28.24725342 13.08611107l-.23608398.10000038c-25.777771 11.06111097-51.13613892 16.66944408-75.3694458 16.66944408z" fill="url(#e)"/><path d="m2226.33637079 117.00479601c-104.74316406 213.75390625-129.14306641 406.3046875-149.28466797 565.22753906-7.58349609 59.86132813-14.75 116.40527344-25.42822266 165.81152344-11.29443359 52.29394531-25.39404297 91.63867188-44.36621094 123.81640625-38.12255859 64.671875-75.57226563 110.421875-121.41699219 148.33300781-43.828125 36.24804688-93.11767578 63.68164063-158.43212891 96.19433594-9.26611328 4.52539063-18.02978516 8.796875-26.9453125 12.49511719l-.47802734.19921875c-23.10546875 9.91699219-45.63867188 14.94433594-66.97216797 14.94433594-43.67773438 0-74.66113281-21.16601563-92.96679688-38.921875-25.43896484-24.68359375-43.87792969-59.05566406-51.91650391-96.78320313-13.55029297-63.59472656 1.88867188-144.90527344 85.86083984-182.38867188l.06152344-.02832031c35.11621094-15.73828125 83.88867188-42.35546875 127.27734375-69.4609375 38.06152344-23.77734375 89.41699219-58.80566406 117.93359375-90.64941406l.06103516-.06738281c27.77783203-31.15527344 56.90576172-64.59375 80.89990234-100.64941406 26.21337891-39.40039063 44.07958984-78.83691406 54.60400391-120.57324219l.00146484.00097656c10.35595703-40.76171875 17.25585938-69.87207031 22.80566406-93.26171875 11.43896484-48.23828125 16.17236328-68.2109375 32.68359375-111l.93310547-2.421875c17.41113281-45.20019531 32.45019531-84.23925781 62.98339844-122.68847656 31.01660156-39.16113281 73.99462891-69.55078125 124.2890625-87.88378906l.13330078-.04980469 27.67919922-10.19433594m91.27050781-78.97265625h.00537109zm0 0-133.66113281 49.22753906c-55.24414063 20.13964844-105.65527344 54.20019531-143.07763672 101.43945313-35.13330078 44.25-51.68310547 88.01074219-70.26660156 136.23828125-25.7109375 66.63378906-24.69433594 81.80078125-57.02783203 209.08886719-20.36669922 80.80566406-67.72216797 137.98339844-126.02197266 203.37304688-44.30029297 49.47167969-168.79443359 121.82226563-230.91113281 149.66601563-201.10351563 89.76464844-116.12011719 399.52734375 76.37207031 399.52734375 26.09619141 0 54.15771484-5.68945313 83.76123047-18.39355469 10.18896484-4.22753906 19.86083984-8.95019531 29.53320313-13.67285156 131.87792969-65.63867188 213.34423828-118.09375 297.61669922-261.04980469 115.07226563-195.16601563 26.22216797-541.24414063 273.68310547-955.44433594z"/><path d="m2317.60628913 38.03381841-133.6591645 49.22644805c-55.24578994 20.13812714-105.65437747 54.19890965-143.07895032 101.43649754-35.13326901 44.25416429-51.68156109 88.0110676-70.26653803 136.24314188-25.71348319 66.62986506-24.69510434 81.79563138-57.02790437 209.08846687-20.36713992 80.80113314-67.72063947 137.98345454-126.02151739 203.37024421-44.29846012 49.47514967-168.79240923 121.82328481-230.91211071 149.66857183-228.36626071 101.93379408-87.83308757 487.54162157 160.1364318 381.13277506 10.18354568-4.22647529 19.85795049-8.95029454 29.53230675-13.67401895 131.87705008-65.63536681 213.34546407-118.09396381 297.61439561-261.04981474 115.07417543-195.16582336 26.22264836-541.24329396 273.68305116-955.44231177z" fill="none" stroke="#000" stroke-linecap="round" stroke-miterlimit="500" stroke-width="22"/><path d="m2294.9325622 57.04190539c-136.05761719 238.65722656-163.43798828 454.63476563-185.57226563 629.27929688-7.67871094 60.5859375-14.93115234 117.80957031-25.90429688 168.59863281-12.05419922 55.79882813-27.35400391 98.21289063-48.14697266 133.47851563-20.56884766 34.89257813-41.04443359 64.51855469-62.59863281 90.57128906-20.52294922 24.80761719-42.1484375 46.5-66.11425781 66.3203125-46.08886719 38.11523438-99.17919922 67.65136719-164.70947266 100.26757813l-.02050781.00976563c-9.35986328 4.56933594-19.03857422 9.29492188-28.92285156 13.39550781l-.10986328.046875c-27.19042969 11.66699219-54.04589844 17.58300781-79.81884766 17.58300781-43.20849609 0-83.19726563-16.63867188-115.64013672-48.1171875-30.02832031-29.13476563-51.72412109-69.39746094-61.09277344-113.37109375-4.55859375-21.39355469-6.05859375-42.90332031-4.45849609-63.93359375 1.65429688-21.75488281 6.59716797-42.42578125 14.69140625-61.43945313 8.53564453-20.04589844 20.49169922-37.99902344 35.53564453-53.36132813 16.14453125-16.48632813 35.88134766-30.00195313 58.68017578-40.17773438 58.79296875-26.35351563 187.35693359-99.7265625 234.28564453-152.13867188 59.97705078-67.26660156 107.50439453-125.26367188 128.25-207.56347656 10.28857422-40.5078125 17.15869141-69.47753906 22.67724609-92.75488281 11.80126953-49.76269531 16.68554688-70.36132813 33.98974609-115.20019531l.92871094-2.41210938c18.37451172-47.69726563 34.24169922-88.890625 67.84423828-131.21582031 34.765625-43.8828125 82.71582031-77.85742188 138.69726563-98.26171875l107.52929688-39.60351563m22.67333984-19.0078125h.00537109zm0 0-133.65820313 49.22753906c-55.24609375 20.13671875-105.65429688 54.19628906-143.08007813 101.43554688-35.1328125 44.25390625-51.68164063 88.01074219-70.265625 136.2421875-25.71435547 66.63085938-24.69580078 81.79589844-57.02880859 209.08886719-20.3671875 80.80175781-67.71972656 137.98339844-126.02148438 203.37011719-44.29833984 49.47558594-168.79150391 121.82324219-230.91113281 149.66894531-201.10400391 89.76464844-116.11914063 399.52539063 76.37451172 399.52539063 26.09667969 0 54.15722656-5.68945313 83.76123047-18.39257813 10.18408203-4.22558594 19.85839844-8.95019531 29.53271484-13.67285156 131.87695313-65.63574219 213.34570313-118.09570313 297.61425781-261.05078125 115.07421875-195.16699219 26.22265625-541.24414063 273.68261719-955.44238281z" fill="url(#f)"/><path d="m951.03222383 1455.7939794c-54.82059122-49.59169885-168.15334941-46.04547681-235.87371657-43.96761233-9.83037588.30475346-18.66527065.58180205-26.15903117.63721177l-13.25925523.1385243-1.27200363 35.71156414c-6.95454158 191.16353187-8.61367675 236.57179691 197.90717345 358.55629413l8.33715423 4.93146503 7.47993439-6.12277399c18.02926884-14.73898536 35.10453496-28.12043259 50.92162357-40.53220973 69.60072035-54.60627845 115.5864168-90.67800577 118.15807631-141.98740592 2.22600635-44.21695607-28.46799428-92.64505081-106.23995534-167.3650574zm-29.02103934 290.47333299c-13.74316965 10.74948556-28.41268977 22.27470719-43.82882072 34.74189405-183.9566119-109.54501522-182.82286953-140.74068723-175.97893696-328.66275052l.33182703-9.33653772c4.24462081-.11081944 8.75193802-.24934374 13.48047325-.38786804 63.50339861-1.96704504 169.86778909-5.2916282 216.1023558 36.51500507 69.11680593 66.43625354 99.16097862 111.3458311 97.44653894 145.6444474-1.9356577 38.62057441-43.95325586 71.58935744-107.55343735 121.48580975z"/><path d="m1690.63320394 1448.23055271-1.27200363-35.71156414-13.35603811-.08311458c-7.90854431-.02770486-17.31031027-.30475346-27.81816634-.60950691-67.30558337-2.10556934-179.7672956-5.2916282-234.10397239 43.93990747l-.33182703.2770486c-77.39865565 74.52607257-108.06500403 122.98187217-105.7975193 167.28194282 2.59931177 51.42021959 48.75092173 87.57506149 118.60051235 142.29215938 15.6511751 12.27325284 32.54670157 25.48847092 50.35475239 40.03352225l7.49376051 6.12277399 8.3233281-4.93146503c206.50702407-121.98449722 204.87554116-167.42046712 197.90717345-358.61170385zm-203.71414654 332.70073382c-15.20873905-12.27325284-29.69851953-23.60454046-43.27577567-34.24320658-63.84905177-50.0349766-106.01873732-83.08687422-107.98204727-121.81826806-1.74209193-34.35402602 28.23295013-79.26360358 97.17001642-145.67215226 46.17926221-41.52958468 151.45138871-38.39893553 214.55382965-36.62582451 5.33688479.16622916 10.42489931.30475346 15.1810868.4155729l.33182703 9.22571828c6.83010645 187.94976815 7.96384881 219.17314502-175.97893696 328.71816024z"/><path d="m932.1180829 1479.13705525c-46.23456672-41.80663327-152.5989572-38.48205011-216.1023558-36.51500507-4.72853523.1385243-9.23585244.2770486-13.48047325.38786804l-.33182703 9.33653772c-6.84393257 187.92206329-7.97767494 219.1177353 175.97893696 328.66275052 15.41613095-12.46718686 30.08565107-23.99240849 43.82882072-34.74189405 63.60018149-49.8964523 105.61777965-82.86523534 107.55343735-121.48580975 1.71443967-34.2986163-28.32973302-79.20819386-97.44653894-145.6444474z" fill="url(#g)"/><path d="m1662.56616732 1442.98740801c-4.75618749-.11081944-9.844202-.24934374-15.1810868-.4155729-63.10244094-1.77311102-168.37456743-4.90376017-214.55382965 36.62582451-68.93706629 66.40854868-98.91210834 111.31812624-97.17001642 145.67215226 1.96330995 38.73139385 44.1329955 71.78329146 107.98204727 121.81826806 13.57725614 10.63866612 28.06703661 21.96995374 43.27577567 34.24320658 183.94278577-109.54501522 182.80904341-140.76839209 175.97893696-328.71816024l-.33182703-9.22571828z" fill="url(#h)"/><path d="m1197.25666123 1716.95037618h-29.4081034c-27.44573984 53.03323607-77.01764165 160.50235048-77.01764165 160.50235048l91.55049928 86.36221906c.09616983.09071976.24621831.09071976.34238814 0l91.55049928-86.36221906s-49.57190181-107.46911441-77.01764165-160.50235048z" fill="url(#i)" stroke="#000" stroke-linecap="square" stroke-linejoin="bevel" stroke-width="21.2823"/><path d="m2124.83618769 1829.56699068v401.52526856h-401.24145508l189.2701416 189.2701416h401.24145508v-401.52526855z"/><path d="m2124.83618769 1829.56699068v401.52526856h-401.24145508l189.2701416 189.2701416h401.24145508v-401.52526855z" fill="none" stroke="#000" stroke-linecap="round" stroke-linejoin="round" stroke-width="53"/><path d="m2124.83490595 1829.56485461 189.2734375 189.2734375v401.52636719h-401.2421875l-189.2734375-189.2734375h401.2421875zm-42-101.39501953v460.92138672h-460.63720703l71.69482422 71.69970703 189.27392578 189.27392578 12.30517578 12.29980469h460.63671875v-460.92089844l-12.29980469-12.30517578-189.27392578-189.27392578z"/><path d="m2124.83783564 1829.56485461 189.26708984 189.27050781v401.52539063h-401.24169922l-189.26708984-189.26660156h401.24169922zm-32-77.25439453v446.78369141h-446.49560547l54.625 54.62890625 189.26660156 189.26660156 9.375 9.37109375h446.49609375v-446.77929688l-9.37109375-9.375-189.26660156-189.27099609z" fill="url(#j)"/><path d="m2124.83618769 1829.56699068v401.52526856h-401.24145508l189.2701416 189.2701416h401.24145508v-401.52526855z" fill="none" stroke="#000" stroke-linecap="round" stroke-miterlimit="500" stroke-width="42.564514"/><path d="m247.86487422 1829.56699068-.00000002 401.52526855 401.24145508.00000002-189.27014161 189.2701416-401.24145508-.00000002.00000002-401.52526856z"/><path d="m247.86487422 1829.56699068-.00000002 401.52526855 401.24145508.00000002-189.27014161 189.2701416-401.24145508-.00000002.00000002-401.52526856z" fill="none" stroke="#000" stroke-linecap="round" stroke-linejoin="round" stroke-width="53"/><path d="m247.86615595 1829.56485461v401.52636719h401.2421875l-189.2734375 189.2734375h-401.2421875v-401.52636719zm401.2421875 401.52636719h.00488281m-359.24707031-502.92138672-71.70019531 71.69482422-189.2734375 189.27392578-12.29980469 12.30517578v460.92089844h460.63671875l12.30566406-12.29980469 189.2734375-189.27392578 71.69433594-71.69970703h-460.63671875z"/><path d="m247.86713251 1829.56485461v401.52929688h401.23730469l-189.27050781 189.26660156h-401.23730469v-401.52539063zm401.23730469 401.52929688h.00488281m-369.2421875-478.78369141-54.62890625 54.625-189.27148438 189.27099609-9.37011719 9.375v446.77929688h446.49121094l9.375-9.37109375 189.27148438-189.26660156 54.625-54.62890625h-446.4921875z" fill="url(#k)"/><path d="m247.86487422 1829.56699068-.00000002 401.52526855 401.24145508.00000002-189.27014161 189.2701416-401.24145508-.00000002.00000002-401.52526856z" fill="none" stroke="#000" stroke-linecap="round" stroke-miterlimit="500" stroke-width="42.564514"/></symbol><use height="2505.624303" width="2356.108343" xlink:href="#l"/></svg>