<svg viewBox="-.003 0 2355 2506.01" xmlns="http://www.w3.org/2000/svg" xmlns:xlink="http://www.w3.org/1999/xlink"><linearGradient id="a" gradientUnits="userSpaceOnUse" x1="1182.53" x2="1182.53" y1="2063.89" y2="507.722"><stop offset="0" stop-color="#00ff15"/><stop offset=".0320542" stop-color="#00dd12"/><stop offset=".0870135" stop-color="#00aa0e"/><stop offset=".144481" stop-color="#007c0a"/><stop offset=".20336" stop-color="#005607"/><stop offset=".263986" stop-color="#003604"/><stop offset=".32694" stop-color="#001e02"/><stop offset=".39318" stop-color="#000d01"/><stop offset=".464889" stop-color="#000300"/><stop offset=".552145"/><stop offset="1" stop-color="#00ff15"/></linearGradient><linearGradient id="b" gradientUnits="userSpaceOnUse" x1="1182.55" x2="1182.55" y1="680.714" y2="2477.16"><stop offset="0"/><stop offset=".523601"/><stop offset=".994382" stop-color="#000300"/></linearGradient><radialGradient id="c" cx="480.038" cy="654.676" fx="480.038" fy="654.676" gradientUnits="userSpaceOnUse" r="508.976"><stop offset=".116573"/><stop offset=".57972" stop-color="#030000"/><stop offset="1"/></radialGradient><linearGradient id="d" gradientUnits="userSpaceOnUse" x1="466.968" x2="466.968" y1="1269.59" y2="21.034"><stop offset="0"/><stop offset=".112887" stop-color="#000400"/><stop offset=".236962" stop-color="#001101"/><stop offset=".366417" stop-color="#002703"/><stop offset=".499623" stop-color="#004605"/><stop offset=".635782" stop-color="#006e09"/><stop offset=".774265" stop-color="#009e0d"/><stop offset=".912125" stop-color="#00d711"/><stop offset="1" stop-color="#00ff15"/></linearGradient><radialGradient id="e" cx="1866.42" cy="671.722" fx="1866.42" fy="671.722" gradientUnits="userSpaceOnUse" r="507.678" xlink:href="#c"/><linearGradient id="f" gradientUnits="userSpaceOnUse" x1="1879.41" x2="1879.41" xlink:href="#d" y1="1286.59" y2="38.034"/><linearGradient id="g" gradientUnits="userSpaceOnUse" x1="864.86" x2="864.86" y1="1441.61" y2="1781.01"><stop offset="0" stop-color="#ffe100"/><stop offset=".533503" stop-color="#00ff15"/><stop offset=".998781" stop-color="#00ff15"/></linearGradient><linearGradient id="h" gradientUnits="userSpaceOnUse" x1="1500.3" x2="1500.3" xlink:href="#g" y1="1441.69" y2="1780.93"/><linearGradient id="i" gradientUnits="userSpaceOnUse" x1="1182.55" x2="1182.55" xlink:href="#g" y1="1716.95" y2="1963.88"/><radialGradient id="j" cx="1996.22" cy="2102.34" fx="1996.22" fy="2102.34" gradientUnits="userSpaceOnUse" r="349.953"><stop offset=".116573" stop-color="#00ff15"/><stop offset=".57972" stop-color="#00ff15"/><stop offset="1" stop-color="#00ff15"/></radialGradient><radialGradient id="k" cx="376.477" cy="2102.34" fx="376.477" fy="2102.34" gradientUnits="userSpaceOnUse" r="349.953" xlink:href="#j"/><path d="m1529.38 2063.88-346.46-346.46-346.46 346.45h-431.63v-431.35l346.73-346.74-346.67-346.68-3.375-431.41h434.64l346.73 346.73 346.74-346.75 433.84.3-2.57 431.37-346.42 346.68 346.46 346.46v431.34h-431.635zm199.78-238.73v-103.56l-278.68-278.68-103.8 103.57 278.9 278.64h103.56zm-988.93 0 278.9-278.65-103.8-103.58-278.68 278.67v103.55h103.56zm442.68-435.55 103.58-103.81-103.59-103.81-103.59 103.8 103.58 103.8zm267.57-267.83 278.67-278.68v-103.56h-103.57l-278.91 278.64 103.79 103.57zm-534.88-.02 103.54-103.55-278.93-278.67h-103.52l.21 103.53 278.67 278.67z" fill="url(#a)"/><path d="m1538.48 529.01 403.63.28-2.39 401.23-355.28 355.55 355.27 355.27v401.24h-401.53l-355.28-355.28-355.28 355.27h-401.53v-401.25l355.55-355.56-355.56-355.56-3.14-401.24h404.37l355.55 355.55 355.55-355.56m-87.97 622.85 299.93-299.94v-133.66h-133.65l-300.23 299.93 133.93 133.65m-534.9 0 133.65-133.66-300.23-299.94h-133.66l.28 133.65 299.93 299.93m267.3 267.87 133.65-133.94-133.66-133.94-133.65 133.93 133.64 133.93m433.87 426.69h133.64v-133.65l-299.94-299.94-133.94 133.65 300.22 299.93m-1001.41 0h133.65l300.22-299.94-133.94-133.66-299.94 299.93v133.64m905.46-1360.02-12.49 12.47-325.46 325.45-325.46-325.46-12.47-12.47h-464.92l.33 42.9 3.13 401.23.13 17.43 12.32 12.33 325.45 325.45-325.46 325.45-12.47 12.46v461.44h461.72l12.46-12.47 325.17-325.18 325.17 325.17 12.46 12.46h461.72v-461.45l-12.47-12.47-325.19-325.19 325.19-325.46 12.35-12.36.1-17.48 2.38-401.24.25-42.79-42.79-.04-403.64-.29-17.65-.02zm113.55 274.41h73.46v73.45l-257.41 257.4-73.66-73.51 257.59-257.36zm-976.36 0h73.37l257.62 257.38-73.45 73.43-257.41-257.41-.16-73.42zm451.34 524.96 73.52-73.68 73.52 73.67-73.53 73.68-73.53-73.69zm-451.44 444.62 257.4-257.41 73.66 73.5-257.6 257.35h-73.47v-73.46zm718.85-183.91 73.65-73.51 257.4 257.4v73.45h-73.47l-257.6-257.36z"/><path d="m1855.76 1199.21c-3.33-31.84-31.86-205.81-266.67-384.68-141.67-107.92-285.19-136.28-406.55-133.67-121.36-2.62-264.88 25.74-406.55 133.66-234.85 178.89-263.35 352.88-266.68 384.68-5.97 26.87-7.77 55.08-6.43 83.91-2.83 92.39 9.98 182.94 49.8 269.83 31.14 67.8 40.49 139.01 23.21 217.02-4.47 20-3.95 42.8-.67 65.75 10.8 75.66 50.2 144.31 106.16 196.25l501.11 445.14 501.11-445.15c55.96-51.95 95.36-120.6 106.16-196.26 3.27-22.96 3.79-45.76-.67-65.76-17.28-78.02-7.93-149.23 23.21-217.03 39.81-86.89 52.62-177.43 49.8-269.82 1.34-28.85-.47-57.06-6.43-83.95z" fill="url(#b)"/><path d="m1876.93 1197c-1.45-13.87-4.8-31.4-10.78-52.08-8.41-29.1-20.87-60.24-38.11-92.86-45.96-86.98-119.48-173.27-226.07-254.47-69.22-52.73-142.02-89.46-217.77-111.77-66.3-19.53-133.72-27.72-202.13-26.25h.91c-68.42-1.48-135.84 6.71-202.13 26.24-75.76 22.31-148.56 59.03-217.77 111.76-106.6 81.2-180.12 167.51-226.08 254.48-17.24 32.62-29.7 63.75-38.11 92.85-5.98 20.67-9.32 38.2-10.77 52.06l.38-2.4c-6.2 27.91-8.39 57.76-6.91 89.5l-.02-1.64c-3.14 102.66 12.8 194.42 51.73 279.35 30.09 65.51 37.61 132.06 21.78 203.56-4.81 21.53-4.85 46.15-.96 73.36 11.22 78.59 51.61 152.09 112.75 208.84l.17.15.17.15 501.11 445.14 14.13 12.55 14.13-12.56 501.11-445.15.17-.16.17-.16c61.14-56.75 101.53-130.26 112.75-208.85 3.88-27.22 3.84-51.84-.97-73.4-15.83-71.47-8.31-138.02 21.78-203.52 38.92-84.95 54.87-176.7 51.73-279.36l-.02 1.63c1.47-31.76-.72-61.62-6.91-89.54l.38 2.39zm-42.34 4.42.12 1.2.26 1.18c5.33 24.05 7.25 50.18 5.94 78.34l-.04.81.02.81c2.94 96.45-11.88 181.74-47.88 260.3-33.93 73.83-42.51 149.84-24.66 230.49 3.56 15.96 3.59 35.62.37 58.14-9.81 68.62-45.38 133.36-99.58 183.66l.34-.32-501.12 445.14h28.26l-501.12-445.15.34.31c-54.21-50.31-89.78-115.05-99.58-183.67-3.22-22.52-3.19-42.18.37-58.12 17.86-80.69 9.27-156.69-24.66-230.55-36-78.55-50.83-163.85-47.88-260.31l.02-.82-.04-.82c-1.31-28.15.6-54.27 5.94-78.32l.26-1.19.12-1.21c1.19-11.42 4.06-26.48 9.32-44.68 7.6-26.34 18.98-54.77 34.84-84.78 19.62-37.15 45.13-74.83 77.26-112.54 37.36-43.86 82.77-86.7 136.96-127.98 65.07-49.58 133.2-83.95 204-104.8 61.92-18.24 124.99-25.91 189.18-24.52h.45l.45-.01c64.19-1.39 127.26 6.28 189.18 24.51 70.79 20.85 138.92 55.22 204 104.79 54.18 41.27 99.59 84.1 136.95 127.96 32.12 37.7 57.63 75.38 77.26 112.52 15.85 30.01 27.23 58.44 34.84 84.77 5.25 18.2 8.13 33.27 9.33 44.69z"/><path d="m715.19 1248.31c-24.47-.01-50.06-5.62-76.06-16.7l-.24-.1c-9.65-3.98-18.82-8.42-28.52-13.12-67.12-33.16-117.97-61.29-163.74-98.86-48.2-39.57-87.41-87.05-127.14-153.94-44.71-75.26-57.87-178.36-73.12-297.74-21.6-169.16-48.12-376.85-173.46-606.84l79.88 29.2c54.48 19.71 101.08 52.46 134.81 94.72 32.78 40.98 48.47 81.43 66.65 128.26l.93 2.39c17.15 44.11 22.01 64.49 33.77 113.71 5.57 23.31 12.5 52.34 22.89 92.94 21.53 84.78 70.26 143.88 131.74 212.31 48.35 53.6 179.8 128.18 239.81 154.89 41.54 18.4 72.32 48.63 89.04 87.42 15.1 35.03 18.61 77 9.89 118.19-8.875 41.92-29.57 80.28-58.26 108-30.6 29.55-68.28 45.18-108.96 45.18-.01 0-.02 0-.03 0z" fill="url(#c)"/><path d="m117.08 99.83 28.45 10.4.13.04c50.72 18.36 94.07 48.77 125.38 88 30.72 38.4 45.86 77.43 63.4 122.62l.95 2.45c16.62 42.75 21.38 62.71 32.91 110.94 5.58 23.375 12.53 52.47 22.95 93.19h-.01c10.61 41.78 28.62 81.26 55.04 120.68 24.17 36.06 53.52 69.49 81.5 100.65l.06.06c28.71 31.82 80.42 66.83 118.76 90.6 43.7 27.1 92.81 53.7 128.17 69.43l.05.02c84.38 37.38 100.12 118.37 86.72 181.71-8.01 37.81-26.55 72.3-52.23 97.11-18.52 17.88-49.89 39.21-94.21 39.21-21.58 0-44.36-5.04-67.71-14.99l-.47-.2c-8.99-3.71-17.82-7.98-27.15-12.5-65.85-32.54-115.54-59.99-159.73-96.26-46.21-37.93-83.93-83.69-122.34-148.37-19.11-32.17-33.3-71.49-44.68-123.77-10.76-49.4-17.98-105.94-25.62-165.79-20.3-158.95-44.89-351.56-150.44-565.36m-91.59-78.81c249.3 414.2 159.78 760.27 275.72 955.44 84.89 142.95 166.97 195.41 299.82 261.04 9.75 4.72 19.49 9.44 29.75 13.67 29.8 12.69 58.1 18.39 84.38 18.39 193.95 0 279.55-309.76 76.94-399.53-62.59-27.85-188.01-100.2-232.64-149.67-58.74-65.39-106.44-122.58-126.97-203.38-32.58-127.29-31.55-142.46-57.45-209.09-18.73-48.23-35.4-91.99-70.79-136.24-37.71-47.24-88.49-81.3-144.15-101.44l-134.66-49.23z"/><path d="m291.76 982.09c41.8 70.39 84.01 121.03 134.4 162.4 43.62 35.81 91.32 64.02 170 102.88.07.03.07.03.08.03 14.81 7.17 21.53 10.3 30.35 13.94l-.13-.06c62.02 26.42 121.4 25.2 172.24-.65 45.92-23.35 82.36-65.86 102.91-117.88 20.32-51.46 23.54-108.36 7.96-158.49-17.13-55.08-55.62-98.88-113.04-124.32-32.47-14.45-79.33-39.74-121.71-66.02-48.89-30.32-87.48-59.09-107.22-80.97-37.18-41.39-58.25-66.92-76.85-94.67-22.76-33.95-38.27-67.22-47.63-104.05-11-42.96-31.16-127.22-33.56-136.39-1.92-7.32-3.76-13.96-5.68-20.43-4.88-16.46-10.52-32.68-18.64-53.56-.33-.84-.7-1.78-1.39-3.56-.57-1.45-.98-2.51-1.38-3.56-1.05-2.69-1.92-4.93-2.76-7.08-20.02-51.22-33.96-79.92-56.53-111.24-3.34-4.63-6.8-9.19-10.42-13.71-37.89-47.47-89.62-83.43-149-104.91l-134.63-49.22-29.28-10.71 16.07 26.7c70.47 117.08 117.77 234.86 149.48 361.47 12.89 51.48 23.08 103.69 32.08 161.72 3.62 23.4 7.01 47.36 10.72 75.4 2.21 16.76 9.79 76.01 9.21 71.5 9.39 72.78 16.04 114.9 25.58 156.06 11.96 51.6 27.34 93.42 48.6 129.2zm18.91-11.24c-19.97-33.62-34.6-73.39-46.09-122.95-9.34-40.25-15.89-81.82-25.2-153.92.58 4.55-7-54.76-9.23-71.58-3.73-28.2-7.14-52.31-10.8-75.9-9.1-58.66-19.41-111.51-32.49-163.7-32.23-128.65-80.34-248.45-151.98-367.48l-13.21 16 134.65 49.22c55.69 20.15 104.03 53.75 139.32 97.96 3.38 4.23 6.63 8.5 9.75 12.83 21.23 29.46 34.49 56.76 53.88 106.38.83 2.12 1.69 4.35 2.73 7.03.4 1.04.81 2.1 1.37 3.54.69 1.77 1.05 2.72 1.38 3.56 7.91 20.35 13.34 36 18.04 51.84 1.84 6.23 3.62 12.64 5.48 19.74 2.32 8.88 22.47 93.07 33.52 136.25 10 39.38 26.57 74.92 50.66 110.86 19.32 28.83 40.93 55.01 78.76 97.13 21.48 23.82 61.45 53.61 111.96 84.94 43.18 26.78 90.92 52.54 124.37 67.42 51.58 22.85 85.69 61.66 100.94 110.73 14.04 45.18 11.11 96.94-7.42 143.86-18.66 47.21-51.51 85.54-92.43 106.34-44.95 22.84-97.52 23.92-153.66.01l-.13-.06c-8.28-3.41-14.73-6.42-29.14-13.4-.01-.01-.01-.01-.01-.01-77.23-38.16-123.67-65.62-165.72-100.14-48.33-39.68-88.9-88.36-129.46-156.64z"/><path d="m48.25 39.99 108.49 39.66c56.38 20.4 104.7 54.38 139.73 98.27 33.84 42.31 49.83 83.5 68.33 131.2l.94 2.42c17.42 44.83 22.35 65.42 34.23 115.19 5.56 23.27 12.48 52.24 22.84 92.73 20.9 82.32 68.78 140.32 129.22 207.6 47.25 52.38 176.76 125.75 236 152.11 22.9 10.14 42.76 23.62 59 40.06 15.14 15.31 27.18 33.2 35.79 53.18 8.16 18.94 13.17 39.54 14.89 61.22 1.65 20.95.2 42.4-4.31 63.75-9.34 44.1-31.16 84.51-61.46 113.79-32.75 31.64-73.15 48.36-116.83 48.36-25.99 0-53.06-5.92-80.47-17.6l-.11-.05c-9.96-4.11-19.71-8.83-29.17-13.41-66.03-32.62-119.52-62.16-165.96-100.28-24.15-19.83-45.94-41.52-66.62-66.33-21.72-26.06-42.35-55.68-63.07-90.58-20.95-35.27-36.36-77.68-48.51-133.47-11.06-50.79-18.36-108.01-26.1-168.6-22.3-174.67-49.88-390.63-186.97-629.32m-22.76-18.97c249.3 414.19 159.79 760.27 275.72 955.44 84.89 142.95 166.97 195.41 299.83 261.05 9.74 4.72 19.49 9.44 29.75 13.67 29.8 12.69 58.1 18.39 84.38 18.39 193.95 0 279.55-309.76 76.94-399.53-62.59-27.85-188.01-100.2-232.64-149.67-58.74-65.39-106.44-122.58-126.96-203.38-32.58-127.3-31.55-142.46-57.46-209.09-18.73-48.24-35.4-91.99-70.8-136.25-37.71-47.24-88.49-81.3-144.15-101.44l-134.66-49.23v-.001z" fill="url(#d)"/><path d="m1633.01 1265.31c-40.22-.01-77.49-15.55-107.79-44.94-28.45-27.6-49.01-65.82-57.92-107.64-8.8-41.31-5.4-83.42 9.58-118.6 16.56-38.92 47.14-69.23 88.41-87.65 59.6-26.72 190.11-101.32 238.09-154.91 61.04-68.47 109.42-127.56 130.8-212.37 10.3-40.57 17.18-69.59 22.71-92.91 11.67-49.24 16.5-69.62 33.53-113.73l.93-2.44c18.03-46.83 33.61-87.28 66.14-128.24 33.48-42.27 79.71-75 133.69-94.68l79.07-29.13c-124.39 229.95-150.71 437.63-172.15 606.76-15.14 119.39-28.21 222.5-72.58 297.76-39.44 66.89-78.36 114.36-126.19 153.92-45.42 37.56-95.89 65.68-162.59 98.87l.14-.08-.11.05c-9.62 4.69-18.71 9.125-28.25 13.08l-.24.1c-25.78 11.06-51.14 16.66-75.37 16.66z" fill="url(#e)"/><path d="m2226.33 117c-104.75 213.75-129.15 406.3-149.29 565.22-7.59 59.86-14.75 116.4-25.43 165.81-11.3 52.29-25.4 91.63-44.37 123.81-38.13 64.67-75.58 110.42-121.42 148.33-43.83 36.24-93.12 63.68-158.44 96.19-9.27 4.52-18.03 8.79-26.95 12.49l-.48.19c-23.11 9.91-45.64 14.94-66.98 14.94-43.68 0-74.67-21.17-92.97-38.93-25.44-24.69-43.88-59.06-51.92-96.79-13.56-63.6 1.88-144.91 85.86-182.39l.06-.03c35.11-15.74 83.88-42.36 127.27-69.47 38.06-23.78 89.41-58.81 117.93-90.65l.06-.07c27.77-31.16 56.9-64.6 80.89-100.65 26.21-39.41 44.07-78.84 54.6-120.58 10.35-40.77 17.25-69.88 22.8-93.27 11.43-48.24 16.17-68.22 32.68-111l.93-2.43c17.41-45.21 32.45-84.24 62.98-122.69 31.01-39.17 73.99-69.56 124.28-87.89l.13-.05 27.67-10.2m91.27-78.98h-.01zm0 0-133.67 49.22c-55.25 20.13-105.66 54.2-143.08 101.43-35.14 44.25-51.69 88.01-70.27 136.23-25.72 66.63-24.7 81.8-57.03 209.08-20.37 80.8-67.73 137.98-126.03 203.37-44.31 49.47-168.8 121.82-230.92 149.66-201.11 89.76-116.13 399.52 76.37 399.52 26.09 0 54.15-5.69 83.76-18.4 10.18-4.23 19.86-8.96 29.53-13.68 131.87-65.64 213.34-118.1 297.61-261.05 115.07-195.17 26.22-541.25 273.68-955.45z"/><path d="m2313.8 27.71-133.66 49.22c-58.93 21.47-110.28 57.44-147.9 104.92-3.58 4.5-7.02 9.07-10.33 13.69-22.41 31.32-36.25 60.02-56.11 111.23-.84 2.14-1.7 4.38-2.74 7.07-.41 1.04-.82 2.1-1.37 3.55-.69 1.77-1.05 2.72-1.38 3.56-8.06 20.87-13.65 37.08-18.49 53.54-1.91 6.47-3.74 13.11-5.64 20.42-2.39 9.16-22.4 93.43-33.31 136.36-9.3 36.86-24.7 70.13-47.29 104.07-18.47 27.74-39.38 53.28-76.29 94.67-19.58 21.85-57.88 50.62-106.4 80.93-42.07 26.27-88.58 51.56-120.82 66.01-57 25.44-95.21 69.24-112.21 124.31-15.47 50.1-12.27 106.99 7.9 158.43 20.39 52.01 56.57 94.53 102.17 117.88 50.5 25.86 109.49 27.08 171.09.64l-.13.05c8.75-3.64 15.43-6.77 30.13-13.95 0-.01 0-.01 0-.01 78.17-38.91 125.53-67.12 168.84-102.94 50.02-41.38 91.92-92.02 133.41-162.42 21.09-35.78 36.36-77.6 48.23-129.2 9.47-41.16 16.06-83.28 25.39-156.06-.58 4.51 6.94-54.75 9.14-71.51 3.67-28.05 7.03-52.01 10.64-75.41 8.93-58.04 19.04-110.24 31.84-161.73 31.47-126.62 78.43-244.41 148.38-361.5l15.96-26.73-29.21 10.75zm7.6 20.64-13.25-15.97c-71.12 119.02-118.87 238.82-150.85 367.46-12.98 52.19-23.22 105.03-32.24 163.68-3.64 23.58-7.02 47.7-10.72 75.89-2.21 16.81-9.74 76.12-9.16 71.57-9.24 72.1-15.75 113.66-25.02 153.92-11.41 49.56-25.93 89.33-45.76 122.95-40.26 68.28-80.53 116.96-128.49 156.63-41.74 34.51-87.83 61.97-164.56 100.15.07-.04.07-.04.06-.04-14.31 6.98-20.71 9.98-28.92 13.39l-.13.05c-55.69 23.89-107.83 22.82-152.4-.01-40.6-20.8-73.21-59.12-91.73-106.34-18.41-46.94-21.32-98.72-7.37-143.92 15.14-49.08 48.99-87.88 100.16-110.72 33.22-14.9 80.6-40.66 123.48-67.44 50.14-31.33 89.82-61.13 111.14-84.94 37.57-42.14 59.01-68.32 78.19-97.15 23.91-35.94 40.36-71.48 50.29-110.88 10.96-43.16 30.96-127.35 33.27-136.24 1.84-7.1 3.6-13.51 5.44-19.75 4.66-15.85 10.05-31.5 17.91-51.85.32-.85.69-1.8 1.37-3.58.55-1.45.96-2.51 1.36-3.55 1.03-2.68 1.89-4.91 2.71-7.04 19.24-49.63 32.4-76.92 53.48-106.39 3.09-4.33 6.31-8.6 9.67-12.83 35.02-44.22 83-77.81 138.23-97.95l133.69-49.24z"/><path d="m2294.93 57.04c-136.06 238.65-163.44 454.63-185.58 629.27-7.68 60.58-14.94 117.8-25.91 168.59-12.06 55.79-27.36 98.21-48.15 133.47-20.57 34.89-41.05 64.51-62.6 90.57-20.53 24.8-42.15 46.5-66.12 66.32-46.09 38.11-99.18 67.65-164.71 100.26h-.03c-9.36 4.56-19.04 9.29-28.93 13.39l-.11.04c-27.2 11.66-54.05 17.58-79.82 17.58-43.21 0-83.2-16.64-115.65-48.12-30.03-29.14-51.73-69.4-61.1-113.38-4.56-21.4-6.06-42.91-4.46-63.94 1.65-21.76 6.59-42.43 14.69-61.44 8.53-20.05 20.49-38 35.53-53.37 16.14-16.49 35.88-30.01 58.68-40.18 58.79-26.36 187.35-99.73 234.28-152.14 59.97-67.27 107.5-125.27 128.25-207.57 10.28-40.51 17.15-69.48 22.67-92.76 11.8-49.77 16.68-70.37 33.98-115.21l.92-2.42c18.37-47.7 34.24-88.9 67.84-131.22 34.76-43.89 82.71-77.86 138.69-98.27l107.52-39.61m22.67-19.01h-.01zm0 0-133.66 49.22c-55.25 20.13-105.66 54.19-143.09 101.43-35.14 44.25-51.69 88.01-70.27 136.24-25.72 66.63-24.7 81.79-57.03 209.08-20.37 80.8-67.72 137.98-126.03 203.37-44.3 49.47-168.8 121.82-230.92 149.66-201.11 89.76-116.12 399.52 76.37 399.52 26.09 0 54.15-5.69 83.76-18.4 10.18-4.23 19.85-8.96 29.53-13.68 131.87-65.64 213.34-118.1 297.61-261.06 115.07-195.17 26.22-541.25 273.68-955.45z" fill="url(#f)"/><path d="m951.03 1455.79c-54.83-49.6-168.16-46.05-235.88-43.97-9.84.3-18.67.58-26.16.63l-13.26.13-1.28 35.71c-6.96 191.16-8.62 236.57 197.9 358.55l8.33 4.93 7.47-6.13c18.02-14.74 35.1-28.13 50.92-40.54 69.6-54.61 115.58-90.68 118.15-141.99 2.22-44.22-28.47-92.65-106.24-167.37zm-29.03 290.47c-13.75 10.74-28.42 22.27-43.83 34.74-183.96-109.55-182.83-140.75-175.98-328.67l.33-9.34c4.24-.12 8.75-.25 13.48-.39 63.5-1.97 169.86-5.3 216.1 36.51 69.11 66.43 99.16 111.34 97.44 145.64-1.94 38.62-43.96 71.58-107.56 121.48z"/><path d="m1690.63 1448.23-1.28-35.72-13.36-.09c-7.91-.03-17.32-.31-27.82-.61-67.31-2.11-179.77-5.3-234.11 43.93l-.34.27c-77.4 74.52-108.07 122.98-105.8 167.28 2.59 51.42 48.75 87.57 118.6 142.29 15.65 12.27 32.54 25.48 50.35 40.03l7.49 6.12 8.32-4.94c206.5-121.99 204.87-167.43 197.9-358.62zm-203.72 332.7c-15.21-12.28-29.7-23.61-43.28-34.25-63.85-50.04-106.02-83.09-107.99-121.82-1.75-34.36 28.23-79.27 97.17-145.68 46.17-41.53 151.45-38.4 214.55-36.63 5.33.16 10.42.3 15.18.41l.33 9.22c6.83 187.94 7.96 219.17-175.98 328.71z"/><path d="m932.11 1479.13c-46.24-41.81-152.6-38.49-216.11-36.52-4.73.13-9.24.27-13.49.38l-.34 9.33c-6.85 187.92-7.98 219.11 175.97 328.66 15.41-12.47 30.08-24 43.82-34.75 63.6-49.9 105.61-82.87 107.55-121.49 1.71-34.3-28.33-79.21-97.45-145.65z" fill="url(#g)"/><path d="m1662.56 1442.98c-4.76-.12-9.85-.25-15.19-.42-63.11-1.78-168.38-4.91-214.56 36.62-68.94 66.4-98.92 111.31-97.18 145.67 1.96 38.73 44.13 71.78 107.98 121.81 13.57 10.63 28.06 21.96 43.27 34.24 183.94-109.55 182.8-140.77 175.97-328.72l-.34-9.23z" fill="url(#h)"/><path d="m1197.25 1716.95h-29.41c-27.45 53.03-77.02 160.5-77.02 160.5l91.55 86.36c.09.09.24.09.34 0l91.55-86.37s-49.58-107.47-77.02-160.51z" fill="url(#i)"/><path d="m1197.25 1706.3h-29.41l-9.46 5.75c-7.88 15.21-17.97 35.65-29.77 60.16-.94 1.95-1.89 3.92-2.85 5.91-9.96 20.75-20.46 42.97-30.85 65.2-3.64 7.77-7 15-10.01 21.48-1.06 2.26-1.99 4.28-2.79 6.02-.29.6-.53 1.13-.74 1.58s-.21.45-.26.54l2.36 12.19 91.55 86.36c4.19 3.95 10.75 3.95 14.94 0l91.55-86.37 2.36-12.2c-.05-.1-.05-.1-.26-.55s-.46-.99-.74-1.59c-.81-1.74-1.74-3.76-2.79-6.03-3.01-6.49-6.37-13.71-10.01-21.49-10.39-22.23-20.89-44.46-30.85-65.21-.96-2-1.91-3.97-2.85-5.92-11.8-24.52-21.89-44.96-29.77-60.17l-9.46-5.76zm0 21.28-9.46-5.76c7.75 14.99 17.76 35.27 29.48 59.61.93 1.94 1.87 3.9 2.83 5.89 9.92 20.68 20.38 42.84 30.74 65.01 3.62 7.75 6.98 14.96 9.97 21.42 1.04 2.26 1.97 4.26 2.77 6 .27.6.52 1.13.72 1.57s.2.44.24.53l2.36-12.2-91.56 86.36c4-3.78 10.25-3.78 14.26-.01l-91.56-86.37 2.36 12.19c.04-.1.04-.1.24-.54.2-.45.44-.98.72-1.58.8-1.74 1.73-3.74 2.77-6.01 2.99-6.47 6.35-13.67 9.97-21.43 10.36-22.17 20.82-44.34 30.74-65.02.95-1.99 1.89-3.96 2.83-5.9 11.71-24.35 21.72-44.63 29.48-59.62l-9.46 5.75h29.4z"/><path d="m2124.83 1829.56v401.52h-401.25l189.27 189.27h401.24v-401.53l-189.28-189.28z"/><path d="m2098.33 1829.56v401.52l26.5-26.5h-401.25c-23.61 0-35.44 28.54-18.74 45.23l189.27 189.27c4.96 4.96 11.71 7.76 18.73 7.76h401.24c14.63 0 26.5-11.87 26.5-26.5v-401.53c0-7.03-2.8-13.77-7.77-18.74l-189.28-189.28c-16.7-16.7-45.24-4.88-45.24 18.73zm53 0-45.24 18.73 189.27 189.27-7.77-18.74v401.52l26.5-26.5h-401.25l18.73 7.76-189.28-189.28-18.74 45.23h401.24c14.63 0 26.5-11.87 26.5-26.5v-401.53z"/><path d="m2124.83 1829.56 189.27 189.27v401.52h-401.25l-189.28-189.28h401.24v-401.53m-42-101.4v460.92h-460.64l71.69 71.69 189.27 189.27 12.3 12.29h460.63v-460.93l-12.3-12.31-189.28-189.28-71.7-71.7z"/><path d="m2124.83 1829.56 189.26 189.27v401.52h-401.25l-189.27-189.27h401.24v-401.53m-32-77.26v446.78h-446.5l54.625 54.62 189.26 189.26 9.375 9.37h446.49v-446.78l-9.38-9.375-189.27-189.28-54.63-54.625z" fill="url(#j)"/><path d="m2103.55 1829.56v401.52l21.28-21.29h-401.25-51.38l36.33 36.33 189.27 189.27 6.23 6.23h8.81 401.24 21.28v-21.29-401.53-8.82l-6.24-6.24-189.28-189.28-36.34-36.34v51.37zm42.56 0-36.34 15.04 189.27 189.27-6.24-15.05v401.52l21.28-21.29h-401.25l15.04 6.23-189.28-189.28-15.05 36.33h401.24 21.28v-21.29-401.53z"/><path d="m247.86 1829.56v401.52h401.24l-189.28 189.27h-401.25v-401.53l189.27-189.28z"/><path d="m221.36 1829.56v401.52c0 14.63 11.86 26.5 26.5 26.5h401.24l-18.74-45.24-189.28 189.27 18.73-7.77h-401.25l26.5 26.5v-401.53l-7.77 18.73 189.27-189.28-45.24-18.74zm53 0c0-23.61-28.55-35.44-45.24-18.74l-189.28 189.27c-4.97 4.96-7.77 11.71-7.77 18.73v401.52c0 14.63 11.86 26.5 26.5 26.5h401.24c7.02 0 13.76-2.8 18.73-7.77l189.27-189.28c16.69-16.7 4.87-45.24-18.74-45.24h-401.25l26.5 26.5v-401.53z"/><path d="m247.86 1829.56v401.52h401.24l-189.28 189.27h-401.25v-401.53l189.27-189.28m41.99-101.41-71.71 71.69-189.28 189.27-12.3 12.3v460.92h460.63l12.3-12.3 189.27-189.28 71.69-71.7h-460.64v-460.93z"/><path d="m247.86 1829.56v401.52h401.23l-189.28 189.26h-401.24v-401.53l189.27-189.28m31.98-77.27-54.63 54.625-189.28 189.27-9.38 9.375v446.77h446.49l9.375-9.38 189.27-189.27 54.625-54.63h-446.5v-446.79z" fill="url(#k)"/><path d="m226.58 1829.56v401.52 21.28h21.28 401.24l-15.05-36.34-189.28 189.27 15.04-6.24h-401.25l21.28 21.28v-401.53l-6.24 15.04 189.27-189.28-36.34-15.05zm42.56 0v-51.38l-36.34 36.33-189.28 189.27-6.24 6.23v8.81 401.52 21.28h21.28 401.24 8.81l6.23-6.24 189.27-189.28 36.33-36.34h-51.38-401.25l21.28 21.28v-401.53z"/></svg>