<svg viewBox="-.345 0 92.46 94.47" xmlns="http://www.w3.org/2000/svg" xmlns:xlink="http://www.w3.org/1999/xlink"><defs><linearGradient id="a" gradientUnits="userSpaceOnUse" x1="46" x2="46" y1="93.78" y2="29.37"><stop offset="0" stop-color="#460000"/><stop offset=".04" stop-color="#430303"/><stop offset=".5"/><stop offset="1" stop-color="#00002a"/></linearGradient><path id="b" d="m46.42 36.61h.28.02l-.01-.74c-.01 0-.01 0-.01 0-.01 0-.01 0-.01 0-.01 0-.01 0-.01 0-.04 0-.04 0-.3 0v.37.37zm0-.74v.74h.3s0 0 0 0c-.01-.74-.01-.74-.03-.74-.08 0-.08 0-.29 0z"/></defs><path d="m12.53 67.16v14.15h14.15l-6.67 6.67h-14.15v-14.15z" fill="#fff"/><path d="m11.53 67.16v14.15 1h1 14.15l-.71-1.71-6.67 6.67.7-.3h-14.15l1 1v-14.15l-.3.7 6.67-6.67-1.71-.71zm2 0v-2.42l-1.71 1.7-6.67 6.67-.3.29v.41 14.15 1h1 14.15.41l.29-.3 6.67-6.67 1.7-1.71h-2.42-14.15l1 1v-14.15z"/><path d="m65.05 81.31h14.14v-14.15l6.67 6.67v14.15h-14.14z" fill="#fff"/><path d="m65.05 82.31h14.14 1v-1-14.15l-1.71.7 6.67 6.67-.3-.71v14.15l1-1h-14.14l.7.29-6.67-6.67-.71 1.7zm0-2h-2.42l1.7 1.7 6.67 6.67.29.29h.41 14.14 1v-1-14.15-.42l-.3-.3-6.67-6.67-1.71-1.71v2.41 14.15l1-1h-14.14z"/><path d="m77.64 21.31h-19.25l-12.53 12.53-12.53-12.53h-18.07l3.93 14.14 12.53 12.53-12.53 12.53v14.14h14.15l12.52-12.52 12.52 12.52h14.15v-14.14l-12.52-12.52 12.52-12.53 5.11-14.14zm-51.78 11.38v-4.71h4.71l10.58 10.57-4.71 4.71-10.57-10.57zm20 10.57 4.71 4.72-4.71 4.72-4.71-4.72zm20-10.57-10.57 10.57-4.72-4.71 10.58-10.57h4.71v4.72z" fill="#fff"/><path d="m77.64 20.31h-19.25-.42l-.3.29-12.53 12.53h1.41l-12.53-12.53-.3-.3h-.42-18.07-1.32l.35 1.26 3.93 14.14.07.25.18.18 12.53 12.53v-1.42l-12.53 12.53-.3.29v.41 14.14 1h1 14.15.41l.29-.3 12.52-12.52h-1.42l12.52 12.52.29.29h.41 14.15 1v-1-14.14-.42l-.3-.3-12.52-12.52v1.41l12.52-12.53.15-.16.07-.21 5.11-14.14.05-.17v-.18-.01-1h-1zm0 2v-1h-1v.01h1l-.95-.34-5.11 14.14.23-.37-12.52 12.53-.71.7.7.7 12.52 12.52-.3-.71v14.14l1-1h-14.15l.7.29-12.52-12.52-.71-.71-.71.7-12.52 12.52.7-.3h-14.15l1 1v-14.14l-.3.7 12.53-12.53.7-.71-.71-.71-12.53-12.53.25.43-3.93-14.14-.97 1.26h18.07l-.71-.3 12.53 12.53.7.7.7-.71 12.53-12.53-.71.29h19.25zm-50.78 10.38v-4.71l-1 1h4.71l-.71-.3 10.58 10.57-.01-1.42-4.71 4.71h1.41l-10.57-10.57-.3-.3h-.42-.01v1h1zm-2 0v1h1 .01v-1l-.71.7 10.57 10.57.7.7.7-.71 4.71-4.71.7-.71-.71-.71-10.58-10.57-.3-.3h-.42-4.71-1v1 4.71zm20.29 11.27 4.71 4.72v-1.42l-4.71 4.72h1.41l-4.71-4.72v1.41l4.71-4.72h-1.42zm1.41-1.42-.71-.71-.71.7-4.71 4.72-.71.7.7.7 4.71 4.72.7.7.7-.71 4.71-4.72.7-.71-.71-.71-4.71-4.72zm18.58-10.58-10.57 10.57 1.41-.01-4.72-4.71v1.41l10.58-10.57-.71.29h4.71l-1-1v4.72h1 1v-.01-2.42l-1.71 1.7zm1.41 1.41-.71-.71h-1v.01h2v-4.72-1h-1-4.71-.42l-.3.29-10.58 10.57-.71.7.7.7 4.72 4.71.7.7.7-.71 10.57-10.57z"/><path d="m46.42 36.24c.34 0 .32 0 .3 0s-.05 0-.3 0z"/><g fill="#fff"><use xlink:href="#b"/><use xlink:href="#b"/></g><path d="m46.76 64c0-.3-.17-.43-.37-.49-.06-.02-.12-.03-.18-.04-.08-.01-.17-.01-.27-.01-.09 0-.17.01-.24.01-.06 0-.06 0-.13.02-.05 0-.05 0-.21.1-.19.64-.19.64.14.82l.18-.46-.46-.19-.25.6c-.27.5-.63 1.23-1.05 2.11-.06.1-.06.1-.11.21-.36.73-.74 1.53-1.11 2.32-.13.27-.25.53-.36.76-.12.23-.12.23-.14.29l-.16.32.26.24 2.84 2.55c.48.43 1.2.43 1.69-.01.28-.27.64-.61 1.07-1.02.01-.02.01-.02.02-.03.34-.34.71-.69 1.08-1.04.22-.22.39-.38.49-.48l.25-.25-.15-.32c-.03-.06-.03-.06-.14-.3s-.23-.49-.36-.77c-.38-.8-.75-1.59-1.11-2.34-.05-.1-.05-.1-.1-.2-.43-.88-.79-1.61-1.07-2.16l-.24-.57-.46.18h.49v-.01zm-.98 0v.01l.03.18.25.6c.29.57.65 1.29 1.06 2.16.04.09.04.09.09.19.35.73.73 1.53 1.1 2.32.13.27.25.53.35.76.11.23.11.23.13.28l.1-.56c-.1.09-.27.25-.5.47-.37.35-.74.7-1.09 1.03-.02.01-.02.01-.03.02-.44.41-.8.75-1.07 1-.11.09-.27.09-.38-.01l-2.85-2.56.11.57c.02-.06.02-.06.13-.29.1-.24.22-.49.35-.77.36-.79.74-1.58 1.09-2.32.05-.11.05-.11.1-.22.41-.87.77-1.59 1.05-2.13l.26-.64.19-.46-.47-.19c.31.18.31.18.13.81-.16.09-.16.09-.19.1-.03 0-.03 0-.01 0 .03-.01.09-.01.14-.02s.1-.01.13 0c-.01-.01-.02-.01-.05-.02-.17-.06-.32-.18-.32-.45z"/><path d="m28.08 55.75c-.01.1-.01.1-.01.2-.23 6.32-.07 7.5 1.83 9.52 1.01 1.08 2.54 2.16 5.13 3.69l.29.17.26-.22c.67-.56 2.74-2.18 3.07-2.44 1.02-.84 1.67-1.45 2.13-2.06 1.59-2.13.79-4.22-2.98-7.83-1.04-.94-2.64-1.39-4.76-1.54-1.02-.08-1.95-.08-3.4-.03-.9.02-.87.02-1.12.02h-.47l-.02.46zm.97.03-.49.47c.25-.01.22-.01 1.13-.03 1.42-.05 2.32-.05 3.29.02 1.92.13 3.33.54 4.15 1.27 3.44 3.3 4.06 4.91 2.85 6.52-.4.53-1 1.09-1.97 1.88-.32.25-2.4 1.88-3.08 2.43l.55-.05c-2.53-1.49-3.99-2.53-4.93-3.53-1.65-1.76-1.79-2.78-1.57-8.83 0-.1 0-.1 0-.21z"/><path d="m54.16 56.81c-3.77 3.62-4.57 5.7-2.97 7.84.45.61 1.1 1.22 2.12 2.05.33.27 2.4 1.88 3.06 2.43l.26.21.29-.18c2.59-1.53 4.11-2.62 5.13-3.71 1.89-2.03 2.05-3.21 1.83-9.53-.01-.1-.01-.1-.01-.21l-.02-.48-.48-.01c-.26-.01-.31-.01-1.16-.03-1.45-.05-2.36-.05-3.35.02-2.13.14-3.73.6-4.75 1.52zm.66.71c.81-.74 2.23-1.14 4.15-1.28.95-.07 1.83-.07 3.25-.03.86.02.91.02 1.18.02l-.49-.48v.2c.21 6.04.07 7.06-1.57 8.82-.94 1-2.41 2.04-4.93 3.52l.55.04c-.68-.55-2.74-2.17-3.07-2.44-.97-.79-1.57-1.35-1.97-1.88-1.22-1.62-.6-3.23 2.86-6.55z"/><path d="m66.45 42.13-.03-.06c-2.88-5.79-8.09-10.12-14.36-11.75-.03 0-.06-.02-.09-.02-4.35-1.12-6.2-1.21-10.59-.29-.66.14-1.44.38-2.29.7-5.76 2.17-10.53 6.25-13.69 11.43 0 0-2.38 4.87-2.41 4.96l-.3.82c-.49 4.22-.24 8.34 1.56 12.26 1.1 2.39 1.43 4.9.82 7.65-.36 1.62.21 3.76.76 5.29l.8 1.92 19.27 18.73 18.96-18.79 1.34-1.87c.55-1.53 1.12-3.67.76-5.29-.61-2.75-.28-5.26.82-7.65 1.8-3.92 2.05-8.05 1.56-12.26l-2.87-5.78zm-15.35 19.43c.4-1.15 1.46-2.53 3.4-4.39 2.06-1.86 6.88-1.42 8.92-1.4.26 7.42.59 8.68-6.72 12.99-2.83-2.31-4.98-3.68-5.61-5.26v-1.94zm-10.42-.53v2.92c-.82 1.41-2.82 2.73-5.38 4.82-7.31-4.31-6.98-5.58-6.72-12.99 2.04-.01 6.86-.46 8.92 1.4 1.65 1.58 2.66 2.82 3.18 3.86z" fill="url(#a)"/><path d="m66.88 41.91-.03-.06c-2.97-5.96-8.32-10.36-14.68-12.01l-.13-.02c.05 0 .11.01.1.01-.05-.02-.12-.04-.2-.04v.49l.12-.48c-4.5-1.16-6.42-1.22-10.82-.3-.69.14-1.49.38-2.37.72-5.79 2.17-10.68 6.28-13.94 11.63-.1.19-.23.46-.4.81-.29.57-.57 1.15-.83 1.69-.01 0-.01 0-.01.01-.88 1.78-1.2 2.46-1.23 2.53l-.3.8-.03.11c-.56 4.75-.11 8.8 1.6 12.52 1.08 2.36 1.35 4.76.78 7.33-.34 1.5.01 3.43.77 5.56l.8 1.94.11.16 19.27 18.73.34.33.34-.34 18.96-18.79 1.39-1.94.06-.12c.76-2.13 1.11-4.07.77-5.57-.58-2.58-.3-4.98.78-7.34 1.7-3.72 2.15-7.78 1.6-12.53l-.05-.17-2.87-5.78-.14-.28-.31-.001-.02-.001-.001.49.43-.22zm-.88.43.13.27h.3.02v-.49l-.44.21 2.87 5.78-.05-.17c.53 4.58.1 8.46-1.52 11.99-1.18 2.55-1.48 5.17-.86 7.96.28 1.27-.04 3.05-.75 5.01l.06-.12-1.34 1.87-18.91 18.72.68-.01-19.27-18.73.11.16-.8-1.92c-.7-1.95-1.02-3.73-.74-5 .61-2.79.32-5.41-.86-7.97-1.63-3.54-2.06-7.41-1.52-12l-.03.11.3-.82c0-.02.57-1.19 1.17-2.44 0-.01 0-.01 0-.02.26-.55.54-1.12.82-1.7.16-.35.3-.62.37-.78 3.12-5.13 7.84-9.09 13.42-11.19.83-.32 1.59-.55 2.21-.68 4.24-.89 6.01-.84 10.36.28l.12.01c-.06 0-.12-.02-.11-.02.04.01.11.03.19.03v-.49l-.13.47c6.08 1.58 11.2 5.78 14.04 11.49l.03.06zm-14.45 19.37c.37-1.07 1.4-2.4 3.27-4.2.8-.73 2.22-1.14 4.14-1.27.97-.07 1.87-.07 3.29-.03.9.02.87.02 1.13.02l-.49-.48v.2c.21 6.04.07 7.07-1.57 8.82-.94.99-2.4 2.03-4.93 3.52l.55.04c-.68-.56-2.76-2.18-3.08-2.45-.97-.79-1.57-1.35-1.97-1.89-.2-.26-.34-.5-.43-.74l.03.18v-1.94h-.49v.49l.01-.001.34-.001.11-.33zm-.93-.33.46.16-.001-.49h-.01-.49v.49 1.94l.03.18c.12.32.31.64.55.96.45.61 1.1 1.22 2.12 2.05.33.26 2.4 1.89 3.07 2.43l.26.21.29-.18c2.59-1.54 4.11-2.62 5.13-3.7 1.89-2.03 2.05-3.21 1.83-9.53-.01-.1-.01-.1-.01-.21l-.02-.47-.47-.01c-.25-.01-.22-.01-1.12-.03-1.46-.05-2.39-.05-3.4.02-2.13.15-3.73.6-4.75 1.52-1.99 1.9-3.11 3.34-3.54 4.59zm-10.45-.37v2.92l.06-.25c-.08.12-.17.25-.27.39-.41.53-1 1.09-1.96 1.87-.33.26-2.38 1.87-3.05 2.42l.55-.05c-2.52-1.49-3.99-2.53-4.93-3.53-1.65-1.76-1.79-2.78-1.57-8.83 0-.1 0-.1 0-.21l-.49.47c.26-.01.31-.01 1.18-.03 1.41-.05 2.29-.05 3.25.02 1.92.13 3.33.53 4.15 1.27 1.58 1.51 2.57 2.72 3.07 3.71l.92 1.85v-2.08-.01h-.49-.49zm.98 0h-.98v.01h.49l.43-.22c-.56-1.12-1.62-2.4-3.28-4-1.04-.94-2.64-1.39-4.76-1.54-1-.08-1.91-.08-3.35-.03-.86.02-.91.02-1.16.02h-.48l-.02.47c-.01.1-.01.1-.01.2-.23 6.32-.07 7.5 1.83 9.52 1.01 1.08 2.54 2.17 5.13 3.7l.29.17.26-.22c.66-.54 2.71-2.15 3.04-2.43 1.01-.83 1.65-1.44 2.12-2.05.12-.17.23-.33.32-.5l.06-.12v-.14-2.92z"/><path d="m79.48 39.73c-3.31 5.75-6.51 7.86-11.69 10.5-.38.19-.76.38-1.16.55-9.74 4.28-15.26-11.23-6.29-15.33 2.44-1.12 7.33-4.03 9.07-6.02 2.29-2.63 4.15-4.93 4.95-8.18 1.27-5.12 1.23-5.73 2.24-8.41.73-1.94 1.38-3.7 2.76-5.48 1.47-1.9 3.45-3.27 5.62-4.08l5.25-1.97c-9.72 16.66-6.23 30.58-10.75 38.43z" fill="#fff"/><path d="m78.89 39.39c-2.91 5.03-5.45 7.19-11.42 10.23l.01-.01c-.58.28-.82.4-1.14.53-4.08 1.79-7.73-.13-9.27-4.15-1.53-4-.26-8.23 3.52-9.96 3.12-1.44 7.69-4.36 9.29-6.19 3.07-3.54 4.37-5.54 5.09-8.47.43-1.74 1.21-5.13 1.3-5.48.07-.29.14-.54.21-.79.18-.64.39-1.26.69-2.07.1-.29.15-.43.21-.57.74-1.98 1.25-3.07 2.07-4.23.11-.18.24-.34.37-.51 1.34-1.75 3.19-3.07 5.32-3.87l5.25-1.98-.83-.98c-4.98 8.52-6.36 14.2-8.01 27.38-.74 5.9-1.35 8.61-2.76 11.05l.58.33.67-.001-.001-.01-.001-2.53-1.26 2.18zm1.16.67-.59-.34h-.68v.01 2.52l1.25-2.19c1.52-2.65 2.15-5.48 2.92-11.56 1.62-13.01 2.97-18.55 7.82-26.87l.95-1.64-1.78.66-5.25 1.97c-2.36.87-4.42 2.35-5.92 4.29-.15.18-.29.37-.42.56-.9 1.27-1.45 2.44-2.24 4.52-.06.14-.11.28-.22.57-.32.84-.54 1.5-.74 2.17-.08.26-.15.53-.23.82-.1.37-.89 3.76-1.31 5.48-.66 2.66-1.86 4.51-4.81 7.89-1.45 1.65-5.88 4.48-8.85 5.84-4.48 2.04-5.99 7.04-4.23 11.66 1.79 4.69 6.23 7.02 11.06 4.89.34-.15.6-.28 1.19-.57h-.02c6.19-3.16 8.93-5.49 11.98-10.78z"/><path d="m12.29 39.73c3.31 5.75 6.51 7.86 11.69 10.5.38.19.76.38 1.16.55 9.74 4.28 15.26-11.23 6.29-15.33-2.44-1.12-7.33-4.03-9.07-6.02-2.29-2.63-4.15-4.93-4.95-8.18-1.27-5.12-1.23-5.73-2.24-8.41-.73-1.94-1.38-3.7-2.76-5.48-1.47-1.9-3.45-3.27-5.62-4.08l-5.25-1.98c9.72 16.66 6.23 30.58 10.75 38.43z" fill="#fff"/><path d="m11.7 40.06c3.04 5.29 5.79 7.61 11.96 10.76h.01c.56.28.83.41 1.18.56 4.82 2.11 9.25-.21 11.05-4.91 1.76-4.62.25-9.62-4.23-11.67-2.97-1.37-7.4-4.2-8.85-5.86-2.95-3.39-4.15-5.24-4.81-7.9-.43-1.73-1.22-5.12-1.31-5.49-.08-.3-.15-.57-.23-.83-.2-.67-.42-1.33-.74-2.18-.11-.29-.16-.43-.22-.58-.79-2.08-1.34-3.25-2.24-4.53-.14-.19-.27-.38-.42-.57-1.51-1.95-3.56-3.42-5.92-4.3l-5.25-1.98-1.78-.68.95 1.64c4.85 8.31 6.19 13.86 7.82 26.86.76 6.08 1.39 8.91 2.92 11.55zm1.16-.68c-1.41-2.44-2.02-5.15-2.76-11.06-1.65-13.18-3.03-18.86-8.01-27.39l-.83.97 5.25 1.98c2.12.79 3.97 2.11 5.32 3.86.12.16.25.33.37.5.81 1.16 1.32 2.24 2.07 4.22.05.14.1.28.21.56.3.81.51 1.43.69 2.06.07.24.14.5.21.78.08.35.87 3.74 1.3 5.47.72 2.92 2.02 4.92 5.09 8.46 1.6 1.83 6.17 4.75 9.29 6.19 3.77 1.72 5.05 5.95 3.52 9.95-1.55 4.02-5.19 5.93-9.26 4.14-.33-.14-.58-.26-1.13-.54l-.02-.01c-5.95-3.04-8.5-5.19-11.4-10.23z"/><path d="m46.42 74.23c-.3.28-.74.28-1.04 0l-2.84-2.55s1.77-3.82 2.75-5.72h1.05c.98 1.89 2.75 5.72 2.75 5.72s-1.76 1.7-2.67 2.54z" fill="#fff"/><path d="m46.08 73.87c-.12.1-.26.1-.38 0l-2.85-2.56.11.57c.02-.06.02-.06.13-.29.1-.24.22-.49.35-.77.37-.8.74-1.59 1.1-2.33.04-.1.04-.1.09-.2.41-.87.77-1.6 1.05-2.13l-.44.26h1.05l-.44-.27c.27.53.63 1.25 1.05 2.12.05.1.05.1.1.21.35.73.72 1.52 1.09 2.31.12.27.24.53.35.76.1.23.1.23.13.28l.1-.56c-.1.09-.27.25-.49.46-.37.35-.74.7-1.08 1.02-.02.01-.02.01-.04.03-.44.41-.8.75-1.07 1l-.16.14v.21.01h.49l-.34-.36zm.66.71.15-.15v-.22-.01h-.49l.33.36c.27-.26.63-.6 1.07-1.02.01-.02.01-.02.03-.04.34-.33.71-.69 1.07-1.04.21-.22.39-.38.48-.47l.25-.25-.15-.32c-.03-.06-.03-.06-.14-.3s-.23-.49-.36-.77c-.38-.8-.75-1.59-1.11-2.33-.06-.11-.06-.11-.11-.22-.43-.88-.79-1.61-1.07-2.15l-.14-.27h-.3-1.05-.3l-.14.26c-.29.54-.65 1.27-1.07 2.15-.05.09-.05.09-.1.19-.36.74-.74 1.53-1.11 2.33-.14.27-.26.53-.36.76-.12.23-.12.23-.14.29l-.16.32.26.24 2.84 2.55c.48.44 1.21.44 1.7-.01z"/></svg>