<svg viewBox="-.05 0 2339.61 2484.59" xmlns="http://www.w3.org/2000/svg" xmlns:xlink="http://www.w3.org/1999/xlink"><defs><linearGradient id="a" gradientUnits="userSpaceOnUse" x1="848.27" x2="848.27" y1="1420.58" y2="1759.97"><stop offset="0" stop-color="#18db73"/><stop offset=".533503" stop-color="#00ba79"/><stop offset=".998781" stop-color="#00ba79"/></linearGradient><linearGradient id="b" gradientUnits="userSpaceOnUse" x1="1483.71" x2="1483.71" xlink:href="#a" y1="1420.66" y2="1759.9"/><path id="c" d="m915.52 1458.1c-35.4-32.01-106.05-37.57-165.72-37.53-18.27.01-35.51.54-50.39 1-4.73.13-9.24.27-13.49.38l-.34 9.33c-6.85 187.92-7.98 219.11 175.97 328.66 15.41-12.47 30.08-24 43.82-34.75 63.6-49.9 105.61-82.87 107.55-121.49 1.71-34.3-28.33-79.21-97.45-145.65z"/><path id="d" d="m1646.3 1431.18-.34-9.23c-4.76-.12-9.85-.25-15.19-.42-14.79-.42-31.9-.91-50.02-.88-59.19.09-129.19 5.7-164.54 37.5-68.94 66.4-98.92 111.31-97.18 145.67 1.96 38.73 44.13 71.78 107.98 121.81 13.57 10.63 28.06 21.96 43.27 34.24 183.94-109.55 182.8-140.77 175.97-328.72z"/></defs><path d="m1512.79 2042.85-346.46-346.46-346.46 346.45h-431.63v-431.35l346.73-346.74-346.67-346.68-3.375-431.41h434.64l346.73 346.73 346.74-346.75 433.84.3-2.57 431.37-346.42 346.68 346.46 346.46v431.34h-431.625zm199.78-238.73v-103.56l-278.67-278.68-103.8 103.57 278.9 278.64h103.56zm-988.93 0 278.91-278.65-103.8-103.58-278.68 278.67v103.55h103.56zm442.68-435.55 103.58-103.81-103.59-103.81-103.59 103.8 103.58 103.8zm267.57-267.83 278.66-278.68v-103.56h-103.57l-278.91 278.64 103.79 103.57zm-534.88-.02 103.54-103.55-278.93-278.67h-103.52l.21 103.53 278.67 278.67z" fill="#fff"/><path d="m1521.88 507.98 403.63.28-2.39 401.23-355.28 355.55 355.27 355.27v401.23h-401.53l-355.28-355.27-355.27 355.26h-401.53v-401.24l355.55-355.56-355.56-355.56-3.14-401.24h404.37l355.55 355.55 355.55-355.56m-87.97 622.85 299.93-299.94v-133.66h-133.65l-300.23 299.93 133.93 133.64m-534.89 0 133.64-133.65-300.23-299.94h-133.66l.28 133.65 299.93 299.93m267.29 267.87 133.65-133.94-133.66-133.94-133.65 133.93 133.64 133.93m433.87 426.7h133.64v-133.65l-299.94-299.94-133.94 133.65 300.22 299.93m-1001.4 0h133.65l300.22-299.94-133.94-133.66-299.94 299.93v133.65m905.46-1360.02-12.49 12.47-325.46 325.45-325.46-325.46-12.47-12.47h-464.92l.33 42.9 3.13 401.23.13 17.43 12.32 12.33 325.45 325.45-325.46 325.45-12.47 12.46v461.43h461.72l12.46-12.47 325.16-325.17 325.17 325.16 12.46 12.46h461.72v-461.44l-12.47-12.47-325.19-325.19 325.19-325.46 12.34-12.36.09-17.48 2.38-401.24.25-42.79-42.79-.04-403.64-.29-17.65-.02zm113.55 274.41h73.46v73.45l-257.41 257.4-73.66-73.51 257.59-257.36zm-976.36 0h73.37l257.62 257.38-73.44 73.43-257.41-257.41-.16-73.42zm451.34 524.96 73.52-73.68 73.52 73.67-73.53 73.67-73.53-73.68zm-451.44 444.62 257.4-257.41 73.66 73.5-257.6 257.35h-73.47v-73.46zm718.85-183.91 73.65-73.51 257.4 257.4v73.44h-73.47l-257.6-257.36z"/><path d="m1839.17 1178.18c-3.33-31.84-31.86-205.81-266.67-384.68-141.67-107.92-285.19-136.28-406.55-133.67-121.36-2.62-264.88 25.74-406.55 133.66-234.85 178.89-263.35 352.88-266.68 384.68-5.97 26.87-7.77 55.08-6.43 83.91-2.83 92.39 9.98 182.94 49.8 269.83 31.14 67.8 40.49 139.01 23.21 217.02-4.47 20-3.95 42.8-.67 65.75 10.8 75.66 50.2 144.31 106.16 196.25l501.11 445.14 501.11-445.15c55.96-51.95 95.36-120.6 106.16-196.26 3.27-22.96 3.79-45.76-.67-65.76-17.28-78.02-7.93-149.23 23.21-217.03 39.81-86.89 52.62-177.43 49.8-269.82 1.34-28.85-.47-57.06-6.43-83.95z" fill="#fff"/><path d="m1860.33 1175.97c-1.45-13.87-4.8-31.4-10.78-52.08-8.41-29.1-20.87-60.24-38.11-92.86-45.96-86.98-119.48-173.27-226.07-254.47-69.22-52.73-142.02-89.46-217.77-111.77-66.3-19.53-133.72-27.72-202.13-26.25h.91c-68.42-1.48-135.84 6.71-202.13 26.24-75.76 22.31-148.56 59.03-217.77 111.76-106.6 81.2-180.12 167.51-226.08 254.48-17.24 32.62-29.7 63.75-38.11 92.85-5.98 20.67-9.32 38.2-10.77 52.06l.38-2.4c-6.2 27.91-8.39 57.76-6.91 89.5l-.02-1.64c-3.14 102.66 12.8 194.42 51.73 279.35 30.09 65.51 37.61 132.06 21.78 203.56-4.81 21.53-4.85 46.15-.96 73.36 11.22 78.59 51.61 152.09 112.75 208.84l.17.15.17.15 501.11 445.14 14.13 12.55 14.13-12.56 501.11-445.15.17-.16.17-.16c61.14-56.75 101.53-130.26 112.75-208.85 3.88-27.22 3.84-51.84-.97-73.4-15.83-71.47-8.31-138.02 21.78-203.52 38.92-84.95 54.87-176.7 51.73-279.36l-.02 1.63c1.47-31.76-.72-61.62-6.91-89.54l.38 2.39zm-42.34 4.42.12 1.2.26 1.18c5.33 24.05 7.25 50.18 5.94 78.34l-.04.81.02.81c2.94 96.45-11.88 181.74-47.88 260.3-33.93 73.83-42.51 149.84-24.66 230.49 3.56 15.96 3.59 35.62.37 58.14-9.81 68.62-45.38 133.36-99.58 183.66l.34-.32-501.12 445.14h28.26l-501.12-445.15.34.31c-54.21-50.31-89.78-115.05-99.58-183.67-3.22-22.52-3.19-42.18.37-58.12 17.86-80.69 9.27-156.69-24.66-230.55-36-78.55-50.83-163.85-47.88-260.31l.02-.82-.04-.82c-1.31-28.15.6-54.27 5.94-78.32l.26-1.19.12-1.21c1.19-11.42 4.06-26.48 9.32-44.68 7.6-26.34 18.98-54.77 34.84-84.78 19.62-37.15 45.13-74.83 77.26-112.54 37.36-43.86 82.77-86.7 136.96-127.98 65.07-49.58 133.2-83.95 204-104.8 61.92-18.24 124.99-25.91 189.18-24.52h.45l.45-.01c64.19-1.39 127.26 6.28 189.18 24.51 70.79 20.85 138.92 55.22 204 104.79 54.18 41.27 99.59 84.1 136.95 127.96 32.12 37.7 57.63 75.38 77.26 112.52 15.85 30.01 27.23 58.44 34.84 84.77 5.25 18.2 8.13 33.27 9.33 44.69z"/><path d="m698.59 1227.27c-24.47-.01-50.06-5.62-76.06-16.7l-.24-.1c-9.65-3.98-18.82-8.42-28.52-13.12-67.12-33.16-117.97-61.29-163.74-98.86-48.2-39.57-87.41-87.05-127.14-153.94-44.71-75.26-57.87-178.36-73.12-297.74-21.6-169.16-48.12-376.85-173.46-606.84l79.88 29.2c54.48 19.71 101.08 52.46 134.81 94.72 32.77 40.97 48.46 81.41 66.63 128.23l.94 2.43c17.15 44.11 22.01 64.49 33.77 113.71 5.57 23.31 12.5 52.34 22.89 92.94 21.53 84.78 70.26 143.87 131.74 212.31 48.35 53.6 179.8 128.18 239.81 154.89 41.54 18.4 72.32 48.63 89.05 87.42 15.1 35.03 18.61 77 9.89 118.19-8.875 41.92-29.57 80.28-58.26 108-30.6 29.55-68.27 45.17-108.95 45.17h-.04z" fill="#fff"/><path d="m100.49 78.8 28.45 10.4.13.04c50.72 18.36 94.07 48.77 125.38 88 30.72 38.4 45.86 77.43 63.4 122.62l.95 2.45c16.62 42.75 21.38 62.71 32.91 110.94 5.58 23.37 12.53 52.47 22.95 93.19h-.01c10.61 41.78 28.62 81.26 55.04 120.68 24.17 36.06 53.52 69.49 81.5 100.65l.06.06c28.71 31.82 80.42 66.83 118.76 90.6 43.7 27.09 92.81 53.7 128.17 69.43l.05.02c84.38 37.38 100.12 118.37 86.72 181.71-8.01 37.81-26.55 72.3-52.23 97.11-18.52 17.88-49.89 39.21-94.21 39.21-21.58 0-44.36-5.04-67.7-14.99l-.47-.2c-8.99-3.71-17.82-7.98-27.15-12.5-65.85-32.54-115.54-59.99-159.73-96.26-46.21-37.93-83.93-83.69-122.34-148.37-19.11-32.17-33.31-71.49-44.68-123.77-10.76-49.4-17.98-105.94-25.62-165.79-20.3-158.95-44.89-351.56-150.44-565.36m-91.59-78.81c249.3 414.2 159.78 760.27 275.72 955.44 84.89 142.95 166.97 195.41 299.82 261.04 9.75 4.72 19.49 9.44 29.75 13.67 29.8 12.69 58.1 18.39 84.38 18.39 193.95 0 279.55-309.76 76.94-399.53-62.59-27.85-188.01-100.2-232.64-149.67-58.74-65.39-106.44-122.58-126.97-203.38-32.58-127.29-31.55-142.46-57.46-209.09-18.73-48.23-35.4-91.99-70.79-136.24-37.71-47.24-88.49-81.31-144.15-101.44l-134.66-49.23z"/><path d="m1616.42 1244.27c-40.22-.01-77.5-15.55-107.79-44.94-28.44-27.6-49.01-65.82-57.92-107.63-8.8-41.31-5.4-83.42 9.58-118.6 16.57-38.92 47.14-69.23 88.41-87.65 59.61-26.73 190.11-101.33 238.09-154.91 61.04-68.47 109.42-127.56 130.8-212.37 10.3-40.57 17.18-69.59 22.71-92.9 11.67-49.24 16.5-69.62 33.53-113.73l.93-2.44c18.03-46.83 33.62-87.28 66.14-128.24 33.48-42.27 79.71-75 133.69-94.68l79.07-29.125c-124.39 229.945-150.71 437.625-172.15 606.765-15.13 119.39-28.21 222.5-72.58 297.76-39.44 66.89-78.36 114.36-126.19 153.92-45.42 37.56-95.89 65.68-162.59 98.87l.14-.08-.11.05c-9.62 4.69-18.71 9.125-28.25 13.08l-.24.1c-25.77 11.06-51.125 16.66-75.36 16.66h-.02z" fill="#fff"/><path d="m2209.74 95.97c-104.75 213.75-129.15 406.3-149.29 565.22-7.59 59.86-14.75 116.4-25.43 165.81-11.3 52.29-25.4 91.63-44.37 123.81-38.13 64.67-75.57 110.41-121.42 148.33-43.83 36.24-93.12 63.67-158.44 96.19-9.28 4.52-18.04 8.79-26.96 12.5l-.47.19c-23.11 9.91-45.64 14.94-66.98 14.94-43.68 0-74.67-21.17-92.97-38.93-25.45-24.69-43.89-59.07-51.93-96.79-13.56-63.6 1.88-144.91 85.86-182.39l.06-.03c35.11-15.74 83.88-42.36 127.27-69.47 38.06-23.78 89.41-58.8 117.93-90.65l.06-.07c27.77-31.16 56.9-64.59 80.9-100.66 26.21-39.4 44.07-78.84 54.6-120.57 10.35-40.77 17.25-69.88 22.8-93.27 11.43-48.24 16.17-68.22 32.68-111l.93-2.43c17.41-45.2 32.45-84.24 62.98-122.69 31.01-39.17 73.99-69.56 124.28-87.89l.13-.05 27.67-10.2m91.27-78.98h-.01zm0 0-133.67 49.22c-55.25 20.13-105.66 54.2-143.08 101.43-35.14 44.25-51.69 88.01-70.27 136.23-25.72 66.63-24.7 81.79-57.03 209.08-20.37 80.8-67.73 137.98-126.03 203.37-44.31 49.47-168.79 121.82-230.92 149.66-201.11 89.76-116.12 399.52 76.37 399.52 26.09 0 54.15-5.69 83.76-18.4 10.18-4.23 19.85-8.96 29.52-13.68 131.87-65.64 213.34-118.1 297.61-261.05 115.07-195.17 26.22-541.25 273.68-955.45v-.001z"/><path d="m1180.66 1695.91h-29.41c-27.45 53.03-77.02 160.5-77.02 160.5l91.55 86.36c.09.09.24.09.34 0l91.55-86.37s-49.58-107.47-77.02-160.51z"/><path d="m2108.24 1808.53v401.52h-401.25l189.27 189.27h401.24v-401.53l-189.28-189.28z" fill="#fff"/><path d="m2108.24 1808.53 189.27 189.27v401.52h-401.25l-189.28-189.28h401.24v-401.53m-42-101.4v460.92h-460.64l71.69 71.69 189.27 189.27 12.3 12.3h460.63v-460.93l-12.3-12.31-189.28-189.28-71.71-71.7z"/><path d="m231.27 1808.53v401.52h401.24l-189.28 189.27h-401.25v-401.53l189.27-189.28z" fill="#fff"/><path d="m231.27 1808.53v401.52h401.24l-189.28 189.27h-401.25v-401.53l189.27-189.28m41.99-101.41-71.7 71.69-189.28 189.27-12.31 12.3v460.92h460.63l12.3-12.31 189.27-189.28 71.69-71.7h-460.64v-460.93z"/><use fill="url(#a)" xlink:href="#c"/><use fill="url(#b)" xlink:href="#d"/><use xlink:href="#c"/><use xlink:href="#d"/></svg>