<svg enable-background="new 0 0 240.4 26" viewBox="0 0 240.4 26" xmlns="http://www.w3.org/2000/svg"><g fill="none"><path d="m59.7 5.2h14.6v15.6h-14.6z"/><path d="m155.5 19.8v-11.5l-5.2 5.2z"/><path d="m167.4 20.8h3.6l12-9.3v-6.3h-15.6z"/><path d="m19.9 8.3v-3.1h-14.6v6.3h11.4z"/><path d="m19.9 19.8-4.2-3.1h-10.4v4.1h14.6z"/><path d="m224 5.2c-1 0-2.1.6-2.1 2.1v9.4l11.5-11.5s-1.4 0-2.1 0z"/></g><path d="m240.4 0h-23.6v26h23.6v-4.7s-7.1 0-10.2 0h-5.8l15.9-15.8v-5.5zm-18.5 16.7v-9.4c0-1.5 1-2.1 2.1-2.1h7.3 2.1z"/><path d="m189.7 26h25v-15.6h-9.4l-.2 4.6 4.4.6v5.2h-14.6v-15.6h15.7l1.1 1.9 3 .2v-7.3h-25z"/><path d="m162.7 0v26h10.1l10.2-8.3v8.3h4.7v-26zm20.3 5.2v6.3l-12 9.4h-3.6v-15.7z"/><path d="m147.2 9.4-7.3-9.4h-4.2v26h5.2v-16.6l14.6 16.6h5.2v-26h-4.2zm8.3 10.4-5.2-6.2 5.2-5.2z"/><path d="m125.3 13.5 8.3-4.2v-9.3h-5.2v6.2l-14.6 7.3v-13.5h-5.2v26h5.2v-4.2c0-1.5.8-2.5 2.1-3.1l4.2-2.1 8.3 4.2.1 5.2h5.2l-.1-8.3z"/><path d="m81.3 26h25.3v-8.3h-5.2v3.1s-10.9 0-15.6 0v-15.6h15.6v5.2h5.2v-10.4h-25.3z"/><path d="m54.2 0v26h25.1v-26zm20.1 20.8h-14.6v-15.6h14.6z"/><path d="m47 20.8h-14.6v-20.8h-5.3v26h25l.1-12.5h-5.2z"/><path d="m0 26h25.1v-8.1l-4.2-3.3 4.2-4.8v-9.8h-25.1zm5.3-20.8h14.6v3.1l-3.1 3.1h-11.5zm0 11.5h10.4l4.2 3.1v1h-14.6z"/></svg>