<svg width="57" height="57" viewBox="0 0 57 57" fill="none" xmlns="http://www.w3.org/2000/svg">
<circle cx="28.2118" cy="28.9042" r="27.9784" fill="#3C3B4A"/>
<path fill-rule="evenodd" clip-rule="evenodd" d="M24.1183 23.6528H33.4031C35.9897 23.6528 38.0868 25.7037 38.0868 28.2332V33.6499C38.0868 36.1794 35.9897 38.2303 33.4031 38.2303H24.1183C21.5317 38.2303 19.4346 36.1794 19.4346 33.6499V28.2332C19.4346 25.7037 21.5317 23.6528 24.1183 23.6528ZM28.7556 33.1057C29.3019 33.1057 29.7367 32.6805 29.7367 32.1462V29.7257C29.7367 29.2024 29.3019 28.7772 28.7556 28.7772C28.2205 28.7772 27.7857 29.2024 27.7857 29.7257V32.1462C27.7857 32.6805 28.2205 33.1057 28.7556 33.1057Z" fill="#EAE7ED"/>
<path opacity="0.4" d="M34.8201 22.2065V23.8202C34.4299 23.7112 34.0174 23.6566 33.5937 23.6566H32.869V22.2065C32.869 19.9932 31.0295 18.1942 28.7662 18.1942C26.503 18.1942 24.6634 19.9823 24.6522 22.1847V23.6566H23.9387C23.5039 23.6566 23.0914 23.7112 22.7012 23.8311V22.2065C22.7123 18.9356 25.4215 16.2861 28.7439 16.2861C32.1109 16.2861 34.8201 18.9356 34.8201 22.2065" fill="#EAE7ED"/>
</svg>
