<svg width="136" height="186" viewBox="0 0 136 186" fill="none" xmlns="http://www.w3.org/2000/svg">
<g filter="url(#filter0_d_207_14461)">
<rect x="19" y="12.2637" width="99.8164" height="148.527" fill="#1A1926"/>
<rect x="19.3993" y="12.6629" width="99.0179" height="147.728" stroke="url(#paint0_linear_207_14461)" stroke-opacity="0.2" stroke-width="0.798531"/>
</g>
<g filter="url(#filter1_d_207_14461)">
<rect x="30.1787" y="145.618" width="77.4575" height="21.5603" fill="#2E2D3A"/>
<rect x="30.578" y="146.017" width="76.659" height="20.7618" stroke="url(#paint1_linear_207_14461)" stroke-opacity="0.2" stroke-width="0.798531"/>
</g>
<g filter="url(#filter2_d_207_14461)">
<rect x="30.1787" y="162.388" width="77.4575" height="4.79119" fill="#1AB2E2"/>
<rect x="30.578" y="162.787" width="76.659" height="3.99266" stroke="url(#paint2_linear_207_14461)" stroke-opacity="0.2" stroke-width="0.798531"/>
</g>
<g filter="url(#filter3_b_207_14461)">
<rect x="30.1787" y="29.8311" width="77.4575" height="19.9633" rx="2.39559" fill="url(#paint3_linear_207_14461)"/>
<rect x="30.578" y="30.2303" width="76.659" height="19.1648" rx="1.99633" stroke="url(#paint4_linear_207_14461)" stroke-opacity="0.5" stroke-width="0.798531"/>
</g>
<g filter="url(#filter4_b_207_14461)">
<rect x="30.1787" y="57.78" width="77.4575" height="19.9633" rx="2.39559" fill="url(#paint5_linear_207_14461)"/>
<rect x="30.578" y="58.1793" width="76.659" height="19.1648" rx="1.99633" stroke="url(#paint6_linear_207_14461)" stroke-opacity="0.5" stroke-width="0.798531"/>
</g>
<g filter="url(#filter5_b_207_14461)">
<rect x="30.1787" y="85.7283" width="77.4575" height="19.9633" rx="2.39559" fill="url(#paint7_linear_207_14461)"/>
<rect x="30.578" y="86.1275" width="76.659" height="19.1648" rx="1.99633" stroke="url(#paint8_linear_207_14461)" stroke-opacity="0.5" stroke-width="0.798531"/>
</g>
<g filter="url(#filter6_b_207_14461)">
<rect x="30.1787" y="113.677" width="77.4575" height="19.9633" rx="2.39559" fill="url(#paint9_linear_207_14461)"/>
<rect x="30.578" y="114.076" width="76.659" height="19.1648" rx="1.99633" stroke="url(#paint10_linear_207_14461)" stroke-opacity="0.5" stroke-width="0.798531"/>
</g>
<line x1="39.3631" y1="36.2192" x2="39.3631" y2="43.406" stroke="#EAE7ED" stroke-width="0.798531"/>
<line x1="43.3563" y1="36.2188" x2="43.3563" y2="43.4055" stroke="#EAE7ED" stroke-width="0.798531"/>
<line x1="47.3495" y1="36.2188" x2="47.3495" y2="43.4055" stroke="#EAE7ED" stroke-width="0.798531"/>
<line x1="51.3426" y1="36.2188" x2="51.3426" y2="43.4055" stroke="#EAE7ED" stroke-width="0.798531"/>
<line x1="55.3348" y1="36.2188" x2="55.3348" y2="43.4055" stroke="#EAE7ED" stroke-width="0.798531"/>
<line x1="59.327" y1="36.2188" x2="59.327" y2="43.4055" stroke="#EAE7ED" stroke-width="0.798531"/>
<circle cx="88.8733" cy="39.8125" r="1.99633" fill="#EAE7ED"/>
<circle cx="96.8577" cy="39.8125" r="1.99633" fill="#EAE7ED"/>
<line x1="39.3631" y1="64.1677" x2="39.3631" y2="71.3545" stroke="#EAE7ED" stroke-width="0.798531"/>
<line x1="43.3563" y1="64.1677" x2="43.3563" y2="71.3545" stroke="#EAE7ED" stroke-width="0.798531"/>
<line x1="47.3495" y1="64.1677" x2="47.3495" y2="71.3545" stroke="#EAE7ED" stroke-width="0.798531"/>
<line x1="51.3426" y1="64.1677" x2="51.3426" y2="71.3545" stroke="#EAE7ED" stroke-width="0.798531"/>
<line x1="55.3348" y1="64.1677" x2="55.3348" y2="71.3545" stroke="#EAE7ED" stroke-width="0.798531"/>
<line x1="59.327" y1="64.1677" x2="59.327" y2="71.3545" stroke="#EAE7ED" stroke-width="0.798531"/>
<circle cx="88.8733" cy="67.761" r="1.99633" fill="#EAE7ED"/>
<circle cx="96.8577" cy="67.761" r="1.99633" fill="#E80702"/>
<line x1="39.3631" y1="92.116" x2="39.3631" y2="99.3027" stroke="#EAE7ED" stroke-width="0.798531"/>
<line x1="43.3563" y1="92.116" x2="43.3563" y2="99.3027" stroke="#EAE7ED" stroke-width="0.798531"/>
<line x1="47.3495" y1="92.116" x2="47.3495" y2="99.3027" stroke="#EAE7ED" stroke-width="0.798531"/>
<line x1="51.3426" y1="92.116" x2="51.3426" y2="99.3027" stroke="#EAE7ED" stroke-width="0.798531"/>
<line x1="55.3348" y1="92.116" x2="55.3348" y2="99.3027" stroke="#EAE7ED" stroke-width="0.798531"/>
<line x1="59.327" y1="92.116" x2="59.327" y2="99.3027" stroke="#EAE7ED" stroke-width="0.798531"/>
<circle cx="88.8733" cy="95.7095" r="1.99633" fill="#EAE7ED"/>
<circle cx="96.8577" cy="95.7095" r="1.99633" fill="#EAE7ED"/>
<line x1="39.3631" y1="120.065" x2="39.3631" y2="127.252" stroke="#EAE7ED" stroke-width="0.798531"/>
<line x1="43.3563" y1="120.065" x2="43.3563" y2="127.252" stroke="#EAE7ED" stroke-width="0.798531"/>
<line x1="47.3495" y1="120.065" x2="47.3495" y2="127.252" stroke="#EAE7ED" stroke-width="0.798531"/>
<line x1="51.3426" y1="120.065" x2="51.3426" y2="127.252" stroke="#EAE7ED" stroke-width="0.798531"/>
<line x1="55.3348" y1="120.065" x2="55.3348" y2="127.252" stroke="#EAE7ED" stroke-width="0.798531"/>
<line x1="59.327" y1="120.065" x2="59.327" y2="127.252" stroke="#EAE7ED" stroke-width="0.798531"/>
<circle cx="88.8733" cy="123.658" r="1.99633" fill="#EAE7ED"/>
<circle cx="96.8577" cy="123.658" r="1.99633" fill="#EAE7ED"/>
<circle cx="115.223" cy="138.83" r="20.3625" fill="#3C3B4A"/>
<path fill-rule="evenodd" clip-rule="evenodd" d="M112.243 135.008H119C120.883 135.008 122.409 136.501 122.409 138.342V142.284C122.409 144.125 120.883 145.617 119 145.617H112.243C110.36 145.617 108.834 144.125 108.834 142.284V138.342C108.834 136.501 110.36 135.008 112.243 135.008ZM115.618 141.888C116.015 141.888 116.332 141.578 116.332 141.19V139.428C116.332 139.047 116.015 138.738 115.618 138.738C115.228 138.738 114.912 139.047 114.912 139.428V141.19C114.912 141.578 115.228 141.888 115.618 141.888Z" fill="#EAE7ED"/>
<path opacity="0.4" d="M120.032 133.956V135.13C119.748 135.051 119.448 135.011 119.139 135.011H118.612V133.956C118.612 132.345 117.273 131.036 115.626 131.036C113.979 131.036 112.64 132.337 112.632 133.94V135.011H112.113C111.796 135.011 111.496 135.051 111.212 135.138V133.956C111.22 131.575 113.192 129.647 115.61 129.647C118.06 129.647 120.032 131.575 120.032 133.956Z" fill="#EAE7ED"/>
<defs>
<filter id="filter0_d_207_14461" x="0.633778" y="0.285701" width="130.161" height="178.871" filterUnits="userSpaceOnUse" color-interpolation-filters="sRGB">
<feFlood flood-opacity="0" result="BackgroundImageFix"/>
<feColorMatrix in="SourceAlpha" type="matrix" values="0 0 0 0 0 0 0 0 0 0 0 0 0 0 0 0 0 0 127 0" result="hardAlpha"/>
<feOffset dx="-3.19413" dy="3.19413"/>
<feGaussianBlur stdDeviation="7.58605"/>
<feComposite in2="hardAlpha" operator="out"/>
<feColorMatrix type="matrix" values="0 0 0 0 0 0 0 0 0 0 0 0 0 0 0 0 0 0 0.19 0"/>
<feBlend mode="normal" in2="BackgroundImageFix" result="effect1_dropShadow_207_14461"/>
<feBlend mode="normal" in="SourceGraphic" in2="effect1_dropShadow_207_14461" result="shape"/>
</filter>
<filter id="filter1_d_207_14461" x="11.8125" y="133.64" width="107.802" height="51.9045" filterUnits="userSpaceOnUse" color-interpolation-filters="sRGB">
<feFlood flood-opacity="0" result="BackgroundImageFix"/>
<feColorMatrix in="SourceAlpha" type="matrix" values="0 0 0 0 0 0 0 0 0 0 0 0 0 0 0 0 0 0 127 0" result="hardAlpha"/>
<feOffset dx="-3.19413" dy="3.19413"/>
<feGaussianBlur stdDeviation="7.58605"/>
<feComposite in2="hardAlpha" operator="out"/>
<feColorMatrix type="matrix" values="0 0 0 0 0 0 0 0 0 0 0 0 0 0 0 0 0 0 0.19 0"/>
<feBlend mode="normal" in2="BackgroundImageFix" result="effect1_dropShadow_207_14461"/>
<feBlend mode="normal" in="SourceGraphic" in2="effect1_dropShadow_207_14461" result="shape"/>
</filter>
<filter id="filter2_d_207_14461" x="11.8125" y="150.41" width="107.802" height="35.1355" filterUnits="userSpaceOnUse" color-interpolation-filters="sRGB">
<feFlood flood-opacity="0" result="BackgroundImageFix"/>
<feColorMatrix in="SourceAlpha" type="matrix" values="0 0 0 0 0 0 0 0 0 0 0 0 0 0 0 0 0 0 127 0" result="hardAlpha"/>
<feOffset dx="-3.19413" dy="3.19413"/>
<feGaussianBlur stdDeviation="7.58605"/>
<feComposite in2="hardAlpha" operator="out"/>
<feColorMatrix type="matrix" values="0 0 0 0 0 0 0 0 0 0 0 0 0 0 0 0 0 0 0.19 0"/>
<feBlend mode="normal" in2="BackgroundImageFix" result="effect1_dropShadow_207_14461"/>
<feBlend mode="normal" in="SourceGraphic" in2="effect1_dropShadow_207_14461" result="shape"/>
</filter>
<filter id="filter3_b_207_14461" x="16.6037" y="16.256" width="104.608" height="47.1134" filterUnits="userSpaceOnUse" color-interpolation-filters="sRGB">
<feFlood flood-opacity="0" result="BackgroundImageFix"/>
<feGaussianBlur in="BackgroundImageFix" stdDeviation="6.78752"/>
<feComposite in2="SourceAlpha" operator="in" result="effect1_backgroundBlur_207_14461"/>
<feBlend mode="normal" in="SourceGraphic" in2="effect1_backgroundBlur_207_14461" result="shape"/>
</filter>
<filter id="filter4_b_207_14461" x="16.6037" y="44.205" width="104.608" height="47.1134" filterUnits="userSpaceOnUse" color-interpolation-filters="sRGB">
<feFlood flood-opacity="0" result="BackgroundImageFix"/>
<feGaussianBlur in="BackgroundImageFix" stdDeviation="6.78752"/>
<feComposite in2="SourceAlpha" operator="in" result="effect1_backgroundBlur_207_14461"/>
<feBlend mode="normal" in="SourceGraphic" in2="effect1_backgroundBlur_207_14461" result="shape"/>
</filter>
<filter id="filter5_b_207_14461" x="16.6037" y="72.1532" width="104.608" height="47.1134" filterUnits="userSpaceOnUse" color-interpolation-filters="sRGB">
<feFlood flood-opacity="0" result="BackgroundImageFix"/>
<feGaussianBlur in="BackgroundImageFix" stdDeviation="6.78752"/>
<feComposite in2="SourceAlpha" operator="in" result="effect1_backgroundBlur_207_14461"/>
<feBlend mode="normal" in="SourceGraphic" in2="effect1_backgroundBlur_207_14461" result="shape"/>
</filter>
<filter id="filter6_b_207_14461" x="16.6037" y="100.102" width="104.608" height="47.1134" filterUnits="userSpaceOnUse" color-interpolation-filters="sRGB">
<feFlood flood-opacity="0" result="BackgroundImageFix"/>
<feGaussianBlur in="BackgroundImageFix" stdDeviation="6.78752"/>
<feComposite in2="SourceAlpha" operator="in" result="effect1_backgroundBlur_207_14461"/>
<feBlend mode="normal" in="SourceGraphic" in2="effect1_backgroundBlur_207_14461" result="shape"/>
</filter>
<linearGradient id="paint0_linear_207_14461" x1="8.4622" y1="-32.8179" x2="166.592" y2="8.95591" gradientUnits="userSpaceOnUse">
<stop stop-color="#0A52B0"/>
<stop offset="0.485773" stop-color="#1AB2E2"/>
<stop offset="0.951102" stop-color="#1AB2E2" stop-opacity="0"/>
</linearGradient>
<linearGradient id="paint1_linear_207_14461" x1="22.0014" y1="139.074" x2="65.8415" y2="200.986" gradientUnits="userSpaceOnUse">
<stop stop-color="#0A52B0"/>
<stop offset="0.485773" stop-color="#1AB2E2"/>
<stop offset="0.951102" stop-color="#1AB2E2" stop-opacity="0"/>
</linearGradient>
<linearGradient id="paint2_linear_207_14461" x1="22.0014" y1="160.933" x2="25.1733" y2="181.091" gradientUnits="userSpaceOnUse">
<stop stop-color="#0A52B0"/>
<stop offset="0.485773" stop-color="#1AB2E2"/>
<stop offset="0.951102" stop-color="#1AB2E2" stop-opacity="0"/>
</linearGradient>
<linearGradient id="paint3_linear_207_14461" x1="48.5449" y1="29.8311" x2="129.599" y2="67.1339" gradientUnits="userSpaceOnUse">
<stop stop-color="#1AB2E2" stop-opacity="0.27"/>
<stop offset="1" stop-color="#0A52B0" stop-opacity="0.12"/>
</linearGradient>
<linearGradient id="paint4_linear_207_14461" x1="-15.7368" y1="-81.0177" x2="118.202" y2="58.4769" gradientUnits="userSpaceOnUse">
<stop offset="0.0195753" stop-color="#0A52B0"/>
<stop offset="0.524651" stop-color="#1AB2E2"/>
<stop offset="1" stop-color="#1AB2E2" stop-opacity="0"/>
</linearGradient>
<linearGradient id="paint5_linear_207_14461" x1="48.5449" y1="57.78" x2="129.599" y2="95.0829" gradientUnits="userSpaceOnUse">
<stop stop-color="#1AB2E2" stop-opacity="0.27"/>
<stop offset="1" stop-color="#0A52B0" stop-opacity="0.12"/>
</linearGradient>
<linearGradient id="paint6_linear_207_14461" x1="-15.7368" y1="-53.0687" x2="118.202" y2="86.4259" gradientUnits="userSpaceOnUse">
<stop offset="0.0195753" stop-color="#0A52B0"/>
<stop offset="0.524651" stop-color="#1AB2E2"/>
<stop offset="1" stop-color="#1AB2E2" stop-opacity="0"/>
</linearGradient>
<linearGradient id="paint7_linear_207_14461" x1="48.5449" y1="85.7283" x2="129.599" y2="123.031" gradientUnits="userSpaceOnUse">
<stop stop-color="#1AB2E2" stop-opacity="0.27"/>
<stop offset="1" stop-color="#0A52B0" stop-opacity="0.12"/>
</linearGradient>
<linearGradient id="paint8_linear_207_14461" x1="-15.7368" y1="-25.1205" x2="118.202" y2="114.374" gradientUnits="userSpaceOnUse">
<stop offset="0.0195753" stop-color="#0A52B0"/>
<stop offset="0.524651" stop-color="#1AB2E2"/>
<stop offset="1" stop-color="#1AB2E2" stop-opacity="0"/>
</linearGradient>
<linearGradient id="paint9_linear_207_14461" x1="48.5449" y1="113.677" x2="129.599" y2="150.98" gradientUnits="userSpaceOnUse">
<stop stop-color="#1AB2E2" stop-opacity="0.27"/>
<stop offset="1" stop-color="#0A52B0" stop-opacity="0.12"/>
</linearGradient>
<linearGradient id="paint10_linear_207_14461" x1="-15.7368" y1="2.82823" x2="118.202" y2="142.323" gradientUnits="userSpaceOnUse">
<stop offset="0.0195753" stop-color="#0A52B0"/>
<stop offset="0.524651" stop-color="#1AB2E2"/>
<stop offset="1" stop-color="#1AB2E2" stop-opacity="0"/>
</linearGradient>
</defs>
</svg>
