<svg width="172" height="223" viewBox="0 0 172 223" fill="none" xmlns="http://www.w3.org/2000/svg">
<g filter="url(#filter0_d_207_6003)">
<rect x="20.3486" y="23.0254" width="137.767" height="179.958" fill="#1A1926"/>
<rect x="20.7792" y="23.4559" width="136.906" height="179.097" stroke="url(#paint0_linear_207_6003)" stroke-opacity="0.2" stroke-width="0.861041"/>
</g>
<g clip-path="url(#clip0_207_6003)">
<path d="M119.807 174.608L115.566 170.366L111.325 174.608H106.04V169.327L110.285 165.082L106.041 160.838L106 155.557H111.321L115.566 159.802L119.811 155.557L125.122 155.561L125.091 160.842L120.85 165.086L125.091 169.327V174.608H119.807ZM122.253 171.685V170.418L118.842 167.006L117.571 168.274L120.985 171.685H122.253ZM110.146 171.685L113.561 168.274L112.29 167.006L108.879 170.418V171.685H110.146ZM115.566 166.353L116.834 165.082L115.566 163.812L114.298 165.082L115.566 166.353ZM118.842 163.074L122.253 159.663V158.395H120.985L117.571 161.806L118.842 163.074ZM112.293 163.074L113.561 161.807L110.146 158.395H108.879L108.882 159.663L112.293 163.074Z" fill="white"/>
<path d="M119.919 155.818L124.86 155.821L124.831 160.733L120.481 165.086L124.831 169.435V174.347H119.915L115.566 169.998L111.217 174.347H106.301V169.435L110.654 165.082L106.301 160.73L106.262 155.818H111.213L115.566 160.17L119.919 155.818ZM118.842 163.443L122.514 159.771V158.135H120.877L117.202 161.807L118.842 163.443ZM112.293 163.443L113.93 161.807L110.254 158.135H108.618L108.622 159.771L112.293 163.443ZM115.566 166.722L117.202 165.082L115.566 163.443L113.93 165.082L115.566 166.722ZM120.877 171.946H122.514V170.31L118.842 166.638L117.202 168.274L120.877 171.946ZM108.618 171.946H110.254L113.93 168.274L112.29 166.638L108.618 170.31V171.946ZM119.703 155.296L119.55 155.449L115.566 159.433L111.581 155.449L111.429 155.297H105.737L105.741 155.822L105.78 160.734L105.782 160.947L105.932 161.098L109.917 165.082L105.932 169.067L105.78 169.219V174.868H111.432L111.585 174.716L115.566 170.735L119.547 174.716L119.699 174.868H125.352V169.219L125.199 169.067L121.218 165.086L125.199 161.101L125.35 160.95L125.352 160.736L125.381 155.824L125.384 155.3L124.86 155.3L119.919 155.297L119.703 155.296ZM121.093 158.656H121.992V159.555L118.841 162.706L117.939 161.806L121.093 158.656ZM109.14 158.656H110.039L113.192 161.807L112.293 162.706L109.142 159.555L109.14 158.656ZM114.666 165.082L115.566 164.18L116.466 165.082L115.566 165.984L114.666 165.082ZM109.139 170.526L112.29 167.374L113.192 168.274L110.039 171.425H109.139V170.526ZM117.939 168.274L118.841 167.374L121.992 170.526V171.425H121.093L117.939 168.274Z" fill="#191825"/>
<path d="M123.803 164.022C123.763 163.633 123.413 161.503 120.539 159.313C118.804 157.992 117.047 157.645 115.562 157.677C114.076 157.645 112.319 157.992 110.585 159.313C107.71 161.503 107.361 163.633 107.32 164.023C107.247 164.352 107.225 164.697 107.241 165.05C107.207 166.181 107.364 167.29 107.851 168.353C108.233 169.183 108.347 170.055 108.135 171.01C108.081 171.255 108.087 171.534 108.127 171.815C108.26 172.741 108.742 173.582 109.427 174.218L115.562 179.667L121.696 174.218C122.382 173.582 122.864 172.741 122.996 171.815C123.036 171.534 123.043 171.255 122.988 171.01C122.777 170.055 122.891 169.183 123.272 168.353C123.76 167.29 123.917 166.181 123.882 165.05C123.898 164.697 123.876 164.352 123.803 164.022Z" fill="white" stroke="#191825" stroke-width="0.521083" stroke-miterlimit="500" stroke-linecap="square"/>
<path d="M109.84 164.623C109.54 164.623 109.227 164.555 108.909 164.419L108.906 164.418C108.788 164.369 108.676 164.315 108.557 164.257C107.735 163.851 107.113 163.507 106.552 163.047C105.962 162.563 105.482 161.981 104.996 161.163C104.449 160.241 104.288 158.979 104.101 157.518C103.837 155.447 103.512 152.904 101.978 150.089L102.956 150.446C103.623 150.688 104.193 151.088 104.606 151.606C105.007 152.107 105.199 152.602 105.422 153.176L105.433 153.205C105.643 153.746 105.703 153.995 105.847 154.598C105.915 154.883 106 155.238 106.127 155.735C106.391 156.773 106.987 157.497 107.74 158.335C108.332 158.991 109.941 159.904 110.676 160.231C111.185 160.456 111.561 160.826 111.766 161.301C111.951 161.73 111.994 162.244 111.887 162.748C111.779 163.261 111.525 163.731 111.174 164.07C110.8 164.432 110.338 164.623 109.84 164.623H109.84Z" fill="white"/>
<path d="M102.518 150.564L102.866 150.691L102.868 150.691C103.489 150.916 104.019 151.289 104.403 151.769C104.779 152.239 104.964 152.717 105.179 153.27L105.191 153.3C105.394 153.823 105.452 154.068 105.593 154.658C105.662 154.944 105.747 155.301 105.875 155.799L105.874 155.799C106.004 156.311 106.225 156.794 106.548 157.277C106.844 157.718 107.204 158.127 107.546 158.509L107.547 158.51C107.898 158.899 108.532 159.328 109.001 159.619C109.536 159.951 110.137 160.276 110.57 160.469L110.571 160.469C111.604 160.927 111.796 161.919 111.632 162.694C111.534 163.157 111.307 163.579 110.993 163.883C110.766 164.102 110.382 164.363 109.84 164.363C109.576 164.363 109.297 164.301 109.011 164.179L109.005 164.177C108.895 164.132 108.787 164.079 108.673 164.024C107.867 163.626 107.259 163.29 106.718 162.846C106.152 162.381 105.69 161.821 105.22 161.029C104.986 160.636 104.812 160.154 104.673 159.514C104.541 158.91 104.453 158.218 104.359 157.485C104.111 155.539 103.81 153.181 102.518 150.564ZM101.396 149.599C104.449 154.67 103.353 158.906 104.772 161.296C105.811 163.046 106.816 163.688 108.442 164.491C108.562 164.549 108.681 164.607 108.807 164.659C109.172 164.814 109.518 164.884 109.84 164.884C112.214 164.884 113.262 161.092 110.782 159.993C110.016 159.652 108.48 158.766 107.934 158.161C107.215 157.36 106.631 156.66 106.38 155.671C105.981 154.113 105.993 153.927 105.676 153.111C105.447 152.521 105.243 151.985 104.81 151.443C104.348 150.865 103.726 150.448 103.045 150.202L101.396 149.599Z" fill="#191825"/>
<path d="M121.075 164.832C120.583 164.832 120.127 164.641 119.756 164.281C119.408 163.944 119.156 163.476 119.047 162.964C118.939 162.458 118.981 161.943 119.164 161.512C119.367 161.036 119.741 160.665 120.247 160.439C120.976 160.112 122.574 159.199 123.161 158.543C123.909 157.704 124.501 156.981 124.763 155.943C124.889 155.446 124.973 155.091 125.041 154.805C125.184 154.203 125.243 153.953 125.451 153.413L125.463 153.383C125.684 152.81 125.874 152.315 126.273 151.813C126.682 151.296 127.248 150.895 127.909 150.654L128.877 150.298C127.355 153.113 127.032 155.655 126.77 157.726C126.585 159.188 126.425 160.45 125.881 161.371C125.399 162.19 124.922 162.772 124.337 163.256C123.781 163.716 123.163 164.06 122.346 164.466L122.348 164.465L122.347 164.466C122.229 164.524 122.118 164.578 122.001 164.626L121.998 164.627C121.683 164.763 121.372 164.832 121.076 164.832H121.075Z" fill="white"/>
<path d="M128.339 150.774C127.057 153.39 126.758 155.748 126.512 157.693C126.419 158.426 126.331 159.118 126.2 159.723C126.062 160.363 125.89 160.845 125.657 161.239C125.191 162.031 124.732 162.591 124.171 163.055C123.634 163.499 123.031 163.834 122.231 164.233C122.118 164.288 122.011 164.34 121.901 164.386L121.896 164.388C121.613 164.509 121.337 164.571 121.076 164.571C120.541 164.571 120.162 164.312 119.938 164.094C119.626 163.792 119.4 163.371 119.302 162.91C119.136 162.131 119.325 161.136 120.353 160.677L120.354 160.676C120.784 160.484 121.381 160.158 121.912 159.826C122.378 159.535 123.007 159.106 123.356 158.716L123.357 158.715C123.697 158.334 124.053 157.925 124.347 157.483C124.668 157.001 124.886 156.518 125.015 156.007L125.015 156.007C125.142 155.508 125.227 155.152 125.295 154.866C125.435 154.275 125.493 154.03 125.695 153.507L125.706 153.477C125.919 152.924 126.103 152.446 126.477 151.975C126.857 151.496 127.383 151.124 127.999 150.899L128 150.898L128.339 150.774ZM129.457 149.807L127.82 150.41C127.144 150.656 126.527 151.073 126.069 151.651C125.639 152.193 125.436 152.729 125.208 153.319C124.894 154.135 124.906 154.321 124.51 155.879C124.261 156.868 123.681 157.568 122.968 158.369C122.425 158.974 120.901 159.86 120.141 160.201C117.679 161.3 118.719 165.092 121.076 165.092C121.395 165.092 121.739 165.022 122.101 164.867C122.226 164.815 122.344 164.757 122.463 164.699C124.077 163.896 125.075 163.254 126.106 161.504C127.515 159.114 126.427 154.878 129.457 149.807Z" fill="#191825"/>
<path d="M115.741 170.36H115.381C115.045 171.01 114.438 172.325 114.438 172.325L115.559 173.383C115.56 173.384 115.562 173.384 115.563 173.383L116.684 172.325C116.684 172.325 116.077 171.01 115.741 170.36Z" fill="#191825"/>
<path d="M127.098 171.739V176.654H122.186L124.503 178.971H129.415V174.056L127.098 171.739Z" fill="white"/>
<path d="M127.097 171.739L129.414 174.056V178.972H124.502L122.185 176.655H127.097V171.739ZM126.583 170.498V176.14H120.943L121.821 177.018L124.138 179.335L124.289 179.486H129.928V173.843L129.777 173.693L127.46 171.376L126.583 170.498Z" fill="#191825"/>
<path d="M104.119 171.739V176.654H109.031L106.714 178.971H101.802V174.056L104.119 171.739Z" fill="white"/>
<path d="M104.119 171.739V176.655H109.031L106.714 178.972H101.802V174.056L104.119 171.739ZM109.031 176.655H109.032H109.031ZM104.634 170.498L103.756 171.376L101.439 173.693L101.288 173.843V179.486H106.927L107.078 179.335L109.395 177.018L110.273 176.14H104.634V170.498Z" fill="#191825"/>
<path d="M112.496 167.449C112.062 167.057 111.198 166.989 110.467 166.99C110.243 166.99 110.032 166.996 109.85 167.002C109.792 167.004 109.737 167.005 109.685 167.007L109.681 167.121C109.597 169.421 109.584 169.803 111.836 171.144C112.024 170.992 112.204 170.851 112.372 170.719C113.151 170.108 113.665 169.705 113.689 169.232C113.71 168.812 113.342 168.262 112.496 167.449Z" fill="url(#paint1_linear_207_6003)"/>
<path d="M121.442 167.119L121.438 167.006C121.38 167.005 121.318 167.003 121.253 167.001C121.072 166.996 120.862 166.99 120.64 166.99C119.916 166.991 119.059 167.06 118.626 167.449C117.782 168.262 117.415 168.812 117.436 169.233C117.46 169.707 117.977 170.112 118.758 170.724C118.925 170.854 119.102 170.993 119.288 171.143C121.54 169.802 121.526 169.42 121.442 167.119Z" fill="url(#paint2_linear_207_6003)"/>
<path d="M112.496 167.449C112.062 167.057 111.198 166.989 110.467 166.99C110.243 166.99 110.032 166.996 109.85 167.002C109.792 167.004 109.737 167.005 109.685 167.007L109.681 167.121C109.597 169.421 109.584 169.803 111.836 171.144C112.024 170.992 112.204 170.851 112.372 170.719C113.151 170.108 113.665 169.705 113.689 169.232C113.71 168.812 113.342 168.262 112.496 167.449Z" fill="#191825"/>
<path d="M121.442 167.119L121.438 167.006C121.38 167.005 121.318 167.003 121.253 167.001C121.072 166.996 120.862 166.99 120.64 166.99C119.916 166.991 119.059 167.06 118.626 167.449C117.782 168.262 117.415 168.812 117.436 169.233C117.46 169.707 117.977 170.112 118.758 170.724C118.925 170.854 119.102 170.993 119.288 171.143C121.54 169.802 121.526 169.42 121.442 167.119Z" fill="#191825"/>
</g>
<g filter="url(#filter1_b_207_6003)">
<rect x="32.4033" y="59.1892" width="56.8287" height="11.1935" rx="2.58312" fill="url(#paint3_linear_207_6003)"/>
<rect x="32.8338" y="59.6197" width="55.9677" height="10.3325" rx="2.1526" stroke="url(#paint4_linear_207_6003)" stroke-opacity="0.5" stroke-width="0.861041"/>
</g>
<rect x="92.6758" y="59.1892" width="52.5235" height="11.1935" rx="2.58312" fill="#2E2D3A" fill-opacity="0.4"/>
<rect x="32.4033" y="73.8269" width="47.3573" height="11.1935" rx="2.58312" fill="#2E2D3A" fill-opacity="0.4"/>
<rect x="83.2051" y="73.8269" width="31.8585" height="11.1935" rx="2.58312" fill="#2E2D3A" fill-opacity="0.4"/>
<g filter="url(#filter2_b_207_6003)">
<rect x="118.508" y="73.8269" width="26.6923" height="11.1935" rx="2.58312" fill="url(#paint5_linear_207_6003)"/>
<rect x="118.938" y="74.2574" width="25.8312" height="10.3325" rx="2.1526" stroke="url(#paint6_linear_207_6003)" stroke-opacity="0.5" stroke-width="0.861041"/>
</g>
<g filter="url(#filter3_b_207_6003)">
<rect x="32.4033" y="88.4646" width="72.3275" height="11.1935" rx="2.58312" fill="url(#paint7_linear_207_6003)"/>
<rect x="32.8338" y="88.8951" width="71.4664" height="10.3325" rx="2.1526" stroke="url(#paint8_linear_207_6003)" stroke-opacity="0.5" stroke-width="0.861041"/>
</g>
<rect x="108.175" y="88.4646" width="37.0248" height="11.1935" rx="2.58312" fill="#2E2D3A" fill-opacity="0.4"/>
<rect x="32.4033" y="103.102" width="37.0248" height="11.1935" rx="2.58312" fill="#2E2D3A" fill-opacity="0.4"/>
<g filter="url(#filter4_b_207_6003)">
<rect x="72.8721" y="103.102" width="72.3275" height="11.1935" rx="2.58312" fill="url(#paint9_linear_207_6003)"/>
<rect x="73.3026" y="103.533" width="71.4664" height="10.3325" rx="2.1526" stroke="url(#paint10_linear_207_6003)" stroke-opacity="0.5" stroke-width="0.861041"/>
</g>
<g filter="url(#filter5_b_207_6003)">
<rect x="32.4033" y="117.74" width="26.6923" height="11.1935" rx="2.58312" fill="url(#paint11_linear_207_6003)"/>
<rect x="32.8338" y="118.171" width="25.8312" height="10.3325" rx="2.1526" stroke="url(#paint12_linear_207_6003)" stroke-opacity="0.5" stroke-width="0.861041"/>
</g>
<rect x="62.54" y="117.74" width="47.3573" height="11.1935" rx="2.58312" fill="#2E2D3A" fill-opacity="0.4"/>
<rect x="113.341" y="117.74" width="31.8585" height="11.1935" rx="2.58312" fill="#2E2D3A" fill-opacity="0.4"/>
<circle cx="89.6626" cy="22.595" r="21.9566" fill="#3C3B4A"/>
<path fill-rule="evenodd" clip-rule="evenodd" d="M86.45 18.4736H93.7365C95.7664 18.4736 97.4121 20.0831 97.4121 22.0682V26.319C97.4121 28.3041 95.7664 29.9136 93.7365 29.9136H86.45C84.4202 29.9136 82.7744 28.3041 82.7744 26.319V22.0682C82.7744 20.0831 84.4202 18.4736 86.45 18.4736ZM90.0893 25.892C90.518 25.892 90.8592 25.5583 90.8592 25.1391V23.2395C90.8592 22.8288 90.518 22.4951 90.0893 22.4951C89.6693 22.4951 89.3281 22.8288 89.3281 23.2395V25.1391C89.3281 25.5583 89.6693 25.892 90.0893 25.892Z" fill="#EAE7ED"/>
<path opacity="0.4" d="M94.8485 17.339V18.6054C94.5422 18.5198 94.2185 18.477 93.886 18.477H93.3173V17.339C93.3173 15.6021 91.8737 14.1902 90.0976 14.1902C88.3214 14.1902 86.8778 15.5935 86.869 17.3219V18.477H86.3091C85.9678 18.477 85.6441 18.5198 85.3379 18.6139V17.339C85.3466 14.7721 87.4727 12.6929 90.0801 12.6929C92.7224 12.6929 94.8485 14.7721 94.8485 17.339Z" fill="#EAE7ED"/>
<line x1="32.4033" y1="147.446" x2="84.0658" y2="147.446" stroke="#3C3B4A" stroke-width="0.861041"/>
<line x1="32.4033" y1="154.334" x2="84.0658" y2="154.334" stroke="#3C3B4A" stroke-width="0.861041"/>
<line x1="32.4033" y1="161.223" x2="84.0658" y2="161.223" stroke="#3C3B4A" stroke-width="0.861041"/>
<line x1="32.4033" y1="168.111" x2="84.0658" y2="168.111" stroke="#3C3B4A" stroke-width="0.861041"/>
<line x1="32.4033" y1="174.999" x2="84.0658" y2="174.999" stroke="#3C3B4A" stroke-width="0.861041"/>
<line x1="32.4033" y1="181.888" x2="84.0658" y2="181.888" stroke="#3C3B4A" stroke-width="0.861041"/>
<defs>
<filter id="filter0_d_207_6003" x="0.54468" y="10.1098" width="170.486" height="212.677" filterUnits="userSpaceOnUse" color-interpolation-filters="sRGB">
<feFlood flood-opacity="0" result="BackgroundImageFix"/>
<feColorMatrix in="SourceAlpha" type="matrix" values="0 0 0 0 0 0 0 0 0 0 0 0 0 0 0 0 0 0 127 0" result="hardAlpha"/>
<feOffset dx="-3.44417" dy="3.44417"/>
<feGaussianBlur stdDeviation="8.17989"/>
<feComposite in2="hardAlpha" operator="out"/>
<feColorMatrix type="matrix" values="0 0 0 0 0 0 0 0 0 0 0 0 0 0 0 0 0 0 0.19 0"/>
<feBlend mode="normal" in2="BackgroundImageFix" result="effect1_dropShadow_207_6003"/>
<feBlend mode="normal" in="SourceGraphic" in2="effect1_dropShadow_207_6003" result="shape"/>
</filter>
<filter id="filter1_b_207_6003" x="17.7656" y="44.5515" width="86.1045" height="40.469" filterUnits="userSpaceOnUse" color-interpolation-filters="sRGB">
<feFlood flood-opacity="0" result="BackgroundImageFix"/>
<feGaussianBlur in="BackgroundImageFix" stdDeviation="7.31885"/>
<feComposite in2="SourceAlpha" operator="in" result="effect1_backgroundBlur_207_6003"/>
<feBlend mode="normal" in="SourceGraphic" in2="effect1_backgroundBlur_207_6003" result="shape"/>
</filter>
<filter id="filter2_b_207_6003" x="103.87" y="59.1892" width="55.9678" height="40.469" filterUnits="userSpaceOnUse" color-interpolation-filters="sRGB">
<feFlood flood-opacity="0" result="BackgroundImageFix"/>
<feGaussianBlur in="BackgroundImageFix" stdDeviation="7.31885"/>
<feComposite in2="SourceAlpha" operator="in" result="effect1_backgroundBlur_207_6003"/>
<feBlend mode="normal" in="SourceGraphic" in2="effect1_backgroundBlur_207_6003" result="shape"/>
</filter>
<filter id="filter3_b_207_6003" x="17.7656" y="73.8269" width="101.603" height="40.469" filterUnits="userSpaceOnUse" color-interpolation-filters="sRGB">
<feFlood flood-opacity="0" result="BackgroundImageFix"/>
<feGaussianBlur in="BackgroundImageFix" stdDeviation="7.31885"/>
<feComposite in2="SourceAlpha" operator="in" result="effect1_backgroundBlur_207_6003"/>
<feBlend mode="normal" in="SourceGraphic" in2="effect1_backgroundBlur_207_6003" result="shape"/>
</filter>
<filter id="filter4_b_207_6003" x="58.2344" y="88.4646" width="101.603" height="40.469" filterUnits="userSpaceOnUse" color-interpolation-filters="sRGB">
<feFlood flood-opacity="0" result="BackgroundImageFix"/>
<feGaussianBlur in="BackgroundImageFix" stdDeviation="7.31885"/>
<feComposite in2="SourceAlpha" operator="in" result="effect1_backgroundBlur_207_6003"/>
<feBlend mode="normal" in="SourceGraphic" in2="effect1_backgroundBlur_207_6003" result="shape"/>
</filter>
<filter id="filter5_b_207_6003" x="17.7656" y="103.102" width="55.9678" height="40.469" filterUnits="userSpaceOnUse" color-interpolation-filters="sRGB">
<feFlood flood-opacity="0" result="BackgroundImageFix"/>
<feGaussianBlur in="BackgroundImageFix" stdDeviation="7.31885"/>
<feComposite in2="SourceAlpha" operator="in" result="effect1_backgroundBlur_207_6003"/>
<feBlend mode="normal" in="SourceGraphic" in2="effect1_backgroundBlur_207_6003" result="shape"/>
</filter>
<linearGradient id="paint0_linear_207_6003" x1="5.80436" y1="-31.5962" x2="219.899" y2="32.8313" gradientUnits="userSpaceOnUse">
<stop stop-color="#0A52B0"/>
<stop offset="0.485773" stop-color="#1AB2E2"/>
<stop offset="0.951102" stop-color="#1AB2E2" stop-opacity="0"/>
</linearGradient>
<linearGradient id="paint1_linear_207_6003" x1="111.672" y1="166.99" x2="111.672" y2="171.144" gradientUnits="userSpaceOnUse">
<stop stop-color="#18DB73"/>
<stop offset="0.533503" stop-color="#00BA79"/>
<stop offset="0.998781" stop-color="#00BA79"/>
</linearGradient>
<linearGradient id="paint2_linear_207_6003" x1="119.452" y1="166.99" x2="119.452" y2="171.143" gradientUnits="userSpaceOnUse">
<stop stop-color="#18DB73"/>
<stop offset="0.533503" stop-color="#00BA79"/>
<stop offset="0.998781" stop-color="#00BA79"/>
</linearGradient>
<linearGradient id="paint3_linear_207_6003" x1="45.8782" y1="59.1892" x2="98.763" y2="91.0361" gradientUnits="userSpaceOnUse">
<stop stop-color="#1AB2E2" stop-opacity="0.27"/>
<stop offset="1" stop-color="#0A52B0" stop-opacity="0.18"/>
</linearGradient>
<linearGradient id="paint4_linear_207_6003" x1="-1.28381" y1="-2.96438" x2="70.4166" y2="94.7463" gradientUnits="userSpaceOnUse">
<stop stop-color="#0A52B0"/>
<stop offset="0.524651" stop-color="#1AB2E2"/>
<stop offset="1" stop-color="#1AB2E2" stop-opacity="0"/>
</linearGradient>
<linearGradient id="paint5_linear_207_6003" x1="124.837" y1="73.8269" x2="156.177" y2="82.6915" gradientUnits="userSpaceOnUse">
<stop stop-color="#1AB2E2" stop-opacity="0.27"/>
<stop offset="1" stop-color="#0A52B0" stop-opacity="0.18"/>
</linearGradient>
<linearGradient id="paint6_linear_207_6003" x1="102.685" y1="11.6733" x2="170.941" y2="55.3628" gradientUnits="userSpaceOnUse">
<stop stop-color="#0A52B0"/>
<stop offset="0.524651" stop-color="#1AB2E2"/>
<stop offset="1" stop-color="#1AB2E2" stop-opacity="0"/>
</linearGradient>
<linearGradient id="paint7_linear_207_6003" x1="49.5531" y1="88.4646" x2="107.33" y2="132.747" gradientUnits="userSpaceOnUse">
<stop stop-color="#1AB2E2" stop-opacity="0.27"/>
<stop offset="1" stop-color="#0A52B0" stop-opacity="0.18"/>
</linearGradient>
<linearGradient id="paint8_linear_207_6003" x1="-10.4712" y1="26.311" x2="54.5766" y2="139.132" gradientUnits="userSpaceOnUse">
<stop stop-color="#0A52B0"/>
<stop offset="0.524651" stop-color="#1AB2E2"/>
<stop offset="1" stop-color="#1AB2E2" stop-opacity="0"/>
</linearGradient>
<linearGradient id="paint9_linear_207_6003" x1="90.0219" y1="103.102" x2="147.799" y2="147.384" gradientUnits="userSpaceOnUse">
<stop stop-color="#1AB2E2" stop-opacity="0.27"/>
<stop offset="1" stop-color="#0A52B0" stop-opacity="0.18"/>
</linearGradient>
<linearGradient id="paint10_linear_207_6003" x1="29.9975" y1="40.9487" x2="95.0454" y2="153.769" gradientUnits="userSpaceOnUse">
<stop stop-color="#0A52B0"/>
<stop offset="0.524651" stop-color="#1AB2E2"/>
<stop offset="1" stop-color="#1AB2E2" stop-opacity="0"/>
</linearGradient>
<linearGradient id="paint11_linear_207_6003" x1="38.7324" y1="117.74" x2="70.0728" y2="126.605" gradientUnits="userSpaceOnUse">
<stop stop-color="#1AB2E2" stop-opacity="0.27"/>
<stop offset="1" stop-color="#0A52B0" stop-opacity="0.18"/>
</linearGradient>
<linearGradient id="paint12_linear_207_6003" x1="16.5806" y1="55.5864" x2="84.8362" y2="99.2759" gradientUnits="userSpaceOnUse">
<stop stop-color="#0A52B0"/>
<stop offset="0.524651" stop-color="#1AB2E2"/>
<stop offset="1" stop-color="#1AB2E2" stop-opacity="0"/>
</linearGradient>
<clipPath id="clip0_207_6003">
<rect width="28.6408" height="30.4169" fill="white" transform="translate(101.287 149.598)"/>
</clipPath>
</defs>
</svg>
